<?xml version="1.0" encoding="utf-8"?>
<!-- Generator: Adobe Illustrator 26.1.0, SVG Export Plug-In . SVG Version: 6.00 Build 0)  -->
<svg version="1.1" id="Layer_1" xmlns="http://www.w3.org/2000/svg" xmlns:xlink="http://www.w3.org/1999/xlink" x="0px" y="0px"
	 viewBox="0 0 583.8 583.8" style="enable-background:new 0 0 583.8 583.8;" xml:space="preserve">
<style type="text/css">
	.st0{fill:#F9CCCF;}
	.st1{fill:#231F20;}
	.st2{fill:#FFFFFF;}
	.st3{fill:#5BE8C8;}
</style>
<g id="Group_720_00000042710381831308365050000009550664839462268834_" transform="translate(9 6)">
	<g transform="matrix(1, 0, 0, 1, -9, -6)">
		<path id="Path_70-2_00000155115347545443886320000013475684980799123646_" class="st0" d="M291.9,6
			c156.2,0,282.9,126.7,282.9,282.9S448.1,571.8,291.9,571.8S9,445.1,9,288.9S135.7,6,291.9,6z"/>
	</g>
	<g>
		<g>
			<path class="st1" d="M410.4,400H131.5c-26,0-47.1-21.1-47.1-47.1V198.2c0-26,21.1-47.1,47.1-47.1h278.9c26,0,47.1,21.1,47.1,47.1
				v154.7C457.5,378.9,436.4,400,410.4,400z M131.5,162.9c-19.4,0-35.2,15.8-35.2,35.2v154.7c0,19.4,15.8,35.2,35.2,35.2h278.9
				c19.4,0,35.2-15.8,35.2-35.2V198.2c0-19.4-15.8-35.2-35.2-35.2H131.5z"/>
		</g>
		<g>
			
				<rect x="158" y="157" transform="matrix(-1 -1.224647e-16 1.224647e-16 -1 568.3864 551.059)" class="st3" width="252.4" height="237.1"/>
			<path d="M410.4,400H158c-3.3,0-5.9-2.7-5.9-5.9V157c0-3.3,2.7-5.9,5.9-5.9h252.4c3.3,0,5.9,2.7,5.9,5.9v237.1
				C416.3,397.3,413.7,400,410.4,400z M163.9,388.1h240.6V162.9H163.9V388.1z"/>
		</g>
		<g>
			<path class="st1" d="M125.9,302.5c-3.3,0-5.9-2.7-5.9-5.9v-42c0-3.3,2.7-5.9,5.9-5.9c3.3,0,5.9,2.7,5.9,5.9v42
				C131.9,299.8,129.2,302.5,125.9,302.5z"/>
		</g>
		<g>
			<g>
				<path class="st2" d="M275.4,348.3v-14.9c-6.2-0.7-11.8-2.3-16.8-5.1c-4.9-2.7-8.8-6.6-11.5-11.6c-2.7-5-4.1-11.2-4-18.6l0.2-0.4
					h21.5c0,4.5,0.7,8.1,2.2,10.9c1.4,2.8,3.4,4.8,5.9,6.1c2.5,1.3,5.3,1.9,8.5,1.9c3.1,0,5.7-0.6,7.8-1.7c2.1-1.1,3.7-2.7,4.8-4.7
					c1.1-2,1.6-4.4,1.6-7.1c0-2.7-0.5-5.1-1.5-7.1c-1-2-2.6-3.8-4.9-5.4c-2.3-1.6-5.3-3.1-9.1-4.6c-7.5-2.7-13.6-5.6-18.5-8.7
					c-4.9-3-8.5-6.7-10.9-10.8c-2.4-4.2-3.6-9.3-3.6-15.3c0-8.5,2.7-15.4,8.1-20.8c5.4-5.4,12.7-8.6,21.9-9.6v-16.2h12V221
					c8.8,1.3,15.8,5,20.8,11.1c5.1,6.1,7.5,14,7.4,23.7l-0.2,0.4h-21.5c0-5.9-1.2-10.5-3.7-13.8c-2.5-3.2-5.8-4.8-10-4.8
					c-4.3,0-7.6,1.2-9.7,3.7c-2.1,2.5-3.2,5.8-3.2,9.9c0,2.6,0.5,4.9,1.4,6.8c1,1.9,2.6,3.7,4.9,5.3c2.3,1.6,5.4,3.2,9.4,4.7
					c7.4,2.9,13.5,5.9,18.4,9c4.9,3.1,8.5,6.7,10.9,10.8c2.4,4.1,3.6,9.2,3.6,15.2c0,8.7-2.7,15.7-8.1,21c-5.4,5.3-12.7,8.4-22,9.3
					v15H275.4z"/>
			</g>
		</g>
		<g>
			<path class="st2" d="M389.6,438.6L357,406.1c-4.5-4.5-7.6-10.4-8.8-16.7l-2.7-14.4c-0.6-3.2-2.2-6.2-4.5-8.5L300.6,326
				c-6.7-6.7-6.7-17.7,0-24.4l0,0c6.7-6.7,17.7-6.7,24.4,0l0,0c1.2,1.1,23.4,21.6,24.6,20.4l9.3-9.3c6.3-6.3,16.5-6.3,22.9,0
				l2.1,2.1l6-6c6.6-6.6,17.3-6.6,23.9,0l0,0l0,0c6.2-6.2,16.3-6.2,22.5,0l41.9,41.9c5.4,5.4,9.6,11.8,12.5,18.8l7.2,17.7
				c2.3,5.7,1,12.3-3.4,16.7l-51,51c-4.3,4.3-10.7,5.7-16.4,3.5l-17.8-6.8C401.9,448.6,395.2,444.2,389.6,438.6z"/>
			<path class="st1" d="M432.6,465.2c-2.6,0-5.2-0.5-7.6-1.4l-17.8-6.8c-8.2-3.2-15.6-7.9-21.8-14.2l-32.5-32.5
				c-5.4-5.4-9-12.3-10.4-19.8l-2.7-14.4c-0.4-2-1.4-3.9-2.8-5.4l-40.5-40.5c-9-9-9-23.8,0-32.8c9-9,23.8-9,32.8,0
				c1.8,1.8,13.6,12.4,19.5,17.1l6-6c4.2-4.2,9.7-6.5,15.6-6.5c4.9,0,9.6,1.6,13.4,4.6l2-2c7.6-7.6,19.3-8.7,28.1-3.3
				c3.4-2,7.2-3.1,11.2-3.1c5.8,0,11.3,2.3,15.4,6.4l41.9,41.9c6,6,10.6,12.9,13.8,20.8l7.2,17.7c3.2,8,1.4,17-4.7,23.1l-51,51
				C443.6,463.1,438.1,465.2,432.6,465.2z M312.8,302.5c-2.9,0-5.8,1.1-8,3.3c-4.4,4.4-4.4,11.6,0,16l40.5,40.5
				c3.2,3.2,5.3,7.2,6.1,11.6l2.7,14.4c1,5.2,3.4,9.9,7.2,13.6l32.5,32.5c5.1,5.1,11,8.9,17.7,11.5l17.8,6.8
				c3.5,1.3,7.4,0.5,10.1-2.1l51-51c2.7-2.7,3.5-6.7,2.1-10.2l-7.2-17.7c-2.6-6.3-6.3-12-11.2-16.8L432.1,313
				c-3.9-3.9-10.2-3.9-14.1,0c-2.3,2.3-6.1,2.3-8.4,0c-4.3-4.3-11.2-4.3-15.5,0l-6,6c-2.3,2.3-6.1,2.3-8.4,0l-2.1-2.1
				c-1.9-1.9-4.5-3-7.2-3c-2.7,0-5.3,1.1-7.2,3l-9.3,9.3c-1.1,1.1-4,3.2-8.7,0.3c-0.9-0.5-2-1.3-3.3-2.4c-2.1-1.6-4.9-4-8.4-7
				c-5.9-5.1-11.8-10.6-12.6-11.3C318.6,303.6,315.7,302.5,312.8,302.5z"/>
		</g>
	</g>
</g>
</svg>
