<?xml version="1.0" encoding="utf-8"?>
<!-- Generator: Adobe Illustrator 26.1.0, SVG Export Plug-In . SVG Version: 6.00 Build 0)  -->
<svg version="1.1" id="Layer_1" xmlns="http://www.w3.org/2000/svg" xmlns:xlink="http://www.w3.org/1999/xlink" x="0px" y="0px"
	 viewBox="0 0 583.8 583.8" style="enable-background:new 0 0 583.8 583.8;" xml:space="preserve">
<style type="text/css">
	.st0{fill:#F9CCCF;}
	.st1{fill:#231F20;}
	.st2{fill:#FFFFFF;}
	.st3{fill:#5BE8C8;}
</style>
<g id="Group_720" transform="translate(9 6)">
	<g transform="matrix(1, 0, 0, 1, -9, -6)">
		<path id="Path_70-2" class="st0" d="M291.9,6c156.2,0,282.9,126.7,282.9,282.9S448.1,571.8,291.9,571.8S9,445.1,9,288.9
			S135.7,6,291.9,6z"/>
	</g>
	<g>
		<g>
			<path class="st1" d="M336.4,463.3h-133c-25.3,0-45.9-20.6-45.9-45.9V151.1c0-25.3,20.6-45.9,45.9-45.9h133
				c25.3,0,45.9,20.6,45.9,45.9v266.3C382.2,442.7,361.7,463.3,336.4,463.3z M203.3,118.3c-18.1,0-32.8,14.7-32.8,32.8v266.3
				c0,18.1,14.7,32.8,32.8,32.8h133c18.1,0,32.8-14.7,32.8-32.8V151.1c0-18.1-14.7-32.8-32.8-32.8H203.3z"/>
		</g>
		<g>
			<path class="st1" d="M375.7,398.7H164c-3.6,0-6.5-2.9-6.5-6.5v-241c0-3.6,2.9-6.5,6.5-6.5h211.7c3.6,0,6.5,2.9,6.5,6.5v241
				C382.2,395.8,379.3,398.7,375.7,398.7z M170.6,385.6h198.6v-228H170.6V385.6z"/>
		</g>
		<g>
			<path class="st1" d="M289.9,429.3h-40.1c-3.6,0-6.5-2.9-6.5-6.5c0-3.6,2.9-6.5,6.5-6.5h40.1c3.6,0,6.5,2.9,6.5,6.5
				C296.5,426.4,293.5,429.3,289.9,429.3z"/>
		</g>
		<rect x="170.6" y="157.7" class="st2" width="198.6" height="228"/>
		<g>
			<path class="st3" d="M448.9,269.6c39.9-39.9,39.9-104.5,0-144.4c-39.9-39.9-104.5-39.9-144.4,0c-30.3,30.3-37.6,74.8-21.8,112
				l-10.2,64.4l64.4-10.2l0,0C374.1,307.1,418.7,299.9,448.9,269.6z"/>
			<path class="st1" d="M272.5,308.2c-1.7,0-3.4-0.7-4.6-1.9c-1.5-1.5-2.2-3.6-1.8-5.6L276,238c-7.7-19.2-9.8-40.1-6-60.6
				c4-21.6,14.4-41.3,30-56.8c42.4-42.4,111.3-42.4,153.6,0c42.3,42.4,42.3,111.3,0,153.6v0c-15.6,15.6-35.2,26-56.8,30
				c-20.5,3.8-41.4,1.7-60.6-6l-62.6,9.9C273.2,308.1,272.9,308.2,272.5,308.2z M376.8,101.9c-24.5,0-48.9,9.3-67.6,27.9
				c-13.7,13.7-22.8,31-26.4,50c-3.5,18.6-1.4,37.5,5.9,54.8c0.5,1.1,0.6,2.4,0.4,3.6l-8.8,55.5l55.4-8.8c1.2-0.2,2.5-0.1,3.7,0.4
				c17.3,7.3,36.3,9.4,54.8,5.9c19-3.5,36.3-12.6,50-26.4l0,0c37.3-37.3,37.3-97.9,0-135.1C425.7,111.2,401.2,101.9,376.8,101.9z"/>
		</g>
		<g>
			<g>
				<rect x="315.1" y="155.7" class="st2" width="124.2" height="85.6"/>
				<path class="st1" d="M439.2,247.8H315.1c-3.6,0-6.5-2.9-6.5-6.5v-85.6c0-3.6,2.9-6.5,6.5-6.5h124.2c3.6,0,6.5,2.9,6.5,6.5v85.6
					C445.8,244.9,442.8,247.8,439.2,247.8z M321.6,234.7h111.1v-72.6H321.6V234.7z"/>
			</g>
			<g>
				<polygon class="st2" points="315.1,155.7 377.2,211.3 439.2,155.7 				"/>
				<path class="st1" d="M377.2,217.8c-1.6,0-3.1-0.6-4.4-1.7l-62.1-55.7c-2-1.8-2.7-4.7-1.7-7.2c1-2.5,3.4-4.2,6.1-4.2h124.2
					c2.7,0,5.1,1.7,6.1,4.2c1,2.5,0.3,5.4-1.7,7.2l-62.1,55.7C380.3,217.3,378.7,217.8,377.2,217.8z M332.2,162.2l45,40.3l45-40.3
					H332.2z"/>
			</g>
		</g>
	</g>
</g>
</svg>
