<?xml version="1.0" encoding="utf-8"?>
<!-- Generator: Adobe Illustrator 26.1.0, SVG Export Plug-In . SVG Version: 6.00 Build 0)  -->
<svg version="1.1" id="Layer_1" xmlns="http://www.w3.org/2000/svg" xmlns:xlink="http://www.w3.org/1999/xlink" x="0px" y="0px"
	 viewBox="0 0 583.8 583.8" style="enable-background:new 0 0 583.8 583.8;" xml:space="preserve">
<style type="text/css">
	.st0{fill:#F9CCCF;}
	.st1{fill:#231F20;}
	.st2{fill:#FFFFFF;}
	.st3{fill:#5BE8C8;}
</style>
<g id="Group_720_00000059275192733672270850000005775509098291703469_" transform="translate(9 6)">
	<g transform="matrix(1, 0, 0, 1, -9, -6)">
		<path id="Path_70-2_00000093863290723289341450000000769504104550645632_" class="st0" d="M291.9,6
			c156.2,0,282.9,126.7,282.9,282.9S448.1,571.8,291.9,571.8S9,445.1,9,288.9S135.7,6,291.9,6z"/>
	</g>
	<g>
		<g>
			<polygon class="st2" points="433.7,452.1 137.9,452.1 180.3,370.2 391.4,370.2 			"/>
			<path class="st1" d="M433.7,458.2H137.9c-2.1,0-4.1-1.1-5.2-2.9c-1.1-1.8-1.2-4.1-0.2-6l42.3-81.9c1-2,3.1-3.3,5.4-3.3h211.2
				c2.3,0,4.4,1.3,5.4,3.3l42.3,81.9c1,1.9,0.9,4.1-0.2,6C437.8,457,435.8,458.2,433.7,458.2z M147.9,446h275.8l-36-69.7H184
				L147.9,446z"/>
		</g>
		<g>
			<path class="st3" d="M388.2,203.8c0-56.5-45.8-102.4-102.4-102.4s-102.4,45.8-102.4,102.4c0,0-2.5,103,102.4,207.9
				C390.8,306.8,388.2,203.8,388.2,203.8z"/>
			<path d="M285.8,417.8c-1.6,0-3.2-0.6-4.3-1.8c-24.3-24.3-44.9-50.5-61.2-77.9c-13.1-22-23.5-44.8-30.8-67.8
				c-12.4-38.7-12.2-64.6-12.1-66.5c0-59.8,48.7-108.4,108.5-108.4c59.8,0,108.4,48.6,108.5,108.4c0,1.9,0.3,27.8-12.1,66.5
				c-7.4,23-17.8,45.8-30.8,67.8c-16.3,27.4-36.9,53.7-61.2,77.9C289,417.1,287.4,417.8,285.8,417.8z M285.8,107.5
				c-53.1,0-96.3,43.2-96.3,96.3c0,0,0,0.1,0,0.2c0,0.2-0.4,25.6,11.7,63.2c7.1,22.1,17.1,44,29.7,65.1
				c14.8,24.8,33.2,48.6,54.8,70.8c21.6-22.2,40-46,54.8-70.8c12.6-21.1,22.6-43,29.7-65.1c12.2-37.6,11.7-62.9,11.7-63.2
				c0,0,0-0.1,0-0.1C382.1,150.7,338.9,107.5,285.8,107.5z"/>
		</g>
		<g>
			<circle class="st2" cx="285.8" cy="210" r="53.6"/>
			<path class="st1" d="M285.8,269.6c-32.9,0-59.6-26.8-59.6-59.6c0-32.9,26.8-59.6,59.6-59.6c32.9,0,59.6,26.8,59.6,59.6
				C345.5,242.9,318.7,269.6,285.8,269.6z M285.8,162.5c-26.2,0-47.5,21.3-47.5,47.5s21.3,47.5,47.5,47.5
				c26.2,0,47.5-21.3,47.5-47.5S312,162.5,285.8,162.5z"/>
		</g>
		<g>
			<path class="st1" d="M285.8,226c-1.6,0-3.1-0.6-4.2-1.7L258,201.9c-2.4-2.3-2.5-6.2-0.2-8.6c2.3-2.4,6.2-2.5,8.6-0.2l18.5,17.6
				l49.5-69.4c2-2.7,5.7-3.4,8.5-1.4c2.7,2,3.4,5.7,1.4,8.5l-53.6,75.1c-1,1.4-2.6,2.4-4.4,2.5C286.2,226,286,226,285.8,226z"/>
		</g>
	</g>
</g>
</svg>
