<?xml version="1.0" encoding="utf-8"?>
<!-- Generator: Adobe Illustrator 26.1.0, SVG Export Plug-In . SVG Version: 6.00 Build 0)  -->
<svg version="1.1" id="Capa_1" xmlns="http://www.w3.org/2000/svg" xmlns:xlink="http://www.w3.org/1999/xlink" x="0px" y="0px"
	 viewBox="0 0 735.1 425.1" style="enable-background:new 0 0 735.1 425.1;" xml:space="preserve">
<style type="text/css">
	.st0{enable-background:new    ;}
	.st1{fill:#5BE8C8;}
	.st2{fill:#96F3F4;}
	.st3{fill:#564649;}
	.st4{fill:#161415;}
	.st5{fill:#E3D8B4;}
	.st6{fill:#FE964A;}
	.st7{fill:#625255;}
	.st8{fill:#F2ECD1;}
	.st9{fill:#655558;}
	.st10{fill:#FEB95F;}
	.st11{fill:#3F0B18;}
	.st12{fill:#CB6950;}
	.st13{fill:#8B6F6F;}
	.st14{fill:#AE5235;}
	.st15{fill:#97F3F4;}
	.st16{fill:#CC6A50;}
	.st17{fill:#F0EBD0;}
	.st18{fill:#050605;}
	.st19{fill:#8F8583;}
	.st20{fill:#FDB85E;}
	.st21{fill:#715351;}
	.st22{fill:#CB6A50;}
	.st23{fill:#97EEEE;}
	.st24{fill:#96E7E6;}
	.st25{fill:#9AEAE8;}
	.st26{fill:#88A19E;}
	.st27{fill:#AE5134;}
	.st28{fill:#6C5050;}
	.st29{fill:#FCAD57;}
	.st30{fill:#EDDEC9;}
	.st31{fill:#EEBA85;}
	.st32{fill:#3D0A17;}
	.st33{fill:#21110D;}
	.st34{fill:#3A130B;}
	.st35{fill:#060302;}
	.st36{fill:#EDBA86;}
	.st37{fill:#5B4A49;}
</style>
<g class="st0">
	
		<image style="overflow:visible;enable-background:new    ;" width="1922" height="1083" xlink:href="351962C7.png"  transform="matrix(0.3925 0 0 0.3925 -15.2263 0)">
	</image>
</g>
<path class="st1" d="M490.4,396.7c0,0-11.3-124.7-11.9-151.5c-1.1-51.3,42.1-68.1,42.1-77.2c0-9.1-21.7-77.1-21.3-79
	c0.3-1.8,9.1-24.7,14.3-27.2c5.2-2.4,49.7-35.7,49.7-35.7l1.7-2.5v-7.7l73.6-7.1l108.9,32.9l134.5,86l20.1,360.4L490.4,396.7z"/>
<g>
	<path class="st2" d="M283.2,424.5c-22.8,0-45.5,0-68.3,0c-1.3,0-2.5,0.1-3.6-0.5c-1-0.5-1.2-1.3-1.2-2.2
		c-0.1-14.9-0.2-29.9,0.1-44.8c0-0.1,0.1-0.3,0.1-0.5c1.5-2.3,4.3-2.8,6.2-4.7c1.3-0.5,2.8-0.3,4.1-0.5c1.6-0.1,3.2-0.7,3.2-2.7
		s-1.5-2.5-3.2-2.6s-3.4,0-5.1-0.1c-1.1-0.1-2.3,0-3.1-1.1c-0.3-1,0.3-1.8,0.8-2.4c2.8-3.3,5.1-6.8,6.8-10.8
		c0.7-1.4,1.6-2.4,3.3-2.6c4-0.6,7.8-0.2,11.8-0.3c4.8-0.1,6.3-1.3,7.1-6c3.2-17.5,6.4-34.9,9.6-52.4c1.4-7.8,2.9-15.6,4.3-23.4
		c0.2-1.3,0.1-2.9,1.8-3.4c6.8,2.8,13.8,5.1,20.4,8.4c1.6,0.8,3.2,1.6,4.9,2.4V424.5L283.2,424.5z"/>
	<path class="st3" d="M10.1,251.4c-0.7-8.7-1.5-17.4-2-26.1c-0.3-4.6,2.1-8,5.9-9.4c0.9-0.3,1.8-0.1,2.7-0.1c28.3,0,56.6,0,84.9,0
		c4.7,0,7.5,2.6,8.4,7.2c0.5,3,0.7,6.1,0.9,9c0.4,7.5,1.3,15,1.7,22.5c0.5,7.3,1.3,14.7,1.7,22c0.3,5.4,1,10.7,1.1,16.1
		c0.1,3,0.8,5.9,0.5,8.8c-0.5,4.5-2.2,8.2-6.8,9.8c-3.5,0.4-7,0.2-10.5,0.2c-1.8-0.6-3.8-0.1-5.6,0.1c-2.5,0.2-5.1-0.6-7.6-0.1
		c-2.9,0.2-5.8,0-8.6-0.1c-2.8,0.3-5.5,0.1-8.2,0.1c-0.9,0-1.8-0.1-2.1,1.1c0.1,1.2-0.1,2.4-0.5,3.5c0,0.8-0.1,1.5-0.3,2.3
		c-0.3,1.2-0.2,2.4-0.4,3.6c-0.1,0.9,0.4,1.1,1.2,1.1c1,0,1.9,0,2.9,0c4,0,7.8,0,11.7,0c3.2,0.1,3.9,1.1,2.8,4.3
		c-0.8,0.7-1.8,0.8-2.8,0.8c-6.1,0.1-12.1,0.1-18.1,0c-0.8,0-1.6-0.1-2.4-0.6c-1.4-1.6-0.8-3.6-0.5-5.4c1.8-12.3,3.2-24.7,5.1-36.9
		c0.9-5.3,0.7-5.3-4.5-5.3c-4.9,0-9.9,0.1-14.8,0c-2,0-2.9,0.7-3.4,2.7c-1.7,7.8-3.7,15.5-5.4,23.2c-0.1,0.7-0.3,1.3-0.5,1.9
		c-0.4,1.7-1.3,2.6-3.3,2.5c-4.7-0.3-9.4,0.2-14-0.3c-3.4-1.3-5.1-3.8-5.3-7.4c-0.6-1.8,0.2-3.7-0.5-5.5c0-0.3-0.1-0.6-0.1-0.9
		c-0.5-1.8,0.2-3.8-0.5-5.5l-0.1-1.3c-0.6-1.8,0.3-3.8-0.5-5.5c0-0.3,0-0.5-0.1-0.8c-0.5-1.8,0.3-3.8-0.5-5.6c0-0.3,0-0.6-0.1-0.9
		c-0.6-2,0.3-4.1-0.5-6.1c-0.1-0.1-0.1-0.3,0-0.4c-0.7-2,0.3-4-0.5-6l0,0c-0.7-1.9,0.3-4-0.5-5.9c0-0.3,0-0.6-0.1-0.9
		C10,255.4,10.8,253.3,10.1,251.4L10.1,251.4z"/>
	<path class="st2" d="M91.5,393.6c-0.7,0.7-0.4,1.6-0.4,2.4c-0.1,8.8-0.1,17.5-0.1,26.3c0,1.4-0.1,2.3-1.9,2.3
		c-17.6-0.1-35.4-0.1-53-0.1c-1.3-1.2-0.9-2.7-0.9-4.1c0-18,0-36.1,0-54.1c0-10,0-20,0-30c0-3.9,0.7-4.7,4.5-4.7
		c35.2,0,70.5,0,105.6,0c1.3,0,2.5-0.1,3.5,0.9c1,2.8-0.1,4.8-3,5c-3,0.2-6.1,0.6-9.1,0.7c-6.8,0.2-13.6,0.3-20.3,1.4
		c-7.6,1.3-14.2,4.3-18.3,11.2c-2.4,4-3,8.6-3.6,13.2c-0.9,7.9-1.6,15.8-1.5,23.7C93.1,389.7,93.2,391.9,91.5,393.6L91.5,393.6z"/>
	<path class="st4" d="M159.4,257.3c4.3-4.9,9.7-8.1,15.6-10.7c1.8-0.9,3.6-1.8,5.5-2.8c0.9-0.8,1.8-0.7,2.9-0.4
		c5.4,5.5,11.9,4.5,18.4,2.9c1.3-0.3,2.4-0.9,3.7-1.4c0.9-0.3,1.8-0.7,2.8,0.1c1.2,0.7,2.4,1.4,3.6,2c1.8,0.3,3.2,1.1,4.6,2.1
		c6,4.5,11.5,9.5,15.3,16.1c4.6,8,6.4,16.5,5.1,25.7c-1.6,11.2-3.2,22.3-5.9,33.3c-0.3,1.3-0.5,2.8-2,3.4
		c-6.6,0.3-13.2,0.1-19.8,0.1c-1.4,0-2.6-0.5-1.8-2.2c2.9-6.7,1.2-12.6-2.4-18.4c-3.8-4.2-8.7-5.2-14.2-4.5
		c-10.4,1.3-20.1,5-29.4,9.5c-3.4,1.6-6.3,1.8-9.5-0.1c-2.1-1.3-4.3-2.4-6.3-4c-0.9-0.7-2-1.6-3-0.5c-1.1,1.1,0.1,1.9,0.7,2.8
		c0.3,0.5,0.7,0.9,1,1.4c0.5,0.8,1.1,1.6,0.4,2.5c-0.7,0.9-1.6,0.8-2.5,0.4c-1.6-1.5-2.4-3.7-3.6-5.5c-0.9-1.2-1.9-2.4-3.1-3.4
		c-2.4-2.1-5.2-3.2-8.5-2.6c-1.3,0.3-2.7,0.8-4-0.1c-0.4-0.7,0.1-1.2,0.5-1.6c0.5-0.5,1.1-0.8,1.8-0.9c5.1-0.3,7.7-4,10.4-7.4
		c4.9-6.2,8.8-13,12.8-19.8c2.6-4.3,5.1-8.8,7.9-13C156.9,259.2,157.8,257.8,159.4,257.3L159.4,257.3z"/>
	<path class="st4" d="M91.5,393.6c0.6-10,0.8-20.1,2.1-30.1c0.8-6.2,1.7-12.3,6.5-17.1c5.7-5.7,12.8-7.9,20.5-8.5
		c8.5-0.7,17.1-1,25.6-1.3c2.6-0.1,2.2-2.2,2.9-3.6c0.4-1.3,1.5-1.4,2.6-1.4c2.9,0,5.9-0.2,8.8,0.1c0.7,0.1,1.4-0.1,2.2-0.1
		c2.2,0.1,3.3,1.2,3.6,3.3c0.1,0.5,0.1,1,0.1,1.4c0,21.1,0,42.2,0,63.3c0,0.6,0,1.1-0.1,1.7c-0.4,1.8-1.6,3.2-2.7,4.6
		c-3.9,5.3-7.9,10.5-11.9,15.7c-0.7,1-1.4,2.1-2.8,2.3c-1.6,1.1-3.4,0.5-5,0.5c-1.3,0-0.8-1.3-0.8-2c0-8.5,0.1-17,0.1-25.4
		c0-0.8-0.1-1.6-0.1-2.4c-1.4-1.4-0.9-3.2-0.7-4.9c0.5-6.6,0.4-13.2,1.3-19.8c0.1-0.5,0.1-1.2-0.5-1.6c-1.4-1.2-7.1-0.2-8,1.4
		c-8.4,15-18.4,28.9-28.3,42.9c-2.2,3.2-4.6,6.2-6.8,9.3c-0.8,1.1-1.7,2-3,2.6c-5.4,0.1-5.5,0.1-5.4-5.3
		C91.5,410.6,91.5,402.1,91.5,393.6L91.5,393.6z"/>
	<path class="st5" d="M160.2,332.6c-3.7,0.5-7.4-0.3-11.2,0.4c-0.9-0.5-1.8-0.4-2.6-0.4c-35.9,0-71.7,0-107.6-0.1
		c-2.4,0-2.6,1-2.6,2.9c0.1,28.5,0.1,57,0.1,85.5c0,1.1-0.1,2.3-0.1,3.4c-1.3,0-2.5,0-3.8,0c-1.1-0.8-1.1-1.9-1.1-3.1
		c-0.1-24.2,0-48.3,0-72.5c0-1.7,0.5-3.4,1-5c0.1-3.1,0-6.3,0.1-9.4c0.1-1.4-0.6-1.8-1.9-1.8c-12.4,0-24.8,0-37.3,0
		c-1.4,0-2,0.5-1.9,1.9c0.1,0.7,0,1.3,0,2c0,28.4,0,56.9,0,85.3c0,1.1,0.7,2.5-1.4,2.8c-2.4,0.3-2.4-1.1-2.4-2.8
		c0-23.4,0-46.9,0-70.3c0-5.4-0.1-10.8,0-16.2c0-1.8-0.3-2.9-2.4-2.6c-2.4,0.3-2.1-1.3-2.2-2.8c-0.1-1.8,0.3-2.7,2.4-2.6
		c14.8,0.1,29.4,0.1,44.2,0.1c0.5,0,1-0.1,1.4-0.1c1-0.9,2.2-1.1,3.4-1.1c7.6,0,15.1,0,22.7,0c1.3,0,2.5,0,3.4,1.1
		c7.8,0.2,15.5,0.2,23.2,0c0.2-0.2,0.5-0.4,0.7-0.6c1.1-0.6,2.3-0.7,3.4-0.3c2.8,0.9,5.7,0.6,8.6,0.7c10,0.1,20,0,30.1,0
		c1.4,0,2.8,0.1,4.1-0.5c8.4-0.4,16.8-0.4,25.2,0c15.1-0.4,30.2-0.2,45.2-0.3c1.1,0,2.3,0,3.4,0.1c1,0.1,2,0.2,2.4,1.4
		c-1,1.4-2.5,1.1-3.8,1.1c-12.1,0-24.1,0.1-36.2,0c-2.6,0-4.9-0.1-5.7,3.1C161,332.1,160.6,332.3,160.2,332.6L160.2,332.6z"/>
	<path class="st6" d="M228.9,327.3c1.8-4.7,2.5-9.8,3.6-14.7c1.7-8,3-16.1,3.6-24.2c1.2-14.1-4.7-25.4-15.3-34.4
		c-2.9-2.4-6-4.5-9-6.8c3.6-0.9,7.4-1.1,11.1-1.2c1.4-0.1,2.4,0.9,3.4,1.7c5.4,5,9,11.3,12,17.9c3.6,8.2,6,16.8,7.3,25.7
		c0.1,0.4,0.1,0.8,0,1.3c2.2-12.3,4.5-24.6,6.8-36.9c0.2-1,0.3-1.9,0.3-2.9c-0.2-2.4-1.3-3.7-3.6-4.3c-1.3-0.4-3-0.2-4-1.9
		c1.4-0.3,2.6-0.3,3.8-0.1c2.3-0.1,4.5,0.4,6.7,1c3.4,1,4.7,3.6,4.1,6.9c-0.6,3.1-1.1,6.3-1.6,9.4c-1.8,9.2-3.6,18.5-5.3,27.7
		c-3.3,17.6-6.5,35.2-9.7,52.9c-0.7,3.6-2.8,5.4-6.5,5.4c-4.5,0.1-9,0-13.6,0c-0.5-0.4-0.7-1-0.5-1.5c1.4-5.4,2.6-10.9,4.9-15.9
		c1.3-0.9,2.6-0.6,4-0.7c1-0.1,2.3,0.2,2.4-1.4c0.1-1.6-1.1-1.5-2.2-1.6c-0.9-0.1-1.8-0.1-2.6-0.7
		C228.8,327.7,228.8,327.5,228.9,327.3L228.9,327.3z"/>
	<path class="st2" d="M96.9,424.4c7.1-9.7,14.3-19.4,21-29.4c5.9-8.8,11.9-17.5,16.9-26.9c0.6-1.1,1.3-1.5,2.5-1.4
		c1.8,0.1,3.6,0.1,5.4,0c1.4-0.1,1.9,0.3,1.8,1.9c-0.6,8.6-1.1,17.3-1.5,25.9c-0.7,0.9-0.4,1.9-0.4,2.8c-0.1,8.3-0.1,16.5-0.1,24.8
		c0,1.6-0.5,2.3-2.2,2.3C125.8,424.5,111.4,424.5,96.9,424.4L96.9,424.4z"/>
	<path class="st7" d="M60.5,327.2c-9.8,0.2-19.6,0.2-29.4,0c1.1-4.9,2.2-9.7,3.4-14.6c0.5-1.7,0.1-2.2-1.7-2.1c-3.6,0.1-7,0-10.6,0
		c-1,0-2,0.1-2.8-0.5c4.5,0,9.1-0.1,13.6,0c1.6,0,2.3-0.5,2.7-2.1c2-8.8,4.1-17.5,6.1-26.3c0.5-1.9,1.1-2.8,3.2-2.7
		c6.5,0.1,13,0.1,19.5,0c2.1,0,2.7,0.7,2.4,2.8c-1.2,8.3-2.2,16.7-3.4,25C62.5,313.5,61.4,320.3,60.5,327.2L60.5,327.2z"/>
	<path class="st2" d="M32.3,343.8c0,19.1,0.1,38.2,0.1,57.3c0,7.8,0.1,15.5,0.1,23.4c-5.7,0-11.3,0-17,0.1c-2.1,0.1-2.2-1.3-2.3-2.7
		c-0.1-3.6-0.2-7.2,0-10.8c0.5-8.1,1.3-16.1,2.9-24c3-14.6,8-28.4,15.2-41.6C31.6,344.9,31.9,344.4,32.3,343.8L32.3,343.8z"/>
	<path class="st8" d="M229,327.4c0.9,0,1.8,0.1,2.7,0.1c3,0,4,1.3,3.2,4.2c-0.3,1-1,0.9-1.7,1c-1.8,0.1-3.8,0.1-5.6,0.1
		c-0.9,0.9-1.9,0.9-3,0.9c-3,0-6.1,0-9.1,0c-3.1,0-3.3,0.3-3.4,3.4c0,7.4,0,14.9,0,22.3c0,1.9,0,3.8-0.2,5.6
		c0.4,2.5,0.3,4.9,0.1,7.4c0.2,1.3,0.2,2.6-0.8,3.6c0,15.5-0.1,31.1-0.1,46.6c0,0.5,0.1,1,0.2,1.4c-1.3,0.9-2.6,0.4-4,0.5
		c-0.8-0.5-0.9-1.3-1-2.1c-0.3-1-0.2-2-0.2-2.9c0-12.8,0-25.7,0-38.5c0-1.1,0.1-2.3,0.2-3.4c-0.3-1.7-0.2-3.4,0-5.1
		c-0.2-2.5-0.2-4.9,0-7.4c-0.3-4.7-0.1-9.5-0.1-14.2c-0.1-4.8,0-9.7,0-14.5c0-1.7-0.7-2.6-2.4-2.6c-10.5,0-20.9,0-31.3,0
		c-1.8,0-2.6,0.9-2.6,2.7c0,2.8,0,5.6,0,8.4c0,15.5,0,31.1,0.1,46.7c0,1.9-0.6,3.8-0.1,5.6c-0.1,8.3,0.3,16.5-0.1,24.8
		c0.1,1,0.1,1.9-0.7,2.7c-1.3,0-2.5,0-3.7,0c-0.5-0.6-0.9-1.2-0.9-2c0.1-4.2,0.1-8.5,0.1-12.7c0-2.4,0-4.9,0.8-7.2
		c0-22.1,0-44.2,0-66.3c0-2.3-1.2-3.5-3.5-3.6c-0.4,0-0.8-0.1-1.3-0.1c0.1-0.4,0.2-0.8,0.3-1.2c0.5-2.5,2-3.7,4.6-3.7
		c13.9,0,27.7-0.1,41.6-0.1C214.2,327.2,221.6,327.4,229,327.4L229,327.4z"/>
	<path class="st2" d="M159.4,257.3c-6.7,9-11.7,19.2-17.8,28.6c-2.9,4.4-5.9,8.7-9.5,12.5c-1.4,1.5-2.9,2.8-5.3,2.6
		c-1.1-0.1-2.2,0.6-3.3,0.9c-1.7,0.4-1.6-0.9-1.8-1.9c-0.8-2.9-0.7-5.9-0.9-8.8c-0.5-6.6-0.9-13.2-1.6-19.8
		c-0.1-1.3-0.3-2.6,1.1-3.6c11.1-4.7,22.6-7.9,34.4-10.3C156.2,257.5,157.8,256.7,159.4,257.3L159.4,257.3z"/>
	<path class="st9" d="M120.3,268.1c0.5,8,1.1,16.1,1.6,24.1c0.2,2.8,0.5,5.5,0.7,8.3c0.1,0.7-0.1,1.5,1,1.6
		c-0.3,0.3-0.6,0.6-0.9,0.9c0.5,2.8-1.4,6.3-4.5,7.6c-3,1.3-6.3,1.6-9.4-0.2c4.1-1.5,5.8-4.9,5.9-8.8c0.1-6.3-0.7-12.5-1.3-18.8
		c-0.3-3.2-0.4-6.3-0.7-9.5c-0.9-9.8-1.3-19.7-2.4-29.5c-0.6-5.3-0.7-10.7-1.1-16.1c-0.3-3.6-0.2-7.2-3.2-9.9
		c-1.4-1.3-2.8-1.8-4.6-1.8c-19.3,0.1-38.7,0.1-57.9,0c-9.9,0-19.8-0.1-29.6-0.1c1-0.5,2.1-0.4,3.2-0.4c27.7,0,55.2-0.1,82.9-0.1
		c2.6,0,5.3,0.1,7.9,0.1c4.9,0.1,8.5,3.1,8.9,8c0.7,8.2,1.3,16.3,1.9,24.5C119.2,254.7,119.8,261.3,120.3,268.1L120.3,268.1z"/>
	<path class="st10" d="M248.7,246.4l-2.9,0.2v0.2c0.9,0.2,1.7,0.5,2.6,0.5c4-0.1,5.7,3.6,5.1,7.4c-1.6,9.2-3.4,18.3-5.1,27.5
		c-0.8,4.1-1.4,8.4-2.2,12.5c-0.1,0.4-0.1,0.9-0.8,1c-1.1-5.3-1.7-10.6-3.2-15.7c-2.8-9.8-6.3-19.3-12.8-27.5
		c-1.9-2.4-4.1-4.6-6.6-6.6c6.7-0.7,13.4-0.4,20-0.1C244.8,245.9,246.8,245.7,248.7,246.4L248.7,246.4z"/>
	<path class="st11" d="M174.1,213.9c0.5-3.3,0-6.7,0.3-10c0.2-2.5,1.3-3.4,3.5-3.8c9.3-1.5,18.2,0.5,27,3c0.8,0.2,1.3,0.7,1.5,1.4
		c3.2,9.2,3.2,18.1-1.7,26.8c-2.2-0.7-1.5-2.6-1.6-4.2c0-1.3,0.7-2.3,1.6-3.2c0.6-1-0.4-1.2-0.9-1.6c-1.4-0.8-2.8-1.1-4.4-1
		c-2-0.5-4.1-0.4-5.8-1.6c-0.9-0.8-1.1-1.8-1.1-2.9c-0.1-1.1-0.1-2.1-0.1-3.2c-0.1-6.4,1-5.5-5.5-5.6c-2.2-0.1-4.4,0.4-6.5,1
		c-3.2,0.9-3.7,1.8-2.6,4.8C176.4,215,175.3,215.1,174.1,213.9L174.1,213.9z"/>
	<path class="st12" d="M199.7,220.8c1.7-1.1,3,0.1,4.4,0.9c0.2,1.1,1.2,1.7,1.4,2.7c-1.2,0.3-1.4,1.4-1.8,2.3
		c-0.3,1.8-1.1,3.4-2.4,4.6c-1.2,1.1-1.1,2.7-1.4,4.1c-1.7,8.1-3.4,9.5-11.7,9.5c-1.6,0-3.2-0.2-4.7-0.9c-0.9-0.1-1.9-0.2-2.8-0.3
		c-1.6-0.5-2.3-1.6-2.6-3.2c-1-4.6-1.8-9.3-2.1-14c0.3-0.6,1-0.7,1.4-1.2c0.5-0.7,0.7-1.4,1-2.1c0.1-0.3,0.1-0.7,0.2-1
		c0.2-0.9,0.7-1.5,1.6-1.4c0.9,0.1,1.1,0.8,1.3,1.6c0.6,3.4,0.6,3.4,4,3.4c0.7,0,1.3,0,2,0c2.2,0,3.6-1.1,4-3.4
		c0.3-1.9,1.4-2.3,3.7-1.4c0.3,2.2-0.6,4.4,0.5,6.8c1.3-2.2,2.2-4.1,0.9-6.3C197.2,220.6,198.6,221.4,199.7,220.8L199.7,220.8z"/>
	<path class="st13" d="M168.8,424.4c0-0.8,0.1-1.6,0.1-2.4c1.8-2.1,4.3-1.6,6.6-1.9c1.6-0.3,3.2-0.1,4.9-0.4
		c1.6-0.3,2.2-1.1,2.2-2.6c-0.3-4.3,0.5-8.6,0.5-12.9c0-0.9,0.1-1.8,0.5-2.6c0.1-0.1,0.1-0.2,0.1-0.2c3.6-0.7,3.7-3.3,3.2-6
		c-0.5-3.2,1.4-5.1,3.2-7.1c0.3-0.3,0.7-0.4,1.1,0c0.9,1.5,0.6,2.9-0.7,4c-0.9,0.8-1.1,1.8-1.1,2.8c0,7.3,0,14.6,0,21.9
		c0,1.7,0.7,2.6,2.4,2.8c4.1,0.5,8.2,0.5,12.2,1.4c1.2,0.3,2.4,0.5,3.2,1.6c0.1,0.5,0.1,1.1,0.2,1.6
		C194.5,424.4,181.6,424.4,168.8,424.4L168.8,424.4z"/>
	<path class="st14" d="M183.3,244.1c3.4-0.4,6.8,0.3,10.3-0.5c2.4-0.6,4-1.8,4.4-4.3c0.2-1.1,0.6-2,0.7-3.1c0.3-2.8,1-5.4,3.5-7.2
		c0.7-0.5,1-1.4,1.5-2.2c-0.2,1.6,0.1,3.2,0.9,4.5c1.2,4.5,2.4,9.2,3.6,13.7c-1.3,0.5-2.5,0.7-3.7,1.3c-5.6,2.8-11.5,2.4-17.3,1.4
		C185.2,247.3,184.6,245.3,183.3,244.1L183.3,244.1z"/>
	<path class="st15" d="M165,402.5c0.1,6.8,0.5,13.6-0.3,20.3c-1,1.5-2.6,1.3-4.1,1.2c-4,0.6-8,0.9-12-0.1
		C154.1,416.8,159.6,409.6,165,402.5L165,402.5z"/>
	<path class="st16" d="M177.5,213.5c-2.2,0.3-2.3-0.9-1.6-2.5c0.6-1.6,2.1-2.2,3.6-2.7c4.1-1.3,8.4-1.4,12.6-1.1
		c1.4,0.1,1.4,0.8,1.4,2c-0.1,3.4-0.8,6.8,0.3,10.2c-0.6,0.8-1.4,0.7-2.2,0.5c-3.6-1.1-7.1-0.5-10.7-0.4c-1.9,0.1-3.9,0.3-5.7-0.9
		V218c0.1-0.7,0.8-0.9,1.4-1.2C178.9,215.8,178.9,215.8,177.5,213.5L177.5,213.5z"/>
	<path class="st17" d="M175.2,218.4c4,0.1,8,0.1,12.1,0.1c2.2,0,4.4,0.1,6.5,0.7c2,0.5,4,1.1,6,1.6c-0.7,1.7-2.1,0.8-3.2,1.1
		c-0.7,0.5-1.3,0.4-1.8-0.2c-3-0.6-3.1-0.6-2.9,2.4c0.1,2-0.5,2.6-2.4,2.5c-2.2-0.1-4.4-0.1-6.6,0c-1.6,0.1-2.5-0.5-2.2-2.2
		c0.1-0.4,0.1-0.8,0-1.3c-0.1-0.7,0.3-1.7-0.8-1.7c-0.9,0-0.6,0.9-0.8,1.5c-0.1,0.5-0.3,0.9-0.5,1.4c-1.4,0.4-1.5,0.4-1.6-1.3
		c-0.1-1.3-0.1-2.4-1.8-2.4c-1.2,0-2.4,0.1-2.4,1.7c-0.1,1.4,0.2,2.6,2,2.7c1.1,0.1,2.6-0.7,3,1.2c-0.5,0.5-1.2,0.3-1.8,0.5
		c-3.1-0.2-4.7-1.5-4.7-3.9C171,220.1,172.3,218.6,175.2,218.4L175.2,218.4z"/>
	<path class="st18" d="M177.5,213.5c1.3-0.3,2,0.1,2.1,1.4c0.1,1.3-0.1,2.2-1.6,2.4c-0.9,0.1-1.9,0.3-2.8,0.5c-2.4-0.6-2.8-2-1.1-4
		C175.2,213.9,176.5,214.3,177.5,213.5L177.5,213.5z"/>
	<path class="st19" d="M160.7,424.1c1.4-0.4,2.7-0.8,4.1-1.2c0.1,0.5,0.2,1.1,0.3,1.6C163.6,424.4,162.1,425,160.7,424.1z"/>
	<path class="st7" d="M10.6,258.2c1.1,1.9,0.3,4,0.5,5.9C10.5,262.3,10.6,260.2,10.6,258.2z"/>
	<path class="st7" d="M11.1,264.2c1.1,1.9,0.3,4,0.5,6C10.9,268.2,11.1,266.1,11.1,264.2z"/>
	<path class="st7" d="M11.6,270.6c1.1,2,0.3,4,0.5,6.1C11.5,274.6,11.5,272.6,11.6,270.6z"/>
	<path class="st7" d="M10.1,251.4c1.1,2,0.3,4,0.5,6C10,255.4,10,253.4,10.1,251.4z"/>
	<path class="st7" d="M12.1,277.4c1,1.8,0.4,3.7,0.5,5.6C12,281.2,12.1,279.3,12.1,277.4z"/>
	<path class="st7" d="M12.6,283.9c1.1,1.8,0.4,3.7,0.5,5.5C12.4,287.5,12.6,285.7,12.6,283.9z"/>
	<path class="st7" d="M13.1,290.7c1,1.8,0.4,3.7,0.5,5.5C13,294.5,13,292.6,13.1,290.7z"/>
	<path class="st7" d="M13.6,297.1c1,1.8,0.3,3.7,0.5,5.5C13.4,300.8,13.6,298.9,13.6,297.1z"/>
	<path class="st4" d="M211.2,364.9c-0.1-10.2-0.1-20.4-0.1-30.6c0-1.3,0.5-1.7,1.7-1.6c4.9,0.1,9.8,0.1,14.8,0.1
		c-0.9,4.9-2.6,9.6-4,14.5c-0.3,0.9-0.5,1.7-0.7,2.6c-0.6,0.3-1.4,0.2-1.7,1.1c-1.8,5.3-5.2,9.7-8.8,14
		C212,365.2,211.6,365.6,211.2,364.9L211.2,364.9z"/>
	<path class="st20" d="M211.2,364.9c0.4-0.1,0.8-0.1,1.2-0.1c2.7,0.1,5.4,0.1,8.1,0.1c2.9,0.1,4.5,1.4,4.6,3.7
		c0.1,2.4-1.7,3.8-4.7,3.9c-1.3,0.1-2.6,0.1-4,0.1c-1.8,0.7-3.6,1.5-5.3-0.1C211.2,369.9,211.2,367.4,211.2,364.9L211.2,364.9z"/>
	<path class="st21" d="M211.2,372.4c1.8-0.1,3.5-0.3,5.3,0.1c-1.3,1.8-3.2,2.9-5.3,3.4C211.2,374.8,211.2,373.6,211.2,372.4
		L211.2,372.4z"/>
	<path class="st22" d="M108.9,310.4c1.4,0,2.8,0.1,4.1,0.1c5.3,0,7-1.2,9-6.1c0.2-0.5,0.4-0.9,0.6-1.3c1.1-0.1,2.1-0.3,3.2-0.5
		c6.1-0.9,10,1,13.2,6.5c0.1,1.2-0.9,1.3-1.6,1.4c-11.3,2-21.7,6.5-32.2,10.7c-4.1,1.6-8.2,3.3-12.1,5.1c11.3,0,22.7,0,34.1,0
		c1,0,2,0.2,2.9,0.5c0.3,0.1,0.5,0.3,0.5,0.6c-0.9,0.5-1.9,0.3-2.9,0.3c-12.1,0-24.2,0-36.3,0c-2.4,0-4.9-0.2-7.4-0.3
		c-0.4-2.5-2-3.8-4.6-3.8c-3.4,0-6.8,0-10.3,0c-1.6-0.5-3.5,0.1-4.8-1.4c0.1-1.3-0.6-2.6,0.6-3.8c1.6-1.5,3.4-0.2,4.9-0.3
		c-1.4-0.8-3.7-0.5-4.9-2.4c0.8-1.1,0.2-2.3,0.5-3.4c1.1-1,2.3-0.7,3.5-0.5c2.7,0.3,5.3,1.2,8,1.5c0-1.1-1.1-1.6-0.7-2.6
		c3,0,5.9,0,9-0.1c1.6,0.5,3.4,0.7,4.9,1.4c0.7,0.3,1.6,0.5,2.4,0.1c1.9-0.8,4-1.1,5.9-1.6L108.9,310.4L108.9,310.4z"/>
	<path class="st23" d="M76.3,310.6c0.3,0.5,0.7,0.9,1.1,1.3c0.5,0.7,1.9,1.3,1.4,2c-0.6,1-1.9,0.3-2.9,0.1
		c-3.4-0.7-6.8-1.7-10.4-1.8c-0.3-1.6,0.9-1.7,2-1.7C70.5,310.5,73.4,310.5,76.3,310.6L76.3,310.6z"/>
	<path class="st24" d="M98.5,310.5c-5,3.3-9,3.3-13.2,0C89.7,310.5,94.1,310.5,98.5,310.5z"/>
	<path class="st25" d="M65,315.6l8.3,2.6c-0.1,0.3-0.1,0.6-0.2,0.9c-2.7-0.3-5.3-0.5-8-0.8C65.1,317.4,65.1,316.5,65,315.6L65,315.6
		z"/>
	<path class="st7" d="M69,323.2c3.8,0,7.6,0,11.3,0c4.2,0,3.9-0.5,3.9,4l-0.3,0.1l-0.3-0.1c0-3.5,0-3.5-3.7-3.5
		c-3.9,0-7.8-0.1-11.7-0.1C68.4,323.2,68.4,322.8,69,323.2L69,323.2z"/>
	<path class="st26" d="M69,323.2c-0.2,0.1-0.5,0.3-0.7,0.4c-1,0-2,0.1-3,0.1c-0.9-0.1-1.9-0.3-0.9-1.6C66,322.4,67.6,322.4,69,323.2
		z"/>
	<path class="st22" d="M130.8,327.2c-0.3-0.1-0.5-0.1-0.8-0.1c-1.2-0.6-1.8-1.4-1.3-2.8s1.6-1.3,2.9-1.1c1.1,0.1,2,0.7,3,0.6
		c-1.4-0.2-3-0.5-4.5-0.8c-1.6-0.3-2.4-1.3-2.4-3c0.1-1.7,1.2-2.4,2.8-2.6c1.8-0.2,3.4,0.1,5.1,0.5c-1.6-0.5-3.2-0.9-4.4-2
		c-0.8-0.7-1.1-1.6-0.8-2.7s1.2-1.7,2.2-1.6c3.4,0.2,6.9,0.3,9.7,2.6c0.8,0,1.8,0.5,2.2-0.3c0.3-0.7-0.7-1.2-1.1-1.7
		c-0.5-0.7-1.1-1.3-1.6-1.9c-0.9-1.1-1.4-2.2-0.2-3.5c1.2-1.1,2.4-1.2,3.7-0.1c2.6,2.2,5.4,4,8.5,5.3c2,0.9,3.8,0.9,5.8-0.1
		c10.1-4.8,20.4-9.1,31.7-10.2c5.3-0.5,10.4,0.1,14,4.7c0.9,1.6-0.2,2.6-1.2,3.6c-2.4,2.4-5.3,4.2-8.2,5.7c-6.8,3.5-14,5.7-21.5,7.1
		c-4.1,0.8-8.2,1.7-12.2,3c-2,0.7-4.3,0.1-6.2,1.2C147.5,327.2,139.1,327.2,130.8,327.2L130.8,327.2z"/>
	<path class="st27" d="M155.9,327.3c0.1-0.5,0.5-0.9,1-1c7.8-1.7,15.6-3.8,23.4-5.6c8.4-2,16.5-5.1,23-11.1c0.9-0.9,1.8-1.8,1.9-3.1
		c4.9,5.3,6.1,14.6,2.2,20.8c7.3,0,14.4,0,21.5,0l0.1,0.1c-7.4,0.1-14.9,0.1-22.3,0.1c-0.9-0.5-1.9-0.3-2.9-0.3
		C187.8,327.3,171.9,327.3,155.9,327.3L155.9,327.3z"/>
	<path class="st14" d="M142.1,314.2c-2.7-0.6-5.4-1.3-8.2-1.8c-1.1-0.2-2.7-0.7-3.2,0.9s0.9,2.3,2.2,2.8c1.4,0.6,3,1,4.4,1.5
		c0.6,0.2,1.4,0.2,1.3,1.4c-2.6-0.3-5.1-0.6-7.7-0.7c-1.2-0.1-2.6-0.3-2.8,1.5c-0.1,1.7,1,2.2,2.4,2.5c1.7,0.3,3.4,0.6,5.1,0.9
		c0.8,0.1,1.6,0.1,2.1,1.3c-1.9,0.1-3.6-0.3-5.3-0.5c-1.1-0.1-2.2-0.7-3,0.3c-0.9,1,0.1,2,0.5,2.9c-13.4,0-26.9,0-40.3,0l-0.1-0.5
		c4.7-2,9.5-4.1,14.4-6.1c10.1-4.2,20.2-8.2,30.9-10.8c1.4-0.3,3,0.3,4.3-0.8C140.5,310.5,141.3,312.4,142.1,314.2L142.1,314.2z"/>
	<path class="st4" d="M168.8,396.9c0-20.8,0-41.6-0.1-62.5c0-1.4,0.4-1.8,1.8-1.8c11.7,0.1,23.4,0,35,0c1,0,1.8,0,1.8,1.3
		c-0.1,10.3-0.1,20.7-0.2,30.9c-0.9,1-2,1.1-3.2,1.1c-3.6,0-7,0.1-10.6,0c-2.1-0.1-3.4,0.6-4.1,2.6c-0.4,1.1-1.1,2-1.7,3
		c-2.3,3.8-4.7,7.4-7.4,10.9c-2.7,4.6-6.1,8.8-9.2,13.2C170.5,396.4,169.9,397.2,168.8,396.9L168.8,396.9z"/>
	<path class="st2" d="M207.2,422.8c-5.5-1.2-11-1.8-16.6-2c-1.6-0.1-2.1-0.6-2.1-2.2c0-8.4-0.1-16.7-0.2-25c0-0.7-0.3-1.8,0.7-1.8
		c2.8-0.1,1.8-2,1.9-3.6c-1.1-2.7-0.7-5.4,0.1-8c0.3-1,1.2-1.6,2.2-1.7c4.1-0.5,8.1-0.9,12.1-1.6c0.7-0.1,1.3,0.1,1.8,0.5
		C207.2,392.5,207.2,407.7,207.2,422.8L207.2,422.8z"/>
	<path class="st2" d="M168.8,396.9c4-4.7,7.2-9.8,10.7-14.8c0.8-0.9,1.3-0.3,1.6,0.5c0.5,0.9,0.7,1.8,0.7,2.8
		c0.1,2.4,0.1,4.5,2.3,6.3c1.5,1.3,1.1,7.8-0.3,9.7c-0.1,5.6-0.3,11.3-0.3,16.9c0,1.7-0.5,2.4-2.4,2.5c-4.1,0.1-8.4,0.4-12.4,1.3
		C168.6,413.7,168.6,405.3,168.8,396.9L168.8,396.9z"/>
	<path class="st28" d="M183.9,401.4c0-2.8,0-5.5,0-8.3c0-0.6,0.3-1.6-0.7-1.5c-2.2,0.1-2-1.4-2.1-2.8c-0.2-2-0.4-4.1-0.5-6.1
		c-0.1-0.8-0.3-1.1-1.1-0.6c2.4-3.5,4.9-6.9,6.9-10.6c5.8-0.3,11.6-0.1,17.4-0.1c1.3,0,2.5,0,3.4,1.1c0.2,1.6,0.2,3.3,0,4.9
		c-4.4,1-8.8,1.7-13.4,1.8c-1.8,0.1-2.2,0.8-2.3,2.4c-0.1,2.2-0.4,4.3-0.7,6.6c-0.8,1.1-0.1,3.2-2.6,3.3c-0.6,0-0.5,1.1-0.5,1.8
		c0,1.9-0.1,3.8,0.1,5.7c0.2,2-0.3,3.1-2.6,2.7C184.9,401.5,184.4,401.5,183.9,401.4L183.9,401.4z"/>
	<path class="st29" d="M207.2,372.4c-6.2,0-12.4,0-18.6,0c-0.8,0-1.9,0.5-2.2-0.9c0.8-1.3,1.8-2.6,2.2-4.1c0.6-2,1.7-2.5,3.8-2.5
		c4.9,0.1,9.8,0,14.8,0C207.2,367.4,207.2,369.9,207.2,372.4L207.2,372.4z"/>
	<path class="st30" d="M205.6,224.5c-1.4-0.4-1.7-1.4-1.4-2.7C205.1,222.4,206.5,222.8,205.6,224.5z"/>
	<path class="st31" d="M177.5,226.2c-1.2-0.9-2.5-0.3-3.8-0.4c-2.7-0.1-1.9-2.1-2.1-3.6c-0.2-1.5,0.1-2.4,2-2.4
		c3.6,0,3.6-0.1,3.9,3.6c0.1,0.6,0,1.2,0.9,0.9C178.3,225.1,178.1,225.7,177.5,226.2L177.5,226.2z"/>
	<path class="st32" d="M194.7,221.7c0.6,0.1,1.2,0.1,1.8,0.2c1.7,0.3,2.2,1,1.3,2.7c-0.6,1.1-0.7,2.3-1,3.5
		c-0.1,0.7-0.4,1.1-1.1,1.1c-0.6,0-1.3,0.1-1.5-0.5c-0.5-2.1-0.5-4.3-0.5-6.5C193.7,222,194.3,221.8,194.7,221.7L194.7,221.7z"/>
	<path class="st33" d="M179.8,233.7c3.4,0.1,5.3-1.1,6.7-3.4c0.3-0.5,0.7-1.3,1.4-0.7c0.7,0.5,0.2,1.2-0.1,1.7
		C186.2,234.1,183.2,235.3,179.8,233.7L179.8,233.7z"/>
	<path class="st34" d="M187.4,235.7c-0.3,0.9-1.1,0.9-1.8,0.9c-0.5,0-1.1-0.2-1.1-0.7c0.2-0.9,1.1-0.9,1.8-0.9
		C186.8,235,187.3,235.1,187.4,235.7L187.4,235.7z"/>
	<path class="st35" d="M186.2,217.7c-0.7-0.1-1.4-0.1-2.2-0.2c-1.4-0.1-2.2-0.5-2-2c0.1-1.5,0.6-2.5,2.4-2.4
		c1.1,0.1,2.3,0.2,3.4,0.3c1.6,0.1,3,0.1,2.8,2.4c-0.2,2.1-1.4,2.3-3.1,2.1C187,217.7,186.6,217.7,186.2,217.7L186.2,217.7
		L186.2,217.7z"/>
	<path class="st36" d="M186,225.8c-0.3,0-0.7,0-1,0c-3.2,0-4.5-1.8-3.6-5c0.3-0.8,0.9-0.9,1.5-0.9c1.4,0,2.8,0.1,4.1-0.1
		c2.4-0.3,3.2,0.6,3.1,3C190.2,225.8,190.4,225.8,186,225.8L186,225.8z"/>
	<path class="st37" d="M176.2,222.8c0,0.9-0.2,1.8-1.1,1.8c-1.1,0.1-1.4-0.8-1.5-1.8c0-0.8,0.3-1.5,1.2-1.5
		C175.8,221.3,176,222.2,176.2,222.8z"/>
	<path d="M187.6,222.8c-0.1,1-0.4,1.9-1.5,1.9c-1.3,0-1.8-1.1-1.7-2.2c0-1,0.5-1.8,1.6-1.7C187.2,220.8,187.5,221.8,187.6,222.8
		L187.6,222.8z"/>
</g>
<g class="st0">
	
		<image style="overflow:visible;enable-background:new    ;" width="1923" height="1082" xlink:href="351962C5.png"  transform="matrix(0.5997 0 0 0.5997 -15.737 -906.6729)">
	</image>
</g>
<path class="st1" d="M770.4-477c0,0-38.4-147.5-11.9-151.5s42.1-68.1,42.1-77.2c0-9.1-21.7-77.1-21.3-79c0.3-1.8,9.1-24.7,14.3-27.2
	s49.7-35.7,49.7-35.7l1.7-2.5v-7.7l73.6-7.1l108.9,32.9l134.5,86l20.1,360.4L770.4-477z"/>
<g>
	<path class="st2" d="M915.1-550.1c-27.3,0-54.4,0-81.7,0c-1.5,0-3,0.1-4.3-0.6c-1.2-0.6-1.4-1.6-1.4-2.7
		c-0.1-17.9-0.2-35.8,0.1-53.6c0-0.2,0.1-0.4,0.2-0.6c1.8-2.8,5.2-3.4,7.4-5.6c1.6-0.6,3.3-0.4,4.9-0.6c2-0.2,3.8-0.9,3.8-3.2
		c0-2.4-1.8-3-3.8-3.2s-4.1,0-6.1-0.1c-1.3-0.1-2.8,0-3.7-1.3c-0.4-1.2,0.3-2.1,0.9-2.9c3.3-3.9,6.1-8.2,8.1-12.9
		c0.8-1.7,2-2.9,3.9-3.2c4.7-0.7,9.4-0.2,14.1-0.3c5.8-0.1,7.5-1.6,8.5-7.2c3.8-20.9,7.6-41.8,11.5-62.6c1.7-9.3,3.5-18.7,5.1-28
		c0.2-1.5,0.1-3.5,2.2-4.1c8.1,3.4,16.5,6.1,24.4,10.1c2,0.9,3.9,1.9,5.8,2.8L915.1-550.1L915.1-550.1z"/>
	<path class="st3" d="M588.3-757.2c-0.9-10.4-1.8-20.8-2.4-31.2c-0.3-5.5,2.5-9.6,7.1-11.3c1-0.4,2.1-0.2,3.2-0.2
		c33.9,0,67.7,0,101.6,0c5.7,0,9,3.1,10,8.7c0.6,3.6,0.9,7.2,1,10.8c0.5,9,1.5,18,2,26.9c0.6,8.7,1.5,17.6,2,26.3
		c0.4,6.5,1.2,12.8,1.3,19.3c0.2,3.5,0.9,7,0.6,10.6c-0.6,5.4-2.6,9.8-8.2,11.7c-4.2,0.5-8.4,0.2-12.5,0.2c-2.2-0.7-4.5-0.1-6.7,0.1
		c-3,0.2-6.1-0.7-9.1-0.1c-3.5,0.2-6.9,0-10.3-0.1c-3.3,0.3-6.5,0.1-9.8,0.2c-1,0-2.2-0.2-2.5,1.3c0.1,1.4-0.1,2.8-0.6,4.2
		c0,0.9-0.2,1.8-0.3,2.8c-0.3,1.4-0.2,2.8-0.5,4.3c-0.1,1,0.5,1.3,1.4,1.3c1.2,0,2.3,0,3.5,0c4.7,0,9.4,0,14,0
		c3.9,0.1,4.6,1.3,3.3,5.2c-0.9,0.9-2.1,0.9-3.3,0.9c-7.2,0.1-14.4,0.1-21.7,0c-0.9,0-2-0.1-2.8-0.7c-1.7-2-0.9-4.3-0.6-6.5
		c2.2-14.7,3.9-29.5,6.1-44.2c1-6.3,0.9-6.4-5.4-6.4c-5.9,0-11.8,0.1-17.7,0c-2.4,0-3.5,0.8-4,3.2c-2,9.3-4.4,18.5-6.5,27.7
		c-0.2,0.8-0.4,1.5-0.6,2.3c-0.5,2-1.5,3.2-3.9,3c-5.6-0.3-11.2,0.2-16.8-0.3c-4.1-1.5-6.1-4.6-6.4-8.8c-0.7-2.1,0.2-4.4-0.6-6.6
		c0-0.3-0.1-0.7-0.1-1c-0.6-2.2,0.2-4.5-0.6-6.6l-0.1-1.6c-0.7-2.2,0.3-4.5-0.6-6.6c0-0.3,0-0.6-0.1-0.9c-0.6-2.2,0.3-4.5-0.6-6.7
		c0-0.3,0-0.7-0.1-1c-0.7-2.4,0.3-4.9-0.6-7.2c-0.1-0.2-0.1-0.3,0-0.5c-0.8-2.4,0.3-4.8-0.6-7.2l0,0c-0.8-2.3,0.3-4.8-0.6-7.1
		c0-0.3,0-0.7-0.1-1C588.2-752.4,589.2-754.9,588.3-757.2L588.3-757.2z"/>
	<path class="st2" d="M685.8-587.1c-0.8,0.8-0.5,1.9-0.5,2.8c-0.1,10.5-0.1,21-0.1,31.4c0,1.7-0.1,2.8-2.3,2.8
		c-21.1-0.1-42.3-0.1-63.4-0.2c-1.5-1.4-1.1-3.2-1.1-5c0-21.6,0-43.2,0-64.8c0-12,0-23.9,0-35.9c0-4.6,0.9-5.6,5.4-5.6
		c42.1,0,84.3,0,126.4,0c1.5,0,3-0.1,4.2,1c1.2,3.3-0.2,5.8-3.6,6c-3.6,0.2-7.2,0.7-10.9,0.8c-8.1,0.2-16.3,0.4-24.3,1.7
		c-9.1,1.5-16.9,5.2-21.9,13.4c-2.9,4.8-3.6,10.3-4.3,15.8c-1.1,9.5-2,18.9-1.8,28.4C687.7-591.7,687.8-589.1,685.8-587.1
		L685.8-587.1z"/>
	<path class="st4" d="M767-750.1c5.1-5.8,11.7-9.7,18.7-12.8c2.2-1,4.3-2.2,6.5-3.3c1-0.9,2.2-0.9,3.5-0.5c6.5,6.5,14.2,5.4,22,3.5
		c1.5-0.4,2.9-1.1,4.4-1.7c1.1-0.3,2.2-0.9,3.3,0.1c1.4,0.8,2.9,1.7,4.3,2.4c2.1,0.3,3.9,1.3,5.5,2.5c7.2,5.4,13.8,11.3,18.4,19.2
		c5.5,9.5,7.6,19.8,6.1,30.8c-1.9,13.4-3.8,26.7-7.1,39.9c-0.4,1.6-0.6,3.3-2.4,4.1c-7.9,0.4-15.8,0.1-23.6,0.2
		c-1.7,0-3.1-0.6-2.2-2.7c3.5-8,1.4-15.1-2.9-22c-4.6-5-10.4-6.2-16.9-5.4c-12.4,1.6-24,6-35.2,11.3c-4,1.9-7.6,2.1-11.4-0.1
		c-2.5-1.5-5.1-2.8-7.5-4.7c-1-0.8-2.4-2-3.6-0.6c-1.3,1.3,0.2,2.3,0.8,3.3c0.4,0.6,0.9,1.1,1.2,1.7c0.6,0.9,1.3,1.9,0.5,3
		c-0.8,1-1.9,0.9-3,0.5c-2-1.8-2.8-4.4-4.3-6.6c-1.1-1.4-2.3-2.9-3.7-4.1c-2.9-2.5-6.2-3.9-10.2-3.1c-1.6,0.3-3.2,0.9-4.8-0.1
		c-0.5-0.9,0.2-1.4,0.6-2c0.6-0.6,1.3-0.9,2.1-1c6.1-0.3,9.2-4.8,12.4-8.9c5.8-7.4,10.5-15.6,15.3-23.7c3.1-5.2,6.1-10.5,9.5-15.6
		C764-747.9,765-749.6,767-750.1L767-750.1z"/>
	<path class="st4" d="M685.8-587.1c0.7-12,0.9-24,2.5-36c0.9-7.4,2-14.7,7.7-20.5c6.8-6.9,15.3-9.5,24.5-10.2
		c10.2-0.8,20.4-1.2,30.6-1.6c3.1-0.1,2.7-2.6,3.5-4.3c0.5-1.5,1.8-1.7,3.1-1.7c3.5,0,7-0.2,10.5,0.2c0.9,0.1,1.7-0.2,2.7-0.2
		c2.6,0.1,3.9,1.4,4.3,3.9c0.1,0.6,0.1,1.2,0.1,1.7c0,25.3,0,50.5,0,75.8c0,0.7,0,1.3-0.1,2c-0.5,2.2-2,3.8-3.2,5.5
		c-4.6,6.3-9.5,12.5-14.3,18.7c-0.9,1.2-1.7,2.5-3.3,2.8c-1.9,1.3-4,0.6-6,0.6c-1.5,0-0.9-1.5-0.9-2.4c0-10.2,0.1-20.3,0.2-30.4
		c0-0.9-0.1-2-0.2-2.9c-1.7-1.7-1-3.9-0.9-5.9c0.6-7.9,0.5-15.8,1.5-23.7c0.1-0.6,0.1-1.4-0.6-1.9c-1.7-1.4-8.5-0.2-9.6,1.7
		c-10,18-22.1,34.6-33.9,51.3c-2.7,3.8-5.5,7.4-8.2,11.1c-0.9,1.3-2,2.4-3.5,3.1c-6.5,0.2-6.5,0.2-6.5-6.4
		C685.7-566.7,685.8-576.9,685.8-587.1L685.8-587.1z"/>
	<path class="st5" d="M768-660.1c-4.4,0.6-8.9-0.3-13.4,0.5c-1-0.6-2.1-0.5-3.2-0.5c-42.9,0-85.8,0-128.7-0.1
		c-2.8,0-3.2,1.2-3.2,3.5c0.1,34.1,0.1,68.2,0.1,102.3c0,1.3-0.1,2.8-0.1,4.1c-1.5,0-3,0-4.5,0c-1.3-0.9-1.3-2.3-1.3-3.7
		c-0.1-28.9,0-57.8,0-86.7c0-2,0.6-4,1.2-6c0.1-3.7,0-7.5,0.2-11.2c0.1-1.7-0.7-2.2-2.3-2.2c-14.9,0-29.7,0-44.6,0
		c-1.7,0-2.4,0.6-2.3,2.3c0.1,0.8,0,1.6,0,2.4c0,34,0,68.1,0,102.1c0,1.3,0.8,3-1.7,3.3c-2.8,0.3-2.9-1.3-2.9-3.3
		c0-28,0-56.1,0-84.1c0-6.5-0.1-12.9,0-19.4c0-2.2-0.4-3.5-2.9-3.1c-2.8,0.4-2.5-1.5-2.6-3.3c-0.1-2.1,0.4-3.2,2.9-3.2
		c17.6,0.1,35.2,0.1,52.9,0.1c0.6,0,1.2-0.1,1.7-0.1c1.2-1.1,2.6-1.3,4.1-1.3c9.1,0,18,0,27.1,0c1.5,0,3,0,4,1.3
		c9.3,0.2,18.5,0.2,27.8,0c0.2-0.2,0.6-0.5,0.9-0.7c1.3-0.7,2.8-0.8,4-0.4c3.4,1.1,6.8,0.7,10.2,0.8c12,0.1,23.9,0,36,0
		c1.7,0,3.4,0.1,4.9-0.6c10.1-0.5,20.1-0.5,30.2,0c18-0.5,36.1-0.2,54.1-0.3c1.3,0,2.8,0,4.1,0.1c1.2,0.1,2.4,0.2,2.8,1.7
		c-1.2,1.7-3,1.3-4.6,1.3c-14.4,0-28.8,0.1-43.3,0c-3.1,0-5.9-0.2-6.8,3.7C768.9-660.7,768.3-660.5,768-660.1L768-660.1z"/>
	<path class="st6" d="M850.1-666.5c2.2-5.7,3-11.7,4.3-17.6c2-9.5,3.5-19.3,4.3-29c1.4-16.9-5.6-30.4-18.3-41.2
		c-3.5-2.9-7.2-5.4-10.8-8.1c4.3-1,8.8-1.3,13.2-1.4c1.7-0.1,2.8,1,4,2c6.5,6,10.8,13.5,14.3,21.4c4.3,9.8,7.2,20.1,8.7,30.7
		c0.1,0.5,0.2,0.9,0,1.5c2.6-14.7,5.4-29.4,8.1-44.1c0.2-1.2,0.4-2.3,0.3-3.5c-0.2-2.8-1.6-4.4-4.3-5.2c-1.6-0.5-3.5-0.2-4.7-2.3
		c1.7-0.4,3.1-0.4,4.5-0.1c2.8-0.1,5.4,0.5,8,1.2c4,1.2,5.7,4.3,4.9,8.3c-0.7,3.7-1.3,7.5-1.9,11.2c-2.1,11-4.3,22.1-6.3,33.2
		c-3.9,21.1-7.7,42.1-11.7,63.3c-0.8,4.3-3.3,6.5-7.7,6.5c-5.4,0.1-10.8,0-16.2,0c-0.6-0.5-0.8-1.2-0.6-1.8c1.7-6.5,3.1-13,5.9-19.1
		c1.5-1,3.2-0.7,4.8-0.9c1.2-0.1,2.8,0.2,2.8-1.7s-1.3-1.8-2.6-1.9c-1-0.1-2.1-0.1-3.1-0.8C850-665.9,850-666.1,850.1-666.5
		L850.1-666.5z"/>
	<path class="st2" d="M692.2-550.2c8.5-11.7,17.1-23.2,25.1-35.2c7.1-10.5,14.3-21,20.2-32.1c0.7-1.3,1.6-1.8,3-1.7
		c2.1,0.1,4.3,0.1,6.5,0c1.7-0.1,2.3,0.3,2.2,2.3c-0.7,10.3-1.3,20.7-1.8,31c-0.9,1-0.5,2.3-0.5,3.4c-0.1,9.9-0.1,19.8-0.1,29.7
		c0,2-0.6,2.8-2.7,2.8C726.8-550.1,709.5-550.1,692.2-550.2L692.2-550.2z"/>
	<path class="st7" d="M648.6-666.5c-11.7,0.2-23.5,0.2-35.2,0c1.3-5.8,2.7-11.7,4.1-17.4c0.6-2,0.1-2.6-2-2.5c-4.3,0.1-8.4,0-12.7,0
		c-1.2,0-2.4,0.2-3.4-0.6c5.4,0,10.9-0.2,16.2,0c2,0,2.8-0.6,3.2-2.5c2.4-10.5,5-21,7.2-31.4c0.6-2.3,1.3-3.3,3.9-3.2
		c7.8,0.2,15.6,0.2,23.3,0c2.5,0,3.2,0.8,2.8,3.3c-1.4,9.9-2.6,19.9-4,29.9C651-682.9,649.8-674.7,648.6-666.5L648.6-666.5z"/>
	<path class="st2" d="M615-646.6c0,22.8,0.1,45.7,0.1,68.5c0,9.3,0.1,18.6,0.1,28c-6.8,0-13.5,0-20.3,0.2c-2.5,0.1-2.7-1.6-2.8-3.2
		c-0.1-4.3-0.2-8.7,0-12.9c0.6-9.7,1.5-19.3,3.5-28.8c3.6-17.5,9.6-34,18.2-49.7C614-645.3,614.5-646,615-646.6L615-646.6z"/>
	<path class="st8" d="M850.3-666.2c1.1,0,2.1,0.1,3.2,0.1c3.6,0,4.7,1.5,3.8,5c-0.3,1.2-1.2,1.1-2,1.2c-2.2,0.1-4.5,0.1-6.7,0.1
		c-1,1-2.3,1-3.5,1c-3.6,0-7.2,0-10.9,0s-3.9,0.3-4,4.1c0,8.9,0,17.8,0,26.7c0,2.3,0,4.5-0.2,6.7c0.5,3,0.3,5.9,0.1,8.9
		c0.2,1.6,0.2,3.1-0.9,4.3c0,18.6-0.1,37.2-0.1,55.8c0,0.6,0.2,1.2,0.2,1.7c-1.5,1.1-3.2,0.5-4.8,0.6c-0.9-0.6-1.1-1.5-1.2-2.5
		c-0.3-1.2-0.2-2.4-0.2-3.5c0-15.4,0-30.7,0-46c0-1.3,0.2-2.8,0.2-4.1c-0.3-2-0.2-4.1,0-6.1c-0.2-3-0.2-5.9,0-8.9
		c-0.4-5.7-0.2-11.3-0.2-17c-0.1-5.8,0-11.6,0-17.3c0-2-0.8-3.1-2.9-3.1c-12.5,0-25,0-37.5,0c-2.2,0-3.2,1.1-3.2,3.2
		c0,3.3,0,6.7,0,10c0,18.6,0,37.3,0.1,55.9c0,2.3-0.7,4.5-0.1,6.7c-0.1,9.9,0.3,19.8-0.2,29.7c0.1,1.2,0.1,2.3-0.9,3.2
		c-1.5,0-3,0-4.4,0c-0.6-0.7-1.1-1.4-1.1-2.4c0.2-5,0.1-10.2,0.1-15.2c0-2.9,0-5.8,0.9-8.7c0-26.5,0-52.9,0-79.3
		c0-2.8-1.4-4.2-4.2-4.3c-0.5,0-0.9-0.1-1.5-0.1c0.2-0.5,0.2-0.9,0.4-1.4c0.6-3,2.4-4.4,5.5-4.4c16.6,0,33.2-0.1,49.8-0.2
		C832.5-666.5,841.4-666.3,850.3-666.2L850.3-666.2z"/>
	<path class="st2" d="M767-750.1c-8,10.8-13.9,23-21.3,34.3c-3.5,5.3-7,10.4-11.3,15c-1.7,1.8-3.5,3.3-6.3,3.2
		c-1.3-0.1-2.6,0.7-3.9,1c-2,0.5-1.9-1.1-2.2-2.3c-0.9-3.5-0.8-7-1.1-10.5c-0.6-7.9-1-15.8-1.9-23.6c-0.2-1.5-0.3-3.2,1.3-4.3
		c13.2-5.7,27-9.5,41.1-12.4C763.1-750,765-750.9,767-750.1L767-750.1z"/>
	<path class="st9" d="M720.2-737.3c0.6,9.6,1.3,19.2,2,28.8c0.2,3.3,0.6,6.6,0.8,9.9c0.1,0.9-0.2,1.8,1.2,1.9
		c-0.4,0.4-0.7,0.7-1.1,1.1c0.6,3.3-1.7,7.5-5.4,9.1c-3.6,1.5-7.5,2-11.2-0.2c4.9-1.8,6.9-5.8,7-10.5c0.2-7.5-0.8-15-1.5-22.5
		c-0.4-3.8-0.5-7.6-0.8-11.4c-1-11.7-1.5-23.6-2.8-35.3c-0.7-6.4-0.8-12.8-1.3-19.3c-0.4-4.3-0.2-8.6-3.9-11.9
		c-1.7-1.5-3.3-2.2-5.5-2.2c-23.1,0.1-46.2,0.1-69.3,0c-11.8,0-23.6-0.1-35.4-0.1c1.2-0.6,2.5-0.5,3.8-0.5c33.1,0,66.1-0.1,99.2-0.1
		c3.2,0,6.3,0.2,9.5,0.2c5.8,0.1,10.2,3.7,10.6,9.5c0.9,9.8,1.5,19.5,2.3,29.3C718.9-753.3,719.6-745.3,720.2-737.3L720.2-737.3z"/>
	<path class="st10" d="M873.8-763.2l-3.5,0.2v0.2c1,0.2,2,0.6,3.1,0.6c4.7-0.1,6.9,4.3,6.1,8.9c-2,10.9-4.1,21.9-6.1,32.8
		c-0.9,5-1.7,10-2.6,15c-0.1,0.5-0.1,1-0.9,1.2c-1.3-6.3-2-12.7-3.8-18.8c-3.4-11.7-7.6-23.1-15.3-32.8c-2.3-2.9-5-5.5-7.9-7.9
		c8-0.8,16-0.5,23.9-0.2C869.2-763.8,871.5-764.1,873.8-763.2L873.8-763.2z"/>
	<path class="st11" d="M784.6-802c0.6-3.9,0-8,0.3-12c0.2-3,1.5-4,4.2-4.5c11.1-1.8,21.7,0.6,32.3,3.5c0.9,0.2,1.5,0.9,1.8,1.7
		c3.9,10.9,3.9,21.7-2,32.1c-2.7-0.9-1.8-3.2-2-5c0-1.6,0.8-2.8,2-3.8c0.7-1.2-0.5-1.4-1-1.9c-1.7-0.9-3.4-1.3-5.3-1.2
		c-2.4-0.6-4.9-0.5-6.9-2c-1-0.9-1.3-2.1-1.3-3.5c-0.1-1.3-0.1-2.5-0.1-3.8c-0.2-7.6,1.2-6.6-6.6-6.7c-2.7-0.1-5.3,0.5-7.8,1.2
		c-3.8,1.1-4.4,2.2-3.2,5.8C787.3-800.7,786-800.6,784.6-802L784.6-802z"/>
	<path class="st12" d="M815.2-793.8c2-1.3,3.6,0.2,5.3,1c0.2,1.3,1.4,2,1.7,3.2c-1.4,0.4-1.7,1.7-2.2,2.8c-0.4,2.1-1.3,4-2.9,5.5
		c-1.4,1.3-1.3,3.2-1.7,4.9c-2,9.7-4.1,11.3-14,11.3c-2,0-3.9-0.2-5.7-1.1c-1.1-0.1-2.3-0.2-3.4-0.3c-2-0.6-2.8-1.9-3.2-3.8
		c-1.2-5.5-2.1-11.1-2.5-16.7c0.3-0.7,1.2-0.8,1.7-1.4c0.6-0.8,0.8-1.7,1.2-2.5c0.2-0.4,0.2-0.8,0.2-1.2c0.2-1.1,0.8-1.8,2-1.7
		c1.1,0.2,1.3,0.9,1.5,1.9c0.7,4,0.7,4,4.8,4.1c0.8,0,1.6,0,2.4,0c2.7,0,4.3-1.3,4.7-4.1c0.4-2.3,1.7-2.8,4.4-1.7
		c0.3,2.6-0.7,5.3,0.6,8.2c1.6-2.6,2.7-4.9,1.1-7.6C812.1-794,813.9-793.1,815.2-793.8L815.2-793.8z"/>
	<path class="st13" d="M778.2-550.2c0-0.9,0.1-1.9,0.1-2.8c2.1-2.5,5.2-1.9,7.9-2.3c1.9-0.3,3.9-0.2,5.8-0.5c2-0.3,2.7-1.3,2.6-3.2
		c-0.3-5.2,0.6-10.3,0.6-15.4c0-1.1,0.1-2.1,0.6-3.1c0.1-0.1,0.1-0.2,0.2-0.2c4.3-0.8,4.4-3.9,3.9-7.2c-0.6-3.8,1.7-6.1,3.9-8.5
		c0.3-0.4,0.9-0.5,1.3,0c1.1,1.8,0.7,3.5-0.8,4.7c-1.1,0.9-1.3,2.1-1.3,3.4c0,8.7,0,17.5,0,26.2c0,2,0.8,3.1,2.8,3.3
		c4.9,0.6,9.8,0.6,14.7,1.7c1.4,0.3,2.9,0.6,3.8,2c0.1,0.6,0.2,1.3,0.2,2C808.9-550.2,793.6-550.2,778.2-550.2L778.2-550.2z"/>
	<path class="st14" d="M795.6-766c4.1-0.5,8.2,0.4,12.3-0.6c2.8-0.7,4.7-2.2,5.3-5.2c0.2-1.3,0.7-2.4,0.9-3.7
		c0.4-3.4,1.2-6.5,4.2-8.6c0.8-0.6,1.2-1.7,1.8-2.6c-0.2,2,0.2,3.8,1.1,5.4c1.4,5.4,2.8,10.9,4.3,16.4c-1.5,0.6-3,0.9-4.4,1.6
		c-6.7,3.4-13.7,2.8-20.7,1.7C797.8-762.1,797.1-764.5,795.6-766L795.6-766z"/>
	<path class="st15" d="M773.6-576.4c0.1,8.1,0.6,16.2-0.3,24.3c-1.2,1.8-3.1,1.5-4.9,1.4c-4.8,0.7-9.5,1-14.3-0.2
		C760.6-559.3,767.2-567.9,773.6-576.4L773.6-576.4z"/>
	<path class="st16" d="M788.7-802.6c-2.6,0.3-2.8-1.1-2-3c0.7-2,2.5-2.7,4.3-3.2c5-1.6,10-1.7,15.1-1.3c1.7,0.1,1.7,0.9,1.7,2.4
		c-0.2,4-0.9,8.2,0.3,12.2c-0.7,0.9-1.7,0.9-2.7,0.6c-4.3-1.3-8.5-0.6-12.8-0.5c-2.3,0.1-4.6,0.3-6.8-1.1v-0.7
		c0.2-0.9,0.9-1.1,1.7-1.4C790.2-799.8,790.2-799.8,788.7-802.6L788.7-802.6z"/>
	<path class="st17" d="M785.8-796.7c4.8,0.1,9.6,0.2,14.4,0.2c2.7,0,5.3,0.1,7.8,0.8c2.4,0.6,4.8,1.3,7.2,2c-0.8,2-2.5,0.9-3.9,1.3
		c-0.8,0.6-1.5,0.5-2.1-0.2c-3.5-0.7-3.7-0.7-3.5,2.9c0.2,2.4-0.6,3.1-2.9,3c-2.6-0.2-5.3-0.1-7.9,0c-2,0.1-3-0.6-2.7-2.7
		c0.1-0.5,0.1-0.9,0-1.5c-0.2-0.8,0.4-2-0.9-2c-1.1,0-0.7,1.1-0.9,1.8c-0.2,0.6-0.4,1.1-0.6,1.7c-1.7,0.5-1.8,0.5-2-1.6
		c-0.1-1.5-0.2-2.8-2.1-2.8c-1.4,0-2.8,0.1-2.9,2c-0.1,1.7,0.2,3.1,2.4,3.2c1.3,0.1,3.1-0.8,3.5,1.4c-0.6,0.6-1.4,0.3-2.1,0.6
		c-3.7-0.2-5.6-1.8-5.6-4.6C780.9-794.6,782.4-796.4,785.8-796.7L785.8-796.7z"/>
	<path class="st18" d="M788.7-802.6c1.5-0.4,2.4,0.1,2.5,1.7c0.1,1.5-0.2,2.7-2,2.9c-1.1,0.2-2.3,0.4-3.4,0.6
		c-2.9-0.7-3.3-2.4-1.3-4.7C785.9-802.1,787.4-801.6,788.7-802.6L788.7-802.6z"/>
	<path class="st19" d="M768.5-550.6c1.7-0.5,3.2-0.9,4.9-1.4c0.2,0.6,0.2,1.3,0.4,1.9C772-550.2,770.2-549.6,768.5-550.6z"/>
	<path class="st7" d="M589-749c1.3,2.3,0.4,4.7,0.6,7.1C588.8-744.2,589-746.7,589-749z"/>
	<path class="st7" d="M589.5-741.9c1.3,2.3,0.4,4.7,0.6,7.2C589.4-737.1,589.6-739.6,589.5-741.9z"/>
	<path class="st7" d="M590.2-734.3c1.3,2.4,0.4,4.8,0.6,7.2C590-729.5,590.1-731.8,590.2-734.3z"/>
	<path class="st7" d="M588.3-757.2c1.3,2.4,0.4,4.8,0.6,7.2C588.3-752.4,588.3-754.8,588.3-757.2z"/>
	<path class="st7" d="M590.7-726.1c1.2,2.1,0.5,4.4,0.6,6.7C590.6-721.6,590.7-723.8,590.7-726.1z"/>
	<path class="st7" d="M591.3-718.4c1.3,2.1,0.5,4.4,0.6,6.6C591.1-714,591.3-716.2,591.3-718.4z"/>
	<path class="st7" d="M592-710.2c1.2,2.1,0.5,4.4,0.6,6.6C591.9-705.7,591.9-707.9,592-710.2z"/>
	<path class="st7" d="M592.5-702.5c1.2,2.1,0.4,4.4,0.6,6.6C592.3-698,592.5-700.3,592.5-702.5z"/>
	<path class="st4" d="M828.9-621.4c-0.1-12.2-0.1-24.4-0.2-36.6c0-1.6,0.6-2,2-2c5.9,0.1,11.7,0.1,17.6,0.1
		c-1.1,5.9-3.2,11.5-4.8,17.3c-0.3,1-0.6,2-0.8,3.1c-0.7,0.4-1.7,0.2-2,1.3c-2.2,6.4-6.2,11.6-10.6,16.7
		C829.9-621,829.5-620.6,828.9-621.4L828.9-621.4z"/>
	<path class="st20" d="M828.9-621.4c0.5-0.1,0.9-0.1,1.4-0.2c3.2,0.1,6.5,0.1,9.7,0.2c3.5,0.1,5.4,1.7,5.5,4.4
		c0.1,2.8-2,4.5-5.6,4.6c-1.6,0.1-3.2,0.1-4.7,0.1c-2.1,0.9-4.3,1.8-6.3-0.1C828.9-615.4,828.9-618.4,828.9-621.4L828.9-621.4z"/>
	<path class="st21" d="M828.9-612.4c2.1-0.1,4.2-0.3,6.3,0.1c-1.6,2.2-3.8,3.5-6.3,4.1C828.9-609.6,828.9-611,828.9-612.4
		L828.9-612.4z"/>
	<path class="st22" d="M706.5-686.6c1.7,0,3.3,0.1,5,0.1c6.3,0,8.4-1.4,10.8-7.3c0.2-0.6,0.5-1.1,0.7-1.6c1.3-0.2,2.5-0.4,3.8-0.6
		c7.3-1.1,12,1.2,15.8,7.7c0.1,1.4-1.1,1.5-2,1.7c-13.5,2.4-25.9,7.8-38.5,12.8c-4.9,2-9.8,3.9-14.4,6.1c13.5,0,27.2,0,40.8,0
		c1.2,0,2.4,0.2,3.5,0.6c0.3,0.2,0.6,0.4,0.6,0.7c-1.1,0.6-2.3,0.3-3.5,0.3c-14.5,0-28.9,0-43.4,0c-2.9,0-5.9-0.2-8.8-0.3
		c-0.5-3-2.4-4.5-5.5-4.5c-4.1,0-8.2,0-12.3,0c-1.9-0.6-4.2,0.2-5.8-1.7c0.2-1.5-0.7-3.2,0.7-4.5c2-1.8,4.1-0.2,5.8-0.4
		c-1.7-0.9-4.4-0.6-5.9-2.8c0.9-1.3,0.2-2.8,0.6-4c1.3-1.2,2.8-0.8,4.2-0.6c3.2,0.4,6.3,1.4,9.5,1.8c0-1.3-1.3-2-0.8-3.2
		c3.5,0,7.1,0,10.7-0.1c2,0.6,4,0.9,5.9,1.7c0.9,0.4,1.9,0.6,2.9,0.2c2.3-0.9,4.7-1.3,7.1-1.9L706.5-686.6L706.5-686.6z"/>
	<path class="st23" d="M667.6-686.4c0.4,0.6,0.9,1,1.3,1.6c0.6,0.9,2.3,1.5,1.7,2.4c-0.7,1.2-2.3,0.4-3.5,0.2
		c-4.1-0.9-8.2-2-12.4-2.2c-0.3-1.9,1-2,2.4-2C660.6-686.5,664-686.5,667.6-686.4L667.6-686.4z"/>
	<path class="st24" d="M694.1-686.5c-6,3.9-10.7,3.9-15.8,0C683.6-686.5,688.9-686.5,694.1-686.5z"/>
	<path class="st25" d="M654-680.4l9.9,3.1c-0.1,0.4-0.2,0.7-0.2,1.1c-3.2-0.3-6.4-0.6-9.6-0.9C654.1-678.3,654.1-679.3,654-680.4
		L654-680.4z"/>
	<path class="st7" d="M658.8-671.3c4.5,0,9.1,0,13.5,0c5,0,4.6-0.6,4.6,4.8l-0.3,0.1l-0.3-0.1c0-4.2,0-4.2-4.4-4.2
		c-4.6,0-9.4-0.1-14-0.1C658.1-671.3,658.1-671.7,658.8-671.3L658.8-671.3z"/>
	<path class="st26" d="M658.8-671.3c-0.2,0.2-0.6,0.3-0.8,0.5c-1.2,0-2.4,0.2-3.5,0.1c-1.1-0.1-2.3-0.4-1-1.9
		C655.2-672.3,657.1-672.3,658.8-671.3z"/>
	<path class="st22" d="M732.7-666.5c-0.3-0.1-0.6-0.1-0.9-0.2c-1.4-0.7-2.2-1.7-1.6-3.3c0.6-1.7,2-1.5,3.5-1.3
		c1.3,0.1,2.4,0.8,3.5,0.7c-1.7-0.2-3.5-0.6-5.4-0.9c-1.9-0.3-2.9-1.6-2.9-3.5c0.1-2,1.4-2.8,3.3-3.1c2.1-0.2,4.1,0.2,6.1,0.6
		c-1.9-0.6-3.8-1-5.3-2.4c-0.9-0.9-1.3-2-0.9-3.2c0.4-1.3,1.4-2,2.7-2c4.1,0.2,8.3,0.3,11.7,3.2c0.9,0,2.2,0.6,2.7-0.4
		c0.4-0.9-0.9-1.4-1.3-2c-0.6-0.8-1.3-1.5-1.9-2.3c-1-1.3-1.7-2.7-0.2-4.2c1.4-1.3,2.9-1.4,4.4-0.1c3.1,2.6,6.5,4.7,10.2,6.4
		c2.4,1.1,4.5,1,6.9-0.2c12.1-5.8,24.4-10.9,37.9-12.2c6.4-0.6,12.4,0.1,16.8,5.6c1,2-0.2,3.2-1.4,4.3c-2.8,2.9-6.3,5-9.8,6.9
		c-8.1,4.2-16.7,6.8-25.7,8.5c-5,0.9-9.8,2-14.6,3.6c-2.4,0.8-5.1,0.1-7.4,1.4C752.7-666.5,742.7-666.5,732.7-666.5L732.7-666.5z"/>
	<path class="st27" d="M762.8-666.5c0.2-0.6,0.6-1,1.2-1.2c9.4-2,18.7-4.6,28-6.7c10.1-2.4,19.7-6.1,27.6-13.2
		c1.1-1,2.1-2.1,2.3-3.7c5.8,6.4,7.2,17.5,2.7,24.9c8.7,0,17.2,0,25.7,0l0.2,0.2c-8.9,0.1-17.8,0.1-26.6,0.2
		c-1.1-0.6-2.3-0.3-3.5-0.3C801-666.5,781.9-666.5,762.8-666.5L762.8-666.5z"/>
	<path class="st14" d="M746.3-682.1c-3.2-0.7-6.5-1.5-9.8-2.1c-1.3-0.2-3.2-0.8-3.8,1.1c-0.6,2,1.1,2.8,2.6,3.3
		c1.7,0.7,3.5,1.2,5.3,1.8c0.7,0.2,1.7,0.2,1.6,1.7c-3.1-0.3-6.1-0.7-9.2-0.9c-1.4-0.1-3.2-0.4-3.4,1.8c-0.2,2,1.2,2.7,2.9,3
		c2,0.3,4,0.7,6.1,1c0.9,0.2,2,0.1,2.5,1.5c-2.3,0.2-4.3-0.4-6.4-0.6c-1.3-0.2-2.7-0.8-3.6,0.3c-1,1.2,0.2,2.4,0.6,3.5
		c-16.1,0-32.1,0-48.2,0l-0.1-0.6c5.7-2.4,11.4-4.9,17.2-7.2c12.1-5,24.2-9.8,36.9-12.9c1.7-0.4,3.6,0.3,5.1-0.9
		C744.3-686.5,745.3-684.3,746.3-682.1L746.3-682.1z"/>
	<path class="st4" d="M778.2-583.1c0-24.9,0-49.8-0.1-74.8c0-1.7,0.5-2.2,2.2-2.2c13.9,0.1,28,0,41.9,0c1.2,0,2.1,0,2.1,1.6
		c-0.1,12.4-0.2,24.7-0.2,37c-1,1.2-2.4,1.3-3.8,1.3c-4.3,0-8.4,0.1-12.7,0c-2.5-0.1-4.1,0.7-5,3.2c-0.5,1.3-1.3,2.4-2,3.5
		c-2.8,4.5-5.6,8.9-8.8,13.1c-3.2,5.5-7.2,10.6-10.9,15.8C780.2-583.7,779.5-582.8,778.2-583.1L778.2-583.1z"/>
	<path class="st2" d="M824.1-552.2c-6.5-1.4-13.2-2.1-19.9-2.4c-1.9-0.1-2.5-0.7-2.5-2.6c0-10-0.2-19.9-0.2-29.9
		c0-0.8-0.4-2.1,0.8-2.2c3.3-0.2,2.2-2.4,2.3-4.3c-1.3-3.2-0.9-6.5,0.2-9.6c0.4-1.2,1.4-1.9,2.7-2c4.9-0.6,9.7-1,14.5-1.9
		c0.8-0.2,1.6,0.1,2.1,0.6C824.1-588.4,824.1-570.3,824.1-552.2L824.1-552.2z"/>
	<path class="st2" d="M778.2-583.1c4.7-5.6,8.7-11.7,12.8-17.7c0.9-1,1.6-0.3,2,0.6c0.6,1,0.8,2.2,0.9,3.4c0.2,2.8,0.2,5.4,2.8,7.6
		c1.8,1.5,1.3,9.4-0.3,11.7c-0.2,6.7-0.3,13.5-0.4,20.2c0,2-0.6,2.9-2.8,3c-5,0.2-10,0.5-14.9,1.5C778-563,778-573.1,778.2-583.1
		L778.2-583.1z"/>
	<path class="st28" d="M796.3-577.8c0-3.3,0-6.6,0-9.9c0-0.7,0.3-1.9-0.9-1.8c-2.7,0.2-2.4-1.7-2.5-3.3c-0.2-2.4-0.5-4.9-0.6-7.3
		c-0.1-0.9-0.3-1.3-1.3-0.7c2.8-4.2,5.8-8.3,8.3-12.7c6.9-0.3,13.9-0.1,20.8-0.2c1.5,0,3,0,4.1,1.3c0.2,2,0.2,3.9,0,5.9
		c-5.3,1.2-10.6,2-16,2.2c-2.1,0.1-2.7,0.9-2.8,2.8c-0.2,2.6-0.5,5.2-0.8,7.9c-0.9,1.3-0.2,3.9-3.1,3.9c-0.7,0-0.6,1.3-0.6,2.1
		c0,2.3-0.2,4.5,0.1,6.8c0.2,2.4-0.3,3.7-3.1,3.2C797.5-577.7,796.9-577.7,796.3-577.8L796.3-577.8z"/>
	<path class="st29" d="M824.2-612.4c-7.4,0-14.8,0-22.2,0c-0.9,0-2.3,0.6-2.6-1c0.9-1.6,2.1-3.2,2.7-4.9c0.7-2.4,2-3,4.5-3
		c5.9,0.2,11.7,0,17.6,0C824.1-618.4,824.1-615.4,824.2-612.4L824.2-612.4z"/>
	<path class="st30" d="M822.2-789.4c-1.7-0.5-2-1.7-1.7-3.2C821.6-791.9,823.3-791.4,822.2-789.4z"/>
	<path class="st31" d="M788.7-787.3c-1.4-1-3-0.4-4.6-0.5c-3.2-0.2-2.3-2.5-2.5-4.3s0.2-2.9,2.4-2.9c4.3,0,4.3-0.1,4.6,4.3
		c0.1,0.7,0,1.4,1.1,1.1C789.6-788.7,789.3-787.9,788.7-787.3L788.7-787.3z"/>
	<path class="st32" d="M809.2-792.7c0.7,0.1,1.4,0.2,2.1,0.2c2,0.3,2.7,1.2,1.6,3.2c-0.7,1.3-0.9,2.8-1.2,4.2
		c-0.2,0.8-0.5,1.3-1.3,1.3c-0.7,0-1.6,0.2-1.8-0.6c-0.6-2.5-0.6-5.2-0.6-7.8C808-792.3,808.8-792.6,809.2-792.7L809.2-792.7z"/>
	<path class="st33" d="M791.3-778.4c4,0.1,6.4-1.3,8-4.1c0.4-0.6,0.8-1.6,1.7-0.9c0.9,0.6,0.2,1.4-0.2,2
		C799.1-777.9,795.4-776.5,791.3-778.4L791.3-778.4z"/>
	<path class="st34" d="M800.5-776c-0.4,1-1.3,1.1-2.2,1.1c-0.6,0-1.3-0.2-1.3-0.9c0.2-1.1,1.3-1.1,2.1-1
		C799.8-776.8,800.3-776.7,800.5-776L800.5-776z"/>
	<path class="st35" d="M799.1-797.5c-0.9-0.1-1.7-0.2-2.6-0.2c-1.7-0.1-2.6-0.6-2.4-2.4c0.2-1.8,0.7-3,2.8-2.8
		c1.3,0.2,2.8,0.2,4.1,0.3c1.9,0.1,3.5,0.1,3.3,2.8c-0.2,2.5-1.7,2.8-3.7,2.5C800-797.5,799.5-797.5,799.1-797.5L799.1-797.5
		L799.1-797.5z"/>
	<path class="st36" d="M798.8-787.9c-0.4,0-0.8,0-1.2,0c-3.9,0-5.4-2.2-4.3-6c0.3-0.9,1-1,1.8-1.1c1.7,0,3.3,0.2,5-0.1
		c2.8-0.3,3.9,0.7,3.7,3.6C803.8-787.9,804-787.9,798.8-787.9L798.8-787.9z"/>
	<path class="st37" d="M787-791.4c0,1.1-0.2,2.1-1.3,2.1c-1.3,0.1-1.7-0.9-1.8-2.1c0-0.9,0.3-1.8,1.4-1.8
		C786.5-793.2,786.9-792.2,787-791.4z"/>
	<path d="M800.7-791.4c-0.1,1.2-0.5,2.3-1.8,2.3c-1.6,0-2.1-1.3-2-2.6c0-1.2,0.6-2.1,1.9-2C800.2-793.8,800.6-792.7,800.7-791.4
		L800.7-791.4z"/>
</g>
</svg>
