<?xml version="1.0" encoding="utf-8"?>
<!-- Generator: Adobe Illustrator 26.1.0, SVG Export Plug-In . SVG Version: 6.00 Build 0)  -->
<svg version="1.1" id="Layer_1" xmlns="http://www.w3.org/2000/svg" xmlns:xlink="http://www.w3.org/1999/xlink" x="0px" y="0px"
	 viewBox="0 0 583.8 583.8" style="enable-background:new 0 0 583.8 583.8;" xml:space="preserve">
<style type="text/css">
	.st0{fill:#F9CCCF;}
	.st1{fill:#231F20;}
	.st2{fill:#FFFFFF;}
	.st3{fill:#5BE8C8;}
</style>
<g id="Group_720_00000128464370545450169470000003194783416614280351_" transform="translate(9 6)">
	<g transform="matrix(1, 0, 0, 1, -9, -6)">
		<path id="Path_70-2_00000114061864846798150970000002408065965639317392_" class="st0" d="M291.9,6
			c156.2,0,282.9,126.7,282.9,282.9S448.1,571.8,291.9,571.8S9,445.1,9,288.9S135.7,6,291.9,6z"/>
	</g>
	<g>
		<g>
			<path class="st2" d="M238,397.3l-29.5-10L238,397.3z"/>
			<path class="st1" d="M238,402.9c-0.6,0-1.2-0.1-1.8-0.3l-29.5-10c-2.9-1-4.5-4.1-3.5-7.1c1-2.9,4.1-4.5,7.1-3.5l29.5,10
				c2.9,1,4.5,4.1,3.5,7.1C242.5,401.5,240.3,402.9,238,402.9z"/>
		</g>
		<g>
			<path class="st1" d="M191.9,395.9c-7-2.4-10.8-10-8.4-17c2.4-7,10-10.8,17-8.4c7,2.4,10.8,10,8.4,17
				C206.6,394.5,198.9,398.3,191.9,395.9z"/>
		</g>
		<g>
			<path class="st2" d="M329.4,397.3l29.5-10L329.4,397.3z"/>
			<path class="st1" d="M329.4,402.9c-2.3,0-4.5-1.5-5.3-3.8c-1-2.9,0.6-6.1,3.5-7.1l29.5-10c2.9-1,6.1,0.6,7.1,3.5
				c1,2.9-0.6,6.1-3.5,7.1l-29.5,10C330.6,402.8,330,402.9,329.4,402.9z"/>
		</g>
		<g>
			<path class="st1" d="M375.5,395.9c7-2.4,10.8-10,8.4-17c-2.4-7-10-10.8-17-8.4c-7,2.4-10.8,10-8.4,17
				C360.9,394.5,368.5,398.3,375.5,395.9z"/>
		</g>
		<g>
			<circle class="st2" cx="284.6" cy="263.9" r="71.7"/>
			<path class="st1" d="M284.6,341.2c-42.6,0-77.3-34.7-77.3-77.3c0-42.6,34.7-77.3,77.3-77.3s77.3,34.7,77.3,77.3
				C361.9,306.5,327.2,341.2,284.6,341.2z M284.6,197.7c-36.5,0-66.2,29.7-66.2,66.2c0,36.5,29.7,66.2,66.2,66.2
				c36.5,0,66.2-29.7,66.2-66.2C350.7,227.4,321.1,197.7,284.6,197.7z"/>
		</g>
		<g>
			<g>
				<path class="st2" d="M290.2,268.5l-12.3,0.2c-9.2,2.3-16,10.5-16,20.4v16.2h45.2v-16.2C307.2,278.9,299.9,270.4,290.2,268.5z"/>
				<path class="st1" d="M307.2,310.9H262c-3.1,0-5.6-2.5-5.6-5.6v-16.2c0-12.3,8.3-22.9,20.2-25.8c0.4-0.1,0.8-0.2,1.2-0.2
					l12.3-0.2c0.4,0,0.8,0,1.2,0.1c12.4,2.4,21.5,13.4,21.5,26.1v16.2C312.8,308.4,310.3,310.9,307.2,310.9z M267.5,299.8h34.1
					v-10.6c0-7.2-5-13.4-11.9-15.1l-11,0.2c-6.6,1.9-11.2,7.9-11.2,14.9V299.8z"/>
			</g>
			<g>
				<path class="st2" d="M309.5,247.4c0,13.8-11.2,24.9-24.9,24.9c-13.8,0-24.9-11.2-24.9-24.9c0-13.8,11.2-24.9,24.9-24.9
					C298.3,222.4,309.5,233.6,309.5,247.4z"/>
				<path class="st1" d="M284.6,277.9c-16.8,0-30.5-13.7-30.5-30.5c0-16.8,13.7-30.5,30.5-30.5c16.8,0,30.5,13.7,30.5,30.5
					C315.1,264.2,301.4,277.9,284.6,277.9z M284.6,228c-10.7,0-19.4,8.7-19.4,19.4s8.7,19.4,19.4,19.4s19.4-8.7,19.4-19.4
					S295.3,228,284.6,228z"/>
			</g>
		</g>
		<g>
			<path class="st1" d="M284.6,393.9c-3.1,0-5.6-2.5-5.6-5.6v-52.7c0-3.1,2.5-5.6,5.6-5.6c3.1,0,5.6,2.5,5.6,5.6v52.7
				C290.1,391.4,287.6,393.9,284.6,393.9z"/>
		</g>
		<g>
			<path class="st2" d="M170.7,209.3l45.6,26.3L170.7,209.3z"/>
			<path class="st1" d="M216.3,241.2c-0.9,0-1.9-0.2-2.8-0.7l-45.6-26.3c-2.7-1.5-3.6-4.9-2-7.6c1.5-2.7,4.9-3.6,7.6-2l45.6,26.3
				c2.7,1.5,3.6,4.9,2,7.6C220.1,240.2,218.2,241.2,216.3,241.2z"/>
		</g>
		<g>
			<path class="st2" d="M398.3,209.3l-45.6,26.3L398.3,209.3z"/>
			<path class="st1" d="M352.7,241.2c-1.9,0-3.8-1-4.8-2.8c-1.5-2.7-0.6-6.1,2-7.6l45.6-26.3c2.7-1.5,6.1-0.6,7.6,2
				c1.5,2.7,0.6,6.1-2,7.6l-45.6,26.3C354.6,240.9,353.7,241.2,352.7,241.2z"/>
		</g>
		<g>
			<circle class="st3" cx="422.6" cy="197.1" r="50.3"/>
			<path class="st3" d="M422.6,252.9c-30.8,0-55.9-25.1-55.9-55.9c0-30.8,25.1-55.9,55.9-55.9s55.9,25.1,55.9,55.9
				C478.5,227.9,453.4,252.9,422.6,252.9z M422.6,152.3c-24.7,0-44.8,20.1-44.8,44.8s20.1,44.8,44.8,44.8s44.8-20.1,44.8-44.8
				S447.3,152.3,422.6,152.3z"/>
		</g>
		<g>
			<g>
				<path class="st2" d="M427,202.6l-9.7,0.2c-7.2,1.8-12.6,8.3-12.6,16.1v6.2h35.6v-6.2C440.4,210.8,434.7,204.1,427,202.6z"/>
				<path class="st1" d="M440.4,230.6h-35.6c-3.1,0-5.6-2.5-5.6-5.6v-6.2c0-10.2,6.9-19,16.8-21.5c0.4-0.1,0.8-0.2,1.2-0.2l9.7-0.2
					c0.4,0,0.8,0,1.2,0.1c10.3,2,17.9,11.2,17.9,21.7v6.2C446,228.1,443.5,230.6,440.4,230.6z M410.3,219.5h24.5v-0.7
					c0-5.1-3.5-9.5-8.3-10.7l-8.4,0.2c-4.6,1.4-7.8,5.6-7.8,10.5V219.5z"/>
			</g>
			<g>
				<path class="st2" d="M442.2,186c0,10.8-8.8,19.6-19.6,19.6c-10.8,0-19.6-8.8-19.6-19.6c0-10.8,8.8-19.6,19.6-19.6
					C433.4,166.3,442.2,175.1,442.2,186z"/>
				<path class="st1" d="M422.6,211.2c-13.9,0-25.2-11.3-25.2-25.2c0-13.9,11.3-25.2,25.2-25.2c13.9,0,25.2,11.3,25.2,25.2
					C447.8,199.9,436.5,211.2,422.6,211.2z M422.6,171.9c-7.8,0-14.1,6.3-14.1,14.1c0,7.8,6.3,14.1,14.1,14.1s14.1-6.3,14.1-14.1
					C436.7,178.2,430.3,171.9,422.6,171.9z"/>
			</g>
		</g>
		<g>
			<circle class="st3" cx="149.6" cy="197.1" r="50.3"/>
			<path class="st3" d="M149.6,252.9c-30.8,0-55.9-25.1-55.9-55.9c0-30.8,25.1-55.9,55.9-55.9c30.8,0,55.9,25.1,55.9,55.9
				C205.5,227.9,180.4,252.9,149.6,252.9z M149.6,152.3c-24.7,0-44.8,20.1-44.8,44.8s20.1,44.8,44.8,44.8
				c24.7,0,44.8-20.1,44.8-44.8S174.2,152.3,149.6,152.3z"/>
		</g>
		<g>
			<g>
				<path class="st2" d="M154,202.6l-9.7,0.2c-7.2,1.8-12.6,8.3-12.6,16.1v6.2h35.6v-6.2C167.4,210.8,161.6,204.1,154,202.6z"/>
				<path class="st1" d="M167.4,230.6h-35.6c-3.1,0-5.6-2.5-5.6-5.6v-6.2c0-10.2,6.9-19,16.8-21.5c0.4-0.1,0.8-0.2,1.2-0.2l9.7-0.2
					c0.4,0,0.8,0,1.2,0.1c10.3,2,17.9,11.2,17.9,21.7v6.2C172.9,228.1,170.4,230.6,167.4,230.6z M137.3,219.5h24.5v-0.7
					c0-5.1-3.5-9.5-8.3-10.7l-8.4,0.2c-4.6,1.4-7.8,5.6-7.8,10.5V219.5z"/>
			</g>
			<g>
				<path class="st2" d="M169.2,186c0,10.8-8.8,19.6-19.6,19.6s-19.6-8.8-19.6-19.6c0-10.8,8.8-19.6,19.6-19.6
					S169.2,175.1,169.2,186z"/>
				<path class="st1" d="M149.6,211.2c-13.9,0-25.2-11.3-25.2-25.2c0-13.9,11.3-25.2,25.2-25.2c13.9,0,25.2,11.3,25.2,25.2
					C174.8,199.9,163.5,211.2,149.6,211.2z M149.6,171.9c-7.8,0-14.1,6.3-14.1,14.1c0,7.8,6.3,14.1,14.1,14.1s14.1-6.3,14.1-14.1
					C163.6,178.2,157.3,171.9,149.6,171.9z"/>
			</g>
		</g>
		<g>
			<circle class="st3" cx="284.6" cy="415.4" r="50.3"/>
			<path class="st1" d="M284.6,471.3c-30.8,0-55.9-25.1-55.9-55.9c0-30.8,25.1-55.9,55.9-55.9s55.9,25.1,55.9,55.9
				C340.5,446.2,315.4,471.3,284.6,471.3z M284.6,370.7c-24.7,0-44.8,20.1-44.8,44.8c0,24.7,20.1,44.8,44.8,44.8
				s44.8-20.1,44.8-44.8C329.3,390.7,309.2,370.7,284.6,370.7z"/>
		</g>
		<g>
			<g>
				<path class="st2" d="M289,420.9l-9.7,0.2c-7.2,1.8-12.6,8.3-12.6,16.1v6.2h35.6v-6.2C302.4,429.1,296.6,422.4,289,420.9z"/>
				<path class="st1" d="M302.4,449h-35.6c-3.1,0-5.6-2.5-5.6-5.6v-6.2c0-10.2,6.9-19,16.8-21.5c0.4-0.1,0.8-0.2,1.2-0.2l9.7-0.2
					c0.4,0,0.8,0,1.2,0.1c10.3,2,17.9,11.2,17.9,21.7v6.2C308,446.5,305.5,449,302.4,449z M272.3,437.9h24.5v-0.7
					c0-5.1-3.5-9.5-8.3-10.7l-8.4,0.2c-4.6,1.4-7.8,5.6-7.8,10.5V437.9z"/>
			</g>
			<g>
				<circle class="st2" cx="284.6" cy="404.3" r="19.6"/>
				<path class="st1" d="M284.6,429.5c-13.9,0-25.2-11.3-25.2-25.2c0-13.9,11.3-25.2,25.2-25.2c13.9,0,25.2,11.3,25.2,25.2
					C309.8,418.2,298.5,429.5,284.6,429.5z M284.6,390.2c-7.8,0-14.1,6.3-14.1,14.1c0,7.8,6.3,14.1,14.1,14.1s14.1-6.3,14.1-14.1
					C298.6,396.6,292.3,390.2,284.6,390.2z"/>
			</g>
		</g>
		<g>
			<path class="st1" d="M149.6,284.1c-3.1,0-5.6-2.5-5.6-5.6v-31.2c0-3.1,2.5-5.6,5.6-5.6s5.6,2.5,5.6,5.6v31.2
				C155.1,281.6,152.6,284.1,149.6,284.1z"/>
		</g>
		<g>
			<path class="st1" d="M163,291.5c0,7.4-6,13.4-13.4,13.4c-7.4,0-13.4-6-13.4-13.4s6-13.4,13.4-13.4C157,278.1,163,284.1,163,291.5
				z"/>
		</g>
		<g>
			<path class="st2" d="M185.4,158.7l26.4-16.6L185.4,158.7z"/>
			<path class="st1" d="M185.4,164.3c-1.8,0-3.7-0.9-4.7-2.6c-1.6-2.6-0.9-6,1.7-7.7l26.4-16.6c2.6-1.6,6-0.9,7.7,1.7
				c1.6,2.6,0.9,6-1.7,7.7l-26.4,16.6C187.4,164,186.4,164.3,185.4,164.3z"/>
		</g>
		<g>
			<path class="st1" d="M215.5,123.9c6.3-4,14.6-2.1,18.5,4.2c4,6.3,2.1,14.6-4.2,18.5c-6.3,4-14.6,2.1-18.5-4.2
				C207.4,136.1,209.3,127.8,215.5,123.9z"/>
		</g>
		<g>
			<path class="st1" d="M422.6,284.1c-3.1,0-5.6-2.5-5.6-5.6v-31.2c0-3.1,2.5-5.6,5.6-5.6s5.6,2.5,5.6,5.6v31.2
				C428.2,281.6,425.7,284.1,422.6,284.1z"/>
		</g>
		<g>
			<path class="st1" d="M409.2,291.5c0,7.4,6,13.4,13.4,13.4c7.4,0,13.4-6,13.4-13.4s-6-13.4-13.4-13.4
				C415.2,278.1,409.2,284.1,409.2,291.5z"/>
		</g>
		<g>
			<path class="st2" d="M386.8,158.7l-26.4-16.6L386.8,158.7z"/>
			<path class="st1" d="M386.8,164.3c-1,0-2-0.3-3-0.9l-26.4-16.6c-2.6-1.6-3.4-5.1-1.7-7.7c1.6-2.6,5.1-3.4,7.7-1.7l26.4,16.6
				c2.6,1.6,3.4,5.1,1.7,7.7C390.4,163.4,388.6,164.3,386.8,164.3z"/>
		</g>
		<g>
			<path class="st1" d="M356.6,123.9c-6.3-4-14.6-2.1-18.5,4.2c-4,6.3-2.1,14.6,4.2,18.5c6.3,4,14.6,2.1,18.5-4.2
				C364.8,136.1,362.9,127.8,356.6,123.9z"/>
		</g>
	</g>
</g>
</svg>
