<?xml version="1.0" encoding="utf-8"?>
<!-- Generator: Adobe Illustrator 26.1.0, SVG Export Plug-In . SVG Version: 6.00 Build 0)  -->
<svg version="1.1" xmlns="http://www.w3.org/2000/svg" xmlns:xlink="http://www.w3.org/1999/xlink" x="0px" y="0px"
	 viewBox="0 0 750 500" style="enable-background:new 0 0 750 500;" xml:space="preserve">
<style type="text/css">
	.st0{fill:#F5F5F5;}
	.st1{fill:#E0E0E0;}
	.st2{fill:#EBEBEB;}
	.st3{fill:#FAFAFA;}
	.st4{fill:#FFFFFF;}
	.st5{display:none;}
	.st6{display:inline;}
	.st7{fill:#263238;}
	.st8{fill:#455A64;}
	.st9{fill:#F9CCCF;}
	.st10{opacity:0.2;}
	.st11{fill:#40A087;}
	.st12{fill:#327C67;}
	.st13{fill:#9F7362;}
	.st14{fill:#65463C;}
</style>
<g id="Background_Complete">
	<g>
		<g>
			<g>
				<g>
					<g>
						<g>
							<g>
								<g>
									<g>
										<g>
											<rect x="479.3" y="343" class="st0" width="180.3" height="83.1"/>
										</g>
									</g>
								</g>
							</g>
						</g>
					</g>
				</g>
				<g>
					<g>
						<g>
							<g>
								<g>
									<g>
										<g>
											<path class="st1" d="M655.2,422.2H483.4v-74.8h171.8V422.2z M484.5,421.1h169.6v-72.6H484.5V421.1z"/>
										</g>
									</g>
								</g>
							</g>
						</g>
					</g>
				</g>
				<g>
					<g>
						<g>
							<g>
								<g>
									<g>
										<g>
											<rect x="659.5" y="343" class="st1" width="44" height="83.1"/>
										</g>
									</g>
								</g>
							</g>
						</g>
					</g>
				</g>
				<g>
					<g>
						<g>
							<g>
								<g>
									<g>
										<g>
											<g>
												<path class="st1" d="M484,370.6c19.3,0,38.6,0,57.9,0c30.5,0,61,0,91.5,0c7.1,0,14.2,0,21.3,0c0.3,0,0.3-0.5,0-0.5
													c-19.3,0-38.6,0-57.9,0c-30.5,0-61,0-91.5,0c-7.1,0-14.2,0-21.3,0C483.7,370.1,483.7,370.6,484,370.6L484,370.6z"/>
											</g>
										</g>
									</g>
								</g>
							</g>
						</g>
					</g>
				</g>
				<g>
					<g>
						<g>
							<g>
								<g>
									<g>
										<g>
											<g>
												<path class="st1" d="M569.9,370.3c0.5-7.4,0.5-15.2,0.1-22.6c0-0.3-0.4-0.3-0.5,0c-0.4,7.4-0.5,15.2,0.1,22.6
													C569.5,370.5,569.9,370.5,569.9,370.3L569.9,370.3z"/>
											</g>
										</g>
									</g>
								</g>
							</g>
						</g>
					</g>
				</g>
				<g>
					<g>
						<g>
							<g>
								<g>
									<g>
										<g>
											<path class="st1" d="M615.8,359c0,1.3-1,2.3-2.3,2.3c-1.3,0-2.3-1-2.3-2.3c0-1.3,1-2.3,2.3-2.3
												C614.8,356.7,615.8,357.8,615.8,359z"/>
										</g>
									</g>
								</g>
							</g>
						</g>
					</g>
				</g>
				<g>
					<g>
						<g>
							<g>
								<g>
									<g>
										<g>
											<path class="st1" d="M526.2,359c0,1.3-1,2.3-2.3,2.3c-1.3,0-2.3-1-2.3-2.3c0-1.3,1-2.3,2.3-2.3
												C525.2,356.7,526.2,357.8,526.2,359z"/>
										</g>
									</g>
								</g>
							</g>
						</g>
					</g>
				</g>
				<g>
					<g>
						<g>
							<g>
								<g>
									<g>
										<g>
											<path class="st1" d="M571.6,384.8c0,1.3-1,2.3-2.3,2.3c-1.3,0-2.3-1-2.3-2.3c0-1.3,1-2.3,2.3-2.3
												C570.6,382.5,571.6,383.5,571.6,384.8z"/>
										</g>
									</g>
								</g>
							</g>
						</g>
					</g>
				</g>
				<g>
					<g>
						<g>
							<g>
								<g>
									<g>
										<g>
											<polygon class="st1" points="500.8,426.1 491.5,478.3 496.8,478.3 513.9,426.1 											"/>
										</g>
									</g>
								</g>
							</g>
						</g>
					</g>
				</g>
				<g>
					<g>
						<g>
							<g>
								<g>
									<g>
										<g>
											<polygon class="st1" points="646.8,426.1 654.5,478.4 649.3,478.4 633.7,426.1 											"/>
										</g>
									</g>
								</g>
							</g>
						</g>
					</g>
				</g>
				<g>
					<g>
						<g>
							<g>
								<g>
									<g>
										<g>
											<polygon class="st1" points="681.6,426.1 690.4,478.4 685.2,478.4 668.6,426.1 											"/>
										</g>
									</g>
								</g>
							</g>
						</g>
					</g>
				</g>
				<g>
					<g>
						<g>
							<g>
								<g>
									<g>
										<g>
											<path class="st1" d="M571.5,408.3c0,1.3-1,2.3-2.3,2.3c-1.3,0-2.3-1-2.3-2.3c0-1.3,1-2.3,2.3-2.3
												C570.4,406,571.5,407.1,571.5,408.3z"/>
										</g>
									</g>
								</g>
							</g>
						</g>
					</g>
				</g>
				<g>
					<g>
						<g>
							<g>
								<g>
									<g>
										<g>
											<g>
												<path class="st1" d="M484,396.3c19.3,0,38.6,0,57.9,0c30.5,0,61,0,91.5,0c7.1,0,14.2,0,21.3,0c0.3,0,0.3-0.5,0-0.5
													c-19.3,0-38.6,0-57.9,0c-30.5,0-61,0-91.5,0c-7.1,0-14.2,0-21.3,0C483.7,395.8,483.7,396.3,484,396.3L484,396.3z"/>
											</g>
										</g>
									</g>
								</g>
							</g>
						</g>
					</g>
				</g>
			</g>
		</g>
		<g>
			<g>
				<g>
					<g>
						<g>
							<g>
								<g>
									<g>
										<g>
											
												<rect x="572.3" y="282.1" transform="matrix(5.272714e-03 1 -1 5.272714e-03 884.1929 -270.0699)" class="st1" width="11.1" height="54.5"/>
										</g>
									</g>
								</g>
							</g>
						</g>
					</g>
				</g>
			</g>
			<g>
				<g>
					<g>
						<g>
							<g>
								<g>
									<g>
										<g>
											<g>
												
													<rect x="572.6" y="304" transform="matrix(5.290164e-03 1 -1 5.290164e-03 912.5018 -248.6888)" class="st0" width="17.2" height="60.7"/>
											</g>
										</g>
									</g>
								</g>
							</g>
						</g>
					</g>
				</g>
				<g>
					<g>
						<g>
							<g>
								<g>
									<g>
										<g>
											<g>
												<path class="st1" d="M600,342.7c-0.2,0-0.3-3.9-0.3-8.6c0-4.8,0.1-8.6,0.3-8.6s0.3,3.9,0.3,8.6
													C600.3,338.8,600.1,342.7,600,342.7z"/>
											</g>
										</g>
									</g>
								</g>
							</g>
						</g>
					</g>
				</g>
				<g>
					<g>
						<g>
							<g>
								<g>
									<g>
										<g>
											<g>
												<path class="st1" d="M602.5,342.7c-0.2,0-0.3-3.9-0.3-8.6c0-4.8,0.1-8.6,0.3-8.6c0.2,0,0.3,3.9,0.3,8.6
													C602.8,338.8,602.7,342.7,602.5,342.7z"/>
											</g>
										</g>
									</g>
								</g>
							</g>
						</g>
					</g>
				</g>
				<g>
					<g>
						<g>
							<g>
								<g>
									<g>
										<g>
											<g>
												<path class="st1" d="M560.1,342.7c-0.2,0-0.3-3.9-0.3-8.6c0-4.8,0.1-8.6,0.3-8.6c0.2,0,0.3,3.9,0.3,8.6
													C560.4,338.8,560.2,342.7,560.1,342.7z"/>
											</g>
										</g>
									</g>
								</g>
							</g>
						</g>
					</g>
				</g>
				<g>
					<g>
						<g>
							<g>
								<g>
									<g>
										<g>
											<g>
												<path class="st1" d="M562.6,342.7c-0.2,0-0.3-3.9-0.3-8.6c0-4.8,0.1-8.6,0.3-8.6c0.2,0,0.3,3.9,0.3,8.6
													C562.9,338.8,562.8,342.7,562.6,342.7z"/>
											</g>
										</g>
									</g>
								</g>
							</g>
						</g>
					</g>
				</g>
				<g>
					<g>
						<g>
							<g>
								<g>
									<g>
										<g>
											<g>
												<path class="st1" d="M568.2,334.3c0-0.2,6.1-0.3,13.7-0.3c7.6,0,13.7,0.1,13.7,0.3c0,0.2-6.1,0.3-13.7,0.3
													C574.3,334.6,568.2,334.5,568.2,334.3z"/>
											</g>
										</g>
									</g>
								</g>
							</g>
						</g>
					</g>
				</g>
			</g>
			<g>
				<g>
					<g>
						<g>
							<g>
								<g>
									<g>
										<g>
											<g>
												
													<rect x="591.4" y="282.6" transform="matrix(5.290693e-03 1 -1 5.290693e-03 913.9106 -278.5637)" class="st2" width="11.1" height="75"/>
											</g>
										</g>
									</g>
								</g>
							</g>
						</g>
					</g>
				</g>
				<g>
					<g>
						<g>
							<g>
								<g>
									<g>
										<g>
											<path class="st1" d="M623.8,324.1c-2,0-3.5-1.6-3.5-3.6c0-2,1.6-3.6,3.5-3.6c2,0,3.5,1.6,3.5,3.6
												C627.3,322.5,625.7,324.1,623.8,324.1z"/>
										</g>
									</g>
								</g>
							</g>
						</g>
					</g>
				</g>
				<g>
					<g>
						<g>
							<g>
								<g>
									<g>
										<g>
											
												<rect x="587.8" y="295.4" transform="matrix(-1.836970e-16 1 -1 -1.836970e-16 909.4037 -268.4385)" class="st1" width="2.2" height="50.2"/>
										</g>
									</g>
								</g>
							</g>
						</g>
					</g>
				</g>
			</g>
		</g>
	</g>
	<g>
		<g>
			<g>
				<g>
					<g>
						<g>
							<g>
								<g>
									<g>
										<path class="st2" d="M48.2,111.2c0,0-6.4,4.9-0.3,11.3c0.1,0.1,0.3,0.2,0.4,0.2l55.7-0.3c0,0,4.8-5.3,0.8-11.5L48.2,111.2
											z"/>
									</g>
								</g>
							</g>
						</g>
					</g>
				</g>
				<g>
					<g>
						<g>
							<g>
								<g>
									<g>
										<g>
											<path class="st1" d="M91.7,116.3c0,0.1-6.9,0.1-15.5,0.1c-8.6,0-15.5-0.1-15.5-0.1c0-0.1,6.9-0.1,15.5-0.1
												C84.8,116.2,91.7,116.2,91.7,116.3z"/>
										</g>
									</g>
								</g>
							</g>
						</g>
					</g>
				</g>
				<g>
					<g>
						<g>
							<g>
								<g>
									<g>
										<g>
											<path class="st1" d="M83,118.3c0,0.1-3.3,0.1-7.3,0.1c-4,0-7.3-0.1-7.3-0.1c0-0.1,3.3-0.1,7.3-0.1
												C79.8,118.2,83,118.2,83,118.3z"/>
										</g>
									</g>
								</g>
							</g>
						</g>
					</g>
				</g>
				<g>
					<g>
						<g>
							<g>
								<g>
									<g>
										<g>
											<path class="st1" d="M97.4,122.1c0,0,0.1-0.6,0.3-1.7c0.2-1,0.3-2.5,0.3-4.1c0-1.6-0.2-3-0.4-4.1c-0.2-1-0.4-1.7-0.3-1.7
												c0,0,0.1,0.1,0.2,0.4c0.1,0.3,0.2,0.7,0.3,1.2c0.2,1,0.5,2.5,0.5,4.1c0,1.6-0.2,3.1-0.4,4.1c-0.1,0.5-0.2,0.9-0.3,1.2
												C97.5,122,97.4,122.1,97.4,122.1z"/>
										</g>
									</g>
								</g>
							</g>
						</g>
					</g>
				</g>
				<g>
					<g>
						<g>
							<g>
								<g>
									<g>
										<g>
											<path class="st1" d="M101.6,110.8c0,0,0.1,0.1,0.2,0.4c0.1,0.1,0.2,0.3,0.2,0.5c0.1,0.2,0.2,0.4,0.3,0.7
												c0.2,0.5,0.4,1.1,0.5,1.8c0.1,0.7,0.2,1.5,0.2,2.3c0,0.8-0.1,1.6-0.2,2.3c-0.1,0.7-0.3,1.3-0.5,1.9
												c-0.1,0.3-0.2,0.5-0.3,0.7c-0.1,0.2-0.2,0.4-0.2,0.5c-0.1,0.3-0.2,0.4-0.2,0.4c0,0,0.3-0.6,0.6-1.6
												c0.2-0.5,0.3-1.1,0.4-1.8c0.1-0.7,0.2-1.5,0.2-2.3c0-0.8-0.1-1.6-0.2-2.3c-0.1-0.7-0.3-1.3-0.5-1.8
												C101.8,111.4,101.5,110.8,101.6,110.8z"/>
										</g>
									</g>
								</g>
							</g>
						</g>
					</g>
				</g>
				<g>
					<g>
						<g>
							<g>
								<g>
									<g>
										<g>
											<path class="st1" d="M56.9,122.2c0,0-0.1-0.1-0.3-0.4c-0.1-0.1-0.2-0.3-0.3-0.5c-0.1-0.2-0.2-0.4-0.3-0.6
												c-0.2-0.5-0.4-1.1-0.5-1.8c-0.1-0.7-0.2-1.4-0.2-2.2c0-0.8,0.1-1.6,0.3-2.2c0.2-0.7,0.4-1.3,0.6-1.7
												c0.1-0.2,0.2-0.4,0.3-0.6c0.1-0.2,0.2-0.3,0.3-0.5c0.2-0.2,0.3-0.4,0.3-0.4c0,0-0.3,0.6-0.7,1.5
												c-0.2,0.5-0.4,1.1-0.5,1.7c-0.1,0.7-0.2,1.4-0.3,2.2c0,0.8,0.1,1.5,0.2,2.2c0.1,0.7,0.3,1.3,0.5,1.7
												C56.6,121.6,57,122.2,56.9,122.2z"/>
										</g>
									</g>
								</g>
							</g>
						</g>
					</g>
				</g>
				<g>
					<g>
						<g>
							<g>
								<g>
									<g>
										<g>
											<path class="st1" d="M50.9,123.6c0,0-0.1-0.1-0.3-0.4c-0.1-0.1-0.2-0.3-0.3-0.5c-0.1-0.2-0.2-0.4-0.3-0.7
												c-0.2-0.5-0.5-1.2-0.6-2c-0.2-0.8-0.3-1.6-0.3-2.5c0-0.9,0.1-1.8,0.2-2.5c0.1-0.8,0.3-1.4,0.6-2c0.1-0.3,0.2-0.5,0.3-0.7
												c0.1-0.2,0.2-0.4,0.3-0.5c0.2-0.3,0.3-0.4,0.3-0.4c0,0-0.3,0.7-0.7,1.8c-0.2,0.5-0.4,1.2-0.5,2c-0.1,0.8-0.2,1.6-0.2,2.5
												c0,0.9,0.1,1.7,0.3,2.5c0.2,0.7,0.4,1.4,0.6,2C50.6,122.9,51,123.6,50.9,123.6z"/>
										</g>
									</g>
								</g>
							</g>
						</g>
					</g>
				</g>
			</g>
			<g>
				<g>
					<g>
						<g>
							<g>
								<g>
									<g>
										<g>
											<path class="st2" d="M102,139.3c0,0.4,0,10.7,0,10.7H81.3v-10.7H102z"/>
										</g>
									</g>
								</g>
							</g>
						</g>
					</g>
					<g>
						<g>
							<g>
								<g>
									<g>
										<g>
											<path class="st1" d="M35.3,144.7c0,0.1,0,0.2,0,0.3c0.2,3.2,2.9,5.7,6.1,5.7h61.5V150H88.4c-2.9,0-5.3-2.4-5.3-5.3l0,0
												c0-2.9,2.4-5.3,5.3-5.3h14.6v-1.1l-61.5,0.2C38,138.4,35.2,141.3,35.3,144.7z"/>
										</g>
									</g>
								</g>
							</g>
						</g>
					</g>
					<g>
						<g>
							<g>
								<g>
									<g>
										<g>
											<g>
												<path class="st1" d="M102,144.8c0,0.1-4.2,0.1-9.5,0.1c-5.2,0-9.5-0.1-9.5-0.1c0-0.1,4.2-0.1,9.5-0.1
													C97.7,144.7,102,144.7,102,144.8z"/>
											</g>
										</g>
									</g>
								</g>
							</g>
						</g>
					</g>
					<g>
						<g>
							<g>
								<g>
									<g>
										<g>
											<g>
												<path class="st1" d="M101.7,147.2c0,0.1-4,0.1-9,0.1c-5,0-9-0.1-9-0.1c0-0.1,4-0.1,9-0.1
													C97.7,147.1,101.7,147.1,101.7,147.2z"/>
											</g>
										</g>
									</g>
								</g>
							</g>
						</g>
					</g>
					<g>
						<g>
							<g>
								<g>
									<g>
										<g>
											<g>
												<path class="st1" d="M102,149.4c0,0.1-3.6,0.1-8.1,0.1c-4.5,0-8.1-0.1-8.1-0.1c0-0.1,3.6-0.1,8.1-0.1
													C98.4,149.3,102,149.3,102,149.4z"/>
											</g>
										</g>
									</g>
								</g>
							</g>
						</g>
					</g>
					<g>
						<g>
							<g>
								<g>
									<g>
										<g>
											<g>
												<path class="st1" d="M102,142.6c0,0.1-4.2,0.1-9.3,0.1c-5.1,0-9.3-0.1-9.3-0.1c0-0.1,4.2-0.1,9.3-0.1
													C97.8,142.5,102,142.5,102,142.6z"/>
											</g>
										</g>
									</g>
								</g>
							</g>
						</g>
					</g>
					<g>
						<g>
							<g>
								<g>
									<g>
										<g>
											<g>
												<path class="st1" d="M101.7,140.5c0,0.1-3.7,0.1-8.3,0.1c-4.6,0-8.3-0.1-8.3-0.1c0-0.1,3.7-0.1,8.3-0.1
													C98,140.3,101.7,140.4,101.7,140.5z"/>
											</g>
										</g>
									</g>
								</g>
							</g>
						</g>
					</g>
				</g>
				<g>
					<g>
						<g>
							<g>
								<g>
									<g>
										<g>
											<path class="st0" d="M42.8,138.5c0,0-0.6,0.5-1.3,1.6c-0.7,1-1.4,2.7-1.4,4.6c0,1.9,0.8,3.6,1.5,4.6
												c0.7,1,1.4,1.5,1.3,1.5c0,0-0.2-0.1-0.4-0.3c-0.3-0.2-0.6-0.6-1-1.1c-0.8-1-1.6-2.7-1.6-4.6c0-2,0.7-3.7,1.5-4.7
												c0.4-0.5,0.7-0.9,1-1.1C42.6,138.6,42.8,138.5,42.8,138.5z"/>
										</g>
									</g>
								</g>
							</g>
						</g>
					</g>
				</g>
				<g>
					<g>
						<g>
							<g>
								<g>
									<g>
										<g>
											<path class="st0" d="M40.7,138.3c0,0-0.6,0.5-1.3,1.6c-0.7,1-1.4,2.7-1.4,4.6c0,1.9,0.8,3.6,1.5,4.6
												c0.7,1,1.4,1.5,1.3,1.5c0,0-0.2-0.1-0.4-0.3c-0.3-0.2-0.6-0.6-1-1.1c-0.8-1-1.6-2.7-1.6-4.6c0-2,0.7-3.7,1.5-4.7
												c0.4-0.5,0.7-0.9,1-1.1C40.5,138.4,40.7,138.3,40.7,138.3z"/>
										</g>
									</g>
								</g>
							</g>
						</g>
					</g>
				</g>
				<g>
					<g>
						<g>
							<g>
								<g>
									<g>
										<g>
											<path class="st0" d="M82.5,138.5c0,0-0.6,0.5-1.3,1.6c-0.7,1-1.4,2.7-1.4,4.6c0,1.9,0.8,3.6,1.5,4.6
												c0.7,1,1.4,1.5,1.3,1.5c0,0-0.2-0.1-0.4-0.3c-0.3-0.2-0.6-0.6-1-1.1c-0.8-1-1.6-2.7-1.6-4.6c0-2,0.7-3.7,1.5-4.7
												c0.4-0.5,0.7-0.9,1-1.1C82.3,138.6,82.5,138.5,82.5,138.5z"/>
										</g>
									</g>
								</g>
							</g>
						</g>
					</g>
				</g>
				<g>
					<g>
						<g>
							<g>
								<g>
									<g>
										<g>
											<path class="st0" d="M80.4,138.3c0,0-0.6,0.5-1.3,1.6c-0.7,1-1.4,2.7-1.4,4.6c0,1.9,0.8,3.6,1.5,4.6
												c0.7,1,1.4,1.5,1.3,1.5c0,0-0.2-0.1-0.4-0.3c-0.3-0.2-0.6-0.6-1-1.1c-0.8-1-1.6-2.7-1.6-4.6c0-2,0.7-3.7,1.5-4.7
												c0.4-0.5,0.7-0.9,1-1.1C80.2,138.4,80.4,138.3,80.4,138.3z"/>
										</g>
									</g>
								</g>
							</g>
						</g>
					</g>
				</g>
				<g>
					<g>
						<g>
							<g>
								<g>
									<g>
										<path class="st0" d="M49.8,146.2c0-1.4,0-2.9-0.1-4.3c0-0.4,0-0.8-0.2-1.1c-0.1-0.4-0.4-0.7-0.8-0.7
											c-0.5-0.2-1.4,0.2-1.8,0.8c-0.4,0.6-0.4,1.4-0.4,2.1c0,1.1,0,2.3,0.2,3.4c0.1,0.5,0.1,1.1,0.4,1.6
											c0.3,0.5,0.8,0.8,1.3,0.8c0.5,0,1-0.5,1.2-1C49.8,147.3,49.8,146.8,49.8,146.2z"/>
									</g>
								</g>
							</g>
						</g>
					</g>
				</g>
				<g>
					<g>
						<g>
							<g>
								<g>
									<g>
										<g>
											<path class="st0" d="M73.6,145c0,0.1-4.4,0.1-9.9,0.1c-5.5,0-9.9-0.1-9.9-0.1c0-0.1,4.4-0.1,9.9-0.1
												C69.2,144.9,73.6,144.9,73.6,145z"/>
										</g>
									</g>
								</g>
							</g>
						</g>
					</g>
				</g>
			</g>
			<g>
				<g>
					<g>
						<g>
							<g>
								<g>
									<g>
										<g>
											<g>
												<polygon class="st0" points="45.7,138.1 45.5,128 51,128 51.2,138.1 												"/>
											</g>
										</g>
									</g>
								</g>
							</g>
						</g>
						<g>
							<g>
								<g>
									<g>
										<g>
											<g>
												<g>
													<path class="st1" d="M50.7,129.8c0,0.1-1.1,0.1-2.6,0.1c-1.4,0-2.6-0.1-2.6-0.1c0-0.1,1.1-0.1,2.6-0.1
														C49.6,129.7,50.7,129.7,50.7,129.8z"/>
												</g>
											</g>
										</g>
									</g>
								</g>
							</g>
						</g>
						<g>
							<g>
								<g>
									<g>
										<g>
											<g>
												<g>
													<path class="st1" d="M50.7,131.4c0,0.1-1.1,0.1-2.6,0.1c-1.4,0-2.6-0.1-2.6-0.1c0-0.1,1.1-0.1,2.6-0.1
														C49.6,131.3,50.7,131.3,50.7,131.4z"/>
												</g>
											</g>
										</g>
									</g>
								</g>
							</g>
						</g>
						<g>
							<g>
								<g>
									<g>
										<g>
											<g>
												<g>
													<path class="st1" d="M50.7,132.9c0,0.1-1.1,0.1-2.6,0.1c-1.4,0-2.6-0.1-2.6-0.1c0-0.1,1.1-0.1,2.6-0.1
														C49.6,132.8,50.7,132.9,50.7,132.9z"/>
												</g>
											</g>
										</g>
									</g>
								</g>
							</g>
						</g>
						<g>
							<g>
								<g>
									<g>
										<g>
											<g>
												<g>
													<path class="st1" d="M50.7,134.5c0,0.1-1.1,0.1-2.6,0.1c-1.4,0-2.6-0.1-2.6-0.1c0-0.1,1.1-0.1,2.6-0.1
														C49.6,134.4,50.7,134.4,50.7,134.5z"/>
												</g>
											</g>
										</g>
									</g>
								</g>
							</g>
						</g>
						<g>
							<g>
								<g>
									<g>
										<g>
											<g>
												<g>
													<path class="st1" d="M50.7,136.1c0,0.1-1.1,0.1-2.6,0.1c-1.4,0-2.6-0.1-2.6-0.1c0-0.1,1.1-0.1,2.6-0.1
														C49.6,135.9,50.7,136,50.7,136.1z"/>
												</g>
											</g>
										</g>
									</g>
								</g>
							</g>
						</g>
					</g>
					<g>
						<g>
							<g>
								<g>
									<g>
										<g>
											<path class="st2" d="M45.2,127.7h61c0.8,3.3,0.6,7,0,10.9H45.5v-0.7h3.7c1,0,1.8-0.8,1.8-1.8v-6c0-1-0.8-1.8-1.8-1.8h-4
												V127.7z"/>
										</g>
									</g>
								</g>
							</g>
						</g>
					</g>
					<g>
						<g>
							<g>
								<g>
									<g>
										<g>
											<path class="st3" d="M59.7,133.2h1c0,0,0.1,0,0.1,0c0.1,0,0.1,0.1,0.1,0.2c0,0,0,0,0,0.1c0,0.1,0,0.2-0.1,0.3
												c-0.1,0.5-0.4,0.8-0.6,1.2c-0.3,0.3-0.6,0.4-0.9,0.4c0,0-0.1,0-0.1,0c-0.3,0-0.5-0.2-0.7-0.5c-0.2-0.3-0.3-0.7-0.3-1.2
												c0-0.3,0-0.6,0.1-0.9c0.1-0.5,0.3-0.9,0.6-1.2c0.3-0.3,0.6-0.5,0.9-0.5c0.1,0,0.3,0,0.4,0.1c0.3,0.1,0.5,0.4,0.6,0.7
												c0,0,0,0.1,0,0.1c0,0,0,0.1,0,0.1c0,0.1-0.1,0.1-0.2,0.1c0,0,0,0-0.1,0c-0.1,0-0.1-0.1-0.1-0.1l0,0
												c0-0.1-0.1-0.2-0.1-0.2c-0.1-0.2-0.3-0.3-0.5-0.3c-0.1,0-0.2,0-0.3,0.1c-0.2,0.2-0.4,0.4-0.6,0.8
												c-0.2,0.4-0.2,0.8-0.2,1.1c0,0.4,0.1,0.7,0.2,0.9c0.1,0.3,0.3,0.4,0.5,0.4c0.2,0,0.3-0.1,0.5-0.3
												c0.2-0.2,0.4-0.6,0.5-0.9c-0.5,0-0.7,0-0.7,0c-0.2,0-0.2-0.1-0.2-0.2c0,0,0-0.1,0-0.1C59.5,133.3,59.6,133.2,59.7,133.2z
												"/>
										</g>
									</g>
								</g>
							</g>
						</g>
						<g>
							<g>
								<g>
									<g>
										<g>
											<path class="st3" d="M63.1,131.2C63.1,131.2,63.1,131.3,63.1,131.2c0.1,0.2,0.3,1.5,0.7,3.9c0,0,0,0,0,0.1
												c0,0,0,0.1,0,0.1c0,0.1-0.1,0.1-0.2,0.1c0,0,0,0,0,0c-0.1,0-0.1-0.1-0.2-0.2l-0.2-1.3H62l-0.6,1.3c0,0,0,0,0,0
												c-0.1,0.1-0.1,0.1-0.2,0.1c0,0-0.1,0-0.1,0c-0.1,0-0.1-0.1-0.1-0.2c0,0,0,0,0-0.1c0-0.1,0.1-0.2,0.2-0.4
												c0.9-1.9,1.4-3,1.6-3.4c0-0.1,0.1-0.2,0.2-0.2C63,131.1,63.1,131.2,63.1,131.2z M62.9,132.1l-0.7,1.4h1L62.9,132.1z"/>
										</g>
									</g>
								</g>
							</g>
						</g>
						<g>
							<g>
								<g>
									<g>
										<g>
											<path class="st3" d="M66.5,135.4h-1.8c0,0-0.1,0-0.1,0c-0.1,0-0.1-0.1-0.1-0.2v0c0-0.1,0.2-1.3,0.5-3.8c0,0,0-0.1,0-0.1
												c0-0.1,0.1-0.1,0.2-0.1c0,0,0.1,0,0.1,0c0.1,0,0.1,0.1,0.1,0.2c0,0.2-0.1,0.5-0.1,1c-0.2,1.6-0.3,2.5-0.3,2.5h1.6
												c0,0,0.1,0,0.1,0c0.1,0,0.1,0.1,0.1,0.2c0,0,0,0,0,0.1C66.7,135.3,66.7,135.3,66.5,135.4z"/>
										</g>
									</g>
								</g>
							</g>
						</g>
						<g>
							<g>
								<g>
									<g>
										<g>
											<path class="st3" d="M69,131.2C69.1,131.2,69.1,131.3,69,131.2c0.1,0.2,0.3,1.5,0.7,3.9c0,0,0,0,0,0.1c0,0,0,0.1,0,0.1
												c0,0.1-0.1,0.1-0.2,0.1c0,0,0,0,0,0c-0.1,0-0.1-0.1-0.2-0.2l-0.2-1.3h-1.3l-0.6,1.3c0,0,0,0,0,0
												c-0.1,0.1-0.1,0.1-0.2,0.1c0,0-0.1,0-0.1,0c-0.1,0-0.1-0.1-0.1-0.2c0,0,0,0,0-0.1c0-0.1,0.1-0.2,0.2-0.4
												c0.9-1.9,1.4-3,1.6-3.4c0-0.1,0.1-0.2,0.2-0.2C68.9,131.1,69,131.2,69,131.2z M68.8,132.1l-0.7,1.4h1L68.8,132.1z"/>
										</g>
									</g>
								</g>
							</g>
						</g>
						<g>
							<g>
								<g>
									<g>
										<g>
											<path class="st3" d="M72,133.4c0.1,0.4,0.3,0.7,0.3,0.9c0.2,0.5,0.3,0.8,0.3,0.8c0,0,0,0.1,0,0.1c0,0.1-0.1,0.1-0.2,0.1
												c-0.1,0-0.1-0.1-0.2-0.1c0,0,0-0.1,0-0.1c-0.1-0.2-0.3-0.7-0.5-1.3l-1,1.4c-0.1,0.1-0.1,0.1-0.2,0.1c0,0-0.1,0-0.1,0
												c-0.1,0-0.1-0.1-0.1-0.2c0,0,0,0,0,0c0,0,0-0.1,0.1-0.2c0.3-0.5,0.7-1,1.2-1.6c0-0.1-0.1-0.2-0.1-0.3
												c-0.4-1-0.6-1.6-0.6-1.6c0,0,0-0.1,0-0.1c0-0.1,0.1-0.1,0.2-0.1c0.1,0,0.2,0,0.2,0.1l0.6,1.7l1.2-1.7
												c0.1-0.1,0.1-0.1,0.2-0.1c0,0,0.1,0,0.1,0c0.1,0,0.1,0.1,0.1,0.2c0,0,0,0.1,0,0.1L72,133.4z"/>
										</g>
									</g>
								</g>
							</g>
						</g>
						<g>
							<g>
								<g>
									<g>
										<g>
											<path class="st3" d="M76.5,131.1c0,0,0.1,0,0.1,0c0.1,0,0.1,0.1,0.1,0.2c-0.3,2.4-0.5,3.7-0.5,3.9
												c-0.1,0.4-0.2,0.7-0.4,1c-0.3,0.4-0.7,0.6-1.2,0.6c-0.2,0-0.4-0.1-0.6-0.2c-0.3-0.1-0.5-0.3-0.6-0.6c0,0,0-0.1,0-0.1
												c0,0,0-0.1,0-0.1c0-0.1,0.1-0.1,0.2-0.1c0.1,0,0.1,0,0.2,0.1c0.3,0.4,0.6,0.5,0.9,0.5c0.3,0,0.5-0.1,0.7-0.4
												c0.2-0.3,0.4-0.7,0.4-1.2c-0.1,0.1-0.2,0.2-0.3,0.3c-0.2,0.1-0.4,0.2-0.7,0.2c0,0-0.1,0-0.1,0c-0.3,0-0.5-0.2-0.7-0.5
												c-0.2-0.3-0.3-0.7-0.3-1.2c0-0.2,0-0.5,0-0.7c0-0.4,0.1-0.9,0.2-1.6c0,0,0,0,0-0.1c0-0.1,0.1-0.2,0.2-0.2
												c0,0,0.1,0,0.1,0c0.1,0,0.1,0.1,0.1,0.2c0,0.1,0,0.4-0.1,0.8c-0.1,0.7-0.1,1.1-0.1,1.3c0,0.4,0.1,0.7,0.2,1
												c0.1,0.3,0.3,0.4,0.5,0.4c0,0,0,0,0.1,0c0.2,0,0.4-0.2,0.5-0.4c0.2-0.3,0.4-0.6,0.5-1l0.3-2.1c0,0,0-0.1,0-0.1
												C76.4,131.2,76.4,131.1,76.5,131.1z"/>
										</g>
									</g>
								</g>
							</g>
						</g>
					</g>
					<g>
						<g>
							<g>
								<g>
									<g>
										<g>
											<g>
												<path class="st0" d="M103.9,138.8c-0.1,0-0.1-2.5-0.1-5.6c0-3.1,0.1-5.6,0.1-5.6c0.1,0,0.1,2.5,0.1,5.6
													C104.1,136.3,104,138.8,103.9,138.8z"/>
											</g>
										</g>
									</g>
								</g>
							</g>
						</g>
					</g>
					<g>
						<g>
							<g>
								<g>
									<g>
										<g>
											<g>
												<path class="st1" d="M54,138.8c-0.1,0-0.1-2.5-0.1-5.6c0-3.1,0.1-5.6,0.1-5.6c0.1,0,0.1,2.5,0.1,5.6
													C54.2,136.3,54.1,138.8,54,138.8z"/>
											</g>
										</g>
									</g>
								</g>
							</g>
						</g>
					</g>
					<g>
						<g>
							<g>
								<g>
									<g>
										<g>
											<g>
												<path class="st0" d="M105,138.8c-0.1,0-0.1-2.5-0.1-5.6c0-3.1,0.1-5.6,0.1-5.6c0.1,0,0.1,2.5,0.1,5.6
													C105.1,136.3,105.1,138.8,105,138.8z"/>
											</g>
										</g>
									</g>
								</g>
							</g>
						</g>
					</g>
					<g>
						<g>
							<g>
								<g>
									<g>
										<g>
											<g>
												<path class="st1" d="M53,138.8c-0.1,0-0.1-2.5-0.1-5.6c0-3.1,0.1-5.6,0.1-5.6c0.1,0,0.1,2.5,0.1,5.6
													C53.1,136.3,53.1,138.8,53,138.8z"/>
											</g>
										</g>
									</g>
								</g>
							</g>
						</g>
					</g>
				</g>
				<g>
					<g>
						<g>
							<g>
								<g>
									<g>
										<g>
											<g>
												<g>
													<g>
														<g>
															<g>
																<path class="st1" d="M89.2,129.4L89.2,129.4c1.7,1.3,3.9,3.2,6.4,5.2l0.1,0l-0.1,0c-0.3,0.1-0.6,0.1-0.9,0.2
																	c-2,0.5-3.8,1-5.4,1.4l0,0l0,0c-2-0.9-3.7-1.6-4.9-2.1c-0.6-0.3-1.1-0.5-1.4-0.6c-0.2-0.1-0.3-0.1-0.4-0.2
																	c0,0-0.1,0-0.1,0c0,0,0,0,0,0c0,0,0,0,0,0c0,0,0.1,0,0.1,0c0.1,0,0.2,0.1,0.4,0.2c0.3,0.1,0.8,0.3,1.4,0.6
																	c1.2,0.5,2.9,1.2,4.9,2.1l0,0c1.6-0.4,3.5-0.9,5.4-1.4c0.3-0.1,0.6-0.2,0.9-0.2l0,0.1
																	C93,132.6,90.8,130.8,89.2,129.4L89.2,129.4L89.2,129.4"/>
															</g>
														</g>
													</g>
												</g>
											</g>
										</g>
									</g>
								</g>
							</g>
						</g>
					</g>
					<g>
						<g>
							<g>
								<g>
									<g>
										<g>
											<g>
												<g>
													<g>
														<g>
															<polygon class="st1" points="95,133.8 95.4,134.2 95.8,134 95.6,134.5 95.9,134.9 95.4,134.8 95.1,135.2 95,134.7 
																94.5,134.5 95,134.3 															"/>
														</g>
													</g>
												</g>
											</g>
										</g>
									</g>
								</g>
							</g>
						</g>
					</g>
					<g>
						<g>
							<g>
								<g>
									<g>
										<g>
											<g>
												<g>
													<g>
														<g>
															<polygon class="st1" points="88.8,135.9 89.1,136.1 89.4,136 89.3,136.3 89.4,136.5 89.1,136.5 88.9,136.8 
																88.8,136.5 88.6,136.3 88.8,136.2 															"/>
														</g>
													</g>
												</g>
											</g>
										</g>
									</g>
								</g>
							</g>
						</g>
					</g>
					<g>
						<g>
							<g>
								<g>
									<g>
										<g>
											<g>
												<g>
													<g>
														<g>
															<polygon class="st1" points="82,133.1 82.4,133.1 82.6,132.8 82.7,133.2 83.1,133.3 82.7,133.5 82.7,133.9 
																82.4,133.6 82.1,133.7 82.2,133.4 															"/>
														</g>
													</g>
												</g>
											</g>
										</g>
									</g>
								</g>
							</g>
						</g>
					</g>
					<g>
						<g>
							<g>
								<g>
									<g>
										<g>
											<g>
												<g>
													<g>
														<g>
															<polygon class="st1" points="97.9,129.5 98.3,129.6 98.5,129.3 98.6,129.6 99,129.8 98.7,130 98.6,130.3 98.3,130.1 
																98,130.2 98.1,129.8 															"/>
														</g>
													</g>
												</g>
											</g>
										</g>
									</g>
								</g>
							</g>
						</g>
					</g>
					<g>
						<g>
							<g>
								<g>
									<g>
										<g>
											<g>
												<g>
													<g>
														<g>
															<polygon class="st1" points="88.8,129.3 89.1,129.3 89.2,129.1 89.3,129.3 89.5,129.4 89.3,129.6 89.3,129.8 
																89.1,129.6 88.9,129.7 89,129.5 															"/>
														</g>
													</g>
												</g>
											</g>
										</g>
									</g>
								</g>
							</g>
						</g>
					</g>
					<g>
						<g>
							<g>
								<g>
									<g>
										<g>
											<g>
												<path class="st1" d="M98.4,129.8c0,0-2.1,0-4.7-0.2c-2.6-0.1-4.7-0.2-4.7-0.2c0,0,2.1,0,4.7,0.2
													C96.4,129.7,98.4,129.8,98.4,129.8z"/>
											</g>
										</g>
									</g>
								</g>
							</g>
						</g>
					</g>
				</g>
			</g>
			<g>
				<g>
					<g>
						<g>
							<g>
								<g>
									<g>
										<path class="st1" d="M100.8,127.6H38.9c-0.8-1.8-1-3.6,0-5.1h61.9C101.6,124.4,101.5,126.1,100.8,127.6z"/>
									</g>
								</g>
							</g>
						</g>
					</g>
				</g>
				<g>
					<g>
						<g>
							<g>
								<g>
									<g>
										<rect x="51.7" y="124" class="st2" width="33.5" height="1.9"/>
									</g>
								</g>
							</g>
						</g>
					</g>
				</g>
				<g>
					<g>
						<g>
							<g>
								<g>
									<g>
										<g>
											<path class="st1" d="M41.3,127.7c0,0-0.2-0.2-0.5-0.6c-0.2-0.4-0.5-1.1-0.6-1.8c-0.1-0.8,0.1-1.4,0.2-1.9
												c0.2-0.5,0.4-0.7,0.4-0.7c0,0-0.1,0.3-0.2,0.7c-0.1,0.5-0.2,1.1-0.2,1.8c0.1,0.7,0.3,1.3,0.5,1.8
												C41.2,127.4,41.3,127.7,41.3,127.7z"/>
										</g>
									</g>
								</g>
							</g>
						</g>
					</g>
				</g>
				<g>
					<g>
						<g>
							<g>
								<g>
									<g>
										<g>
											<path class="st1" d="M42.6,127.7c0,0-0.2-0.2-0.5-0.6c-0.2-0.4-0.5-1.1-0.6-1.8c-0.1-0.8,0.1-1.4,0.2-1.9
												c0.2-0.5,0.4-0.7,0.4-0.7c0,0-0.1,0.3-0.2,0.7c-0.1,0.5-0.2,1.1-0.2,1.8c0.1,0.7,0.3,1.3,0.5,1.8
												C42.5,127.4,42.7,127.7,42.6,127.7z"/>
										</g>
									</g>
								</g>
							</g>
						</g>
					</g>
				</g>
				<g>
					<g>
						<g>
							<g>
								<g>
									<g>
										<g>
											<path class="st0" d="M98.3,127.6c-0.1,0,0.4-1.1,0.4-2.5c0-1.4-0.5-2.5-0.4-2.5c0,0,0.6,1,0.6,2.5
												C98.9,126.5,98.3,127.6,98.3,127.6z"/>
										</g>
									</g>
								</g>
							</g>
						</g>
					</g>
				</g>
				<g>
					<g>
						<g>
							<g>
								<g>
									<g>
										<g>
											<path class="st0" d="M97.1,127.5c-0.1,0,0.2-1.1,0.2-2.5c0-1.4-0.3-2.4-0.2-2.5c0.1,0,0.4,1.1,0.4,2.5
												C97.5,126.5,97.2,127.6,97.1,127.5z"/>
										</g>
									</g>
								</g>
							</g>
						</g>
					</g>
				</g>
			</g>
		</g>
		<g>
			<g>
				<g>
					<g>
						<g>
							<g>
								<g>
									<g>
										<g>
											
												<rect x="130" y="51" transform="matrix(1 -5.348318e-03 5.348318e-03 1 -0.3333 0.755)" class="st2" width="22" height="23.4"/>
										</g>
									</g>
								</g>
							</g>
						</g>
					</g>
				</g>
				<g>
					<g>
						<g>
							<g>
								<g>
									<g>
										<g>
											
												<rect x="151.9" y="50.9" transform="matrix(1 -5.352834e-03 5.352834e-03 1 -0.3326 0.8729)" class="st0" width="22" height="23.4"/>
										</g>
									</g>
								</g>
							</g>
						</g>
					</g>
				</g>
				<g>
					<g>
						<g>
							<g>
								<g>
									<g>
										<g>
											<g>
												<path class="st1" d="M129.9,57.5c14.6,0.1,29.3,0,43.9-0.2c0.3,0,0.3-0.5,0-0.5c-14.6-0.1-29.3,0-43.9,0.3
													C129.7,57.1,129.7,57.5,129.9,57.5L129.9,57.5z"/>
											</g>
										</g>
									</g>
								</g>
							</g>
						</g>
					</g>
				</g>
			</g>
			<g>
				<g>
					<g>
						<g>
							<g>
								<g>
									<g>
										<g>
											
												<rect x="116.2" y="74" transform="matrix(1 -5.357699e-03 5.357699e-03 1 -0.4457 0.7311)" class="st2" width="40" height="19"/>
										</g>
									</g>
								</g>
							</g>
						</g>
					</g>
				</g>
				<g>
					<g>
						<g>
							<g>
								<g>
									<g>
										<g>
											
												<rect x="156.1" y="73.8" transform="matrix(1 -5.357713e-03 5.357713e-03 1 -0.444 0.9445)" class="st0" width="40" height="19"/>
										</g>
									</g>
								</g>
							</g>
						</g>
					</g>
				</g>
				<g>
					<g>
						<g>
							<g>
								<g>
									<g>
										<g>
											<g>
												<path class="st1" d="M116.2,79.4c26.6,0.3,53.3,0,79.8-0.4c0.3,0,0.3-0.5,0-0.5c-26.6-0.1-53.3-0.1-79.8,0.5
													C116,79,116,79.4,116.2,79.4L116.2,79.4z"/>
											</g>
										</g>
									</g>
								</g>
							</g>
						</g>
					</g>
				</g>
			</g>
		</g>
		<g>
			<g>
				<g>
					<g>
						<g>
							<g>
								<g>
									<g>
										<g>
											
												<rect x="80.1" y="181.8" transform="matrix(1 -5.357694e-03 5.357694e-03 1 -1.0236 0.5392)" class="st2" width="40" height="19"/>
										</g>
									</g>
								</g>
							</g>
						</g>
					</g>
				</g>
				<g>
					<g>
						<g>
							<g>
								<g>
									<g>
										<g>
											
												<rect x="119.9" y="181.6" transform="matrix(1 -5.357699e-03 5.357699e-03 1 -1.0219 0.7525)" class="st0" width="40" height="19"/>
										</g>
									</g>
								</g>
							</g>
						</g>
					</g>
				</g>
				<g>
					<g>
						<g>
							<g>
								<g>
									<g>
										<g>
											<g>
												<path class="st1" d="M80.1,187.2c26.6,0.3,53.3,0,79.8-0.4c0.3,0,0.3-0.5,0-0.5c-26.6-0.1-53.3-0.1-79.8,0.5
													C79.8,186.8,79.8,187.2,80.1,187.2L80.1,187.2z"/>
											</g>
										</g>
									</g>
								</g>
							</g>
						</g>
					</g>
				</g>
			</g>
		</g>
		<g>
			<g>
				<g>
					<g>
						<g>
							<g>
								<g>
									<g>
										
											<rect x="56.4" y="43" transform="matrix(1 -5.349477e-03 5.349477e-03 1 -0.3636 0.3297)" class="st1" width="10.1" height="50.2"/>
									</g>
								</g>
							</g>
						</g>
					</g>
				</g>
			</g>
			<g>
				<g>
					<g>
						<g>
							<g>
								<g>
									<g>
										
											<rect x="66.3" y="24.3" transform="matrix(1 -5.359299e-03 5.359299e-03 1 -0.3143 0.3833)" class="st2" width="10.1" height="69.1"/>
									</g>
								</g>
							</g>
						</g>
					</g>
				</g>
			</g>
			<g>
				<g>
					<g>
						<g>
							<g>
								<g>
									<g>
										<g>
											
												<rect x="76.5" y="37.2" transform="matrix(1 -5.368060e-03 5.368060e-03 1 -0.3486 0.4534)" class="st0" width="15.7" height="56"/>
										</g>
									</g>
								</g>
							</g>
						</g>
					</g>
				</g>
				<g>
					<g>
						<g>
							<g>
								<g>
									<g>
										<g>
											<path class="st1" d="M91.9,47.9c0,0.2-3.5,0.3-7.8,0.3c-4.3,0-7.8-0.1-7.8-0.3c0-0.1,3.5-0.3,7.8-0.3
												C88.4,47.6,91.9,47.8,91.9,47.9z"/>
										</g>
									</g>
								</g>
							</g>
						</g>
					</g>
				</g>
				<g>
					<g>
						<g>
							<g>
								<g>
									<g>
										<g>
											<path class="st1" d="M91.9,45.6c0,0.1-3.5,0.3-7.8,0.3c-4.3,0-7.8-0.1-7.8-0.3c0-0.2,3.5-0.3,7.8-0.3
												C88.4,45.3,91.9,45.4,91.9,45.6z"/>
										</g>
									</g>
								</g>
							</g>
						</g>
					</g>
				</g>
				<g>
					<g>
						<g>
							<g>
								<g>
									<g>
										<g>
											<path class="st1" d="M91.9,84.7c0,0.2-3.5,0.3-7.8,0.3c-4.3,0-7.8-0.1-7.8-0.3c0-0.2,3.5-0.3,7.8-0.3
												C88.4,84.4,91.9,84.5,91.9,84.7z"/>
										</g>
									</g>
								</g>
							</g>
						</g>
					</g>
				</g>
				<g>
					<g>
						<g>
							<g>
								<g>
									<g>
										<g>
											<path class="st1" d="M91.9,82.3c0,0.2-3.5,0.3-7.8,0.3c-4.3,0-7.8-0.1-7.8-0.3c0-0.2,3.5-0.3,7.8-0.3
												C88.4,82.1,91.9,82.2,91.9,82.3z"/>
										</g>
									</g>
								</g>
							</g>
						</g>
					</g>
				</g>
				<g>
					<g>
						<g>
							<g>
								<g>
									<g>
										<g>
											<path class="st1" d="M84.3,77.2c-0.2,0-0.3-5.6-0.3-12.6c0-7,0.1-12.6,0.3-12.6c0.1,0,0.3,5.6,0.3,12.6
												C84.6,71.6,84.4,77.2,84.3,77.2z"/>
										</g>
									</g>
								</g>
							</g>
						</g>
					</g>
				</g>
			</g>
			<g>
				<g>
					<g>
						<g>
							<g>
								<g>
									<g>
										<rect x="92.1" y="50.9" class="st2" width="17.1" height="42.3"/>
									</g>
								</g>
							</g>
						</g>
					</g>
				</g>
			</g>
			<g>
				<g>
					<g>
						<g>
							<g>
								<g>
									<path class="st1" d="M73.9,36.1c0,1.6-1.3,2.9-2.9,2.9c-1.6,0-2.9-1.3-2.9-2.9c0-1.6,1.3-2.9,2.9-2.9
										C72.6,33.2,73.9,34.5,73.9,36.1z"/>
								</g>
							</g>
						</g>
					</g>
				</g>
			</g>
			<g>
				<g>
					<g>
						<g>
							<g>
								<g>
									<rect x="70.1" y="44" class="st1" width="1.8" height="41.1"/>
								</g>
							</g>
						</g>
					</g>
				</g>
			</g>
		</g>
		<g>
			<g>
				<g>
					<rect x="28.1" y="151.1" class="st1" width="177.7" height="6.1"/>
				</g>
			</g>
			<g>
				<g>
					<rect x="28.1" y="93.4" class="st1" width="177.7" height="6.1"/>
				</g>
			</g>
			<g>
				<g>
					<rect x="64.4" y="201" class="st1" width="141.5" height="5.7"/>
				</g>
			</g>
			<g>
				<g>
					<rect x="110.2" y="98.3" class="st1" width="6.8" height="57.4"/>
				</g>
			</g>
			<g>
				<g>
					<rect x="64.5" y="151.1" class="st1" width="6.8" height="55.6"/>
				</g>
			</g>
		</g>
		<g>
			<g>
				<g>
					<path class="st0" d="M150.9,125l-4.2,6c0,0,9.4,2.6,9.4,10.9c0,8.3-5.7,9.9-12,9.9c-6.2,0-12.2-1.8-12-10.2
						c0.3-8.3,8.1-11.5,8.1-11.5l-3.9-5.2H150.9z"/>
				</g>
			</g>
		</g>
	</g>
	<g>
		<g>
			<g>
				<rect x="702.2" y="49" class="st1" width="7" height="151.1"/>
			</g>
		</g>
		<g>
			<g>
				<path class="st0" d="M600.2,50.3v149.9c0,0.1,0,0.1,0.1,0.1H701c0.1,0,0.1,0,0.1-0.1V50.3c0-0.1,0-0.1-0.1-0.1H600.3
					C600.3,50.2,600.2,50.2,600.2,50.3z"/>
			</g>
		</g>
		<g>
			<g>
				<g>
					<path class="st2" d="M702.2,201.5h-103c-0.1,0-0.1,0-0.1-0.1V49.1c0-0.1,0-0.1,0.1-0.1h103c0.1,0,0.1,0,0.1,0.1v152.3
						C702.3,201.4,702.2,201.5,702.2,201.5z M601.5,199.1h98.3c0.1,0,0.1,0,0.1-0.1V51.4c0-0.1,0-0.1-0.1-0.1h-98.3
						c-0.1,0-0.1,0-0.1,0.1V199C601.4,199.1,601.4,199.1,601.5,199.1z"/>
				</g>
			</g>
		</g>
		<g>
			<g>
				<path class="st4" d="M610.4,59.5v131.3c0,0.1,0,0.1,0.1,0.1H691c0.1,0,0.1,0,0.1-0.1V59.5c0-0.1,0-0.1-0.1-0.1h-80.5
					C610.4,59.4,610.4,59.5,610.4,59.5z"/>
			</g>
		</g>
		<g>
			<g>
				<path class="st2" d="M673.3,149.8h-45.2c0,0-0.1,0-0.1-0.1v-53c0,0,0-0.1,0.1-0.1h45.2c0,0,0.1,0,0.1,0.1L673.3,149.8
					C673.3,149.8,673.3,149.8,673.3,149.8z"/>
			</g>
		</g>
		<g>
			<g>
				<g>
					<path class="st1" d="M669.7,143.3c0.1,0.2-2.2,1.2-6.4,0.7c-2.1-0.3-4.7-1-7.2-2.9c-2.5-1.9-4.8-4.8-5.6-8.8
						c-0.8-4,0.5-8.9,4.3-12.1c0.9-0.8,2-1.5,3.3-1.9c1.3-0.5,2.7-0.6,4.1-0.5c1.4,0.2,2.8,0.6,4.1,1.8c1.2,1.1,1.9,3,1.6,4.7
						c-0.3,1.7-1.2,3-2.2,4.1c-1,1.1-2.2,1.8-3.4,2.5c-2.4,1.3-5.2,2.2-8.1,2.3c-2.9,0.1-6-0.5-8.7-2c-2.7-1.5-5-3.8-6.4-6.6
						c-1.4-2.8-1.9-6.2-1.1-9.3c0.7-3,2.5-5.8,4.9-7.6c1.2-0.9,2.6-1.6,4.1-2.1c1.5-0.4,3.1-0.5,4.6-0.1c1.5,0.3,3.1,1.1,4.2,2.4
						c1.1,1.3,1.6,3,1.6,4.5c0,1.5-0.4,3-1.1,4.3c-0.7,1.2-1.6,2.3-2.6,3.1c-2,1.7-4.2,2.8-6.4,3.4c-2.3,0.6-4.6,0.8-6.8,0.5
						c-2.2-0.3-4.2-1.1-5.9-2.3c-3.3-2.3-5.3-5.7-5.6-8.9c-0.4-3.2,0.8-5.9,2.1-7.6c1.3-1.8,2.8-2.7,3.8-3.1
						c1.1-0.4,1.7-0.4,1.7-0.3c0,0.1-0.5,0.4-1.3,1c-0.8,0.6-2,1.6-3,3.2c-0.9,1.6-1.7,4-1.2,6.5c0.4,2.5,2.2,5.3,5,7
						c2.7,1.7,6.6,2.2,10.3,1c1.8-0.6,3.7-1.6,5.2-2.9c1.5-1.3,2.5-3,2.4-4.8c0-1.8-1.2-3.1-3.1-3.4c-0.9-0.2-2-0.1-3,0.1
						c-1,0.3-1.9,0.8-2.8,1.5c-1.7,1.3-3,3.4-3.5,5.6c-0.5,2.2-0.2,4.6,0.9,6.7c1.1,2.1,2.8,3.9,4.9,5.1c2,1.2,4.4,1.6,6.7,1.6
						c2.3-0.1,4.6-0.7,6.6-1.8c1-0.5,1.9-1.2,2.6-1.9c0.7-0.7,1.2-1.5,1.3-2.2c0.1-0.7-0.1-1.3-0.5-1.8c-0.5-0.5-1.3-0.8-2.2-1
						c-0.9-0.1-1.8-0.1-2.6,0.2c-0.9,0.3-1.7,0.7-2.4,1.3c-1.4,1.1-2.5,2.7-3.1,4.3c-0.6,1.6-0.8,3.3-0.5,4.9
						c0.5,3.2,2.3,5.9,4.3,7.7c2.1,1.7,4.3,2.6,6.2,3.1C667.4,143.5,669.7,143,669.7,143.3z"/>
				</g>
			</g>
		</g>
	</g>
	<g>
		<g>
			<g>
				<g>
					<g>
						<g>
							<g>
								<g>
									<polygon class="st0" points="192.4,454.3 192.4,479 228.5,479 268.3,479 268.3,454.3 									"/>
								</g>
							</g>
						</g>
					</g>
				</g>
			</g>
			<g>
				<g>
					<g>
						<g>
							<g>
								<g>
									<polygon class="st1" points="189.2,447.4 189.2,454.3 271,454.3 271,447.4 228.5,447.4 									"/>
								</g>
							</g>
						</g>
					</g>
				</g>
			</g>
			<g>
				<g>
					<g>
						<g>
							<g>
								<g>
									<polygon class="st1" points="230.1,479 268.3,479 268.3,454.3 271,454.3 271,447.4 228.5,447.4 228.5,453.7 									"/>
								</g>
							</g>
						</g>
					</g>
				</g>
			</g>
			<g>
				<g>
					<g>
						<g>
							<g>
								<g>
									<rect x="203" y="458.3" class="st1" width="15.4" height="3.7"/>
								</g>
							</g>
						</g>
					</g>
				</g>
			</g>
			<g>
				<g>
					<g>
						<g>
							<g>
								<g>
									<rect x="201.1" y="466.7" class="st4" width="19.8" height="7.8"/>
								</g>
							</g>
						</g>
					</g>
				</g>
			</g>
		</g>
	</g>
	<g>
		<g>
			<g>
				<g>
					<g>
						<g>
							<g>
								<g>
									<polygon class="st0" points="210.1,422.8 210.1,447.5 246.2,447.5 286,447.5 286,422.8 									"/>
								</g>
							</g>
						</g>
					</g>
				</g>
			</g>
			<g>
				<g>
					<g>
						<g>
							<g>
								<g>
									<polygon class="st1" points="206.9,415.9 206.9,422.8 288.7,422.8 288.7,415.9 246.2,415.9 									"/>
								</g>
							</g>
						</g>
					</g>
				</g>
			</g>
			<g>
				<g>
					<g>
						<g>
							<g>
								<g>
									<polygon class="st1" points="247.8,447.5 286,447.5 286,422.8 288.7,422.8 288.7,415.9 246.2,415.9 246.2,422.2 									
										"/>
								</g>
							</g>
						</g>
					</g>
				</g>
			</g>
			<g>
				<g>
					<g>
						<g>
							<g>
								<g>
									<rect x="220.7" y="426.8" class="st1" width="15.4" height="3.7"/>
								</g>
							</g>
						</g>
					</g>
				</g>
			</g>
			<g>
				<g>
					<g>
						<g>
							<g>
								<g>
									<rect x="218.7" y="435.1" class="st4" width="19.8" height="7.8"/>
								</g>
							</g>
						</g>
					</g>
				</g>
			</g>
		</g>
	</g>
	<g>
		<g>
			<g>
				<g>
					<g>
						<g>
							<g>
								<g>
									<polygon class="st0" points="55.4,453.5 55.4,478.1 91.5,478.1 131.3,478.1 131.3,453.5 									"/>
								</g>
							</g>
						</g>
					</g>
				</g>
			</g>
			<g>
				<g>
					<g>
						<g>
							<g>
								<g>
									<polygon class="st1" points="52.2,446.6 52.2,453.5 133.9,453.5 133.9,446.6 91.5,446.6 									"/>
								</g>
							</g>
						</g>
					</g>
				</g>
			</g>
			<g>
				<g>
					<g>
						<g>
							<g>
								<g>
									<polygon class="st1" points="93.1,478.1 131.3,478.1 131.3,453.5 133.9,453.5 133.9,446.6 91.5,446.6 91.5,452.8 									
										"/>
								</g>
							</g>
						</g>
					</g>
				</g>
			</g>
			<g>
				<g>
					<g>
						<g>
							<g>
								<g>
									<rect x="66" y="457.4" class="st1" width="15.4" height="3.7"/>
								</g>
							</g>
						</g>
					</g>
				</g>
			</g>
			<g>
				<g>
					<g>
						<g>
							<g>
								<g>
									<rect x="64" y="465.8" class="st4" width="19.8" height="7.8"/>
								</g>
							</g>
						</g>
					</g>
				</g>
			</g>
		</g>
	</g>
</g>
<g id="Background_Simple" class="st5">
	<g class="st6">
		<path class="st0" d="M660.9,126.5l-2.3-5.8C639.5,72,595.7,37.1,544.2,31.5c-6.6-0.7-13.3-1-20-0.7c-48.1,1.9-94.5,30-119,72
			c-14.4,24.7-22.4,54.6-44.7,72.4c-29,23.1-70.4,16.8-106.4,9.4c-36.1-7.4-77.5-13.6-106.4,9.6c-18.1,14.5-27.1,38.1-29.9,61.3
			c-7.3,61.4,25.7,123.1,74.9,159.4s112.2,49.7,173.3,48.1c85.5-2.4,172-34.5,231.4-97C656.9,303.5,685.5,209.3,660.9,126.5z"/>
	</g>
</g>
<g id="Floor">
	<g>
		<g>
			<path class="st7" d="M677.7,478.2c0,0.1-133.3,0.3-297.6,0.3c-164.4,0-297.7-0.1-297.7-0.3c0-0.1,133.2-0.3,297.7-0.3
				C544.4,478,677.7,478.1,677.7,478.2z"/>
		</g>
	</g>
</g>
<g id="Device">
</g>
<g id="Plant">
	<g>
		<g>
			<g>
				<g>
					<rect x="94" y="416.5" class="st7" width="73.5" height="10.1"/>
				</g>
			</g>
			<g>
				<g>
					<path class="st7" d="M167.7,426.7H93.9v-10.4h73.8V426.7z M94.2,426.5h73.3v-9.8H94.2V426.5z"/>
				</g>
			</g>
		</g>
		<g>
			<g>
				<g>
					<polygon class="st7" points="100.9,423.2 111.4,475.4 150.6,475.4 160.8,426.6 					"/>
				</g>
			</g>
		</g>
		<g>
			<g>
				<g>
					<polygon class="st8" points="100.9,470.5 106.5,478.3 154.1,478.3 160.8,470.5 					"/>
				</g>
			</g>
		</g>
		<g>
			<g>
				<g>
					<g>
						<path class="st7" d="M128,424.8c-0.1,0-0.3-24.2-0.4-54c-0.1-29.8,0-54,0.1-54c0.1,0,0.3,24.2,0.4,54
							C128.2,400.6,128.2,424.8,128,424.8z"/>
					</g>
				</g>
			</g>
		</g>
		<g>
			<g>
				<g>
					<g>
						<path class="st7" d="M144.4,364.2c0,0-0.1,0.2-0.2,0.6c-0.2,0.4-0.4,0.9-0.7,1.6c-0.1,0.3-0.3,0.7-0.5,1.1
							c-0.2,0.4-0.3,0.9-0.5,1.4c-0.2,0.5-0.4,1-0.6,1.6c-0.2,0.6-0.4,1.2-0.5,1.8c-0.8,2.5-1.4,5.6-2.1,9
							c-0.5,3.4-0.9,7.2-1.1,11.3c-0.4,8,0.1,15.3,0.6,20.6c0.2,2.6,0.5,4.7,0.6,6.2c0.1,0.7,0.1,1.2,0.2,1.7c0,0.4,0,0.6,0,0.6
							c0,0-0.1-0.2-0.1-0.6c-0.1-0.4-0.2-1-0.3-1.7c-0.2-1.5-0.5-3.6-0.8-6.2c-0.6-5.2-1.1-12.6-0.7-20.6c0.2-4,0.6-7.9,1.2-11.3
							c0.6-3.4,1.3-6.5,2.2-9c0.2-0.6,0.4-1.2,0.6-1.8c0.2-0.6,0.4-1.1,0.6-1.6c0.2-0.5,0.4-0.9,0.5-1.4c0.2-0.4,0.4-0.8,0.5-1.1
							c0.3-0.6,0.6-1.1,0.7-1.5C144.3,364.4,144.4,364.2,144.4,364.2z"/>
					</g>
				</g>
			</g>
		</g>
		<g>
			<g>
				<g>
					<g>
						<path class="st7" d="M142.5,344.7c0,0-0.1,0.3-0.2,0.8c-0.2,0.6-0.4,1.3-0.8,2.2c-0.2,0.5-0.4,1-0.6,1.6
							c-0.2,0.6-0.4,1.3-0.6,2c-0.4,1.4-0.9,3-1.4,4.8c-0.2,0.9-0.5,1.8-0.7,2.8c-0.2,1-0.5,2-0.7,3.1c-0.5,2.1-0.9,4.4-1.4,6.8
							c-0.8,4.8-1.5,10.1-2,15.7c-0.5,5.6-0.7,11-0.7,15.8c0,4.9,0,9.3,0.2,12.9c0.1,1.8,0.2,3.5,0.3,5c0.1,1.5,0.2,2.7,0.3,3.7
							c0.1,1,0.1,1.8,0.2,2.4c0,0.5,0,0.8,0,0.8c0,0-0.1-0.3-0.1-0.8c-0.1-0.6-0.2-1.4-0.3-2.4c-0.1-1-0.2-2.3-0.4-3.7
							c-0.1-1.5-0.3-3.1-0.4-5c-0.2-3.7-0.3-8.1-0.4-13c0-4.9,0.2-10.3,0.7-15.9c0.5-5.6,1.2-10.9,2.1-15.8c0.5-2.4,0.9-4.7,1.4-6.8
							c0.2-1.1,0.5-2.1,0.7-3.1c0.3-1,0.5-1.9,0.8-2.8c0.5-1.8,1-3.4,1.4-4.8c0.2-0.7,0.4-1.3,0.6-1.9c0.2-0.6,0.4-1.1,0.6-1.6
							c0.4-0.9,0.6-1.7,0.9-2.2C142.4,344.9,142.5,344.7,142.5,344.7z"/>
					</g>
				</g>
			</g>
		</g>
		<g>
			<g>
				<g>
					<g>
						<path class="st7" d="M123.4,429c0,0,0-0.1,0-0.3c0-0.2,0-0.5-0.1-0.8c-0.1-0.8-0.1-1.8-0.2-3.2c-0.2-2.8-0.4-6.8-0.7-11.8
							c-0.6-9.9-1.6-23.7-3.2-38.8c-0.9-7.6-1.8-14.7-2.9-21.2c-0.5-3.2-1-6.3-1.6-9.2c-0.5-2.9-1.1-5.6-1.6-8
							c-0.5-2.4-1-4.6-1.5-6.6c-0.4-1.9-0.8-3.6-1.2-4.9c-0.3-1.3-0.6-2.4-0.8-3.1c-0.1-0.3-0.1-0.6-0.2-0.8c0-0.2-0.1-0.3,0-0.3
							c0,0,0,0.1,0.1,0.3c0.1,0.2,0.1,0.5,0.2,0.8c0.2,0.7,0.5,1.8,0.9,3.1c0.4,1.3,0.8,3,1.3,4.9c0.5,1.9,1,4.1,1.5,6.6
							c0.5,2.4,1.1,5.1,1.7,8c0.6,2.9,1.1,6,1.7,9.2c1.1,6.5,2.1,13.7,2.9,21.2c1.7,15.1,2.5,28.9,3.1,38.8c0.3,5,0.5,9,0.6,11.8
							c0.1,1.4,0.1,2.4,0.1,3.2c0,0.3,0,0.6,0,0.8C123.4,428.9,123.4,429,123.4,429z"/>
					</g>
				</g>
			</g>
		</g>
		<g>
			<g>
				<g>
					<path class="st9" d="M127.4,328.4c-0.3-3.4-3.8-6-7.2-6c-3.4,0-6.6,2-8.8,4.7c-2.1,2.7-3.3,6-4.2,9.4
						c-2.3,8.1-3.6,16.6-2.6,24.9c1,8.3,4.4,16.5,10.4,22.4c1,1,2.2,1.9,3.6,1.6c0.7-0.2,1.3-0.7,1.9-1.2
						c11.8-10.6,18.5-26.5,18.1-42.4c-0.1-3.2-0.5-6.5-2.3-9.1C134.5,330.1,130.4,327.3,127.4,328.4"/>
				</g>
			</g>
		</g>
		<g>
			<g>
				<g>
					<g>
						<path class="st9" d="M101.7,300.9c-1.6,2.9-3.2,5.9-4.8,8.8c-0.1,0.2-0.3,0.4-0.5,0.5c-0.3,0-0.4-0.2-0.6-0.4
							c-4.3-6.6-8.5-13.1-12.8-19.7l3-1.7L101.7,300.9z"/>
					</g>
				</g>
			</g>
			<g class="st10">
				<g>
					<g>
						<g>
							<path d="M101.7,300.9c-1.6,2.9-3.2,5.9-4.8,8.8c-0.1,0.2-0.3,0.4-0.5,0.5c-0.3,0-0.4-0.2-0.6-0.4
								c-4.3-6.6-8.5-13.1-12.8-19.7l3-1.7L101.7,300.9z"/>
						</g>
					</g>
				</g>
			</g>
			<g>
				<g>
					<g>
						<path class="st9" d="M127.7,316.7c-14.6-8.6-29.1-17.2-43.7-25.8c-0.4-0.3-0.9-0.6-1.1-1.1c-0.2-0.6,0.3-1.3,0.8-1.8
							c6-6.2,14.7-9.8,23.4-9.2c8.6,0.6,16.9,5.6,21.1,13.1C132.4,299.6,132.6,309.6,127.7,316.7"/>
					</g>
				</g>
			</g>
			<g>
				<g>
					<g>
						<g>
							<path class="st7" d="M90.3,282.7c0,0,0.2,0,0.6-0.1c0.4,0,0.9-0.1,1.7-0.1c1.4,0,3.5,0.1,6.1,0.5c2.5,0.4,5.5,1.2,8.6,2.6
								c3.1,1.4,6.3,3.4,9.3,6c2.9,2.7,5.2,5.7,6.9,8.6c1.7,3,2.8,5.8,3.5,8.3c0.7,2.5,1,4.6,1.1,6c0.1,0.7,0,0.9,0.1,1.3
								c0,0.4-0.3,1-0.3,1c0,0,0.2-0.8,0.1-2.2c-0.2-1.4-0.5-3.5-1.2-5.9c-1.4-4.9-4.6-11.4-10.4-16.7c-5.8-5.2-12.6-7.8-17.6-8.7
								c-2.5-0.5-4.6-0.6-6-0.6C91.1,282.7,90.3,282.8,90.3,282.7z"/>
						</g>
					</g>
				</g>
			</g>
			<g>
				<g>
					<g>
						<g>
							<path class="st7" d="M121.8,298.9c0,0.1-0.8,0.5-2.2,1c-1.4,0.5-3.3,1.2-5.5,1.9c-2.2,0.7-4.2,1.2-5.6,1.6
								c-1.5,0.4-2.4,0.5-2.4,0.5c0-0.1,0.9-0.4,2.3-0.8c1.6-0.5,3.5-1.1,5.6-1.7c2.1-0.7,3.9-1.3,5.5-1.8
								C120.9,299.1,121.8,298.9,121.8,298.9z"/>
						</g>
					</g>
				</g>
			</g>
			<g>
				<g>
					<g>
						<g>
							<path class="st7" d="M114.9,280.5c0.1,0,0.5,2.2,0.5,4.9c0.1,2.7-0.1,4.9-0.3,4.9c-0.1,0-0.2-2.2-0.3-4.9
								C114.9,282.7,114.8,280.5,114.9,280.5z"/>
						</g>
					</g>
				</g>
			</g>
			<g>
				<g>
					<g>
						<g>
							<path class="st7" d="M83.6,290.5c0-0.1,1.2-0.5,3.2-1.1c2-0.6,4.8-1.4,7.8-2.1c3.1-0.7,5.9-1.3,7.9-1.7
								c2-0.4,3.3-0.5,3.3-0.5c0,0.1-1.2,0.4-3.3,0.8c-2,0.5-4.8,1.1-7.9,1.8c-3.1,0.7-5.8,1.5-7.9,2
								C84.9,290.2,83.7,290.5,83.6,290.5z"/>
						</g>
					</g>
				</g>
			</g>
		</g>
		<g>
			<g>
				<g>
					<g>
						<path class="st9" d="M109.3,320.9c-3.8-2.9-7.7-3.4-12.4-3.2c-4.7,0.2-9.3,1.6-13.6,3.5c-7.4,3.2-14.3,8-18.7,14.7
							c-4.4,6.7-5.9,15.6-2.6,23c0.3,0.7,0.8,1.5,1.5,1.8c0.8,0.3,1.7,0.1,2.5-0.2c8.4-2.7,16.8-5.5,24.5-9.8
							c7.7-4.3,14.7-10.2,18.9-18c1-1.9,1.8-3.9,2-6C111.4,324.7,110.8,322.4,109.3,320.9"/>
					</g>
				</g>
			</g>
			<g>
				<g>
					<g>
						<g>
							<path class="st7" d="M109.4,320.1c0,0-0.2,0.1-0.6,0.2c-0.5,0.2-1,0.4-1.8,0.6c-0.4,0.1-0.8,0.3-1.3,0.4
								c-0.5,0.2-1,0.4-1.5,0.6c-1.1,0.4-2.3,0.9-3.6,1.5c-0.7,0.3-1.3,0.6-2.1,0.9c-0.7,0.3-1.4,0.7-2.2,1.1
								c-1.5,0.7-3.1,1.7-4.7,2.7c-3.2,2-6.6,4.5-9.9,7.4c-3.3,2.9-6.1,6-8.6,8.9c-1.2,1.5-2.3,2.9-3.2,4.3c-0.5,0.7-1,1.4-1.4,2
								c-0.4,0.7-0.8,1.3-1.2,1.9c-0.8,1.2-1.4,2.4-1.9,3.4c-0.3,0.5-0.5,1-0.8,1.4c-0.2,0.4-0.4,0.8-0.6,1.2
								c-0.3,0.7-0.6,1.2-0.8,1.7c-0.2,0.4-0.3,0.6-0.3,0.6c0,0,0.1-0.2,0.2-0.6c0.2-0.4,0.4-1,0.7-1.7c0.2-0.4,0.3-0.8,0.5-1.2
								c0.2-0.4,0.5-0.9,0.7-1.4c0.5-1,1.1-2.2,1.9-3.4c0.4-0.6,0.8-1.3,1.2-1.9c0.4-0.7,0.9-1.3,1.4-2c0.9-1.4,2.1-2.9,3.2-4.4
								c2.4-3,5.3-6.1,8.6-9c3.3-2.9,6.8-5.4,10-7.4c1.7-1,3.2-1.9,4.7-2.6c0.8-0.4,1.5-0.8,2.2-1.1c0.7-0.3,1.4-0.6,2.1-0.9
								c1.3-0.6,2.6-1,3.6-1.4c0.5-0.2,1-0.4,1.5-0.5c0.5-0.1,0.9-0.3,1.3-0.4c0.7-0.2,1.3-0.4,1.8-0.5
								C109.1,320.1,109.4,320,109.4,320.1z"/>
						</g>
					</g>
				</g>
			</g>
			<g>
				<g>
					<g>
						<g>
							<path class="st7" d="M80,336c0,0.1-4.1,1.5-9.1,2.9c-5.1,1.5-9.2,2.6-9.3,2.4c0-0.1,4.1-1.5,9.1-2.9
								C75.8,336.9,80,335.8,80,336z"/>
						</g>
					</g>
				</g>
			</g>
			<g>
				<g>
					<g>
						<g>
							<path class="st7" d="M79.6,356.1c-0.1,0-0.2-1.1-0.2-2.8c0-1.8-0.1-4.2,0-6.9c0.1-2.7,0.2-5.1,0.4-6.9
								c0.1-1.8,0.3-2.8,0.4-2.8c0.1,0,0.1,1.1,0,2.9c-0.1,1.9-0.1,4.3-0.2,6.9c-0.1,2.6-0.1,4.9-0.2,6.9
								C79.7,355,79.7,356.1,79.6,356.1z"/>
						</g>
					</g>
				</g>
			</g>
			<g>
				<g>
					<g>
						<g>
							<path class="st7" d="M96.9,347.3c-0.1,0-0.6-4.9-1-11c-0.4-6.1-0.6-11.1-0.5-11.1c0.1,0,0.6,4.9,1,11
								C96.8,342.3,97.1,347.3,96.9,347.3z"/>
						</g>
					</g>
				</g>
			</g>
			<g>
				<g>
					<g>
						<g>
							<path class="st7" d="M75.4,324.7c0-0.1,1.1-0.1,2.9-0.1c1.8,0,4.3,0.1,7.1,0.2c2.8,0.1,5.2,0.2,7.1,0.3
								c1.8,0.1,2.9,0.2,2.9,0.3c0,0.1-1.1,0.1-2.9,0.1c-1.8,0-4.3-0.1-7.1-0.2c-2.8-0.1-5.3-0.2-7.1-0.3
								C76.5,324.9,75.4,324.8,75.4,324.7z"/>
						</g>
					</g>
				</g>
			</g>
		</g>
		<g>
			<g>
				<g>
					<g>
						<path class="st7" d="M116.9,384.9c0,0,0-0.2-0.1-0.6c0-0.4,0-1-0.1-1.7c-0.1-1.5-0.1-3.6,0-6.2c0-2.6,0.2-5.7,0.5-9.2
							c0.3-3.4,0.8-7.2,1.5-11.1c0.7-3.9,1.6-7.6,2.5-11c0.9-3.3,1.8-6.3,2.7-8.8c0.9-2.5,1.6-4.5,2.2-5.8c0.3-0.6,0.5-1.1,0.7-1.6
							c0.2-0.4,0.2-0.5,0.3-0.5c0,0,0,0.2-0.2,0.6c-0.2,0.4-0.3,0.9-0.6,1.6c-0.5,1.4-1.2,3.4-2,5.8c-0.8,2.5-1.7,5.5-2.6,8.8
							c-0.9,3.3-1.7,7-2.4,11c-0.7,3.9-1.2,7.7-1.6,11.1c-0.3,3.4-0.6,6.5-0.6,9.1c-0.1,2.6-0.1,4.7-0.1,6.2c0,0.7,0,1.2,0,1.7
							C116.9,384.7,116.9,384.9,116.9,384.9z"/>
					</g>
				</g>
			</g>
		</g>
		<g>
			<g>
				<g>
					<g>
						<path class="st7" d="M119.2,356.3c0,0.1-0.6,0.8-1.7,1.9c-1.1,1.1-2.7,2.6-4.6,4.2c-1.8,1.6-3.5,3-4.8,4
							c-1.3,1-2.1,1.5-2.1,1.5c0-0.1,0.7-0.7,1.9-1.8c1.3-1.2,2.9-2.6,4.7-4.1c1.7-1.5,3.3-2.9,4.7-4.1
							C118.4,356.9,119.1,356.2,119.2,356.3z"/>
					</g>
				</g>
			</g>
		</g>
		<g>
			<g>
				<g>
					<g>
						<path class="st7" d="M133,367.4c-0.1,0-0.8-1-1.9-2.6c-1.2-1.7-2.7-3.9-4.3-6.3c-1.7-2.4-3.2-4.5-4.4-6.2
							c-1.1-1.6-1.8-2.6-1.8-2.6c0.1,0,0.9,0.9,2.1,2.4c1.2,1.5,2.8,3.7,4.5,6.2c1.7,2.5,3.2,4.7,4.2,6.4
							C132.5,366.3,133.1,367.4,133,367.4z"/>
					</g>
				</g>
			</g>
		</g>
		<g>
			<g>
				<g>
					<g>
						<path class="st7" d="M125.8,332.4c0.1,0.1-4.5,3.2-10.3,6.9c-5.7,3.7-10.5,6.6-10.5,6.5c-0.1-0.1,4.5-3.2,10.3-6.9
							C121,335.2,125.7,332.3,125.8,332.4z"/>
					</g>
				</g>
			</g>
		</g>
		<g>
			<g>
				<g>
					<g>
						<path class="st7" d="M138.7,346.4c-0.1,0.1-3.2-2.8-6.9-6.4c-3.7-3.7-6.7-6.7-6.6-6.8c0.1-0.1,3.2,2.8,7,6.4
							C135.9,343.2,138.8,346.3,138.7,346.4z"/>
					</g>
				</g>
			</g>
		</g>
		<g>
			<g>
				<g>
					<g>
						<path class="st9" d="M142,346.1l3.9-0.3c2.8-0.2,5.5-1.1,8-2.4c1.2-0.7,2.4-1.3,3.7-1.9c4.9-2,10.3-1.6,15.6-1.9
							c8.6-0.4,17-2.6,24.8-6.3c0.4-0.2,0.8-0.5,1.1-1c0.8-1.5-0.7-2.8-2-3.6c-6.6-4.1-13.4-8.2-20.9-10.3c-7.5-2-16.1-1.7-22.5,2.7
							C146,326.4,143.3,337,142,346.1"/>
					</g>
				</g>
			</g>
			<g>
				<g>
					<g>
						<g>
							<path class="st7" d="M199.1,331.8c0,0-0.2-0.1-0.7-0.3c-0.5-0.2-1.1-0.6-1.9-1c-1.6-0.9-4-2.1-6.9-3.5c-3-1.4-6.5-3-10.7-4.1
								c-4.1-1.2-8.9-1.8-13.9-1.1c-4.9,0.6-9.4,2.6-12.6,5.4c-3.2,2.9-5.2,6.3-6.6,9.2c-1.4,3-2.2,5.5-2.9,7.2
								c-0.3,0.8-0.5,1.5-0.7,2c-0.2,0.5-0.3,0.7-0.3,0.7c0,0,0-0.3,0.2-0.7c0.2-0.5,0.4-1.2,0.6-2c0.6-1.7,1.4-4.3,2.7-7.3
								c1.4-3,3.3-6.5,6.6-9.4c3.3-3,7.9-4.9,12.9-5.6c5-0.6,9.9,0,14.1,1.2c4.2,1.2,7.8,2.8,10.7,4.3c2.9,1.5,5.2,2.8,6.8,3.7
								c0.8,0.4,1.4,0.8,1.8,1.1C198.9,331.6,199.1,331.8,199.1,331.8z"/>
						</g>
					</g>
				</g>
			</g>
			<g>
				<g>
					<g>
						<g>
							<path class="st7" d="M189.6,336.9c-0.1,0.1-5.2-3.2-11.5-7.5c-6.3-4.2-11.3-7.8-11.2-7.9c0.1-0.1,5.2,3.2,11.5,7.5
								C184.7,333.2,189.7,336.8,189.6,336.9z"/>
						</g>
					</g>
				</g>
			</g>
			<g>
				<g>
					<g>
						<g>
							<path class="st7" d="M184.1,321.3c0,0.1-1.6,0.5-3.8,0.7c-2.1,0.2-3.8,0.1-3.8,0c0-0.1,1.7-0.2,3.8-0.4
								C182.4,321.3,184.1,321.2,184.1,321.3z"/>
						</g>
					</g>
				</g>
			</g>
			<g>
				<g>
					<g>
						<g>
							<path class="st7" d="M161.5,318.3c0.1,0.1-0.6,1.2-1.7,2.6c-1.1,1.4-2,2.5-2.1,2.4c-0.1-0.1,0.6-1.2,1.7-2.6
								C160.5,319.4,161.4,318.3,161.5,318.3z"/>
						</g>
					</g>
				</g>
			</g>
			<g>
				<g>
					<g>
						<g>
							<path class="st7" d="M166.2,339.9c0,0.1-1-0.4-2.5-1.3c-1.5-0.9-3.5-2.2-5.7-3.8c-2.2-1.6-4-3-5.4-4.1
								c-1.4-1.1-2.2-1.8-2.1-1.8c0-0.1,0.9,0.5,2.4,1.5c1.5,1.1,3.4,2.5,5.5,4c2.1,1.6,4.1,2.9,5.5,3.9
								C165.3,339.2,166.2,339.9,166.2,339.9z"/>
						</g>
					</g>
				</g>
			</g>
		</g>
		<g>
			<g>
				<g>
					<g>
						<path class="st9" d="M147.8,362.9c-3.8-1-8.2,2.7-9,6.5c-0.8,3.8,0.7,7.7,2.3,11.2c3.7,7.8,8.8,15,15.6,20.4
							c6.7,5.4,15.2,8.8,23.8,8.8c-1.6-7.4,0.4-15.1-0.5-22.6c-0.8-6.6-3.8-12.8-8.5-17.4c-4.7-4.6-11-7.6-17.5-8.3
							C151.5,361,148.8,360.6,147.8,362.9"/>
					</g>
				</g>
			</g>
			<g>
				<g>
					<g>
						<g>
							<path class="st7" d="M180.4,409.7c0,0-0.2-0.1-0.5-0.2c-0.3-0.2-0.8-0.5-1.4-0.9c-1.2-0.9-2.5-2.6-3.7-5
								c-0.6-1.2-1.3-2.4-1.9-3.8c-0.6-1.4-1.3-2.9-2-4.5c-0.7-1.6-1.5-3.2-2.5-4.8c-1-1.6-2.1-3.1-3.4-4.7c-2.6-3-5.3-5.6-7.7-8.1
								c-2.4-2.5-4.4-4.9-5.9-7.1c-1.5-2.2-2.4-4.1-2.9-5.5c-0.2-0.7-0.4-1.2-0.5-1.6c-0.1-0.4-0.1-0.6-0.1-0.6c0,0,0.3,0.8,0.8,2.1
								c0.6,1.3,1.5,3.2,3,5.4c1.5,2.1,3.5,4.5,5.9,6.9c2.4,2.5,5.2,5.1,7.8,8.1c1.3,1.5,2.5,3.1,3.5,4.7c1,1.6,1.8,3.3,2.5,4.9
								c0.7,1.6,1.4,3.1,2,4.5c0.6,1.4,1.3,2.7,1.9,3.8c1.1,2.3,2.4,4.1,3.5,5C179.7,409.3,180.5,409.6,180.4,409.7z"/>
						</g>
					</g>
				</g>
			</g>
			<g>
				<g>
					<g>
						<g>
							<path class="st7" d="M161,403.5c-0.1,0,0-1,0.3-2.5c0.3-1.5,0.8-3.7,1.4-6c0.7-2.3,1.4-4.4,1.9-5.9c0.6-1.5,1-2.4,1-2.3
								c0.1,0-0.2,1-0.7,2.5c-0.5,1.5-1.1,3.6-1.8,5.9c-0.6,2.3-1.2,4.4-1.6,5.9C161.3,402.6,161.1,403.5,161,403.5z"/>
						</g>
					</g>
				</g>
			</g>
			<g>
				<g>
					<g>
						<g>
							<path class="st7" d="M179.7,385.4c0,0.1-1-0.2-2.7-0.6c-1.6-0.4-3.9-1-6.4-1.6c-2.5-0.6-4.8-1-6.4-1.3
								c-1.6-0.3-2.7-0.5-2.7-0.6c0-0.1,1,0,2.7,0.2c1.7,0.2,4,0.6,6.5,1.2c2.5,0.6,4.7,1.2,6.3,1.7
								C178.8,385,179.8,385.3,179.7,385.4z"/>
						</g>
					</g>
				</g>
			</g>
			<g>
				<g>
					<g>
						<g>
							<path class="st7" d="M147,390.7c-0.1,0,0.1-1.1,0.4-2.9c0.3-1.8,0.9-4.3,1.6-7c0.7-2.7,1.5-5.1,2-6.8c0.6-1.7,1-2.8,1.1-2.8
								c0.1,0-0.2,1.1-0.7,2.9c-0.5,1.8-1.2,4.2-1.9,6.9c-0.7,2.7-1.3,5.1-1.7,6.9C147.4,389.6,147.1,390.7,147,390.7z"/>
						</g>
					</g>
				</g>
			</g>
			<g>
				<g>
					<g>
						<g>
							<path class="st7" d="M171.1,369.6c0,0.1-4.7-0.2-10.5-0.8c-5.8-0.6-10.5-1.2-10.4-1.4c0-0.1,4.7,0.2,10.5,0.8
								C166.4,368.8,171.1,369.5,171.1,369.6z"/>
						</g>
					</g>
				</g>
			</g>
		</g>
		<g>
			<g>
				<g>
					<g>
						<path class="st8" d="M167.7,426.6c0,0.1-16.5,0.3-36.9,0.3c-20.4,0-36.9-0.1-36.9-0.3c0-0.1,16.5-0.3,36.9-0.3
							C151.2,426.3,167.7,426.4,167.7,426.6z"/>
					</g>
				</g>
			</g>
		</g>
		<g>
			<g>
				<g>
					<g>
						<path class="st8" d="M156.2,447.8c0,0.1-11.1,0.3-24.8,0.3c-13.7,0-24.8-0.1-24.8-0.3c0-0.1,11.1-0.3,24.8-0.3
							C145.1,447.5,156.2,447.7,156.2,447.8z"/>
					</g>
				</g>
			</g>
		</g>
		<g>
			<g>
				<g>
					<g>
						<path class="st8" d="M155.7,450.8c0,0.1-10.9,0.3-24.4,0.3c-13.5,0-24.4-0.1-24.4-0.3c0-0.1,10.9-0.3,24.4-0.3
							C144.8,450.6,155.7,450.7,155.7,450.8z"/>
					</g>
				</g>
			</g>
		</g>
		<g>
			<g>
				<g>
					<g>
						<path class="st8" d="M156.6,445.3c0,0.1-11.5,0.3-25.7,0.3c-14.2,0-25.7-0.1-25.7-0.3c0-0.1,11.5-0.3,25.7-0.3
							C145.1,445,156.6,445.2,156.6,445.3z"/>
					</g>
				</g>
			</g>
		</g>
	</g>
</g>
<g id="Character_1_">
	<g>
		<g>
			<g>
				<g>
					<g>
						<g>
							<g>
								<g>
									<g>
										<path class="st9" d="M594.7,165.7c0,0-8-1.3-12.7,2.4c-4.7,3.7-6.8,8.4-7.3,13.5c-0.6,5.1-4.3,24.9-4.3,24.9l-7.2-9.8
											l-8,7c0,0,6.7,32.3,13.1,34.5c6.3,2.2,13.2-4.9,14.8-6.2S594.7,165.7,594.7,165.7z"/>
									</g>
								</g>
							</g>
							<g>
								<g>
									<g>
										<path class="st9" d="M592,165.5c0,0-10.5,15-11.7,18.8c-1.2,3.8-10.1,10.8-9.9,19.8c0.1,5.2,0.7,9.6,1.1,12.4
											c0.4,2.3,0.3,4.7-0.1,7l-4.1,19.8c0,0,2.6,4.5,9,5.2c6.4,0.7,22.9,4.6,33.8,0l7.8-3.8v-30.6l5.4-12.5l15.4-24.9
											c0,0-7.8-5.4-15.2-7.8C615.8,166.4,603.4,166.2,592,165.5z"/>
									</g>
								</g>
							</g>
							<g>
								<g>
									<g>
										<g>
											<path class="st7" d="M568.1,239.4c0,0,0-0.2,0.1-0.7c0.1-0.5,0.2-1.1,0.4-2c0.3-1.8,0.8-4.2,1.4-7.2c0.3-1.5,0.8-3.2,1-5
												c0.1-0.4,0.1-0.9,0.2-1.4c0-0.5,0.1-0.9,0.1-1.4c0.1-1,0.1-2,0.1-3c-0.1-2-0.5-4.1-1.1-6.3c-0.6-2.1-1.3-4.4-1.2-6.8
												c0.1-2.4,0.9-4.7,1.7-6.7c0.9-2.1,1.9-4,3-5.7c2.2-3.5,4.4-6.5,6.2-9c1.8-2.5,3.3-4.5,4.3-6c0.5-0.7,0.9-1.2,1.2-1.6
												c0.3-0.4,0.4-0.6,0.4-0.5c0,0-0.1,0.2-0.4,0.6c-0.3,0.4-0.6,1-1.1,1.7c-1,1.4-2.4,3.5-4.2,6.1c-1.8,2.5-3.9,5.5-6.1,9
												c-1.1,1.7-2.1,3.6-3,5.7c-0.9,2-1.6,4.2-1.7,6.6c-0.1,2.3,0.6,4.6,1.1,6.7c0.6,2.2,1,4.3,1.1,6.4c0,1,0,2-0.1,3
												c0,0.5-0.1,1-0.1,1.4c-0.1,0.5-0.2,0.9-0.2,1.4c-0.3,1.8-0.8,3.4-1.1,5c-0.7,3-1.2,5.4-1.6,7.2c-0.2,0.8-0.3,1.5-0.5,1.9
												C568.1,239.2,568.1,239.4,568.1,239.4z"/>
										</g>
									</g>
								</g>
							</g>
						</g>
					</g>
				</g>
			</g>
			<g>
				<g>
					<g>
						<path class="st9" d="M633.5,173.5c0,0,19.2,6.9,11.9,30.7c-5.8,19-17.7,41.7-25.2,42.2c-3.9,0.2-8.2,0.1-10.8-2
							c-10.8-8.5-17.3-31.2-17.3-31.2l10.3-11.5l12.5,18.5c1.4-0.6,9.7-26.2,9.7-26.2S630.5,174.3,633.5,173.5z"/>
					</g>
				</g>
			</g>
			<g>
				<g>
					<path class="st7" d="M624.4,196.1c0,0,0,0.2-0.1,0.5c-0.1,0.3-0.3,0.8-0.5,1.3c-0.4,1.2-1,2.9-1.8,5
						c-1.6,4.3-3.8,10.3-6.5,17.6l-0.2,0.4l-0.2-0.4c-3.7-5.4-8-11.8-12.5-18.5l0.4,0c-0.4,0.4-0.8,0.9-1.3,1.3
						c-3.3,3.4-6.5,6.7-9.5,9.7l0.1-0.3c1.6,5,3.2,9.7,5,13.7c1.8,4,3.7,7.4,5.5,10.1c1.8,2.7,3.5,4.6,4.7,5.9
						c0.6,0.6,1.1,1.1,1.4,1.5c0.3,0.3,0.5,0.5,0.5,0.5c0,0-0.2-0.1-0.5-0.5c-0.4-0.3-0.9-0.8-1.5-1.4c-1.2-1.3-3-3.2-4.8-5.9
						c-1.9-2.7-3.9-6-5.7-10.1c-1.9-4-3.5-8.7-5.1-13.7l0-0.1l0.1-0.1c3-3,6.2-6.3,9.5-9.7c0.4-0.4,0.9-0.9,1.3-1.3l0.2-0.2l0.2,0.3
						c4.5,6.7,8.8,13.1,12.5,18.5l-0.4,0c2.8-7.2,5.1-13.2,6.7-17.5c0.8-2.1,1.5-3.7,1.9-4.9c0.2-0.5,0.4-1,0.5-1.3
						C624.3,196.2,624.4,196.1,624.4,196.1z"/>
				</g>
			</g>
		</g>
		<g>
			<g>
				<g>
					<g>
						<g>
							<g>
								<g>
									<g>
										<g>
											<g>
												<g>
													<g>
														<g>
															<g>
																<g>
																	<g>
																		<g>
																			<g>
																				<g>
																					<path class="st9" d="M577.8,446.9l1.3,19.5c0,0-19.3,7.8-19.5,11.4l37.8-1.1l-0.7-30.4L577.8,446.9z"/>
																				</g>
																			</g>
																		</g>
																	</g>
																</g>
															</g>
														</g>
													</g>
												</g>
											</g>
										</g>
									</g>
								</g>
							</g>
						</g>
						<g>
							<g>
								<g>
									<g>
										<g>
											<g>
												<g>
													<g>
														<g>
															<g>
																<g>
																	<g>
																		<g>
																			<g>
																				<g>
																					<g>
																						<path class="st9" d="M590.7,464.3c0.7,0.2,1.3,1,1.1,1.7c-0.1,0.7-1,1.3-1.7,1.1c-0.7-0.2-1.4-1.1-1.2-1.8
																							c0.2-0.7,1.2-1.3,1.9-1"/>
																					</g>
																				</g>
																			</g>
																		</g>
																	</g>
																</g>
															</g>
														</g>
													</g>
												</g>
											</g>
										</g>
									</g>
								</g>
							</g>
						</g>
						<g>
							<g>
								<g>
									<g>
										<g>
											<g>
												<g>
													<g>
														<g>
															<g>
																<g>
																	<g>
																		<g>
																			<g>
																				<g>
																					<path class="st9" d="M597.5,478l-0.1-3.5l-36.4,1.3c0,0-1.7,0.8-1.4,2L597.5,478z"/>
																				</g>
																			</g>
																		</g>
																	</g>
																</g>
															</g>
														</g>
													</g>
												</g>
											</g>
										</g>
									</g>
								</g>
							</g>
						</g>
						<g>
							<g>
								<g>
									<g>
										<g>
											<g>
												<g>
													<g>
														<g>
															<g>
																<g>
																	<g>
																		<g>
																			<g>
																				<g>
																					<g>
																						<path class="st9" d="M578.5,466.1c0,0.2,0.9,0.2,1.9,0.8c0.9,0.5,1.4,1.3,1.6,1.3c0.2,0-0.1-1.1-1.3-1.8
																							C579.5,465.7,578.4,466,578.5,466.1z"/>
																					</g>
																				</g>
																			</g>
																		</g>
																	</g>
																</g>
															</g>
														</g>
													</g>
												</g>
											</g>
										</g>
									</g>
								</g>
							</g>
						</g>
						<g>
							<g>
								<g>
									<g>
										<g>
											<g>
												<g>
													<g>
														<g>
															<g>
																<g>
																	<g>
																		<g>
																			<g>
																				<g>
																					<g>
																						<path class="st9" d="M574.6,467.9c0,0.2,0.8,0.5,1.4,1.2c0.7,0.7,0.9,1.6,1,1.6c0.2,0,0.3-1.1-0.6-2
																							C575.6,467.8,574.6,467.7,574.6,467.9z"/>
																					</g>
																				</g>
																			</g>
																		</g>
																	</g>
																</g>
															</g>
														</g>
													</g>
												</g>
											</g>
										</g>
									</g>
								</g>
							</g>
						</g>
						<g>
							<g>
								<g>
									<g>
										<g>
											<g>
												<g>
													<g>
														<g>
															<g>
																<g>
																	<g>
																		<g>
																			<g>
																				<g>
																					<g>
																						<path class="st9" d="M572.4,472.7c0.2,0,0.4-0.9-0.1-1.9c-0.5-1-1.4-1.4-1.5-1.2c-0.1,0.2,0.5,0.7,0.9,1.5
																							C572.2,471.9,572.3,472.7,572.4,472.7z"/>
																					</g>
																				</g>
																			</g>
																		</g>
																	</g>
																</g>
															</g>
														</g>
													</g>
												</g>
											</g>
										</g>
									</g>
								</g>
							</g>
						</g>
						<g>
							<g>
								<g>
									<g>
										<g>
											<g>
												<g>
													<g>
														<g>
															<g>
																<g>
																	<g>
																		<g>
																			<g>
																				<g>
																					<g>
																						<path class="st9" d="M578.7,461.7c0.1,0.2,0.9-0.1,2-0.1c1,0,1.9,0.3,2,0.2c0.1-0.1-0.7-0.8-1.9-0.8
																							C579.4,460.9,578.6,461.5,578.7,461.7z"/>
																					</g>
																				</g>
																			</g>
																		</g>
																	</g>
																</g>
															</g>
														</g>
													</g>
												</g>
											</g>
										</g>
									</g>
								</g>
							</g>
						</g>
					</g>
				</g>
			</g>
		</g>
		<g>
			<g>
				<g>
					<g>
						<g>
							<g>
								<g>
									<g>
										<g>
											<g>
												<g>
													<g>
														<g>
															<g>
																<g>
																	<g>
																		<g>
																			<g>
																				<g>
																					<path class="st9" d="M612.7,447.2l1.1,19.5c0,0-19.4,7.7-19.6,11.3l37.8-0.8l-0.5-30.4L612.7,447.2z"/>
																				</g>
																			</g>
																		</g>
																	</g>
																</g>
															</g>
														</g>
													</g>
												</g>
											</g>
										</g>
									</g>
								</g>
							</g>
						</g>
						<g>
							<g>
								<g>
									<g>
										<g>
											<g>
												<g>
													<g>
														<g>
															<g>
																<g>
																	<g>
																		<g>
																			<g>
																				<g>
																					<g>
																						<path class="st9" d="M625.4,464.8c0.7,0.2,1.3,1,1.1,1.7c-0.2,0.7-1,1.3-1.7,1.1c-0.7-0.2-1.4-1.1-1.2-1.8
																							c0.2-0.7,1.2-1.3,1.9-1"/>
																					</g>
																				</g>
																			</g>
																		</g>
																	</g>
																</g>
															</g>
														</g>
													</g>
												</g>
											</g>
										</g>
									</g>
								</g>
							</g>
						</g>
						<g>
							<g>
								<g>
									<g>
										<g>
											<g>
												<g>
													<g>
														<g>
															<g>
																<g>
																	<g>
																		<g>
																			<g>
																				<g>
																					<path class="st9" d="M632.1,478l0-2.9l-36.4,1c0,0-1.7,0.8-1.5,2H632.1z"/>
																				</g>
																			</g>
																		</g>
																	</g>
																</g>
															</g>
														</g>
													</g>
												</g>
											</g>
										</g>
									</g>
								</g>
							</g>
						</g>
						<g>
							<g>
								<g>
									<g>
										<g>
											<g>
												<g>
													<g>
														<g>
															<g>
																<g>
																	<g>
																		<g>
																			<g>
																				<g>
																					<g>
																						<path class="st9" d="M613.1,466.5c0,0.2,0.9,0.2,1.9,0.8c0.9,0.6,1.4,1.3,1.6,1.3c0.2,0-0.1-1.1-1.3-1.8
																							C614.2,466.1,613.1,466.3,613.1,466.5z"/>
																					</g>
																				</g>
																			</g>
																		</g>
																	</g>
																</g>
															</g>
														</g>
													</g>
												</g>
											</g>
										</g>
									</g>
								</g>
							</g>
						</g>
						<g>
							<g>
								<g>
									<g>
										<g>
											<g>
												<g>
													<g>
														<g>
															<g>
																<g>
																	<g>
																		<g>
																			<g>
																				<g>
																					<g>
																						<path class="st9" d="M609.2,468.2c0,0.2,0.8,0.5,1.4,1.2c0.7,0.7,0.8,1.6,1,1.6c0.2,0,0.3-1.1-0.5-2
																							C610.3,468.1,609.2,468.1,609.2,468.2z"/>
																					</g>
																				</g>
																			</g>
																		</g>
																	</g>
																</g>
															</g>
														</g>
													</g>
												</g>
											</g>
										</g>
									</g>
								</g>
							</g>
						</g>
						<g>
							<g>
								<g>
									<g>
										<g>
											<g>
												<g>
													<g>
														<g>
															<g>
																<g>
																	<g>
																		<g>
																			<g>
																				<g>
																					<g>
																						<path class="st9" d="M607.1,473c0.2,0,0.4-0.9-0.1-1.9c-0.5-1-1.4-1.4-1.4-1.2c-0.1,0.2,0.5,0.7,0.9,1.5
																							C606.8,472.2,606.9,473,607.1,473z"/>
																					</g>
																				</g>
																			</g>
																		</g>
																	</g>
																</g>
															</g>
														</g>
													</g>
												</g>
											</g>
										</g>
									</g>
								</g>
							</g>
						</g>
						<g>
							<g>
								<g>
									<g>
										<g>
											<g>
												<g>
													<g>
														<g>
															<g>
																<g>
																	<g>
																		<g>
																			<g>
																				<g>
																					<g>
																						<path class="st9" d="M613.4,462.1c0.1,0.2,0.9-0.1,2-0.1c1,0,1.9,0.4,2,0.2c0.1-0.1-0.7-0.8-1.9-0.8
																							C614.1,461.3,613.3,461.9,613.4,462.1z"/>
																					</g>
																				</g>
																			</g>
																		</g>
																	</g>
																</g>
															</g>
														</g>
													</g>
												</g>
											</g>
										</g>
									</g>
								</g>
							</g>
						</g>
					</g>
				</g>
			</g>
		</g>
		<g>
			<g>
				<g>
					<path class="st7" d="M618.4,244.1c0,0,9.6,10.1,14.7,22.6c5.1,12.4,2.8,72.4,2.8,72.4l-1.1,31.4c0,0,1.5,27,0.4,46.2
						c-1.2,19.2-2.5,40.6-2.5,40.6l-21,1L589.5,295l5.6,75.3c3.5,19.2,3.1,53.1,2.4,87.9l-22.2,0c0,0-7.7-52.1-9.4-64.5
						c-2-14-7.8-52.5-7.8-52.5s-4.5-36.8-2.9-56.7c1.6-19.8,13.4-47.6,13.8-48.7l47.5,8.6"/>
				</g>
			</g>
			<g>
				<g>
					<g>
						<path class="st11" d="M620.9,238.8l5.6,14.8c0,0,41.4,57.8,40.2,62.6c-1.2,4.8-23.8,23.5-30.4,20.5
							c-6.6-3-23.8-15.3-29.5-27.7c-5.7-12.3-22-46.9-22-46.9l-5.1-9.6l5.7-3.9L620.9,238.8z"/>
					</g>
				</g>
				<g>
					<path class="st11" d="M568.5,236.7L568.5,236.7c5,2.7,4.5,11.1,9.5,13.8c-8.4,11.7-11.2,26.5-12.4,40.9
						c-1.1,14.4-0.8,28.9-3.7,43c-6.1-0.4-4.3-0.3-10.4-0.7c-1.8-27.7,1.3-55.7,8.9-82.4C562,245.9,564.7,240.9,568.5,236.7z"/>
				</g>
				<g>
					<g>
						<g>
							<path class="st7" d="M609,261c0,0.1,1-0.1,2.6-0.6c1.6-0.5,3.8-1.2,6.1-2.2c2.3-1,4.4-2.1,5.8-2.9c1.4-0.8,2.3-1.4,2.2-1.5
								c0-0.1-0.9,0.4-2.4,1.2c-1.5,0.8-3.5,1.8-5.8,2.8c-2.3,1-4.4,1.8-6,2.3C610,260.6,609,261,609,261z"/>
						</g>
					</g>
				</g>
				<g class="st10">
					<g>
						<g>
							<path d="M635.9,305l1,0.1c-6.8,7.1-18.3,9.2-27.2,5c-3-1.4-6.1-4.1-5.9-7.4C614,306.3,625.2,307.1,635.9,305z"/>
						</g>
					</g>
				</g>
				<g>
					<g>
						<g>
							<g>
								<path class="st11" d="M584.2,252.5c3.9-0.7,11.3,1.3,14,4.2c2.7,2.8,4.4,6.5,5.7,10.2c2.9,8,5,16.9,11.3,22.6
									c5.9,5.4,14.4,6.9,22.3,8.1c0.2,2.9,0.2,6.4-2.2,8.1c-0.7,0.5-1.6,0.8-2.4,1c-2.4,0.6-4.8,1.1-7.2,1.3
									c-11.3,0.9-23.3-3.6-29.9-12.8c-8.4-11.6-9-25.6-13.8-39.1"/>
							</g>
						</g>
						<g>
							<g>
								<g>
									<path class="st11" d="M582,256c0,0,0,0.1,0.1,0.4c0.1,0.3,0.2,0.7,0.4,1.2c0.3,1.1,0.8,2.7,1.4,4.8
										c0.6,2.1,1.2,4.7,1.9,7.6c0.7,3,1.5,6.4,2.7,10.1c1.1,3.7,2.6,7.7,4.9,11.7c1.1,2,2.5,3.9,4.1,5.8c1.6,1.8,3.5,3.5,5.7,4.9
										c4.3,2.8,9.5,4.8,15,5.5c2.8,0.4,5.6,0.4,8.5,0.1c1.4-0.2,2.9-0.4,4.3-0.7c0.7-0.2,1.4-0.3,2.1-0.5
										c0.7-0.2,1.4-0.4,2.1-0.9c0.7-0.4,1.2-1.1,1.6-1.8c0.4-0.7,0.6-1.5,0.7-2.2c0.3-1.5,0.2-3,0.1-4.4l0-0.2l-0.2,0
										c-5.3-0.8-10.5-1.7-15.1-3.6c-2.3-1-4.5-2.2-6.3-3.7c-1.8-1.5-3.4-3.3-4.6-5.2c-2.5-3.8-3.9-8-5.3-11.8
										c-1.3-3.8-2.5-7.4-4-10.6c-0.7-1.6-1.6-3-2.5-4.2c-0.5-0.6-1-1.2-1.5-1.7c-0.5-0.5-1.1-1-1.7-1.3c-2.4-1.4-4.7-2-6.5-2.5
										c-1.9-0.4-3.4-0.5-4.4-0.4c-1,0-1.5,0.2-1.5,0.2c0,0,0.5-0.1,1.5-0.1c1,0,2.5,0.1,4.3,0.5c1.8,0.4,4.1,1.1,6.4,2.5
										c0.6,0.3,1.1,0.8,1.6,1.3c0.5,0.5,1,1.1,1.4,1.7c0.9,1.2,1.7,2.6,2.5,4.2c1.5,3.1,2.6,6.7,3.9,10.5c1.3,3.8,2.8,8,5.3,11.9
										c1.3,1.9,2.8,3.8,4.7,5.3c1.9,1.6,4.1,2.8,6.4,3.8c4.7,2,9.9,2.9,15.2,3.7l-0.2-0.2c0.1,1.4,0.1,2.9-0.1,4.3
										c-0.2,1.4-0.9,2.8-2.1,3.6c-1.2,0.7-2.7,1-4.1,1.3c-1.4,0.3-2.8,0.5-4.2,0.7c-2.8,0.3-5.7,0.3-8.4-0.1
										c-5.5-0.7-10.6-2.6-14.8-5.4c-2.1-1.4-4-3-5.6-4.8c-1.6-1.8-2.9-3.7-4.1-5.7c-2.3-3.9-3.8-7.9-5-11.5
										c-1.2-3.7-2-7.1-2.8-10c-0.8-3-1.4-5.5-2-7.6c-0.6-2.1-1.1-3.7-1.5-4.8c-0.2-0.5-0.3-0.9-0.4-1.2
										C582,256.2,582,256,582,256z"/>
								</g>
							</g>
						</g>
					</g>
					<g>
						<g>
							<g>
								<path class="st11" d="M628.6,307.4c0.2,0-1.1-2.5-0.7-5.7c0.3-3.2,2-5.4,1.9-5.5c0,0-0.5,0.4-1.1,1.4
									c-0.6,0.9-1.1,2.4-1.3,4c-0.2,1.7,0.1,3.2,0.4,4.2C628.2,306.9,628.6,307.4,628.6,307.4z"/>
							</g>
						</g>
					</g>
					<g>
						<g>
							<g>
								<path class="st11" d="M628.3,300.2c0,0.1,2,0.4,4.4,0.6c2.5,0.2,4.4,0.2,4.5,0c0-0.1-2-0.4-4.4-0.6
									C630.3,300.1,628.3,300.1,628.3,300.2z"/>
							</g>
						</g>
					</g>
					<g>
						<g>
							<g>
								<path class="st11" d="M627.5,303.4c0,0.1,2.1,0.3,4.6,0.4c2.5,0.1,4.6,0,4.6-0.2c0-0.1-2.1-0.3-4.6-0.4
									C629.6,303.2,627.5,303.3,627.5,303.4z"/>
							</g>
						</g>
					</g>
				</g>
				<g>
					<g>
						<g>
							<g>
								<path class="st11" d="M574.7,255c-6.9,6.3-9.5,16.2-9.3,25.5c0.3,9.3,3,18.4,5.1,27.5c2.1,9.1,3.5,18.7,1.3,27.7
									c3,0.4,5.9,0.8,8.9,1.3c7.3-7.7,11-18.6,9.9-29.1c-0.9-8.7-4.9-16.7-7.7-25c-2.8-8.3-4.5-17.6-0.9-25.6"/>
							</g>
						</g>
						<g>
							<g>
								<g>
									<path class="st11" d="M581.8,257.2c0,0-0.1,0.1-0.2,0.4c-0.1,0.3-0.3,0.7-0.5,1.2c-0.4,1-0.9,2.6-1.2,4.7
										c-0.3,2.1-0.4,4.7-0.1,7.7c0.3,3,1,6.4,2.2,10c1.1,3.6,2.7,7.5,4.2,11.7c1.5,4.2,3.1,8.7,3.8,13.7c0.7,5,0.3,10.3-1.3,15.6
										c-1.6,5.2-4.4,10.3-8.4,14.6l0.2-0.1c-1.4-0.2-2.9-0.4-4.4-0.6c-1.5-0.2-3.1-0.4-4.5-0.6l0.2,0.3
										c1.4-5.8,1.3-11.6,0.7-17.1c-0.7-5.5-1.9-10.7-3.1-15.5c-1.2-4.9-2.3-9.5-3.1-13.9c-0.7-4.4-1-8.5-0.9-12.3
										c0.3-7.6,2.7-13.4,4.9-16.9c1.1-1.8,2.2-3,2.9-3.8c0.4-0.4,0.7-0.7,0.9-0.9c0.2-0.2,0.3-0.3,0.3-0.3c0,0-0.1,0.1-0.3,0.3
										c-0.2,0.2-0.5,0.5-0.9,0.9c-0.8,0.8-1.9,2-3,3.8c-2.3,3.5-4.7,9.4-5.1,17c-0.2,3.8,0.1,8,0.8,12.4c0.7,4.4,1.8,9.1,3,14
										c1.2,4.9,2.4,10,3.1,15.5c0.7,5.4,0.7,11.2-0.7,16.9l-0.1,0.3l0.3,0c1.4,0.2,3,0.4,4.5,0.6c1.5,0.2,3,0.4,4.4,0.6l0.1,0
										l0.1-0.1c4.1-4.3,6.9-9.5,8.5-14.8c1.6-5.3,2-10.8,1.3-15.8c-0.7-5-2.3-9.6-3.9-13.8c-1.6-4.2-3.1-8-4.3-11.7
										c-1.1-3.6-1.9-7-2.2-9.9c-0.3-3-0.3-5.6,0-7.7c0.3-2.1,0.8-3.7,1.1-4.7c0.2-0.5,0.3-0.9,0.4-1.2
										C581.8,257.4,581.8,257.2,581.8,257.2z"/>
								</g>
							</g>
						</g>
					</g>
					<g>
						<g>
							<g>
								<path class="st11" d="M573.2,328.6c0,0.2,2.8-0.4,6.2,0.1c3.4,0.4,6,1.7,6,1.5c0-0.1-0.6-0.4-1.6-0.9
									c-1.1-0.4-2.6-0.9-4.3-1.2c-1.7-0.2-3.3-0.2-4.5,0C573.9,328.3,573.2,328.5,573.2,328.6z"/>
							</g>
						</g>
					</g>
					<g>
						<g>
							<g>
								<path class="st11" d="M578.4,336.8c0.1,0.1,1.1-1.5,2.1-3.5c1-2,1.8-3.7,1.6-3.8c-0.1-0.1-1.1,1.5-2.1,3.5
									C579,335,578.2,336.7,578.4,336.8z"/>
							</g>
						</g>
					</g>
					<g>
						<g>
							<g>
								<path class="st11" d="M573.7,336.1c0.1,0.1,1-1.6,1.9-3.8c0.9-2.1,1.6-3.9,1.4-4c-0.1-0.1-1,1.6-1.9,3.8
									C574.2,334.3,573.6,336,573.7,336.1z"/>
							</g>
						</g>
					</g>
				</g>
				<g>
					<g>
						<g>
							<g>
								<path class="st7" d="M586.5,252.1c0.1,0,0.2-0.2,0.3-0.6c0.1-0.4,0-1-0.2-1.6c-0.2-0.6-0.7-1-1-1.2
									c-0.3-0.2-0.6-0.3-0.6-0.2c-0.1,0.1,0.7,0.6,1.1,1.6C586.5,251.1,586.3,252,586.5,252.1z"/>
							</g>
						</g>
					</g>
					<g>
						<g>
							<path class="st12" d="M574.9,249.9c1.2-1.9,4-2.5,6.3-2.8c2.7-0.2,5.4,2.1,5.6,4.8c0.3,2.7-1.7,5.4-4.4,6.1
								c-2.6,0.7-5.6-0.5-7.1-2.8C574.2,253.7,573.9,251.5,574.9,249.9z"/>
						</g>
					</g>
					<g>
						<g>
							<g>
								<path class="st7" d="M579.9,248.2c0,0-0.6,0.4-1.2,1.4c-0.6,1-1,2.6-0.5,4.4c0.5,1.7,1.7,3,2.6,3.5c1,0.6,1.7,0.7,1.7,0.6
									c0-0.1-0.6-0.3-1.5-0.9c-0.9-0.6-1.9-1.8-2.4-3.4c-0.4-1.6-0.1-3.1,0.4-4.1C579.5,248.7,580,248.2,579.9,248.2z"/>
							</g>
						</g>
					</g>
					<g>
						<g>
							<g>
								<path class="st7" d="M575.5,249.2c0,0-0.4,0.3-0.7,0.9c-0.3,0.7-0.6,1.7-0.5,2.8c0.1,1.1,0.6,2.1,1,2.6
									c0.5,0.6,0.9,0.8,0.9,0.8c0.1-0.1-0.2-0.4-0.6-1c-0.4-0.6-0.7-1.5-0.8-2.5c-0.1-1,0.1-2,0.3-2.6
									C575.3,249.6,575.5,249.2,575.5,249.2z"/>
							</g>
						</g>
					</g>
				</g>
				<g class="st10">
					<g>
						<g>
							<path d="M574.8,255c1.8,2,4.1,2.9,6.8,3.1c-0.5,1.2-2.2,2.3-3.5,2.4c-1.3,0.1-2.6-0.6-3.3-1.7
								C574.1,257.6,574.1,256.1,574.8,255z"/>
						</g>
					</g>
				</g>
				<g class="st10">
					<g>
						<g>
							<path d="M606.4,263.7c0.9-1.1,2.3-1.7,3.7-2.2c5.2-1.9,10.7-5,15.9-6.9c-4.7,4.2-9.8,9.1-15.2,12.3c-1.3,0.8-3,1.5-4.2,0.6
								C605.4,266.7,605.5,264.8,606.4,263.7z"/>
						</g>
					</g>
				</g>
				<g class="st10">
					<g>
						<g>
							<path d="M563.8,272.9c0.8-6.2,3.7-12.3,8.7-16c-2.7,4.9-5.4,9.9-6.6,15.3c-1.3,6-0.3,9.8,0.2,15.9l-0.6,3
								C563.8,285.1,563,279.1,563.8,272.9z"/>
						</g>
					</g>
				</g>
				<g>
					<g>
						<g>
							<path class="st7" d="M609.2,267.9c0,0,0.3-0.1,0.8-0.4c0.5-0.3,1.2-0.7,2.1-1.3c1.7-1.1,4-2.8,6.4-4.8c2.4-2,4.3-4.1,5.7-5.6
								c0.7-0.8,1.2-1.4,1.6-1.8c0.4-0.5,0.5-0.7,0.5-0.7c-0.1-0.1-0.9,0.9-2.3,2.3c-1.4,1.5-3.4,3.4-5.8,5.4
								c-2.3,2-4.6,3.7-6.2,4.9C610.2,267.2,609.2,267.9,609.2,267.9z"/>
						</g>
					</g>
				</g>
			</g>
		</g>
		<g>
			<g>
				<g>
					<g>
						<g>
							<g>
								<path class="st7" d="M583.8,118.3c-1.5-2.7-0.6-6.3,1.6-8.4c2.2-2.1,5.4-2.9,8.5-2.8c3.1,0.1,6,1,9,1.9
									c2.2-2.9,6-4.3,9.6-3.7c3.5,0.7,6.6,3.4,7.6,6.9c2.1-0.8,4.6-0.4,6.3,1.1c1.7,1.5,2.5,3.9,2,6.1l-13,6.5l-11.4,28
									c-3.9,4.3-11,5.1-15.7,1.8c-4.7-3.3-6.5-10.2-3.8-15.3c-0.9-0.6-1.7-1.4-2.4-2.3c-2.5-1.1-4.7-3.2-5.6-5.8
									C574.4,126.7,578,119.8,583.8,118.3z"/>
							</g>
						</g>
					</g>
					<g>
						<g>
							<g>
								<g>
									<g>
										<g>
											<g>
												<g>
													<g>
														<g>
															<g>
																<g>
																	<g>
																		<g>
																			<g>
																				<g>
																					<g>
																						<g>
																							<g>
																								<g>
																									<path class="st13" d="M599.9,168.9c0.3-4.4,0.4-4.7,0.4-4.6c0,0-8.4-2.1-9.3-13.3
																										c-0.4-5.6,0.5-14.6,1.6-22c0.9-6.6,6-14.5,12.6-13.3l20.3,6.9c2,0.4,2.6,2.1,2.4,4.2l0.1,1l-3.4,31.8
																										l-1.1,9.5c-0.6,6-6.1,12.2-12.1,12.1l0,0C604.6,180.9,599.5,175.6,599.9,168.9z"/>
																								</g>
																							</g>
																						</g>
																					</g>
																				</g>
																			</g>
																		</g>
																	</g>
																</g>
															</g>
															<g>
																<g>
																	<g>
																		<g>
																			<g>
																				<g>
																					<g>
																						<g>
																							<g>
																								<g>
																									<g>
																										<path class="st7" d="M594.7,139c-0.1,0.8,0.5,1.4,1.3,1.5c0.8,0.1,1.5-0.4,1.6-1.2
																											c0.1-0.8-0.5-1.4-1.3-1.5C595.5,137.8,594.8,138.3,594.7,139z"/>
																									</g>
																								</g>
																							</g>
																						</g>
																					</g>
																				</g>
																			</g>
																		</g>
																	</g>
																</g>
																<g>
																	<g>
																		<g>
																			<g>
																				<g>
																					<g>
																						<g>
																							<g>
																								<g>
																									<g>
																										<g>
																											<path class="st7" d="M594.5,134.9c0.2,0.2,1.3-0.5,2.8-0.4c1.5,0.1,2.6,1,2.8,0.8
																												c0.1-0.1-0.1-0.4-0.5-0.8c-0.5-0.4-1.3-0.8-2.2-0.9c-1-0.1-1.8,0.2-2.3,0.5
																												C594.6,134.5,594.4,134.8,594.5,134.9z"/>
																										</g>
																									</g>
																								</g>
																							</g>
																						</g>
																					</g>
																				</g>
																			</g>
																		</g>
																	</g>
																</g>
															</g>
															<g>
																<g>
																	<g>
																		<g>
																			<g>
																				<g>
																					<g>
																						<g>
																							<g>
																								<g>
																									<g>
																										<path class="st7" d="M607.9,139.8c-0.1,0.8,0.5,1.4,1.3,1.5c0.8,0.1,1.5-0.4,1.6-1.2
																											c0.1-0.8-0.5-1.4-1.3-1.5C608.7,138.5,608,139.1,607.9,139.8z"/>
																									</g>
																								</g>
																							</g>
																						</g>
																					</g>
																				</g>
																			</g>
																		</g>
																	</g>
																</g>
																<g>
																	<g>
																		<g>
																			<g>
																				<g>
																					<g>
																						<g>
																							<g>
																								<g>
																									<g>
																										<g>
																											<path class="st7" d="M609.1,135.7c0.2,0.2,1.3-0.5,2.8-0.4c1.5,0.1,2.6,1,2.8,0.8
																												c0.1-0.1-0.1-0.4-0.5-0.8c-0.5-0.4-1.3-0.8-2.2-0.9c-1-0.1-1.8,0.2-2.3,0.5
																												C609.2,135.3,609.1,135.6,609.1,135.7z"/>
																										</g>
																									</g>
																								</g>
																							</g>
																						</g>
																					</g>
																				</g>
																			</g>
																		</g>
																	</g>
																</g>
															</g>
															<g>
																<g>
																	<g>
																		<g>
																			<g>
																				<g>
																					<g>
																						<g>
																							<g>
																								<g>
																									<g>
																										<path class="st7" d="M602.8,146.2c0-0.1-0.9-0.3-2.5-0.6c-0.4-0.1-0.8-0.2-0.8-0.4
																											c-0.1-0.3,0.1-0.7,0.4-1.1c0.4-0.9,0.9-1.9,1.4-2.9c1.9-4.1,3.4-7.5,3.2-7.6c-0.2-0.1-1.9,3.2-3.8,7.3
																											c-0.5,1-0.9,2-1.3,2.9c-0.2,0.4-0.5,0.9-0.3,1.5c0.1,0.3,0.4,0.5,0.6,0.6c0.2,0.1,0.5,0.1,0.7,0.1
																											C601.8,146.2,602.8,146.2,602.8,146.2z"/>
																									</g>
																								</g>
																							</g>
																						</g>
																					</g>
																				</g>
																			</g>
																		</g>
																	</g>
																</g>
															</g>
															<g>
																<g>
																	<g>
																		<g>
																			<g>
																				<g>
																					<g>
																						<g>
																							<g>
																								<g>
																									<path class="st14" d="M600.3,164.2c0,0,7.4,1.1,15.2-2.8c0,0-4.4,7.6-15.4,5.6L600.3,164.2z"/>
																								</g>
																							</g>
																						</g>
																					</g>
																				</g>
																			</g>
																		</g>
																	</g>
																</g>
															</g>
														</g>
													</g>
												</g>
												<g>
													<g>
														<g>
															<g>
																<g>
																	<g>
																		<g>
																			<g>
																				<g>
																					<g>
																						<path class="st7" d="M609.4,131.6c0.2,0.4,1.7,0.2,3.5,0.4c1.8,0.2,3.3,0.7,3.5,0.3c0.1-0.2-0.2-0.6-0.7-1
																							c-0.6-0.4-1.5-0.8-2.6-0.9c-1.1-0.1-2.1,0.1-2.7,0.3C609.7,131,609.4,131.4,609.4,131.6z"/>
																					</g>
																				</g>
																			</g>
																		</g>
																	</g>
																</g>
															</g>
														</g>
													</g>
												</g>
												<g>
													<g>
														<g>
															<g>
																<g>
																	<g>
																		<g>
																			<g>
																				<g>
																					<g>
																						<path class="st7" d="M594.8,130.4c0.3,0.4,1.6,0.1,3.1,0.2c1.5,0.1,2.8,0.5,3.1,0.1c0.1-0.2,0-0.5-0.6-0.9
																							c-0.5-0.4-1.4-0.7-2.5-0.8c-1-0.1-2,0.2-2.5,0.5C594.8,129.9,594.6,130.2,594.8,130.4z"/>
																					</g>
																				</g>
																			</g>
																		</g>
																	</g>
																</g>
															</g>
														</g>
													</g>
												</g>
											</g>
										</g>
									</g>
								</g>
								<g>
									<g>
										<g>
											<g>
												<path class="st7" d="M619.9,115.9c-0.2,2.2-1.4,4.4-3.2,5.7c-1.8,1.3-4.2,1.7-6.4,1.2c-1.7-0.4-3.5-1.4-5-0.6
													c-1.6,0.8-1.9,3.2-3.3,4.2c-2.1,1.6-5.1-0.3-7.6,0.3c-2,0.4-3.3,2.2-4.7,3.6c-1.4,1.4-3.4,2.8-5.3,2.1
													c0.3-1.7,0.5-3.5,1.2-5.1c0.6-1.6,1.7-3.1,3.2-4c0.8-0.5,1.8-0.7,2.6-1.2c1.7-1.2,2.2-3.4,3.4-5.1
													c1.4-2.2,4-3.7,6.7-3.7c2.2-0.1,4.4,0.8,6.6,0.4c1.6-0.3,3.1-1.2,4.7-1.4c3.2-0.4,5.9,2.1,8,4.5"/>
											</g>
										</g>
									</g>
								</g>
							</g>
						</g>
						<g>
							<g>
								<g>
									<path class="st7" d="M609.6,119.6c1.4-0.3,4.3-1,5.2-2.1c1.8-2.5,4.8-4.1,7.7-3.7c2.9,0.4,5.5,2.9,5.9,6
										c3.5,0.3,6.8,2.8,8.3,6.3c1.4,3.5,1,7.8-1.1,10.9c-0.6,0.8-1.3,2.6-1.3,2.6s1.5,1.4,2.1,2.5c3,4.8-3,7.5-3,7.5
										c0.4,3.4-2.7,3.8-4.7,4.1c-1.9,0.2-2.4,5.8-4,5.8l-0.6-16.8c-0.2,0.1-0.4,0.2-0.7,0.2c-3.8,0.6-3.7-6.8-2.7-8.8
										c-1.3-1.3-2.5-2.6-3.5-4.2c-0.9-1.6-1.5-5.8-1.1-7.7C614.6,122,609,119.7,609.6,119.6z"/>
								</g>
							</g>
						</g>
						<g>
							<g>
								<g>
									<g>
										<g>
											<g>
												<g>
													<g>
														<g>
															<g>
																<g>
																	<g>
																		<g>
																			<g>
																				<path class="st13" d="M623.5,143.5c0.3-2.4,3-3.7,5-2.4c1.1,0.7,1.8,2.1,1.5,4.6c-0.8,6.7-7.3,4.5-7.3,4.3
																					C622.7,149.9,623.2,146.2,623.5,143.5z"/>
																			</g>
																		</g>
																	</g>
																</g>
															</g>
														</g>
													</g>
												</g>
											</g>
										</g>
									</g>
								</g>
							</g>
							<g>
								<g>
									<g>
										<g>
											<g>
												<g>
													<g>
														<g>
															<g>
																<g>
																	<g>
																		<g>
																			<g>
																				<g>
																					<path class="st14" d="M625.1,147.7c0,0,0.1,0.1,0.3,0.2c0.2,0.1,0.5,0.2,0.9,0.1c0.7-0.2,1.5-1.2,1.6-2.4
																						c0.1-0.6,0-1.2-0.1-1.7c-0.1-0.5-0.4-0.9-0.8-1c-0.3-0.1-0.6,0.1-0.7,0.2c-0.1,0.2-0.1,0.3-0.1,0.3
																						c0,0-0.1-0.1,0-0.4c0-0.1,0.1-0.3,0.3-0.4c0.2-0.1,0.4-0.2,0.7-0.1c0.5,0.1,0.9,0.6,1.1,1.2
																						c0.2,0.6,0.3,1.2,0.2,1.9c-0.2,1.3-1,2.5-2,2.7c-0.5,0.1-0.9-0.1-1-0.3C625,147.9,625,147.7,625.1,147.7z"/>
																				</g>
																			</g>
																		</g>
																	</g>
																</g>
															</g>
														</g>
													</g>
												</g>
											</g>
										</g>
									</g>
								</g>
							</g>
						</g>
					</g>
					<g>
						<g>
							<g>
								<g>
									<path class="st8" d="M587.7,138.9c0-0.1-0.6-0.4-1.6-1.3c-0.9-0.9-2.1-2.5-2.7-4.8c-0.3-1.1-0.4-2.4-0.1-3.8
										c0.2-1.3,0.8-2.7,1.8-3.9c2-2.3,5.5-3.7,9-3c0.3,0.1,0.6,0.2,0.9,0.3c0.3,0.1,0.6,0.2,0.8,0.3l0.4,0.2l-0.1-0.4
										c-0.1-0.8,0.1-1.6,0.5-2.2c0.4-0.6,1-1.2,1.7-1.6c1.3-0.8,2.8-1,4.3-0.9c2.9,0.3,5.4,1.2,7.6,1.2c2.2,0,4-0.8,4.9-1.7
										c0.5-0.4,0.7-0.9,0.9-1.1c0.1-0.3,0.2-0.5,0.2-0.5c-0.1,0-0.2,0.7-1.2,1.4c-0.9,0.8-2.6,1.5-4.7,1.4
										c-1.1,0-2.2-0.2-3.5-0.5c-1.3-0.3-2.6-0.6-4.1-0.8c-0.7-0.1-1.5-0.1-2.3,0.1c-0.8,0.1-1.6,0.4-2.3,0.8
										c-0.7,0.4-1.4,1-1.9,1.7c-0.5,0.7-0.7,1.7-0.6,2.6l0.4-0.3c-0.3-0.1-0.6-0.3-0.9-0.4c-0.3-0.1-0.6-0.2-1-0.3
										c-3.7-0.8-7.4,0.7-9.5,3.2c-1.1,1.2-1.7,2.7-1.9,4.1c-0.2,1.4-0.1,2.8,0.2,3.9c0.6,2.4,1.9,4,2.9,4.8
										c0.5,0.4,0.9,0.7,1.3,0.9C587.5,138.9,587.7,139,587.7,138.9z"/>
								</g>
							</g>
						</g>
					</g>
					<g>
						<g>
							<g>
								<g>
									<path class="st8" d="M586,116.1c0,0.1,0.6-0.6,2-1c0.7-0.2,1.5-0.3,2.5-0.1c1,0.2,2,0.6,2.8,1.5l0.3,0.3l0.1-0.4
										c0.5-2.3,2.6-4.6,5.5-5.3c2.2-0.5,4.3,0.2,6.1,0.9c1.8,0.8,3.5,1.5,5,1.8c1.5,0.3,2.8,0.2,3.6,0c0.4-0.1,0.7-0.3,0.9-0.4
										c0.2-0.1,0.3-0.2,0.3-0.2c0,0-0.4,0.2-1.2,0.4c-0.8,0.2-2,0.2-3.5-0.1c-1.5-0.3-3-1.1-4.9-1.9c-0.9-0.4-1.9-0.8-3-1
										c-1.1-0.2-2.3-0.3-3.4,0c-3.1,0.8-5.3,3.3-5.9,5.8l0.4-0.1c-0.9-1-2-1.4-3.1-1.6c-1-0.2-1.9,0-2.6,0.2
										c-0.7,0.2-1.2,0.6-1.5,0.8C586.2,115.9,586,116.1,586,116.1z"/>
								</g>
							</g>
						</g>
					</g>
					<g>
						<g>
							<g>
								<path class="st14" d="M603.8,149.4c0.4-0.5,1.1-0.7,1.7-0.7c0.6,0,1.4,0.4,1.9,1c0,0,0,0,0,0c0,0,0,0,0.1,0.1l0,0
									c0.2,0.2,0.3,0.5,0.3,0.7c0,0.6-0.4,1.2-0.9,1.5c-0.8,0.5-1.9,0.6-2.7,0C603.4,151.4,603.2,150.1,603.8,149.4z"/>
							</g>
						</g>
					</g>
					<g>
						<g>
							<g>
								<g>
									<path class="st7" d="M607.7,148.1c-0.1,0-0.2,0.3-0.6,0.8c-0.3,0.5-0.9,1-1.7,1.3c-0.8,0.3-1.6,0.3-2.1,0.1
										c-0.6-0.1-0.9-0.3-0.9-0.2c0,0.1,0.2,0.4,0.8,0.6c0.6,0.2,1.5,0.4,2.5,0c0.9-0.4,1.6-1.1,1.8-1.7
										C607.8,148.6,607.8,148.1,607.7,148.1z"/>
								</g>
							</g>
						</g>
					</g>
				</g>
				<g>
					<g>
						<g>
							<g>
								<path class="st7" d="M633.5,129.7c0,0,0.1-0.1,0.3-0.2c0.2-0.2,0.4-0.4,0.8-0.7c0.6-0.7,1.4-1.8,1.8-3.4
									c0.2-0.8,0.2-1.7,0-2.7c-0.2-1-0.7-1.9-1.5-2.7c-0.8-0.8-2-1.3-3.2-1.3c-1.2,0-2.5,0.5-3.3,1.6l0.3,0.2c0,0,0,0,0-0.1
									c0.8-2.4,0.8-5-0.2-7c-1-2-2.8-3.3-4.5-3.4c-1.7-0.2-3,0.5-3.7,1.1c-0.4,0.3-0.6,0.6-0.7,0.8c-0.1,0.2-0.2,0.3-0.2,0.3
									c0,0,0.3-0.5,1-1c0.7-0.5,2-1.1,3.6-0.9c1.6,0.2,3.3,1.4,4.2,3.3c0.9,1.9,0.9,4.4,0.1,6.7c0,0,0,0,0,0.1l-0.3,1l0.6-0.9
									c0.7-1,1.9-1.4,3-1.4c1.1,0,2.2,0.4,2.9,1.2c0.8,0.7,1.2,1.7,1.4,2.6c0.2,0.9,0.2,1.8,0,2.6c-0.3,1.6-1.1,2.7-1.7,3.4
									C633.8,129.3,633.4,129.7,633.5,129.7z"/>
							</g>
						</g>
					</g>
				</g>
			</g>
		</g>
		<g>
			<g>
				<g>
					<g>
						<path class="st7" d="M537.6,191.1l6.5,24.5c0.4,1.4,1.6,2.3,3,2.3l33.6-0.7c1.9,0,3.3-1.8,2.9-3.7l-4.9-23.5
							c-0.3-1.4-1.5-2.4-3-2.4h-35.4C538.5,187.6,537.2,189.3,537.6,191.1z"/>
					</g>
				</g>
			</g>
			<g>
				<g>
					<g>
						<path class="st13" d="M534.8,196.6c-0.7-0.8-0.7-2.2,0-3c0.7-0.9,1.8-1.3,2.9-1.4c1.1,0,2.2,0.3,3.2,0.7
							c1.3,0.5,2.5,1.1,3.6,1.8c0.8,0.5,1.7,1.2,1.8,2.1c0.2,0.9-0.9,2-1.7,1.5c1.1,0.5,2.2,1.6,2.3,2.8c0.2,1.2-0.5,1.8-1.6,2.2
							c0.9,0.3,1.4,1.4,1,2.3c-0.4,0.9-1.7,1.1-2.6,0.8c-0.9-0.4-1.6-1.1-2.3-1.9c0.7,1.1,0.9,2.5,0.6,3.8c-2.6-0.9-4.5-3.3-4.9-6
							c-1.3-0.9-1.7-2.8-0.9-4.2c-1-0.3-2.2-1.9-2.1-3"/>
					</g>
				</g>
			</g>
			<g>
				<g>
					<g>
						<g>
							<path class="st14" d="M545.3,203.3c0,0-0.4-0.3-1.1-0.8c-0.7-0.5-1.7-1.2-2.9-1.5c-0.6-0.1-1.2-0.1-1.8,0
								c-0.5,0.1-1,0.4-1.3,0.6c-0.6,0.5-0.8,1.1-0.8,1.1c0,0,0-0.1,0.1-0.4c0.1-0.2,0.3-0.5,0.6-0.8c0.3-0.3,0.8-0.6,1.4-0.7
								c0.6-0.2,1.2-0.2,1.9,0c1.3,0.3,2.3,1.1,3,1.6C545,202.9,545.3,203.3,545.3,203.3z"/>
						</g>
					</g>
				</g>
			</g>
			<g>
				<g>
					<g>
						<g>
							<path class="st14" d="M545,198.5c0,0-0.5-0.2-1.3-0.6c-0.4-0.2-0.9-0.4-1.4-0.6c-0.5-0.2-1.2-0.4-1.8-0.5
								c-0.7-0.1-1.3-0.1-1.9,0c-0.6,0.1-1,0.3-1.4,0.6c-0.7,0.5-0.9,1.1-0.9,1.1c0,0,0-0.1,0.1-0.4c0.1-0.2,0.3-0.6,0.7-0.9
								c0.4-0.3,0.9-0.6,1.5-0.7c0.6-0.1,1.3-0.1,2,0c0.7,0.1,1.3,0.3,1.9,0.5c0.6,0.2,1,0.5,1.4,0.7
								C544.5,198.2,545,198.4,545,198.5z"/>
						</g>
					</g>
				</g>
			</g>
			<g>
				<path class="st4" d="M559.7,199.5l0.2,0c0.8-0.1,1.7,0.6,1.8,1.4c0.1,0.8-0.5,1.7-1.4,1.8s-1.7-0.5-1.9-1.3
					C558.3,200.6,558.9,199.7,559.7,199.5z"/>
			</g>
		</g>
		<g>
			<g>
				<g>
					<g>
						<path class="st13" d="M592.3,191.1c0,0-3.6-6.9-4.6-6.5c-1.1,0.4-2.4,0.4-1.8,3.1c0.7,2.6,2.4,4.4,2.3,6.5
							c-0.1,2.1-1.7,6.7,0.1,8.8c1.8,2.2,4.8,8.6,4.8,8.6l7.9-8l-1.8-2.6c0,0,3-4.1,3.5-6.5c0.6-2.4-0.3-5.8-0.3-5.8s0.2-2-0.9-3.5
							c0,0,0.2-1.6,0.2-3.2c0-1.6-4.2-8.2-4.2-8.2s-2.1,0.8-1.4,3c0.7,2.2,1.6,4.1,1.6,4.1L593,179c0,0-1.3,2.3,1.3,3.7
							c2.6,1.4,3,2.6,3,2.6l-3.7,0.3c0,0-0.3,2,1.1,2.5c1.5,0.4,1.5,0.4,1.5,0.4L592.3,191.1z"/>
					</g>
				</g>
			</g>
			<g>
				<g>
					<g>
						<g>
							<path class="st14" d="M594.5,188c0.7,0.1,1.6,0.4,3.3,0.7l0.1,0l0,0c0.4,0.8,0.7,1.8,0.6,3c-0.1,1.2-0.6,2.3-1.5,3.3
								c-1,1-2.3,1.6-3.3,2.1c-1.1,0.5-2,1.1-2.5,1.8c-0.6,0.7-0.8,1.4-0.9,1.9c-0.1,0.5,0,0.8-0.1,0.8c0,0,0-0.1,0-0.2
								c0-0.1,0-0.3,0-0.6c0-0.5,0.3-1.3,0.9-2c0.6-0.7,1.5-1.4,2.6-1.9c1-0.6,2.3-1.1,3.2-2.1c0.8-0.9,1.4-2,1.5-3.1
								c0.1-1.1-0.2-2.1-0.6-2.8l0.1,0.1C595.7,188.4,594.4,188,594.5,188z"/>
						</g>
					</g>
				</g>
			</g>
			<g>
				<g>
					<g>
						<g>
							<path class="st14" d="M601.7,188.4c-0.1,0-0.1-0.3-0.3-0.8c-0.2-0.5-0.7-1-1.4-1.4c-0.7-0.4-1.4-0.6-1.9-0.7
								c-0.5-0.1-0.8-0.2-0.8-0.2c0,0,0.3-0.1,0.9,0c0.5,0.1,1.3,0.2,2,0.6c0.4,0.2,0.7,0.5,0.9,0.8c0.2,0.3,0.4,0.6,0.5,0.8
								C601.8,188.1,601.8,188.4,601.7,188.4z"/>
						</g>
					</g>
				</g>
			</g>
			<g>
				<g>
					<g>
						<g>
							<path class="st14" d="M601.3,184.3c-0.1,0-0.6-0.9-1.6-1.8c-0.9-0.9-1.9-1.5-1.8-1.5c0-0.1,1.1,0.4,2,1.3
								C600.9,183.3,601.4,184.3,601.3,184.3z"/>
						</g>
					</g>
				</g>
			</g>
		</g>
	</g>
</g>
</svg>
