<?xml version="1.0" encoding="utf-8"?>
<!-- Generator: Adobe Illustrator 26.1.0, SVG Export Plug-In . SVG Version: 6.00 Build 0)  -->
<svg version="1.1" id="Capa_1" xmlns="http://www.w3.org/2000/svg" xmlns:xlink="http://www.w3.org/1999/xlink" x="0px" y="0px"
	 viewBox="0 0 24.1 24.1" style="enable-background:new 0 0 24.1 24.1;" xml:space="preserve">
<style type="text/css">
	.st0{fill:#FFCCCC;}
	.st1{fill:#F9CCCF;}
</style>
<g>
	<path class="st1" d="M12.1,0c6.6,0,12,5.4,12,12c0,6.6-5.4,12-12,12c-6.6,0-12-5.4-12-12C0.1,5.4,5.4,0,12.1,0z M13.4,9.9
		c0-0.8,0-1.6,0-2.3c0-0.5,0.3-0.8,0.8-0.9c0.5-0.1,1-0.1,1.5-0.1c0.2,0,0.4,0,0.6,0c0-0.9,0-1.7,0-2.6c-1-0.1-2-0.2-3,0
		c-1.5,0.2-2.5,1.1-2.8,2.6c-0.1,0.5-0.1,1-0.1,1.5c0,0.6,0,1.1,0,1.7c-0.8,0-1.7,0-2.5,0c0,1,0,1.9,0,2.9c0.8,0,1.6,0,2.5,0
		c0,2.5,0,4.9,0,7.4c1,0,2,0,3,0c0-2.5,0-4.9,0-7.4c0.8,0,1.7,0,2.5,0c0.1-1,0.2-1.9,0.4-2.9C15.2,9.9,14.3,9.9,13.4,9.9z"/>
</g>
</svg>
