<?xml version="1.0" encoding="utf-8"?>
<!-- Generator: Adobe Illustrator 26.1.0, SVG Export Plug-In . SVG Version: 6.00 Build 0)  -->
<svg version="1.1" id="Capa_1" xmlns="http://www.w3.org/2000/svg" xmlns:xlink="http://www.w3.org/1999/xlink" x="0px" y="0px"
	 viewBox="0 0 24.2 24.1" style="enable-background:new 0 0 24.2 24.1;" xml:space="preserve">
<style type="text/css">
	.st0{fill:#FFCCCC;}
	.st1{fill:#F9CCCF;}
</style>
<g>
	<path class="st1" d="M12.1,24.1c-6.6,0-12-5.4-12-12c0-6.6,5.4-12,12-12c6.6,0,12,5.4,12,12C24.1,18.8,18.7,24.1,12.1,24.1z
		 M19.5,12.1C19.5,12.1,19.5,12.1,19.5,12.1c0-0.9,0-1.8,0-2.7c0-0.4,0-0.7-0.1-1.1c-0.2-1.5-1-2.7-2.5-3.3
		c-0.6-0.2-1.3-0.3-1.9-0.3c-1.9,0-3.8,0-5.6,0c-0.4,0-0.8,0-1.2,0.1C6.7,5.1,5.6,5.9,5,7.4C4.8,8,4.7,8.6,4.7,9.3
		c0,1.9,0,3.7,0,5.6c0,0.3,0,0.7,0.1,1C5,17.3,5.7,18.4,7,19c0.7,0.3,1.4,0.4,2.1,0.4c2,0,4,0,6,0c0.8,0,1.5-0.1,2.2-0.5
		c1.4-0.7,2.1-2,2.2-3.5C19.6,14.4,19.5,13.2,19.5,12.1z"/>
	<path class="st1" d="M12.1,6.2c1,0,2,0,2.9,0c0.3,0,0.7,0,1,0.1c1.2,0.3,1.9,1.1,2.1,2.3c0,0.3,0,0.5,0,0.8c0,1.8,0,3.7,0,5.5
		c0,0.4-0.1,0.9-0.2,1.3c-0.4,1.1-1.2,1.7-2.3,1.7c-1.4,0.1-2.8,0.1-4.2,0.1c-0.9,0-1.9,0-2.8-0.1c-1.4-0.1-2.4-1.1-2.5-2.5
		c0-0.2,0-0.5,0-0.7c0-1.8,0-3.7,0-5.5c0-0.4,0.1-0.9,0.2-1.3c0.4-1.1,1.2-1.7,2.3-1.7c1-0.1,1.9-0.1,2.9-0.1
		C11.7,6.1,11.9,6.1,12.1,6.2C12.1,6.2,12.1,6.2,12.1,6.2z M12.1,16c2.1,0,3.9-1.7,3.9-3.9c0-2.2-1.7-3.9-3.8-3.9
		c-2.2,0-3.9,1.7-4,3.9C8.2,14.3,9.9,16,12.1,16z M16,9c0.4,0,0.8-0.4,0.8-0.8c0-0.4-0.4-0.8-0.8-0.8c-0.4,0-0.8,0.4-0.8,0.8
		C15.3,8.7,15.6,9,16,9z"/>
	<path class="st1" d="M12.1,9.6c1.4,0,2.5,1.2,2.5,2.5c0,1.4-1.2,2.5-2.5,2.5c-1.4,0-2.5-1.2-2.5-2.5C9.6,10.7,10.8,9.6,12.1,9.6z"
		/>
</g>
</svg>
