<?xml version="1.0" encoding="utf-8"?>
<!-- Generator: Adobe Illustrator 26.1.0, SVG Export Plug-In . SVG Version: 6.00 Build 0)  -->
<svg version="1.1" id="Capa_1" xmlns="http://www.w3.org/2000/svg" xmlns:xlink="http://www.w3.org/1999/xlink" x="0px" y="0px"
	 viewBox="0 0 24.3 24.1" style="enable-background:new 0 0 24.3 24.1;" xml:space="preserve">
<style type="text/css">
	.st0{fill:#FFCCCC;}
	.st1{fill:#F9CCCF;}
</style>
<g>
	<path class="st0" d="M11.4,0.1c0.5,0,1,0,1.5,0c0.4,0.1,0.9,0.1,1.3,0.2c6.3,1.1,10.6,6.9,9.8,13.2c-0.4,3.5-2.1,6.3-4.9,8.3
		c-2.6,1.9-5.5,2.6-8.6,2.2c-2.4-0.3-4.5-1.3-6.4-2.9c-2.1-1.9-3.4-4.2-3.9-6.9c-0.1-0.4-0.1-0.9-0.2-1.3c0-0.5,0-1,0-1.5
		c0-0.3,0.1-0.6,0.1-0.9c0.4-2.6,1.5-4.9,3.3-6.8c1.8-1.8,4-3,6.5-3.4C10.5,0.2,10.9,0.2,11.4,0.1z M5.4,16.3
		c0.1,0.1,0.1,0.1,0.1,0.1c2.5,1.4,5,1.6,7.5,0.3c2.9-1.4,4.2-3.8,4.4-7c0-0.3,0.1-0.5,0.3-0.7c0.4-0.3,0.7-0.7,1-1.1
		c-0.5,0.1-1,0.3-1.4,0.4c0,0,0,0,0-0.1c0.5-0.4,0.9-0.8,1.1-1.4c-0.5,0.2-1,0.4-1.5,0.5c-0.2,0.1-0.3,0-0.4-0.1
		c-0.8-0.7-1.8-0.9-2.8-0.5c-1,0.4-1.6,1.2-1.8,2.3c0,0.3,0,0.6,0,0.9C9.7,9.9,7.8,8.9,6.3,7.1C6,7.6,5.9,8.1,5.9,8.6
		c0,0.9,0.4,1.6,1.2,2.2c0,0,0,0,0,0.1c-0.4-0.1-0.8-0.2-1.2-0.3C6,11.9,6.7,12.8,8,13.2c0,0,0,0,0,0.1c-0.4,0-0.7,0-1.1,0
		c0.1,0.4,0.3,0.7,0.6,1c0.5,0.6,1.2,0.9,2,0.9C8.2,16.1,6.9,16.5,5.4,16.3z"/>
</g>
</svg>
