<?xml version="1.0" encoding="utf-8"?>
<!-- Generator: Adobe Illustrator 26.1.0, SVG Export Plug-In . SVG Version: 6.00 Build 0)  -->
<svg version="1.1" id="Ñëîé_1" xmlns="http://www.w3.org/2000/svg" xmlns:xlink="http://www.w3.org/1999/xlink" x="0px" y="0px"
	 viewBox="0 0 3000 2000" style="enable-background:new 0 0 3000 2000;" xml:space="preserve">
<style type="text/css">
	.st0{fill:#FFFFFF;}
	.st1{fill:#3D0046;}
	.st2{fill:#A00070;}
</style>
<g>
	<g>
		<path class="st2" d="M2828.4,1020.1c-101.1,0,0,121.8,0,121.8S2929.6,1020.1,2828.4,1020.1z M2828.4,1097.1
			c-18.9,0-34.2-15.3-34.2-34.2c0-18.9,15.3-34.2,34.2-34.2c18.9,0,34.2,15.3,34.2,34.2C2862.6,1081.8,2847.3,1097.1,2828.4,1097.1z
			"/>
		<path class="st2" d="M2828.4,1033.4c-16.3,0-29.5,13.2-29.5,29.5c0,16.3,13.2,29.5,29.5,29.5c16.3,0,29.5-13.2,29.5-29.5
			C2857.9,1046.6,2844.7,1033.4,2828.4,1033.4z M2828.4,1087.7c-13.7,0-24.8-11.1-24.8-24.8c0-13.7,11.1-24.8,24.8-24.8
			c13.7,0,24.8,11.1,24.8,24.8C2853.2,1076.6,2842.1,1087.7,2828.4,1087.7z"/>
		<path class="st1" d="M2839.9,1165.6c0,6.3-5.1,11.5-11.5,11.5c-6.3,0-11.5-5.1-11.5-11.5c0-6.3,5.1-11.5,11.5-11.5
			C2834.8,1154.2,2839.9,1159.3,2839.9,1165.6z"/>
	</g>
	<path class="st0" d="M114.5,1122.8L114.5,1122.8c9.9,4.7,21.4,3.7,30.4-2.5l91.4-63.2c6.3-4.4,14.5-5.1,21.5-1.9l38.5,17.7
		c9.6,4.4,20.1,6.6,30.6,6.4l6.9-0.1c5.5-0.1,8.5-6.4,5.1-10.7l-4.3-5.4c-6.6-8.3-14.9-15-24.4-19.6l-38.2-18.5
		c-6.9-3.4-11.6-10.1-12.2-17.8l-9.3-110.7c-0.9-10.9-7.5-20.4-17.4-25.1l0,0c2.7,47.5-8,100.3-13,122.1c-0.7,3-4,4.5-6.7,3.2l0,0
		l1.7-9.1c0.8-4.4-1.9-8.7-6.2-9.9l-11.7-3.1c-1.6-0.4-3.2-0.3-4.8,0.3h0c-1.6,0.7-3.3,0.8-4.9,0.3l-4.2-1.2l4,2.8
		c1.2,0.9,2.2,2.1,2.7,3.5l0.9,2.4l1.5,3.8l-8.1-3.9c-5.2-2.5-10.7-4.4-16.4-5.5l-28.5-5.7l2.8-32.3c0.6-6.9-3.7-13.3-10.3-15.5
		l-10-3.3l-3.9,46.8l-7.9-1.6c-1.3-0.3-2.1,1.4-1.1,2.2l6.3,5.1l-33.7,32.8l8.9,5.7c5.8,3.7,13.4,2.9,18.4-1.8l23.4-22.6l22.2,18.2
		c4.5,3.7,9.4,6.7,14.6,9.1l8.2,3.8l-3.9,1.3l-2.4,0.9c-1.4,0.5-3,0.6-4.4,0.2l-4.7-1.3l3.6,2.4c1.4,1,2.4,2.4,2.9,4l0,0
		c0.5,1.6,1.4,2.9,2.8,3.9l9.8,7c3.7,2.6,8.7,2,11.6-1.5l5.9-7.1l0,0c2.8,1.3,3.6,4.8,1.8,7.2
		C186.9,1052.9,152.9,1094.6,114.5,1122.8z"/>
	<g>
		<path class="st0" d="M442.9,1149.9c-1.3,0-2.5-0.4-3.7-1.1c-6.1-4.1-12.2-8.3-18.1-12.5c-3-2.1-3.6-6.2-1.5-9.1
			c2.1-3,6.2-3.6,9.1-1.5c5.9,4.2,11.9,8.3,17.8,12.3c3,2,3.8,6.1,1.8,9.1C447,1148.8,445,1149.9,442.9,1149.9z"/>
		<path class="st0" d="M939.4,1301C939.4,1301,939.4,1301,939.4,1301c-4.5,0-8.9-0.1-13.3-0.2c-10.2-0.2-20.6-0.6-30.9-1.2
			c-3.6-0.2-6.4-3.3-6.2-6.9c0.2-3.6,3.4-6.4,6.9-6.2c10.1,0.6,20.3,1,30.4,1.2c4.4,0.1,8.7,0.2,13.1,0.2c3.6,0,6.5,3,6.5,6.6
			C946,1298,943,1301,939.4,1301z M983.3,1299.8c-3.4,0-6.3-2.7-6.5-6.2c-0.2-3.6,2.5-6.7,6.2-6.9c15-0.9,29.5-2.4,43.1-4.3
			c3.6-0.5,6.9,2,7.4,5.5c0.5,3.6-2,6.9-5.5,7.4c-14,2-28.9,3.5-44.2,4.5C983.5,1299.8,983.4,1299.8,983.3,1299.8z M1393,1296.3
			C1393,1296.3,1393,1296.3,1393,1296.3c-14.7,0-29.6-0.5-44.2-1.3c-3.6-0.2-6.4-3.3-6.2-6.9c0.2-3.6,3.4-6.4,6.9-6.2
			c14.4,0.8,29,1.3,43.5,1.3c3.6,0,6.6,2.9,6.5,6.6C1399.5,1293.3,1396.6,1296.3,1393,1296.3z M851.9,1296.1c-0.2,0-0.5,0-0.7,0
			c-14.6-1.5-29.3-3.4-43.8-5.6c-3.6-0.5-6-3.9-5.5-7.5c0.5-3.6,3.9-6,7.5-5.5c14.3,2.2,28.8,4,43.2,5.5c3.6,0.4,6.2,3.6,5.8,7.2
			C858,1293.6,855.2,1296.1,851.9,1296.1z M1436.8,1295.1c-3.5,0-6.4-2.7-6.5-6.2c-0.2-3.6,2.6-6.7,6.2-6.9c14.4-0.8,29-2,43.4-3.6
			c3.6-0.4,6.8,2.2,7.2,5.8c0.4,3.6-2.2,6.8-5.8,7.2c-14.6,1.6-29.4,2.8-44.1,3.6C1437.1,1295.1,1437,1295.1,1436.8,1295.1z
			 M1305.5,1291.2c-0.3,0-0.5,0-0.8,0c-14.6-1.7-29.4-3.8-43.8-6.4c-3.6-0.6-6-4-5.3-7.6c0.6-3.6,4-5.9,7.6-5.3
			c14.2,2.5,28.7,4.6,43,6.3c3.6,0.4,6.2,3.7,5.8,7.3C1311.6,1288.7,1308.7,1291.2,1305.5,1291.2z M1069.9,1286.9
			c-2.9,0-5.6-2-6.3-4.9c-0.9-3.5,1.2-7.1,4.7-8c14.3-3.7,28.1-8.2,40.8-13.4c3.3-1.4,7.2,0.2,8.6,3.6c1.4,3.4-0.2,7.2-3.6,8.6
			c-13.3,5.4-27.6,10.1-42.5,14C1071,1286.8,1070.5,1286.9,1069.9,1286.9z M1524,1285.5c-3.1,0-5.9-2.3-6.5-5.5
			c-0.6-3.6,1.8-7,5.4-7.6c14.3-2.4,28.6-5.2,42.7-8.4c3.5-0.8,7,1.4,7.9,4.9c0.8,3.5-1.4,7-4.9,7.9c-14.3,3.2-28.9,6.1-43.4,8.6
			C1524.7,1285.4,1524.4,1285.5,1524,1285.5z M765.2,1282.9c-0.4,0-0.9,0-1.3-0.1c-14.4-2.9-28.9-6.2-43.1-9.7
			c-3.5-0.9-5.6-4.4-4.8-8c0.9-3.5,4.4-5.6,8-4.8c14,3.5,28.3,6.7,42.5,9.6c3.6,0.7,5.9,4.2,5.1,7.7
			C771,1280.7,768.2,1282.9,765.2,1282.9z M1219.1,1276c-0.5,0-1-0.1-1.5-0.2c-6-1.4-12-2.9-17.9-4.5c-8.5-2.3-16.9-4.7-24.9-7.2
			c-3.5-1.1-5.4-4.8-4.3-8.2c1.1-3.5,4.8-5.4,8.2-4.3c7.8,2.4,15.9,4.8,24.3,7c5.8,1.5,11.7,3,17.6,4.4c3.5,0.8,5.7,4.4,4.9,7.9
			C1224.7,1273.9,1222.1,1276,1219.1,1276z M1609.5,1266c-2.8,0-5.5-1.9-6.3-4.7c-1-3.5,1-7.1,4.5-8.1c13.9-4,27.8-8.5,41.4-13.3
			c3.4-1.2,7.2,0.6,8.4,4c1.2,3.4-0.6,7.2-4,8.4c-13.8,4.9-28,9.5-42.1,13.6C1610.7,1265.9,1610.1,1266,1609.5,1266z M680.1,1261.5
			c-0.6,0-1.3-0.1-1.9-0.3c-14.1-4.2-28.2-8.9-42-13.8c-3.4-1.2-5.2-5-4-8.4c1.2-3.4,5-5.2,8.4-4c13.6,4.8,27.5,9.4,41.4,13.6
			c3.5,1,5.4,4.7,4.4,8.2C685.5,1259.7,682.9,1261.5,680.1,1261.5z M1150.7,1253.4c-2.2,0-4.3-1.1-5.6-3.1c-1.9-3.1-1-7.1,2.1-9
			c12-7.5,23.3-16.2,33.5-26c2.6-2.5,6.8-2.4,9.3,0.2c2.5,2.6,2.4,6.8-0.2,9.3c-10.9,10.4-22.9,19.7-35.7,27.7
			C1153.1,1253.1,1151.9,1253.4,1150.7,1253.4z M1135.5,1249.4c-0.9,0-1.7-0.2-2.6-0.5c-14.4-6.1-27.9-12.8-40-20
			c-3.1-1.8-4.2-5.9-2.3-9c1.8-3.1,5.9-4.2,9-2.3c11.6,6.9,24.5,13.3,38.4,19.2c3.3,1.4,4.9,5.3,3.5,8.6
			C1140.5,1247.9,1138.1,1249.4,1135.5,1249.4z M1692.1,1236.6c-2.5,0-5-1.5-6-4c-1.4-3.3,0.1-7.2,3.5-8.6c6.4-2.7,12.7-5.5,19-8.4
			c6.8-3.2,13.7-6.5,20.4-9.8c3.2-1.6,7.2-0.3,8.8,2.9c1.6,3.2,0.3,7.2-2.9,8.8c-6.8,3.4-13.9,6.8-20.8,10
			c-6.4,2.9-12.9,5.8-19.4,8.6C1693.9,1236.5,1693,1236.6,1692.1,1236.6z M597.5,1232.2c-0.8,0-1.7-0.2-2.5-0.5
			c-13.6-5.6-27.2-11.6-40.4-17.8c-3.3-1.5-4.7-5.4-3.2-8.7c1.5-3.3,5.5-4.7,8.7-3.2c13,6.1,26.5,12,39.9,17.5
			c3.4,1.4,5,5.2,3.6,8.6C602.5,1230.7,600,1232.2,597.5,1232.2z M1060.7,1204.4c-1.5,0-3.1-0.5-4.3-1.6
			c-11.8-10.3-22.1-21.6-30.4-33.6c-2.1-3-1.3-7.1,1.6-9.1c3-2.1,7.1-1.3,9.1,1.6c7.8,11.1,17.3,21.6,28.3,31.2
			c2.7,2.4,3,6.5,0.6,9.3C1064.4,1203.6,1062.6,1204.4,1060.7,1204.4z M1770.5,1197.3c-2.3,0-4.5-1.2-5.7-3.3
			c-1.8-3.1-0.8-7.1,2.4-9c12.5-7.3,24.9-15,36.8-23.1c3-2,7.1-1.2,9.1,1.8c2,3,1.2,7.1-1.8,9.1c-12.2,8.2-24.8,16.1-37.5,23.5
			C1772.8,1197,1771.6,1197.3,1770.5,1197.3z M518.1,1194.9c-1,0-2.1-0.2-3.1-0.8c-13-6.9-25.9-14.2-38.5-21.7
			c-3.1-1.9-4.1-5.9-2.3-9c1.9-3.1,5.9-4.1,9-2.3c12.3,7.4,25.1,14.6,37.9,21.4c3.2,1.7,4.4,5.7,2.7,8.9
			C522.7,1193.7,520.4,1194.9,518.1,1194.9z M1213.5,1193.1c-1.2,0-2.5-0.4-3.6-1.1c-3-2-3.8-6.1-1.8-9.1
			c8.1-12.2,14.3-24.8,18.6-37.7c1.1-3.4,4.9-5.3,8.3-4.2c3.4,1.1,5.3,4.9,4.2,8.3c-4.6,13.9-11.4,27.7-20.1,40.8
			C1217.7,1192,1215.6,1193.1,1213.5,1193.1z M1843.3,1148.4c-2,0-3.9-0.9-5.2-2.6c-2.2-2.9-1.7-7,1.2-9.2
			c11.5-8.8,22.8-18.1,33.6-27.5c2.7-2.4,6.9-2.1,9.3,0.6c2.4,2.7,2.1,6.9-0.6,9.3c-11.1,9.7-22.6,19.1-34.3,28.1
			C1846.1,1147.9,1844.7,1148.4,1843.3,1148.4z M1012.9,1132.4c-2.9,0-5.5-1.9-6.3-4.8c-3.3-11.9-4.9-24.2-4.9-36.4
			c0-3.1,0.1-6.2,0.3-9.3c0.3-3.6,3.3-6.3,7-6.1c3.6,0.3,6.3,3.4,6.1,7c-0.2,2.7-0.3,5.5-0.3,8.3c0,11.1,1.5,22.1,4.4,32.9
			c1,3.5-1.1,7.1-4.6,8.1C1014.1,1132.3,1013.5,1132.4,1012.9,1132.4z M1239.8,1110.7c-3.6,0-6.5-2.9-6.6-6.5
			c-0.1-9.4-1.3-18.8-3.7-27.8c-1.1-4.2-2.5-8.3-4.3-12.4c-1.4-3.3,0.1-7.2,3.4-8.6c3.3-1.4,7.2,0.1,8.6,3.4c2,4.7,3.7,9.5,4.9,14.2
			c2.7,10.1,4,20.5,4.1,31C1246.4,1107.7,1243.5,1110.7,1239.8,1110.7C1239.9,1110.7,1239.9,1110.7,1239.8,1110.7z M1909.4,1090.7
			c-1.7,0-3.4-0.6-4.7-1.9c-2.6-2.6-2.5-6.7,0-9.3c10.3-10.2,20.3-20.8,29.8-31.6c2.4-2.7,6.5-3,9.3-0.6c2.7,2.4,3,6.5,0.6,9.3
			c-9.7,11-19.9,21.9-30.4,32.3C1912.7,1090,1911,1090.7,1909.4,1090.7z M1019.5,1046.7c-1,0-1.9-0.2-2.9-0.7
			c-3.3-1.6-4.6-5.5-3-8.8c7-14.4,16.7-26.6,29-36.3c2.8-2.2,7-1.8,9.2,1.1s1.8,7-1.1,9.2c-10.7,8.4-19.2,19.1-25.3,31.7
			C1024.3,1045.4,1022,1046.7,1019.5,1046.7z M1206.5,1032.2c-1.7,0-3.3-0.6-4.6-1.9c-9.7-9.7-21.1-17.9-33.8-24.4
			c-3.2-1.6-4.5-5.6-2.9-8.8c1.6-3.2,5.6-4.5,8.8-2.9c13.9,7.1,26.4,16.1,37.1,26.7c2.6,2.6,2.6,6.7,0,9.3
			C1209.9,1031.5,1208.2,1032.2,1206.5,1032.2z M1967.3,1024.8c-1.4,0-2.8-0.4-4-1.4c-2.9-2.2-3.4-6.3-1.2-9.2
			c8.8-11.5,17.3-23.4,25.3-35.3c2-3,6.1-3.8,9.1-1.8c3,2,3.8,6.1,1.8,9.1c-8.1,12.2-16.8,24.3-25.8,36.1
			C1971.3,1024,1969.3,1024.8,1967.3,1024.8z M1085.9,994c-3,0-5.7-2.1-6.4-5.1c-0.8-3.5,1.4-7,4.9-7.8c14.5-3.3,30.3-3.7,46.1-1.2
			c3.6,0.6,6,3.9,5.4,7.5c-0.6,3.6-3.9,6-7.5,5.4c-14.2-2.3-28.2-1.9-41.1,1C1086.9,994,1086.4,994,1085.9,994z M2015.8,951.8
			c-1.1,0-2.2-0.3-3.2-0.9c-3.2-1.8-4.3-5.8-2.5-8.9c7.1-12.6,13.9-25.6,20-38.5c1.5-3.3,5.5-4.7,8.7-3.1c3.3,1.5,4.7,5.5,3.1,8.7
			c-6.3,13.2-13.1,26.5-20.4,39.4C2020.3,950.6,2018.1,951.8,2015.8,951.8z M2053.3,872.5c-0.8,0-1.6-0.1-2.3-0.4
			c-3.4-1.3-5.1-5.1-3.8-8.5c5.2-13.6,9.8-27.4,13.7-41.1c1-3.5,4.6-5.5,8.1-4.5c3.5,1,5.5,4.6,4.5,8.1c-4,14-8.7,28.2-14.1,42.1
			C2058.4,870.9,2055.9,872.5,2053.3,872.5z M2077.3,788.2c-0.4,0-0.8,0-1.2-0.1c-3.6-0.7-5.9-4.1-5.2-7.7
			c2.7-14.4,4.6-28.8,5.7-42.8c0.3-3.6,3.5-6.3,7.1-6c3.6,0.3,6.3,3.4,6,7.1c-1.1,14.5-3.1,29.3-5.9,44.2
			C2083.2,786,2080.4,788.2,2077.3,788.2z M2084,700.9c-3.5,0-6.4-2.8-6.5-6.3c-0.6-14.5-2.2-28.9-4.6-42.7c-0.6-3.6,1.7-7,5.3-7.6
			c3.6-0.6,7,1.7,7.6,5.3c2.6,14.4,4.2,29.3,4.8,44.5c0.2,3.6-2.7,6.7-6.3,6.8C2084.2,700.9,2084.1,700.9,2084,700.9z M2068.5,614.9
			c-2.7,0-5.3-1.7-6.2-4.5c-2.4-7.1-5.1-14.2-8-21c-2.6-6.1-5.6-12.3-8.8-18.3c-1.7-3.2-0.5-7.2,2.7-8.9c3.2-1.7,7.2-0.5,8.9,2.7
			c3.4,6.3,6.5,12.8,9.2,19.3c3.1,7.2,5.9,14.6,8.4,22c1.2,3.4-0.7,7.2-4.1,8.3C2069.9,614.8,2069.2,614.9,2068.5,614.9z
			 M1632.8,559.4c-0.7,0-1.4-0.1-2-0.3c-3.4-1.1-5.3-4.8-4.2-8.3c4.6-14,11.3-27.8,20.2-40.8c2-3,6.1-3.8,9.1-1.8
			c3,2,3.8,6.1,1.8,9.1c-8.2,12.1-14.4,24.7-18.6,37.5C1638.1,557.6,1635.6,559.4,1632.8,559.4z M2027.6,537.8c-2,0-3.9-0.9-5.2-2.6
			c-8.6-11.2-18.3-21.9-28.6-31.8c-2.6-2.5-2.7-6.6-0.2-9.3c2.5-2.6,6.6-2.7,9.3-0.2c10.9,10.3,21,21.5,30,33.3
			c2.2,2.9,1.7,7-1.2,9.2C2030.4,537.3,2028.9,537.8,2027.6,537.8z M1680.8,487.1c-1.8,0-3.5-0.7-4.8-2.1c-2.5-2.7-2.3-6.8,0.4-9.3
			c11-10.1,23.2-19.2,36.2-26.9c3.1-1.8,7.1-0.8,9,2.3c1.9,3.1,0.8,7.1-2.3,9c-12.3,7.3-23.8,15.8-34.1,25.3
			C1684,486.5,1682.4,487.1,1680.8,487.1z M1964.2,477.6c-1.3,0-2.6-0.4-3.7-1.2c-11.8-8.2-24.3-15.4-37-21.4
			c-3.3-1.6-4.7-5.5-3.1-8.7c1.6-3.3,5.5-4.7,8.7-3.1c13.4,6.4,26.4,13.9,38.8,22.5c3,2.1,3.7,6.1,1.7,9.1
			C1968.3,476.6,1966.3,477.6,1964.2,477.6z M1755.7,442.5c-2.7,0-5.3-1.7-6.2-4.4c-1.2-3.4,0.6-7.2,4.1-8.3
			c14.4-5,29.3-8.4,44.1-10.1c3.6-0.4,6.9,2.2,7.3,5.8c0.4,3.6-2.2,6.9-5.8,7.3c-13.8,1.6-27.7,4.8-41.3,9.5
			C1757.2,442.4,1756.4,442.5,1755.7,442.5z M1885.2,440.3c-0.6,0-1.2-0.1-1.8-0.2c-13.8-3.9-27.9-6.5-41.9-7.7
			c-3.6-0.3-6.3-3.5-5.9-7.1c0.3-3.6,3.6-6.3,7.1-5.9c14.8,1.3,29.7,4.1,44.2,8.1c3.5,1,5.5,4.6,4.6,8.1
			C1890.7,438.4,1888.1,440.3,1885.2,440.3z"/>
		<path class="st0" d="M1629,624.6c-2.2,0-4.3-1.1-5.6-3.1c-3.6-5.8-7.9-11.3-12.6-16.3c-2.5-2.7-2.3-6.8,0.3-9.3
			c2.4-2.3,6.1-2.3,8.6-0.3c0.3-3.2,3-5.8,6.3-5.9c3.6-0.1,6.6,2.7,6.8,6.4c0.2,6.9,1,13.8,2.5,20.5c0.7,3.1-1,6.2-4,7.4
			C1630.6,624.5,1629.8,624.6,1629,624.6z"/>
		<path class="st0" d="M2292.1,1276.4C2292,1276.4,2292,1276.4,2292.1,1276.4c-14.4,0-29-0.3-43.4-0.7c-3.6-0.1-6.5-3.1-6.4-6.8
			c0.1-3.6,3.1-6.5,6.8-6.4c14.3,0.4,28.7,0.7,43,0.7c3.6,0,6.6,3,6.5,6.6C2298.6,1273.4,2295.7,1276.4,2292.1,1276.4z
			 M2335.2,1275.9c-3.5,0-6.5-2.8-6.6-6.4c-0.1-3.6,2.8-6.6,6.4-6.7c14.3-0.4,28.7-0.9,42.9-1.7c3.6-0.2,6.7,2.6,6.9,6.2
			c0.2,3.6-2.6,6.7-6.2,6.9c-14.4,0.8-28.9,1.4-43.3,1.7C2335.3,1275.9,2335.3,1275.9,2335.2,1275.9z M2205.8,1273.7
			c-0.1,0-0.3,0-0.4,0c-14.4-0.9-28.9-1.9-43.2-3.2c-3.6-0.3-6.3-3.5-6-7.1c0.3-3.6,3.5-6.3,7.1-6c14.2,1.2,28.6,2.3,42.9,3.2
			c3.6,0.2,6.4,3.3,6.2,6.9C2212.1,1271,2209.2,1273.7,2205.8,1273.7z M2421.4,1271.2c-3.4,0-6.2-2.6-6.5-6c-0.3-3.6,2.4-6.8,6-7.1
			c14.2-1.2,28.6-2.6,42.8-4.2c3.6-0.4,6.8,2.2,7.3,5.8c0.4,3.6-2.2,6.8-5.8,7.3c-14.3,1.6-28.8,3-43.1,4.2
			C2421.8,1271.2,2421.6,1271.2,2421.4,1271.2z M2119.8,1266.1c-0.3,0-0.5,0-0.8,0c-14.3-1.7-28.7-3.6-43-5.6
			c-3.6-0.5-6.1-3.9-5.5-7.4c0.5-3.6,3.8-6.1,7.4-5.5c14.1,2.1,28.5,3.9,42.6,5.6c3.6,0.4,6.2,3.7,5.8,7.3
			C2125.9,1263.6,2123.1,1266.1,2119.8,1266.1z M2507.2,1261.6c-3.2,0-6-2.4-6.5-5.6c-0.5-3.6,2-6.9,5.6-7.4
			c14.2-2,28.4-4.3,42.4-6.7c3.6-0.6,7,1.8,7.6,5.3c0.6,3.6-1.8,7-5.3,7.6c-14.1,2.4-28.6,4.7-42.8,6.7
			C2507.8,1261.6,2507.5,1261.6,2507.2,1261.6z M2034.4,1253.7c-0.4,0-0.8,0-1.1-0.1c-14.2-2.5-28.5-5.2-42.6-8.1
			c-3.6-0.7-5.8-4.2-5.1-7.7c0.7-3.5,4.2-5.8,7.7-5.1c13.9,2.8,28.1,5.5,42.2,8c3.6,0.6,6,4,5.3,7.6
			C2040.3,1251.4,2037.5,1253.7,2034.4,1253.7z M2592.2,1246.9c-3.1,0-5.8-2.1-6.4-5.3c-0.7-3.5,1.6-7,5.1-7.7
			c14-2.8,28.1-5.9,42-9.2c3.5-0.8,7.1,1.4,7.9,4.9c0.8,3.5-1.4,7.1-4.9,7.9c-14,3.3-28.2,6.4-42.4,9.3
			C2593.1,1246.9,2592.7,1246.9,2592.2,1246.9z M1949.8,1236.4c-0.5,0-1-0.1-1.5-0.2c-14-3.3-28.2-6.8-42.1-10.5
			c-3.5-0.9-5.6-4.5-4.7-8c0.9-3.5,4.5-5.6,8-4.7c13.8,3.7,27.8,7.2,41.7,10.4c3.5,0.8,5.7,4.4,4.9,7.9
			C1955.5,1234.4,1952.8,1236.4,1949.8,1236.4z M2676.3,1227.1c-2.9,0-5.5-1.9-6.3-4.9c-0.9-3.5,1.1-7.1,4.6-8
			c13.8-3.7,27.7-7.7,41.3-11.8c3.5-1.1,7.1,0.9,8.2,4.4c1,3.5-0.9,7.1-4.4,8.2c-13.7,4.2-27.8,8.2-41.7,11.9
			C2677.4,1227,2676.8,1227.1,2676.3,1227.1z M1866.4,1214.3c-0.6,0-1.2-0.1-1.9-0.3c-13.8-4.1-27.7-8.5-41.4-13
			c-3.4-1.1-5.3-4.8-4.2-8.3c1.1-3.4,4.8-5.3,8.3-4.2c13.5,4.5,27.3,8.8,41,12.8c3.5,1,5.5,4.7,4.4,8.2
			C1871.8,1212.5,1869.2,1214.3,1866.4,1214.3z M1784.4,1187.3c-0.7,0-1.5-0.1-2.2-0.4c-13.6-4.9-27.2-10.1-40.5-15.4
			c-3.4-1.3-5-5.2-3.7-8.5c1.3-3.4,5.2-5,8.5-3.7c13.2,5.3,26.7,10.4,40.1,15.3c3.4,1.2,5.2,5,3.9,8.4
			C1789.6,1185.6,1787.1,1187.3,1784.4,1187.3z M1704.3,1155.3c-0.9,0-1.8-0.2-2.6-0.5c-13.2-5.8-26.5-11.8-39.5-17.9
			c-3.3-1.5-4.7-5.5-3.1-8.7c1.6-3.3,5.5-4.7,8.7-3.1c12.8,6.1,26,12,39.1,17.8c3.3,1.4,4.8,5.3,3.4,8.6
			C1709.2,1153.8,1706.8,1155.3,1704.3,1155.3z M1626.3,1118.4c-1,0-2-0.2-3-0.7c-12.8-6.6-25.7-13.5-38.3-20.4
			c-3.2-1.8-4.3-5.8-2.5-8.9c1.8-3.2,5.8-4.3,8.9-2.5c12.4,6.9,25.2,13.7,37.9,20.2c3.2,1.7,4.5,5.6,2.8,8.8
			C1631,1117.1,1628.7,1118.4,1626.3,1118.4z M1550.9,1076.5c-1.1,0-2.3-0.3-3.4-0.9c-5-3-10.1-6.1-15-9.2
			c-7.5-4.6-14.8-9.3-21.8-13.8c-3-2-3.9-6-1.9-9.1c2-3,6-3.9,9.1-1.9c6.9,4.5,14.1,9.1,21.5,13.7c4.9,3.1,9.9,6.1,14.9,9.1
			c3.1,1.9,4.1,5.9,2.2,9C1555.3,1075.3,1553.1,1076.5,1550.9,1076.5z M1478.6,1029.2c-1.3,0-2.7-0.4-3.8-1.2
			c-12.2-8.8-23.8-17.7-34.6-26.5c-2.8-2.3-3.2-6.4-0.9-9.2c2.3-2.8,6.4-3.2,9.2-0.9c10.6,8.6,22,17.4,34,26
			c2.9,2.1,3.6,6.2,1.5,9.2C1482.7,1028.3,1480.7,1029.2,1478.6,1029.2z M1411.9,974.5c-1.6,0-3.2-0.6-4.5-1.8
			c-10.9-10.3-21.1-20.9-30.4-31.5c-2.4-2.7-2.1-6.9,0.6-9.3c2.7-2.4,6.9-2.1,9.3,0.6c9,10.3,18.9,20.5,29.5,30.6
			c2.6,2.5,2.7,6.6,0.2,9.3C1415.4,973.9,1413.7,974.5,1411.9,974.5z M1355.3,909.6c-2.1,0-4.1-1-5.4-2.8
			c-8.6-12.3-16.2-24.9-22.8-37.6c-1.7-3.2-0.4-7.2,2.8-8.8c3.2-1.7,7.2-0.4,8.8,2.8c6.3,12.2,13.7,24.3,21.9,36.1
			c2.1,3,1.3,7.1-1.6,9.1C1357.9,909.2,1356.6,909.6,1355.3,909.6z M1316.2,833c-2.8,0-5.3-1.8-6.2-4.5c-4.6-14-8-28.5-10.1-43.1
			c-0.5-3.6,2-6.9,5.5-7.4c3.6-0.5,6.9,2,7.4,5.5c2,13.8,5.2,27.5,9.6,40.9c1.1,3.4-0.8,7.1-4.2,8.3
			C1317.5,832.9,1316.9,833,1316.2,833z M1303.9,748c-0.1,0-0.1,0-0.2,0c-3.6-0.1-6.5-3.1-6.3-6.8c0.5-15,2.4-29.8,5.6-44
			c0.8-3.5,4.3-5.7,7.9-4.9c3.5,0.8,5.7,4.3,4.9,7.9c-3.1,13.4-4.9,27.3-5.3,41.5C1310.3,745.2,1307.4,748,1303.9,748z
			 M1323.4,664.6c-0.9,0-1.9-0.2-2.8-0.6c-3.3-1.5-4.7-5.5-3.1-8.7c6.4-13.6,14.3-26.3,23.5-37.9c2.3-2.8,6.4-3.3,9.2-1
			c2.8,2.3,3.3,6.4,1,9.2c-8.6,10.8-15.9,22.6-21.9,35.3C1328.2,663.2,1325.8,664.6,1323.4,664.6z M1376.8,597.8c-2,0-4-0.9-5.2-2.6
			c-2.2-2.9-1.6-7,1.3-9.2c11.6-8.7,24.6-16.1,38.9-22.1c3.3-1.4,7.2,0.2,8.6,3.5c1.4,3.3-0.2,7.2-3.5,8.6
			c-13.2,5.5-25.3,12.4-36,20.4C1379.5,597.3,1378.1,597.8,1376.8,597.8z M1581.5,581.3c-1,0-2.1-0.3-3.1-0.8
			c-11.7-6.3-24.7-11.2-38.7-14.5c-3.5-0.8-5.7-4.4-4.9-7.9c0.8-3.5,4.4-5.7,7.9-4.9c15.1,3.6,29.2,8.9,41.9,15.7
			c3.2,1.7,4.4,5.7,2.7,8.9C1586.1,580,1583.8,581.3,1581.5,581.3z M1455.5,564.3c-3.1,0-5.9-2.2-6.4-5.4c-0.7-3.6,1.7-7,5.3-7.6
			c14.6-2.7,29.5-3.9,44.3-3.6c3.6,0.1,6.5,3.1,6.4,6.7c-0.1,3.6-3,6.4-6.6,6.4c0,0-0.1,0-0.1,0c-13.9-0.3-27.9,0.9-41.6,3.4
			C1456.3,564.3,1455.9,564.3,1455.5,564.3z"/>
		<path class="st0" d="M2759.1,1202c-2.7,0-5.3-1.7-6.2-4.5c-1.2-3.4,0.7-7.2,4.1-8.3c6.9-2.3,13.8-4.7,20.6-7.1
			c3.4-1.2,7.2,0.6,8.4,4c1.2,3.4-0.6,7.2-4,8.4c-6.9,2.4-13.8,4.9-20.8,7.2C2760.5,1201.9,2759.8,1202,2759.1,1202z"/>
	</g>
</g>
</svg>
