<?xml version="1.0" encoding="utf-8"?>
<!-- Generator: Adobe Illustrator 26.1.0, SVG Export Plug-In . SVG Version: 6.00 Build 0)  -->
<svg version="1.1" id="Capa_1" xmlns="http://www.w3.org/2000/svg" xmlns:xlink="http://www.w3.org/1999/xlink" x="0px" y="0px"
	 viewBox="0 0 430.5 425.1" style="enable-background:new 0 0 430.5 425.1;" xml:space="preserve">
<style type="text/css">
	.st0{fill:#5BE8C8;}
	.st1{enable-background:new    ;}
	.st2{fill:#96F3F4;}
	.st3{fill:#564649;}
	.st4{fill:#161415;}
	.st5{fill:#E3D8B4;}
	.st6{fill:#FE964A;}
	.st7{fill:#625255;}
	.st8{fill:#F2ECD1;}
	.st9{fill:#655558;}
	.st10{fill:#FEB95F;}
	.st11{fill:#3F0B18;}
	.st12{fill:#CB6950;}
	.st13{fill:#8B6F6F;}
	.st14{fill:#AE5235;}
	.st15{fill:#97F3F4;}
	.st16{fill:#CC6A50;}
	.st17{fill:#F0EBD0;}
	.st18{fill:#050605;}
	.st19{fill:#8F8583;}
	.st20{fill:#FDB85E;}
	.st21{fill:#715351;}
	.st22{fill:#CB6A50;}
	.st23{fill:#97EEEE;}
	.st24{fill:#96E7E6;}
	.st25{fill:#9AEAE8;}
	.st26{fill:#88A19E;}
	.st27{fill:#AE5134;}
	.st28{fill:#6C5050;}
	.st29{fill:#FCAD57;}
	.st30{fill:#EDDEC9;}
	.st31{fill:#EEBA85;}
	.st32{fill:#3D0A17;}
	.st33{fill:#21110D;}
	.st34{fill:#3A130B;}
	.st35{fill:#060302;}
	.st36{fill:#EDBA86;}
	.st37{fill:#5B4A49;}
</style>
<rect x="-4.6" y="-1.9" class="st0" width="442.8" height="435.5"/>
<g class="st1">
	
		<image style="overflow:visible;enable-background:new    ;" width="1922" height="1083" xlink:href="351962C7.png"  transform="matrix(0.3925 0 0 0.3925 753.3221 0)">
	</image>
</g>
<path class="st0" d="M1258.9,396.7c0,0-11.3-124.7-11.9-151.5c-1.1-51.3,42.1-68.1,42.1-77.2c0-9.1-21.7-77.1-21.3-79
	c0.3-1.8,9.1-24.7,14.3-27.2c5.2-2.4,49.7-35.7,49.7-35.7l1.7-2.5v-7.7l73.6-7.1L1516,41.7l134.5,86l20.1,360.4L1258.9,396.7z"/>
<g>
	<path class="st2" d="M1051.7,424.5c-22.8,0-45.5,0-68.3,0c-1.3,0-2.5,0.1-3.6-0.5c-1-0.5-1.2-1.3-1.2-2.2
		c-0.1-14.9-0.2-29.9,0.1-44.8c0-0.1,0.1-0.3,0.1-0.5c1.5-2.3,4.3-2.8,6.2-4.7c1.3-0.5,2.8-0.3,4.1-0.5c1.6-0.1,3.2-0.7,3.2-2.7
		s-1.5-2.5-3.2-2.6c-1.7-0.1-3.4,0-5.1-0.1c-1.1-0.1-2.3,0-3.1-1.1c-0.3-1,0.3-1.8,0.8-2.4c2.8-3.3,5.1-6.8,6.8-10.8
		c0.7-1.4,1.6-2.4,3.3-2.6c4-0.6,7.8-0.2,11.8-0.3c4.8-0.1,6.3-1.3,7.1-6c3.2-17.5,6.4-34.9,9.6-52.4c1.4-7.8,2.9-15.6,4.3-23.4
		c0.2-1.3,0.1-2.9,1.8-3.4c6.8,2.8,13.8,5.1,20.4,8.4c1.6,0.8,3.2,1.6,4.9,2.4V424.5L1051.7,424.5z"/>
	<path class="st3" d="M778.6,251.4c-0.7-8.7-1.5-17.4-2-26.1c-0.3-4.6,2.1-8,5.9-9.4c0.9-0.3,1.8-0.1,2.7-0.1c28.3,0,56.6,0,84.9,0
		c4.7,0,7.5,2.6,8.4,7.2c0.5,3,0.7,6.1,0.9,9c0.4,7.5,1.3,15,1.7,22.5c0.5,7.3,1.3,14.7,1.7,22c0.3,5.4,1,10.7,1.1,16.1
		c0.1,3,0.8,5.9,0.5,8.8c-0.5,4.5-2.2,8.2-6.8,9.8c-3.5,0.4-7,0.2-10.5,0.2c-1.8-0.6-3.8-0.1-5.6,0.1c-2.5,0.2-5.1-0.6-7.6-0.1
		c-2.9,0.2-5.8,0-8.6-0.1c-2.8,0.3-5.5,0.1-8.2,0.1c-0.9,0-1.8-0.1-2.1,1.1c0.1,1.2-0.1,2.4-0.5,3.5c0,0.8-0.1,1.5-0.3,2.3
		c-0.3,1.2-0.2,2.4-0.4,3.6c-0.1,0.9,0.4,1.1,1.2,1.1c1,0,1.9,0,2.9,0c4,0,7.8,0,11.7,0c3.2,0.1,3.9,1.1,2.8,4.3
		c-0.8,0.7-1.8,0.8-2.8,0.8c-6.1,0.1-12.1,0.1-18.1,0c-0.8,0-1.6-0.1-2.4-0.6c-1.4-1.6-0.8-3.6-0.5-5.4c1.8-12.3,3.2-24.7,5.1-36.9
		c0.9-5.3,0.7-5.3-4.5-5.3c-4.9,0-9.9,0.1-14.8,0c-2,0-2.9,0.7-3.4,2.7c-1.7,7.8-3.7,15.5-5.4,23.2c-0.1,0.7-0.3,1.3-0.5,1.9
		c-0.4,1.7-1.3,2.6-3.3,2.5c-4.7-0.3-9.4,0.2-14-0.3c-3.4-1.3-5.1-3.8-5.3-7.4c-0.6-1.8,0.2-3.7-0.5-5.5c0-0.3-0.1-0.6-0.1-0.9
		c-0.5-1.8,0.2-3.8-0.5-5.5l-0.1-1.3c-0.6-1.8,0.3-3.8-0.5-5.5c0-0.3,0-0.5-0.1-0.8c-0.5-1.8,0.3-3.8-0.5-5.6c0-0.3,0-0.6-0.1-0.9
		c-0.6-2,0.3-4.1-0.5-6.1c-0.1-0.1-0.1-0.3,0-0.4c-0.7-2,0.3-4-0.5-6l0,0c-0.7-1.9,0.3-4-0.5-5.9c0-0.3,0-0.6-0.1-0.9
		C778.5,255.4,779.3,253.3,778.6,251.4L778.6,251.4z"/>
	<path class="st2" d="M860,393.6c-0.7,0.7-0.4,1.6-0.4,2.4c-0.1,8.8-0.1,17.5-0.1,26.3c0,1.4-0.1,2.3-1.9,2.3
		c-17.6-0.1-35.4-0.1-53-0.1c-1.3-1.2-0.9-2.7-0.9-4.1c0-18,0-36.1,0-54.1c0-10,0-20,0-30c0-3.9,0.7-4.7,4.5-4.7
		c35.2,0,70.5,0,105.6,0c1.3,0,2.5-0.1,3.5,0.9c1,2.8-0.1,4.8-3,5c-3,0.2-6.1,0.6-9.1,0.7c-6.8,0.2-13.6,0.3-20.3,1.4
		c-7.6,1.3-14.2,4.3-18.3,11.2c-2.4,4-3,8.6-3.6,13.2c-0.9,7.9-1.6,15.8-1.5,23.7C861.6,389.7,861.7,391.9,860,393.6L860,393.6z"/>
	<path class="st4" d="M927.9,257.3c4.3-4.9,9.7-8.1,15.6-10.7c1.8-0.9,3.6-1.8,5.5-2.8c0.9-0.8,1.8-0.7,2.9-0.4
		c5.4,5.5,11.9,4.5,18.4,2.9c1.3-0.3,2.4-0.9,3.7-1.4c0.9-0.3,1.8-0.7,2.8,0.1c1.2,0.7,2.4,1.4,3.6,2c1.8,0.3,3.2,1.1,4.6,2.1
		c6,4.5,11.5,9.5,15.3,16.1c4.6,8,6.4,16.5,5.1,25.7c-1.6,11.2-3.2,22.3-5.9,33.3c-0.3,1.3-0.5,2.8-2,3.4
		c-6.6,0.3-13.2,0.1-19.8,0.1c-1.4,0-2.6-0.5-1.8-2.2c2.9-6.7,1.2-12.6-2.4-18.4c-3.8-4.2-8.7-5.2-14.2-4.5
		c-10.4,1.3-20.1,5-29.4,9.5c-3.4,1.6-6.3,1.8-9.5-0.1c-2.1-1.3-4.3-2.4-6.3-4c-0.9-0.7-2-1.6-3-0.5c-1.1,1.1,0.1,1.9,0.7,2.8
		c0.3,0.5,0.7,0.9,1,1.4c0.5,0.8,1.1,1.6,0.4,2.5s-1.6,0.8-2.5,0.4c-1.6-1.5-2.4-3.7-3.6-5.5c-0.9-1.2-1.9-2.4-3.1-3.4
		c-2.4-2.1-5.2-3.2-8.5-2.6c-1.3,0.3-2.7,0.8-4-0.1c-0.4-0.7,0.1-1.2,0.5-1.6c0.5-0.5,1.1-0.8,1.8-0.9c5.1-0.3,7.7-4,10.4-7.4
		c4.9-6.2,8.8-13,12.8-19.8c2.6-4.3,5.1-8.8,7.9-13C925.4,259.2,926.3,257.8,927.9,257.3L927.9,257.3z"/>
	<path class="st4" d="M860,393.6c0.6-10,0.8-20.1,2.1-30.1c0.8-6.2,1.7-12.3,6.5-17.1c5.7-5.7,12.8-7.9,20.5-8.5
		c8.5-0.7,17.1-1,25.6-1.3c2.6-0.1,2.2-2.2,2.9-3.6c0.4-1.3,1.5-1.4,2.6-1.4c2.9,0,5.9-0.2,8.8,0.1c0.7,0.1,1.4-0.1,2.2-0.1
		c2.2,0.1,3.3,1.2,3.6,3.3c0.1,0.5,0.1,1,0.1,1.4c0,21.1,0,42.2,0,63.3c0,0.6,0,1.1-0.1,1.7c-0.4,1.8-1.6,3.2-2.7,4.6
		c-3.9,5.3-7.9,10.5-11.9,15.7c-0.7,1-1.4,2.1-2.8,2.3c-1.6,1.1-3.4,0.5-5,0.5c-1.3,0-0.8-1.3-0.8-2c0-8.5,0.1-17,0.1-25.4
		c0-0.8-0.1-1.6-0.1-2.4c-1.4-1.4-0.9-3.2-0.7-4.9c0.5-6.6,0.4-13.2,1.3-19.8c0.1-0.5,0.1-1.2-0.5-1.6c-1.4-1.2-7.1-0.2-8,1.4
		c-8.4,15-18.4,28.9-28.3,42.9c-2.2,3.2-4.6,6.2-6.8,9.3c-0.8,1.1-1.7,2-3,2.6c-5.4,0.1-5.5,0.1-5.4-5.3
		C860,410.6,860,402.1,860,393.6L860,393.6z"/>
	<path class="st5" d="M928.7,332.6c-3.7,0.5-7.4-0.3-11.2,0.4c-0.9-0.5-1.8-0.4-2.6-0.4c-35.9,0-71.7,0-107.6-0.1
		c-2.4,0-2.6,1-2.6,2.9c0.1,28.5,0.1,57,0.1,85.5c0,1.1-0.1,2.3-0.1,3.4c-1.3,0-2.5,0-3.8,0c-1.1-0.8-1.1-1.9-1.1-3.1
		c-0.1-24.2,0-48.3,0-72.5c0-1.7,0.5-3.4,1-5c0.1-3.1,0-6.3,0.1-9.4c0.1-1.4-0.6-1.8-1.9-1.8c-12.4,0-24.8,0-37.3,0
		c-1.4,0-2,0.5-1.9,1.9c0.1,0.7,0,1.3,0,2c0,28.4,0,56.9,0,85.3c0,1.1,0.7,2.5-1.4,2.8c-2.4,0.3-2.4-1.1-2.4-2.8
		c0-23.4,0-46.9,0-70.3c0-5.4-0.1-10.8,0-16.2c0-1.8-0.3-2.9-2.4-2.6c-2.4,0.3-2.1-1.3-2.2-2.8c-0.1-1.8,0.3-2.7,2.4-2.6
		c14.8,0.1,29.4,0.1,44.2,0.1c0.5,0,1-0.1,1.4-0.1c1-0.9,2.2-1.1,3.4-1.1c7.6,0,15.1,0,22.7,0c1.3,0,2.5,0,3.4,1.1
		c7.8,0.2,15.5,0.2,23.2,0c0.2-0.2,0.5-0.4,0.7-0.6c1.1-0.6,2.3-0.7,3.4-0.3c2.8,0.9,5.7,0.6,8.6,0.7c10,0.1,20,0,30.1,0
		c1.4,0,2.8,0.1,4.1-0.5c8.4-0.4,16.8-0.4,25.2,0c15.1-0.4,30.2-0.2,45.2-0.3c1.1,0,2.3,0,3.4,0.1c1,0.1,2,0.2,2.4,1.4
		c-1,1.4-2.5,1.1-3.8,1.1c-12.1,0-24.1,0.1-36.2,0c-2.6,0-4.9-0.1-5.7,3.1C929.5,332.1,929.1,332.3,928.7,332.6L928.7,332.6z"/>
	<path class="st6" d="M997.4,327.3c1.8-4.7,2.5-9.8,3.6-14.7c1.7-8,3-16.1,3.6-24.2c1.2-14.1-4.7-25.4-15.3-34.4
		c-2.9-2.4-6-4.5-9-6.8c3.6-0.9,7.4-1.1,11.1-1.2c1.4-0.1,2.4,0.9,3.4,1.7c5.4,5,9,11.3,12,17.9c3.6,8.2,6,16.8,7.3,25.7
		c0.1,0.4,0.1,0.8,0,1.3c2.2-12.3,4.5-24.6,6.8-36.9c0.2-1,0.3-1.9,0.3-2.9c-0.2-2.4-1.3-3.7-3.6-4.3c-1.3-0.4-3-0.2-4-1.9
		c1.4-0.3,2.6-0.3,3.8-0.1c2.3-0.1,4.5,0.4,6.7,1c3.4,1,4.7,3.6,4.1,6.9c-0.6,3.1-1.1,6.3-1.6,9.4c-1.8,9.2-3.6,18.5-5.3,27.7
		c-3.3,17.6-6.5,35.2-9.7,52.9c-0.7,3.6-2.8,5.4-6.5,5.4c-4.5,0.1-9,0-13.6,0c-0.5-0.4-0.7-1-0.5-1.5c1.4-5.4,2.6-10.9,4.9-15.9
		c1.3-0.9,2.6-0.6,4-0.7c1-0.1,2.3,0.2,2.4-1.4s-1.1-1.5-2.2-1.6c-0.9-0.1-1.8-0.1-2.6-0.7C997.3,327.7,997.3,327.5,997.4,327.3
		L997.4,327.3z"/>
	<path class="st2" d="M865.4,424.4c7.1-9.7,14.3-19.4,21-29.4c5.9-8.8,11.9-17.5,16.9-26.9c0.6-1.1,1.3-1.5,2.5-1.4
		c1.8,0.1,3.6,0.1,5.4,0c1.4-0.1,1.9,0.3,1.8,1.9c-0.6,8.6-1.1,17.3-1.5,25.9c-0.7,0.9-0.4,1.9-0.4,2.8c-0.1,8.3-0.1,16.5-0.1,24.8
		c0,1.6-0.5,2.3-2.2,2.3C894.3,424.5,879.9,424.5,865.4,424.4L865.4,424.4z"/>
	<path class="st7" d="M829,327.2c-9.8,0.2-19.6,0.2-29.4,0c1.1-4.9,2.2-9.7,3.4-14.6c0.5-1.7,0.1-2.2-1.7-2.1c-3.6,0.1-7,0-10.6,0
		c-1,0-2,0.1-2.8-0.5c4.5,0,9.1-0.1,13.6,0c1.6,0,2.3-0.5,2.7-2.1c2-8.8,4.1-17.5,6.1-26.3c0.5-1.9,1.1-2.8,3.2-2.7
		c6.5,0.1,13,0.1,19.5,0c2.1,0,2.7,0.7,2.4,2.8c-1.2,8.3-2.2,16.7-3.4,25C831,313.5,829.9,320.3,829,327.2L829,327.2z"/>
	<path class="st2" d="M800.8,343.8c0,19.1,0.1,38.2,0.1,57.3c0,7.8,0.1,15.5,0.1,23.4c-5.7,0-11.3,0-17,0.1
		c-2.1,0.1-2.2-1.3-2.3-2.7c-0.1-3.6-0.2-7.2,0-10.8c0.5-8.1,1.3-16.1,2.9-24c3-14.6,8-28.4,15.2-41.6
		C800.1,344.9,800.4,344.4,800.8,343.8L800.8,343.8z"/>
	<path class="st8" d="M997.5,327.4c0.9,0,1.8,0.1,2.7,0.1c3,0,4,1.3,3.2,4.2c-0.3,1-1,0.9-1.7,1c-1.8,0.1-3.8,0.1-5.6,0.1
		c-0.9,0.9-1.9,0.9-3,0.9c-3,0-6.1,0-9.1,0c-3.1,0-3.3,0.3-3.4,3.4c0,7.4,0,14.9,0,22.3c0,1.9,0,3.8-0.2,5.6
		c0.4,2.5,0.3,4.9,0.1,7.4c0.2,1.3,0.2,2.6-0.8,3.6c0,15.5-0.1,31.1-0.1,46.6c0,0.5,0.1,1,0.2,1.4c-1.3,0.9-2.6,0.4-4,0.5
		c-0.8-0.5-0.9-1.3-1-2.1c-0.3-1-0.2-2-0.2-2.9c0-12.8,0-25.7,0-38.5c0-1.1,0.1-2.3,0.2-3.4c-0.3-1.7-0.2-3.4,0-5.1
		c-0.2-2.5-0.2-4.9,0-7.4c-0.3-4.7-0.1-9.5-0.1-14.2c-0.1-4.8,0-9.7,0-14.5c0-1.7-0.7-2.6-2.4-2.6c-10.5,0-20.9,0-31.3,0
		c-1.8,0-2.6,0.9-2.6,2.7c0,2.8,0,5.6,0,8.4c0,15.5,0,31.1,0.1,46.7c0,1.9-0.6,3.8-0.1,5.6c-0.1,8.3,0.3,16.5-0.1,24.8
		c0.1,1,0.1,1.9-0.7,2.7c-1.3,0-2.5,0-3.7,0c-0.5-0.6-0.9-1.2-0.9-2c0.1-4.2,0.1-8.5,0.1-12.7c0-2.4,0-4.9,0.8-7.2
		c0-22.1,0-44.2,0-66.3c0-2.3-1.2-3.5-3.5-3.6c-0.4,0-0.8-0.1-1.3-0.1c0.1-0.4,0.2-0.8,0.3-1.2c0.5-2.5,2-3.7,4.6-3.7
		c13.9,0,27.7-0.1,41.6-0.1C982.7,327.2,990.1,327.4,997.5,327.4L997.5,327.4z"/>
	<path class="st2" d="M927.9,257.3c-6.7,9-11.7,19.2-17.8,28.6c-2.9,4.4-5.9,8.7-9.5,12.5c-1.4,1.5-2.9,2.8-5.3,2.6
		c-1.1-0.1-2.2,0.6-3.3,0.9c-1.7,0.4-1.6-0.9-1.8-1.9c-0.8-2.9-0.7-5.9-0.9-8.8c-0.5-6.6-0.9-13.2-1.6-19.8
		c-0.1-1.3-0.3-2.6,1.1-3.6c11.1-4.7,22.6-7.9,34.4-10.3C924.7,257.5,926.3,256.7,927.9,257.3L927.9,257.3z"/>
	<path class="st9" d="M888.8,268.1c0.5,8,1.1,16.1,1.6,24.1c0.2,2.8,0.5,5.5,0.7,8.3c0.1,0.7-0.1,1.5,1,1.6
		c-0.3,0.3-0.6,0.6-0.9,0.9c0.5,2.8-1.4,6.3-4.5,7.6c-3,1.3-6.3,1.6-9.4-0.2c4.1-1.5,5.8-4.9,5.9-8.8c0.1-6.3-0.7-12.5-1.3-18.8
		c-0.3-3.2-0.4-6.3-0.7-9.5c-0.9-9.8-1.3-19.7-2.4-29.5c-0.6-5.3-0.7-10.7-1.1-16.1c-0.3-3.6-0.2-7.2-3.2-9.9
		c-1.4-1.3-2.8-1.8-4.6-1.8c-19.3,0.1-38.7,0.1-57.9,0c-9.9,0-19.8-0.1-29.6-0.1c1-0.5,2.1-0.4,3.2-0.4c27.7,0,55.2-0.1,82.9-0.1
		c2.6,0,5.3,0.1,7.9,0.1c4.9,0.1,8.5,3.1,8.9,8c0.7,8.2,1.3,16.3,1.9,24.5C887.7,254.7,888.3,261.3,888.8,268.1L888.8,268.1z"/>
	<path class="st10" d="M1017.2,246.4l-2.9,0.2v0.2c0.9,0.2,1.7,0.5,2.6,0.5c4-0.1,5.7,3.6,5.1,7.4c-1.6,9.2-3.4,18.3-5.1,27.5
		c-0.8,4.1-1.4,8.4-2.2,12.5c-0.1,0.4-0.1,0.9-0.8,1c-1.1-5.3-1.7-10.6-3.2-15.7c-2.8-9.8-6.3-19.3-12.8-27.5
		c-1.9-2.4-4.1-4.6-6.6-6.6c6.7-0.7,13.4-0.4,20-0.1C1013.3,245.9,1015.3,245.7,1017.2,246.4L1017.2,246.4z"/>
	<path class="st11" d="M942.6,213.9c0.5-3.3,0-6.7,0.3-10c0.2-2.5,1.3-3.4,3.5-3.8c9.3-1.5,18.2,0.5,27,3c0.8,0.2,1.3,0.7,1.5,1.4
		c3.2,9.2,3.2,18.1-1.7,26.8c-2.2-0.7-1.5-2.6-1.6-4.2c0-1.3,0.7-2.3,1.6-3.2c0.6-1-0.4-1.2-0.9-1.6c-1.4-0.8-2.8-1.1-4.4-1
		c-2-0.5-4.1-0.4-5.8-1.6c-0.9-0.8-1.1-1.8-1.1-2.9c-0.1-1.1-0.1-2.1-0.1-3.2c-0.1-6.4,1-5.5-5.5-5.6c-2.2-0.1-4.4,0.4-6.5,1
		c-3.2,0.9-3.7,1.8-2.6,4.8C944.9,215,943.8,215.1,942.6,213.9L942.6,213.9z"/>
	<path class="st12" d="M968.2,220.8c1.7-1.1,3,0.1,4.4,0.9c0.2,1.1,1.2,1.7,1.4,2.7c-1.2,0.3-1.4,1.4-1.8,2.3
		c-0.3,1.8-1.1,3.4-2.4,4.6c-1.2,1.1-1.1,2.7-1.4,4.1c-1.7,8.1-3.4,9.5-11.7,9.5c-1.6,0-3.2-0.2-4.7-0.9c-0.9-0.1-1.9-0.2-2.8-0.3
		c-1.6-0.5-2.3-1.6-2.6-3.2c-1-4.6-1.8-9.3-2.1-14c0.3-0.6,1-0.7,1.4-1.2c0.5-0.7,0.7-1.4,1-2.1c0.1-0.3,0.1-0.7,0.2-1
		c0.2-0.9,0.7-1.5,1.6-1.4c0.9,0.1,1.1,0.8,1.3,1.6c0.6,3.4,0.6,3.4,4,3.4c0.7,0,1.3,0,2,0c2.2,0,3.6-1.1,4-3.4
		c0.3-1.9,1.4-2.3,3.7-1.4c0.3,2.2-0.6,4.4,0.5,6.8c1.3-2.2,2.2-4.1,0.9-6.3C965.7,220.6,967.1,221.4,968.2,220.8L968.2,220.8z"/>
	<path class="st13" d="M937.3,424.4c0-0.8,0.1-1.6,0.1-2.4c1.8-2.1,4.3-1.6,6.6-1.9c1.6-0.3,3.2-0.1,4.9-0.4
		c1.6-0.3,2.2-1.1,2.2-2.6c-0.3-4.3,0.5-8.6,0.5-12.9c0-0.9,0.1-1.8,0.5-2.6c0.1-0.1,0.1-0.2,0.1-0.2c3.6-0.7,3.7-3.3,3.2-6
		c-0.5-3.2,1.4-5.1,3.2-7.1c0.3-0.3,0.7-0.4,1.1,0c0.9,1.5,0.6,2.9-0.7,4c-0.9,0.8-1.1,1.8-1.1,2.8c0,7.3,0,14.6,0,21.9
		c0,1.7,0.7,2.6,2.4,2.8c4.1,0.5,8.2,0.5,12.2,1.4c1.2,0.3,2.4,0.5,3.2,1.6c0.1,0.5,0.1,1.1,0.2,1.6
		C963,424.4,950.1,424.4,937.3,424.4L937.3,424.4z"/>
	<path class="st14" d="M951.8,244.1c3.4-0.4,6.8,0.3,10.3-0.5c2.4-0.6,4-1.8,4.4-4.3c0.2-1.1,0.6-2,0.7-3.1c0.3-2.8,1-5.4,3.5-7.2
		c0.7-0.5,1-1.4,1.5-2.2c-0.2,1.6,0.1,3.2,0.9,4.5c1.2,4.5,2.4,9.2,3.6,13.7c-1.3,0.5-2.5,0.7-3.7,1.3c-5.6,2.8-11.5,2.4-17.3,1.4
		C953.7,247.3,953.1,245.3,951.8,244.1L951.8,244.1z"/>
	<path class="st15" d="M933.5,402.5c0.1,6.8,0.5,13.6-0.3,20.3c-1,1.5-2.6,1.3-4.1,1.2c-4,0.6-8,0.9-12-0.1
		C922.6,416.8,928.1,409.6,933.5,402.5L933.5,402.5z"/>
	<path class="st16" d="M946,213.5c-2.2,0.3-2.3-0.9-1.6-2.5c0.6-1.6,2.1-2.2,3.6-2.7c4.1-1.3,8.4-1.4,12.6-1.1
		c1.4,0.1,1.4,0.8,1.4,2c-0.1,3.4-0.8,6.8,0.3,10.2c-0.6,0.8-1.4,0.7-2.2,0.5c-3.6-1.1-7.1-0.5-10.7-0.4c-1.9,0.1-3.9,0.3-5.7-0.9
		V218c0.1-0.7,0.8-0.9,1.4-1.2C947.4,215.8,947.4,215.8,946,213.5L946,213.5z"/>
	<path class="st17" d="M943.7,218.4c4,0.1,8,0.1,12.1,0.1c2.2,0,4.4,0.1,6.5,0.7c2,0.5,4,1.1,6,1.6c-0.7,1.7-2.1,0.8-3.2,1.1
		c-0.7,0.5-1.3,0.4-1.8-0.2c-3-0.6-3.1-0.6-2.9,2.4c0.1,2-0.5,2.6-2.4,2.5c-2.2-0.1-4.4-0.1-6.6,0c-1.6,0.1-2.5-0.5-2.2-2.2
		c0.1-0.4,0.1-0.8,0-1.3c-0.1-0.7,0.3-1.7-0.8-1.7c-0.9,0-0.6,0.9-0.8,1.5c-0.1,0.5-0.3,0.9-0.5,1.4c-1.4,0.4-1.5,0.4-1.6-1.3
		c-0.1-1.3-0.1-2.4-1.8-2.4c-1.2,0-2.4,0.1-2.4,1.7c-0.1,1.4,0.2,2.6,2,2.7c1.1,0.1,2.6-0.7,3,1.2c-0.5,0.5-1.2,0.3-1.8,0.5
		c-3.1-0.2-4.7-1.5-4.7-3.9C939.5,220.1,940.8,218.6,943.7,218.4L943.7,218.4z"/>
	<path class="st18" d="M946,213.5c1.3-0.3,2,0.1,2.1,1.4c0.1,1.3-0.1,2.2-1.6,2.4c-0.9,0.1-1.9,0.3-2.8,0.5c-2.4-0.6-2.8-2-1.1-4
		C943.7,213.9,945,214.3,946,213.5L946,213.5z"/>
	<path class="st19" d="M929.2,424.1c1.4-0.4,2.7-0.8,4.1-1.2c0.1,0.5,0.2,1.1,0.3,1.6C932.1,424.4,930.6,425,929.2,424.1z"/>
	<path class="st7" d="M779.1,258.2c1.1,1.9,0.3,4,0.5,5.9C779,262.3,779.1,260.2,779.1,258.2z"/>
	<path class="st7" d="M779.6,264.2c1.1,1.9,0.3,4,0.5,6C779.4,268.2,779.6,266.1,779.6,264.2z"/>
	<path class="st7" d="M780.1,270.6c1.1,2,0.3,4,0.5,6.1C780,274.6,780,272.6,780.1,270.6z"/>
	<path class="st7" d="M778.6,251.4c1.1,2,0.3,4,0.5,6C778.5,255.4,778.5,253.4,778.6,251.4z"/>
	<path class="st7" d="M780.6,277.4c1,1.8,0.4,3.7,0.5,5.6C780.5,281.2,780.6,279.3,780.6,277.4z"/>
	<path class="st7" d="M781.1,283.9c1.1,1.8,0.4,3.7,0.5,5.5C780.9,287.5,781.1,285.7,781.1,283.9z"/>
	<path class="st7" d="M781.6,290.7c1,1.8,0.4,3.7,0.5,5.5C781.5,294.5,781.5,292.6,781.6,290.7z"/>
	<path class="st7" d="M782.1,297.1c1,1.8,0.3,3.7,0.5,5.5C781.9,300.8,782.1,298.9,782.1,297.1z"/>
	<path class="st4" d="M979.7,364.9c-0.1-10.2-0.1-20.4-0.1-30.6c0-1.3,0.5-1.7,1.7-1.6c4.9,0.1,9.8,0.1,14.8,0.1
		c-0.9,4.9-2.6,9.6-4,14.5c-0.3,0.9-0.5,1.7-0.7,2.6c-0.6,0.3-1.4,0.2-1.7,1.1c-1.8,5.3-5.2,9.7-8.8,14
		C980.5,365.2,980.1,365.6,979.7,364.9L979.7,364.9z"/>
	<path class="st20" d="M979.7,364.9c0.4-0.1,0.8-0.1,1.2-0.1c2.7,0.1,5.4,0.1,8.1,0.1c2.9,0.1,4.5,1.4,4.6,3.7
		c0.1,2.4-1.7,3.8-4.7,3.9c-1.3,0.1-2.6,0.1-4,0.1c-1.8,0.7-3.6,1.5-5.3-0.1C979.7,369.9,979.7,367.4,979.7,364.9L979.7,364.9z"/>
	<path class="st21" d="M979.7,372.4c1.8-0.1,3.5-0.3,5.3,0.1c-1.3,1.8-3.2,2.9-5.3,3.4C979.7,374.8,979.7,373.6,979.7,372.4
		L979.7,372.4z"/>
	<path class="st22" d="M877.4,310.4c1.4,0,2.8,0.1,4.1,0.1c5.3,0,7-1.2,9-6.1c0.2-0.5,0.4-0.9,0.6-1.3c1.1-0.1,2.1-0.3,3.2-0.5
		c6.1-0.9,10,1,13.2,6.5c0.1,1.2-0.9,1.3-1.6,1.4c-11.3,2-21.7,6.5-32.2,10.7c-4.1,1.6-8.2,3.3-12.1,5.1c11.3,0,22.7,0,34.1,0
		c1,0,2,0.2,2.9,0.5c0.3,0.1,0.5,0.3,0.5,0.6c-0.9,0.5-1.9,0.3-2.9,0.3c-12.1,0-24.2,0-36.3,0c-2.4,0-4.9-0.2-7.4-0.3
		c-0.4-2.5-2-3.8-4.6-3.8c-3.4,0-6.8,0-10.3,0c-1.6-0.5-3.5,0.1-4.8-1.4c0.1-1.3-0.6-2.6,0.6-3.8c1.6-1.5,3.4-0.2,4.9-0.3
		c-1.4-0.8-3.7-0.5-4.9-2.4c0.8-1.1,0.2-2.3,0.5-3.4c1.1-1,2.3-0.7,3.5-0.5c2.7,0.3,5.3,1.2,8,1.5c0-1.1-1.1-1.6-0.7-2.6
		c3,0,5.9,0,9-0.1c1.6,0.5,3.4,0.7,4.9,1.4c0.7,0.3,1.6,0.5,2.4,0.1c1.9-0.8,4-1.1,5.9-1.6L877.4,310.4L877.4,310.4z"/>
	<path class="st23" d="M844.8,310.6c0.3,0.5,0.7,0.9,1.1,1.3c0.5,0.7,1.9,1.3,1.4,2c-0.6,1-1.9,0.3-2.9,0.1
		c-3.4-0.7-6.8-1.7-10.4-1.8c-0.3-1.6,0.9-1.7,2-1.7C839,310.5,841.9,310.5,844.8,310.6L844.8,310.6z"/>
	<path class="st24" d="M867,310.5c-5,3.3-9,3.3-13.2,0C858.2,310.5,862.6,310.5,867,310.5z"/>
	<path class="st25" d="M833.5,315.6l8.3,2.6c-0.1,0.3-0.1,0.6-0.2,0.9c-2.7-0.3-5.3-0.5-8-0.8C833.6,317.4,833.6,316.5,833.5,315.6
		L833.5,315.6z"/>
	<path class="st7" d="M837.5,323.2c3.8,0,7.6,0,11.3,0c4.2,0,3.9-0.5,3.9,4l-0.3,0.1l-0.3-0.1c0-3.5,0-3.5-3.7-3.5
		c-3.9,0-7.8-0.1-11.7-0.1C836.9,323.2,836.9,322.8,837.5,323.2L837.5,323.2z"/>
	<path class="st26" d="M837.5,323.2c-0.2,0.1-0.5,0.3-0.7,0.4c-1,0-2,0.1-3,0.1c-0.9-0.1-1.9-0.3-0.9-1.6
		C834.5,322.4,836.1,322.4,837.5,323.2z"/>
	<path class="st22" d="M899.3,327.2c-0.3-0.1-0.5-0.1-0.8-0.1c-1.2-0.6-1.8-1.4-1.3-2.8s1.6-1.3,2.9-1.1c1.1,0.1,2,0.7,3,0.6
		c-1.4-0.2-3-0.5-4.5-0.8c-1.6-0.3-2.4-1.3-2.4-3c0.1-1.7,1.2-2.4,2.8-2.6c1.8-0.2,3.4,0.1,5.1,0.5c-1.6-0.5-3.2-0.9-4.4-2
		c-0.8-0.7-1.1-1.6-0.8-2.7c0.3-1.1,1.2-1.7,2.2-1.6c3.4,0.2,6.9,0.3,9.7,2.6c0.8,0,1.8,0.5,2.2-0.3c0.3-0.7-0.7-1.2-1.1-1.7
		c-0.5-0.7-1.1-1.3-1.6-1.9c-0.9-1.1-1.4-2.2-0.2-3.5c1.2-1.1,2.4-1.2,3.7-0.1c2.6,2.2,5.4,4,8.5,5.3c2,0.9,3.8,0.9,5.8-0.1
		c10.1-4.8,20.4-9.1,31.7-10.2c5.3-0.5,10.4,0.1,14,4.7c0.9,1.6-0.2,2.6-1.2,3.6c-2.4,2.4-5.3,4.2-8.2,5.7c-6.8,3.5-14,5.7-21.5,7.1
		c-4.1,0.8-8.2,1.7-12.2,3c-2,0.7-4.3,0.1-6.2,1.2C916,327.2,907.6,327.2,899.3,327.2L899.3,327.2z"/>
	<path class="st27" d="M924.4,327.3c0.1-0.5,0.5-0.9,1-1c7.8-1.7,15.6-3.8,23.4-5.6c8.4-2,16.5-5.1,23-11.1c0.9-0.9,1.8-1.8,1.9-3.1
		c4.9,5.3,6.1,14.6,2.2,20.8c7.3,0,14.4,0,21.5,0l0.1,0.1c-7.4,0.1-14.9,0.1-22.3,0.1c-0.9-0.5-1.9-0.3-2.9-0.3
		C956.3,327.3,940.4,327.3,924.4,327.3L924.4,327.3z"/>
	<path class="st14" d="M910.6,314.2c-2.7-0.6-5.4-1.3-8.2-1.8c-1.1-0.2-2.7-0.7-3.2,0.9s0.9,2.3,2.2,2.8c1.4,0.6,3,1,4.4,1.5
		c0.6,0.2,1.4,0.2,1.3,1.4c-2.6-0.3-5.1-0.6-7.7-0.7c-1.2-0.1-2.6-0.3-2.8,1.5c-0.1,1.7,1,2.2,2.4,2.5c1.7,0.3,3.4,0.6,5.1,0.9
		c0.8,0.1,1.6,0.1,2.1,1.3c-1.9,0.1-3.6-0.3-5.3-0.5c-1.1-0.1-2.2-0.7-3,0.3c-0.9,1,0.1,2,0.5,2.9c-13.4,0-26.9,0-40.3,0l-0.1-0.5
		c4.7-2,9.5-4.1,14.4-6.1c10.1-4.2,20.2-8.2,30.9-10.8c1.4-0.3,3,0.3,4.3-0.8C909,310.5,909.8,312.4,910.6,314.2L910.6,314.2z"/>
	<path class="st4" d="M937.3,396.9c0-20.8,0-41.6-0.1-62.5c0-1.4,0.4-1.8,1.8-1.8c11.7,0.1,23.4,0,35,0c1,0,1.8,0,1.8,1.3
		c-0.1,10.3-0.1,20.7-0.2,30.9c-0.9,1-2,1.1-3.2,1.1c-3.6,0-7,0.1-10.6,0c-2.1-0.1-3.4,0.6-4.1,2.6c-0.4,1.1-1.1,2-1.7,3
		c-2.3,3.8-4.7,7.4-7.4,10.9c-2.7,4.6-6.1,8.8-9.2,13.2C939,396.4,938.4,397.2,937.3,396.9L937.3,396.9z"/>
	<path class="st2" d="M975.7,422.8c-5.5-1.2-11-1.8-16.6-2c-1.6-0.1-2.1-0.6-2.1-2.2c0-8.4-0.1-16.7-0.2-25c0-0.7-0.3-1.8,0.7-1.8
		c2.8-0.1,1.8-2,1.9-3.6c-1.1-2.7-0.7-5.4,0.1-8c0.3-1,1.2-1.6,2.2-1.7c4.1-0.5,8.1-0.9,12.1-1.6c0.7-0.1,1.3,0.1,1.8,0.5
		C975.7,392.5,975.7,407.7,975.7,422.8L975.7,422.8z"/>
	<path class="st2" d="M937.3,396.9c4-4.7,7.2-9.8,10.7-14.8c0.8-0.9,1.3-0.3,1.6,0.5c0.5,0.9,0.7,1.8,0.7,2.8
		c0.1,2.4,0.1,4.5,2.3,6.3c1.5,1.3,1.1,7.8-0.3,9.7c-0.1,5.6-0.3,11.3-0.3,16.9c0,1.7-0.5,2.4-2.4,2.5c-4.1,0.1-8.4,0.4-12.4,1.3
		C937.1,413.7,937.1,405.3,937.3,396.9L937.3,396.9z"/>
	<path class="st28" d="M952.4,401.4c0-2.8,0-5.5,0-8.3c0-0.6,0.3-1.6-0.7-1.5c-2.2,0.1-2-1.4-2.1-2.8c-0.2-2-0.4-4.1-0.5-6.1
		c-0.1-0.8-0.3-1.1-1.1-0.6c2.4-3.5,4.9-6.9,6.9-10.6c5.8-0.3,11.6-0.1,17.4-0.1c1.3,0,2.5,0,3.4,1.1c0.2,1.6,0.2,3.3,0,4.9
		c-4.4,1-8.8,1.7-13.4,1.8c-1.8,0.1-2.2,0.8-2.3,2.4c-0.1,2.2-0.4,4.3-0.7,6.6c-0.8,1.1-0.1,3.2-2.6,3.3c-0.6,0-0.5,1.1-0.5,1.8
		c0,1.9-0.1,3.8,0.1,5.7c0.2,2-0.3,3.1-2.6,2.7C953.4,401.5,952.9,401.5,952.4,401.4L952.4,401.4z"/>
	<path class="st29" d="M975.7,372.4c-6.2,0-12.4,0-18.6,0c-0.8,0-1.9,0.5-2.2-0.9c0.8-1.3,1.8-2.6,2.2-4.1c0.6-2,1.7-2.5,3.8-2.5
		c4.9,0.1,9.8,0,14.8,0C975.7,367.4,975.7,369.9,975.7,372.4L975.7,372.4z"/>
	<path class="st30" d="M974.1,224.5c-1.4-0.4-1.7-1.4-1.4-2.7C973.6,222.4,975,222.8,974.1,224.5z"/>
	<path class="st31" d="M946,226.2c-1.2-0.9-2.5-0.3-3.8-0.4c-2.7-0.1-1.9-2.1-2.1-3.6s0.1-2.4,2-2.4c3.6,0,3.6-0.1,3.9,3.6
		c0.1,0.6,0,1.2,0.9,0.9C946.8,225.1,946.6,225.7,946,226.2L946,226.2z"/>
	<path class="st32" d="M963.2,221.7c0.6,0.1,1.2,0.1,1.8,0.2c1.7,0.3,2.2,1,1.3,2.7c-0.6,1.1-0.7,2.3-1,3.5
		c-0.1,0.7-0.4,1.1-1.1,1.1c-0.6,0-1.3,0.1-1.5-0.5c-0.5-2.1-0.5-4.3-0.5-6.5C962.2,222,962.8,221.8,963.2,221.7L963.2,221.7z"/>
	<path class="st33" d="M948.3,233.7c3.4,0.1,5.3-1.1,6.7-3.4c0.3-0.5,0.7-1.3,1.4-0.7c0.7,0.5,0.2,1.2-0.1,1.7
		C954.7,234.1,951.7,235.3,948.3,233.7L948.3,233.7z"/>
	<path class="st34" d="M955.9,235.7c-0.3,0.9-1.1,0.9-1.8,0.9c-0.5,0-1.1-0.2-1.1-0.7c0.2-0.9,1.1-0.9,1.8-0.9
		C955.3,235,955.8,235.1,955.9,235.7L955.9,235.7z"/>
	<path class="st35" d="M954.7,217.7c-0.7-0.1-1.4-0.1-2.2-0.2c-1.4-0.1-2.2-0.5-2-2c0.1-1.5,0.6-2.5,2.4-2.4
		c1.1,0.1,2.3,0.2,3.4,0.3c1.6,0.1,3,0.1,2.8,2.4c-0.2,2.1-1.4,2.3-3.1,2.1C955.5,217.7,955.1,217.7,954.7,217.7L954.7,217.7
		L954.7,217.7z"/>
	<path class="st36" d="M954.5,225.8c-0.3,0-0.7,0-1,0c-3.2,0-4.5-1.8-3.6-5c0.3-0.8,0.9-0.9,1.5-0.9c1.4,0,2.8,0.1,4.1-0.1
		c2.4-0.3,3.2,0.6,3.1,3C958.7,225.8,958.9,225.8,954.5,225.8L954.5,225.8z"/>
	<path class="st37" d="M944.7,222.8c0,0.9-0.2,1.8-1.1,1.8c-1.1,0.1-1.4-0.8-1.5-1.8c0-0.8,0.3-1.5,1.2-1.5
		C944.3,221.3,944.5,222.2,944.7,222.8z"/>
	<path d="M956.1,222.8c-0.1,1-0.4,1.9-1.5,1.9c-1.3,0-1.8-1.1-1.7-2.2c0-1,0.5-1.8,1.6-1.7C955.7,220.8,956,221.8,956.1,222.8
		L956.1,222.8z"/>
</g>
<g class="st1">
	
		<image style="overflow:visible;enable-background:new    ;" width="1923" height="1082" xlink:href="351962C5.png"  transform="matrix(0.5997 0 0 0.5997 752.8114 -906.6729)">
	</image>
</g>
<path class="st0" d="M1538.9-477c0,0-38.4-147.5-11.9-151.5s42.1-68.1,42.1-77.2c0-9.1-21.7-77.1-21.3-79
	c0.3-1.8,9.1-24.7,14.3-27.2c5.2-2.5,49.7-35.7,49.7-35.7l1.7-2.5v-7.7l73.6-7.1L1796-832l134.5,86l20.1,360.4L1538.9-477z"/>
<g>
	<path class="st2" d="M1683.6-550.1c-27.3,0-54.4,0-81.7,0c-1.5,0-3,0.1-4.3-0.6c-1.2-0.6-1.4-1.6-1.4-2.7
		c-0.1-17.9-0.2-35.8,0.1-53.6c0-0.2,0.1-0.4,0.2-0.6c1.8-2.8,5.2-3.4,7.4-5.6c1.6-0.6,3.3-0.4,4.9-0.6c2-0.2,3.8-0.9,3.8-3.2
		c0-2.4-1.8-3-3.8-3.2s-4.1,0-6.1-0.1c-1.3-0.1-2.8,0-3.7-1.3c-0.4-1.2,0.3-2.1,0.9-2.9c3.3-3.9,6.1-8.2,8.1-12.9
		c0.8-1.7,2-2.9,3.9-3.2c4.7-0.7,9.4-0.2,14.1-0.3c5.8-0.1,7.5-1.6,8.5-7.2c3.8-20.9,7.6-41.8,11.5-62.6c1.7-9.3,3.5-18.7,5.1-28
		c0.2-1.5,0.1-3.5,2.2-4.1c8.1,3.4,16.5,6.1,24.4,10.1c2,0.9,3.9,1.9,5.8,2.8L1683.6-550.1L1683.6-550.1z"/>
	<path class="st3" d="M1356.8-757.2c-0.9-10.4-1.8-20.8-2.4-31.2c-0.3-5.5,2.5-9.6,7.1-11.3c1-0.4,2.1-0.2,3.2-0.2
		c33.9,0,67.7,0,101.6,0c5.7,0,9,3.1,10,8.7c0.6,3.6,0.9,7.2,1,10.8c0.5,9,1.5,18,2,26.9c0.6,8.7,1.5,17.6,2,26.3
		c0.4,6.5,1.2,12.8,1.3,19.3c0.2,3.5,0.9,7,0.6,10.6c-0.6,5.4-2.6,9.8-8.2,11.7c-4.2,0.5-8.4,0.2-12.5,0.2c-2.2-0.7-4.5-0.1-6.7,0.1
		c-3,0.2-6.1-0.7-9.1-0.1c-3.5,0.2-6.9,0-10.3-0.1c-3.3,0.3-6.5,0.1-9.8,0.2c-1,0-2.2-0.2-2.5,1.3c0.1,1.4-0.1,2.8-0.6,4.2
		c0,0.9-0.2,1.8-0.3,2.8c-0.3,1.4-0.2,2.8-0.5,4.3c-0.1,1,0.5,1.3,1.4,1.3c1.2,0,2.3,0,3.5,0c4.7,0,9.4,0,14,0
		c3.9,0.1,4.6,1.3,3.3,5.2c-0.9,0.9-2.1,0.9-3.3,0.9c-7.2,0.1-14.4,0.1-21.7,0c-0.9,0-2-0.1-2.8-0.7c-1.7-2-0.9-4.3-0.6-6.5
		c2.2-14.7,3.9-29.5,6.1-44.2c1-6.3,0.9-6.4-5.4-6.4c-5.9,0-11.8,0.1-17.7,0c-2.4,0-3.5,0.8-4,3.2c-2,9.3-4.4,18.5-6.5,27.7
		c-0.2,0.8-0.4,1.5-0.6,2.3c-0.5,2-1.5,3.2-3.9,3c-5.6-0.3-11.2,0.2-16.8-0.3c-4.1-1.5-6.1-4.6-6.4-8.8c-0.7-2.1,0.2-4.4-0.6-6.6
		c0-0.3-0.1-0.7-0.1-1c-0.6-2.2,0.2-4.5-0.6-6.6l-0.1-1.6c-0.7-2.2,0.3-4.5-0.6-6.6c0-0.3,0-0.6-0.1-0.9c-0.6-2.2,0.3-4.5-0.6-6.7
		c0-0.3,0-0.7-0.1-1c-0.7-2.4,0.3-4.9-0.6-7.2c-0.1-0.2-0.1-0.3,0-0.5c-0.8-2.4,0.3-4.8-0.6-7.2l0,0c-0.8-2.3,0.3-4.8-0.6-7.1
		c0-0.3,0-0.7-0.1-1C1356.7-752.4,1357.7-754.9,1356.8-757.2L1356.8-757.2z"/>
	<path class="st2" d="M1454.3-587.1c-0.8,0.8-0.5,1.9-0.5,2.8c-0.1,10.5-0.1,21-0.1,31.4c0,1.7-0.1,2.8-2.3,2.8
		c-21.1-0.1-42.3-0.1-63.4-0.2c-1.5-1.4-1.1-3.2-1.1-5c0-21.6,0-43.2,0-64.8c0-12,0-23.9,0-35.9c0-4.6,0.9-5.6,5.4-5.6
		c42.1,0,84.3,0,126.4,0c1.5,0,3-0.1,4.2,1c1.2,3.3-0.2,5.8-3.6,6c-3.6,0.2-7.2,0.7-10.9,0.8c-8.1,0.2-16.3,0.4-24.3,1.7
		c-9.1,1.5-16.9,5.2-21.9,13.4c-2.9,4.8-3.6,10.3-4.3,15.8c-1.1,9.5-2,18.9-1.8,28.4C1456.2-591.7,1456.3-589.1,1454.3-587.1
		L1454.3-587.1z"/>
	<path class="st4" d="M1535.5-750.1c5.1-5.8,11.7-9.7,18.7-12.8c2.2-1,4.3-2.2,6.5-3.3c1-0.9,2.2-0.9,3.5-0.5
		c6.5,6.5,14.2,5.4,22,3.5c1.5-0.4,2.9-1.1,4.4-1.7c1.1-0.3,2.2-0.9,3.3,0.1c1.4,0.8,2.9,1.7,4.3,2.4c2.1,0.3,3.9,1.3,5.5,2.5
		c7.2,5.4,13.8,11.3,18.4,19.2c5.5,9.5,7.6,19.8,6.1,30.8c-1.9,13.4-3.8,26.7-7.1,39.9c-0.4,1.6-0.6,3.3-2.4,4.1
		c-7.9,0.4-15.8,0.1-23.6,0.2c-1.7,0-3.1-0.6-2.2-2.7c3.5-8,1.4-15.1-2.9-22c-4.6-5-10.4-6.2-16.9-5.4c-12.4,1.6-24,6-35.2,11.3
		c-4,1.9-7.6,2.1-11.4-0.1c-2.5-1.5-5.1-2.8-7.5-4.7c-1-0.8-2.4-2-3.6-0.6c-1.3,1.3,0.2,2.3,0.8,3.3c0.4,0.6,0.9,1.1,1.2,1.7
		c0.6,0.9,1.3,1.9,0.5,3c-0.8,1-1.9,0.9-3,0.5c-2-1.8-2.8-4.4-4.3-6.6c-1.1-1.4-2.3-2.9-3.7-4.1c-2.9-2.5-6.2-3.9-10.2-3.1
		c-1.6,0.3-3.2,0.9-4.8-0.1c-0.5-0.9,0.2-1.4,0.6-2c0.6-0.6,1.3-0.9,2.1-1c6.1-0.3,9.2-4.8,12.4-8.9c5.8-7.4,10.5-15.6,15.3-23.7
		c3.1-5.2,6.1-10.5,9.5-15.6C1532.5-747.9,1533.5-749.6,1535.5-750.1L1535.5-750.1z"/>
	<path class="st4" d="M1454.3-587.1c0.7-12,0.9-24,2.5-36c0.9-7.4,2-14.7,7.7-20.5c6.8-6.9,15.3-9.5,24.5-10.2
		c10.2-0.8,20.4-1.2,30.6-1.6c3.1-0.1,2.7-2.6,3.5-4.3c0.5-1.5,1.8-1.7,3.1-1.7c3.5,0,7-0.2,10.5,0.2c0.9,0.1,1.7-0.2,2.7-0.2
		c2.6,0.1,3.9,1.4,4.3,3.9c0.1,0.6,0.1,1.2,0.1,1.7c0,25.3,0,50.5,0,75.8c0,0.7,0,1.3-0.1,2c-0.5,2.2-2,3.8-3.2,5.5
		c-4.6,6.3-9.5,12.5-14.3,18.7c-0.9,1.2-1.7,2.5-3.3,2.8c-1.9,1.3-4,0.6-6,0.6c-1.5,0-0.9-1.5-0.9-2.4c0-10.2,0.1-20.3,0.2-30.4
		c0-0.9-0.1-2-0.2-2.9c-1.7-1.7-1-3.9-0.9-5.9c0.6-7.9,0.5-15.8,1.5-23.7c0.1-0.6,0.1-1.4-0.6-1.9c-1.7-1.4-8.5-0.2-9.6,1.7
		c-10,18-22.1,34.6-33.9,51.3c-2.7,3.8-5.5,7.4-8.2,11.1c-0.9,1.3-2,2.4-3.5,3.1c-6.5,0.2-6.5,0.2-6.5-6.4
		C1454.2-566.7,1454.3-576.9,1454.3-587.1L1454.3-587.1z"/>
	<path class="st5" d="M1536.5-660.1c-4.4,0.6-8.9-0.3-13.4,0.5c-1-0.6-2.1-0.5-3.2-0.5c-42.9,0-85.8,0-128.7-0.1
		c-2.8,0-3.2,1.2-3.2,3.5c0.1,34.1,0.1,68.2,0.1,102.3c0,1.3-0.1,2.8-0.1,4.1c-1.5,0-3,0-4.5,0c-1.3-0.9-1.3-2.3-1.3-3.7
		c-0.1-28.9,0-57.8,0-86.7c0-2,0.6-4,1.2-6c0.1-3.7,0-7.5,0.2-11.2c0.1-1.7-0.7-2.2-2.3-2.2c-14.9,0-29.7,0-44.6,0
		c-1.7,0-2.4,0.6-2.3,2.3c0.1,0.8,0,1.6,0,2.4c0,34,0,68.1,0,102.1c0,1.3,0.8,3-1.7,3.3c-2.8,0.3-2.9-1.3-2.9-3.3
		c0-28,0-56.1,0-84.1c0-6.5-0.1-12.9,0-19.4c0-2.2-0.4-3.5-2.9-3.1c-2.8,0.4-2.5-1.5-2.6-3.3c-0.1-2.1,0.4-3.2,2.9-3.2
		c17.6,0.1,35.2,0.1,52.9,0.1c0.6,0,1.2-0.1,1.7-0.1c1.2-1.1,2.6-1.3,4.1-1.3c9.1,0,18,0,27.1,0c1.5,0,3,0,4,1.3
		c9.3,0.2,18.5,0.2,27.8,0c0.2-0.2,0.6-0.5,0.9-0.7c1.3-0.7,2.8-0.8,4-0.4c3.4,1.1,6.8,0.7,10.2,0.8c12,0.1,23.9,0,36,0
		c1.7,0,3.4,0.1,4.9-0.6c10.1-0.5,20.1-0.5,30.2,0c18-0.5,36.1-0.2,54.1-0.3c1.3,0,2.8,0,4.1,0.1c1.2,0.1,2.4,0.2,2.8,1.7
		c-1.2,1.7-3,1.3-4.6,1.3c-14.4,0-28.8,0.1-43.3,0c-3.1,0-5.9-0.2-6.8,3.7C1537.4-660.7,1536.8-660.5,1536.5-660.1L1536.5-660.1z"/>
	<path class="st6" d="M1618.6-666.5c2.2-5.7,3-11.7,4.3-17.6c2-9.5,3.5-19.3,4.3-29c1.4-16.9-5.6-30.4-18.3-41.2
		c-3.5-2.9-7.2-5.4-10.8-8.1c4.3-1,8.8-1.3,13.2-1.4c1.7-0.1,2.8,1,4,2c6.5,6,10.8,13.5,14.3,21.4c4.3,9.8,7.2,20.1,8.7,30.7
		c0.1,0.5,0.2,0.9,0,1.5c2.6-14.7,5.4-29.4,8.1-44.1c0.2-1.2,0.4-2.3,0.3-3.5c-0.2-2.8-1.6-4.4-4.3-5.2c-1.6-0.5-3.5-0.2-4.7-2.3
		c1.7-0.4,3.1-0.4,4.5-0.1c2.8-0.1,5.4,0.5,8,1.2c4,1.2,5.7,4.3,4.9,8.3c-0.7,3.7-1.3,7.5-1.9,11.2c-2.1,11-4.3,22.1-6.3,33.2
		c-3.9,21.1-7.7,42.1-11.7,63.3c-0.8,4.3-3.3,6.5-7.7,6.5c-5.4,0.1-10.8,0-16.2,0c-0.6-0.5-0.8-1.2-0.6-1.8c1.7-6.5,3.1-13,5.9-19.1
		c1.5-1,3.2-0.7,4.8-0.9c1.2-0.1,2.8,0.2,2.8-1.7s-1.3-1.8-2.6-1.9c-1-0.1-2.1-0.1-3.1-0.8C1618.5-665.9,1618.5-666.1,1618.6-666.5
		L1618.6-666.5z"/>
	<path class="st2" d="M1460.7-550.2c8.5-11.7,17.1-23.2,25.1-35.2c7.1-10.5,14.3-21,20.2-32.1c0.7-1.3,1.6-1.8,3-1.7
		c2.1,0.1,4.3,0.1,6.5,0c1.7-0.1,2.3,0.3,2.2,2.3c-0.7,10.3-1.3,20.7-1.8,31c-0.9,1-0.5,2.3-0.5,3.4c-0.1,9.9-0.1,19.8-0.1,29.7
		c0,2-0.6,2.8-2.7,2.8C1495.3-550.1,1478-550.1,1460.7-550.2L1460.7-550.2z"/>
	<path class="st7" d="M1417.1-666.5c-11.7,0.2-23.5,0.2-35.2,0c1.3-5.8,2.7-11.7,4.1-17.4c0.6-2,0.1-2.6-2-2.5
		c-4.3,0.1-8.4,0-12.7,0c-1.2,0-2.4,0.2-3.4-0.6c5.4,0,10.9-0.2,16.2,0c2,0,2.8-0.6,3.2-2.5c2.4-10.5,5-21,7.2-31.4
		c0.6-2.3,1.3-3.3,3.9-3.2c7.8,0.2,15.6,0.2,23.3,0c2.5,0,3.2,0.8,2.8,3.3c-1.4,9.9-2.6,19.9-4,29.9
		C1419.5-682.9,1418.3-674.7,1417.1-666.5L1417.1-666.5z"/>
	<path class="st2" d="M1383.5-646.6c0,22.8,0.1,45.7,0.1,68.5c0,9.3,0.1,18.6,0.1,28c-6.8,0-13.5,0-20.3,0.2
		c-2.5,0.1-2.7-1.6-2.8-3.2c-0.1-4.3-0.2-8.7,0-12.9c0.6-9.7,1.5-19.3,3.5-28.8c3.6-17.5,9.6-34,18.2-49.7
		C1382.5-645.3,1383-646,1383.5-646.6L1383.5-646.6z"/>
	<path class="st8" d="M1618.8-666.2c1.1,0,2.1,0.1,3.2,0.1c3.6,0,4.7,1.5,3.8,5c-0.3,1.2-1.2,1.1-2,1.2c-2.2,0.1-4.5,0.1-6.7,0.1
		c-1,1-2.3,1-3.5,1c-3.6,0-7.2,0-10.9,0c-3.7,0-3.9,0.3-4,4.1c0,8.9,0,17.8,0,26.7c0,2.3,0,4.5-0.2,6.7c0.5,3,0.3,5.9,0.1,8.9
		c0.2,1.6,0.2,3.1-0.9,4.3c0,18.6-0.1,37.2-0.1,55.8c0,0.6,0.2,1.2,0.2,1.7c-1.5,1.1-3.2,0.5-4.8,0.6c-0.9-0.6-1.1-1.5-1.2-2.5
		c-0.3-1.2-0.2-2.4-0.2-3.5c0-15.4,0-30.7,0-46c0-1.3,0.2-2.8,0.2-4.1c-0.3-2-0.2-4.1,0-6.1c-0.2-3-0.2-5.9,0-8.9
		c-0.4-5.7-0.2-11.3-0.2-17c-0.1-5.8,0-11.6,0-17.3c0-2-0.8-3.1-2.9-3.1c-12.5,0-25,0-37.5,0c-2.2,0-3.2,1.1-3.2,3.2
		c0,3.3,0,6.7,0,10c0,18.6,0,37.3,0.1,55.9c0,2.3-0.7,4.5-0.1,6.7c-0.1,9.9,0.3,19.8-0.2,29.7c0.1,1.2,0.1,2.3-0.9,3.2
		c-1.5,0-3,0-4.4,0c-0.6-0.7-1.1-1.4-1.1-2.4c0.2-5,0.1-10.2,0.1-15.2c0-2.9,0-5.8,0.9-8.7c0-26.5,0-52.9,0-79.3
		c0-2.8-1.4-4.2-4.2-4.3c-0.5,0-0.9-0.1-1.5-0.1c0.2-0.5,0.2-0.9,0.4-1.4c0.6-3,2.4-4.4,5.5-4.4c16.6,0,33.2-0.1,49.8-0.2
		C1601-666.5,1609.9-666.3,1618.8-666.2L1618.8-666.2z"/>
	<path class="st2" d="M1535.5-750.1c-8,10.8-13.9,23-21.3,34.3c-3.5,5.3-7,10.4-11.3,15c-1.7,1.8-3.5,3.3-6.3,3.2
		c-1.3-0.1-2.6,0.7-3.9,1c-2,0.5-1.9-1.1-2.2-2.3c-0.9-3.5-0.8-7-1.1-10.5c-0.6-7.9-1-15.8-1.9-23.6c-0.2-1.5-0.3-3.2,1.3-4.3
		c13.2-5.7,27-9.5,41.1-12.4C1531.6-750,1533.5-750.9,1535.5-750.1L1535.5-750.1z"/>
	<path class="st9" d="M1488.7-737.3c0.6,9.6,1.3,19.2,2,28.8c0.2,3.3,0.6,6.6,0.8,9.9c0.1,0.9-0.2,1.8,1.2,1.9
		c-0.4,0.4-0.7,0.7-1.1,1.1c0.6,3.3-1.7,7.5-5.4,9.1c-3.6,1.5-7.5,2-11.2-0.2c4.9-1.8,6.9-5.8,7-10.5c0.2-7.5-0.8-15-1.5-22.5
		c-0.4-3.8-0.5-7.6-0.8-11.4c-1-11.7-1.5-23.6-2.8-35.3c-0.7-6.4-0.8-12.8-1.3-19.3c-0.4-4.3-0.2-8.6-3.9-11.9
		c-1.7-1.5-3.3-2.2-5.5-2.2c-23.1,0.1-46.2,0.1-69.3,0c-11.8,0-23.6-0.1-35.4-0.1c1.2-0.6,2.5-0.5,3.8-0.5c33.1,0,66.1-0.1,99.2-0.1
		c3.2,0,6.3,0.2,9.5,0.2c5.8,0.1,10.2,3.7,10.6,9.5c0.9,9.8,1.5,19.5,2.3,29.3C1487.4-753.3,1488.1-745.3,1488.7-737.3L1488.7-737.3
		z"/>
	<path class="st10" d="M1642.3-763.2l-3.5,0.2v0.2c1,0.2,2,0.6,3.1,0.6c4.7-0.1,6.9,4.3,6.1,8.9c-2,10.9-4.1,21.9-6.1,32.8
		c-0.9,5-1.7,10-2.6,15c-0.1,0.5-0.1,1-0.9,1.2c-1.3-6.3-2-12.7-3.8-18.8c-3.4-11.7-7.6-23.1-15.3-32.8c-2.3-2.9-5-5.5-7.9-7.9
		c8-0.8,16-0.5,23.9-0.2C1637.7-763.8,1640-764.1,1642.3-763.2L1642.3-763.2z"/>
	<path class="st11" d="M1553.1-802c0.6-3.9,0-8,0.3-12c0.2-3,1.5-4,4.2-4.5c11.1-1.8,21.7,0.6,32.3,3.5c0.9,0.2,1.5,0.9,1.8,1.7
		c3.9,10.9,3.9,21.7-2,32.1c-2.7-0.9-1.8-3.2-2-5c0-1.6,0.8-2.8,2-3.8c0.7-1.2-0.5-1.4-1-1.9c-1.7-0.9-3.4-1.3-5.3-1.2
		c-2.4-0.6-4.9-0.5-6.9-2c-1-0.9-1.3-2.1-1.3-3.5c-0.1-1.3-0.1-2.5-0.1-3.8c-0.2-7.6,1.2-6.6-6.6-6.7c-2.7-0.1-5.3,0.5-7.8,1.2
		c-3.8,1.1-4.4,2.2-3.2,5.8C1555.8-800.7,1554.5-800.6,1553.1-802L1553.1-802z"/>
	<path class="st12" d="M1583.7-793.8c2-1.3,3.6,0.2,5.3,1c0.2,1.3,1.4,2,1.7,3.2c-1.4,0.4-1.7,1.7-2.2,2.8c-0.4,2.1-1.3,4-2.9,5.5
		c-1.4,1.3-1.3,3.2-1.7,4.9c-2,9.7-4.1,11.3-14,11.3c-2,0-3.9-0.2-5.7-1.1c-1.1-0.1-2.3-0.2-3.4-0.3c-2-0.6-2.8-1.9-3.2-3.8
		c-1.2-5.5-2.1-11.1-2.5-16.7c0.3-0.7,1.2-0.8,1.7-1.4c0.6-0.8,0.8-1.7,1.2-2.5c0.2-0.4,0.2-0.8,0.2-1.2c0.2-1.1,0.8-1.8,2-1.7
		c1.1,0.2,1.3,0.9,1.5,1.9c0.7,4,0.7,4,4.8,4.1c0.8,0,1.6,0,2.4,0c2.7,0,4.3-1.3,4.7-4.1c0.4-2.3,1.7-2.8,4.4-1.7
		c0.3,2.6-0.7,5.3,0.6,8.2c1.6-2.6,2.7-4.9,1.1-7.6C1580.6-794,1582.4-793.1,1583.7-793.8L1583.7-793.8z"/>
	<path class="st13" d="M1546.7-550.2c0-0.9,0.1-1.9,0.1-2.8c2.1-2.5,5.2-1.9,7.9-2.3c1.9-0.3,3.9-0.2,5.8-0.5c2-0.3,2.7-1.3,2.6-3.2
		c-0.3-5.2,0.6-10.3,0.6-15.4c0-1.1,0.1-2.1,0.6-3.1c0.1-0.1,0.1-0.2,0.2-0.2c4.3-0.8,4.4-3.9,3.9-7.2c-0.6-3.8,1.7-6.1,3.9-8.5
		c0.3-0.4,0.9-0.5,1.3,0c1.1,1.8,0.7,3.5-0.8,4.7c-1.1,0.9-1.3,2.1-1.3,3.4c0,8.7,0,17.5,0,26.2c0,2,0.8,3.1,2.8,3.3
		c4.9,0.6,9.8,0.6,14.7,1.7c1.4,0.3,2.9,0.6,3.8,2c0.1,0.6,0.2,1.3,0.2,2C1577.4-550.2,1562.1-550.2,1546.7-550.2L1546.7-550.2z"/>
	<path class="st14" d="M1564.1-766c4.1-0.5,8.2,0.4,12.3-0.6c2.8-0.7,4.7-2.2,5.3-5.2c0.2-1.3,0.7-2.4,0.9-3.7
		c0.4-3.4,1.2-6.5,4.2-8.6c0.8-0.6,1.2-1.7,1.8-2.6c-0.2,2,0.2,3.8,1.1,5.4c1.4,5.4,2.8,10.9,4.3,16.4c-1.5,0.6-3,0.9-4.4,1.6
		c-6.7,3.4-13.7,2.8-20.7,1.7C1566.3-762.1,1565.6-764.5,1564.1-766L1564.1-766z"/>
	<path class="st15" d="M1542.1-576.4c0.1,8.1,0.6,16.2-0.3,24.3c-1.2,1.8-3.1,1.5-4.9,1.4c-4.8,0.7-9.5,1-14.3-0.2
		C1529.1-559.3,1535.7-567.9,1542.1-576.4L1542.1-576.4z"/>
	<path class="st16" d="M1557.2-802.6c-2.6,0.3-2.8-1.1-2-3c0.7-2,2.5-2.7,4.3-3.2c5-1.6,10-1.7,15.1-1.3c1.7,0.1,1.7,0.9,1.7,2.4
		c-0.2,4-0.9,8.2,0.3,12.2c-0.7,0.9-1.7,0.9-2.7,0.6c-4.3-1.3-8.5-0.6-12.8-0.5c-2.3,0.1-4.6,0.3-6.8-1.1v-0.7
		c0.2-0.9,0.9-1.1,1.7-1.4C1558.7-799.8,1558.7-799.8,1557.2-802.6L1557.2-802.6z"/>
	<path class="st17" d="M1554.3-796.7c4.8,0.1,9.6,0.2,14.4,0.2c2.7,0,5.3,0.1,7.8,0.8c2.4,0.6,4.8,1.3,7.2,2c-0.8,2-2.5,0.9-3.9,1.3
		c-0.8,0.6-1.5,0.5-2.1-0.2c-3.5-0.7-3.7-0.7-3.5,2.9c0.2,2.4-0.6,3.1-2.9,3c-2.6-0.2-5.3-0.1-7.9,0c-2,0.1-3-0.6-2.7-2.7
		c0.1-0.5,0.1-0.9,0-1.5c-0.2-0.8,0.4-2-0.9-2c-1.1,0-0.7,1.1-0.9,1.8c-0.2,0.6-0.4,1.1-0.6,1.7c-1.7,0.5-1.8,0.5-2-1.6
		c-0.1-1.5-0.2-2.8-2.1-2.8c-1.4,0-2.8,0.1-2.9,2c-0.1,1.7,0.2,3.1,2.4,3.2c1.3,0.1,3.1-0.8,3.5,1.4c-0.6,0.6-1.4,0.3-2.1,0.6
		c-3.7-0.2-5.6-1.8-5.6-4.6C1549.4-794.6,1550.9-796.4,1554.3-796.7L1554.3-796.7z"/>
	<path class="st18" d="M1557.2-802.6c1.5-0.4,2.4,0.1,2.5,1.7c0.1,1.5-0.2,2.7-2,2.9c-1.1,0.2-2.3,0.4-3.4,0.6
		c-2.9-0.7-3.3-2.4-1.3-4.7C1554.4-802.1,1555.9-801.6,1557.2-802.6L1557.2-802.6z"/>
	<path class="st19" d="M1537-550.6c1.7-0.5,3.2-0.9,4.9-1.4c0.2,0.6,0.2,1.3,0.4,1.9C1540.5-550.2,1538.7-549.6,1537-550.6z"/>
	<path class="st7" d="M1357.5-749c1.3,2.3,0.4,4.7,0.6,7.1C1357.3-744.2,1357.5-746.7,1357.5-749z"/>
	<path class="st7" d="M1358-741.9c1.3,2.3,0.4,4.7,0.6,7.2C1357.9-737.1,1358.1-739.6,1358-741.9z"/>
	<path class="st7" d="M1358.7-734.3c1.3,2.4,0.4,4.8,0.6,7.2C1358.5-729.5,1358.6-731.8,1358.7-734.3z"/>
	<path class="st7" d="M1356.8-757.2c1.3,2.4,0.4,4.8,0.6,7.2C1356.8-752.4,1356.8-754.8,1356.8-757.2z"/>
	<path class="st7" d="M1359.2-726.1c1.2,2.1,0.5,4.4,0.6,6.7C1359.1-721.6,1359.2-723.8,1359.2-726.1z"/>
	<path class="st7" d="M1359.8-718.4c1.3,2.1,0.5,4.4,0.6,6.6C1359.6-714,1359.8-716.2,1359.8-718.4z"/>
	<path class="st7" d="M1360.5-710.2c1.2,2.1,0.5,4.4,0.6,6.6C1360.4-705.7,1360.4-707.9,1360.5-710.2z"/>
	<path class="st7" d="M1361-702.5c1.2,2.1,0.4,4.4,0.6,6.6C1360.8-698,1361-700.3,1361-702.5z"/>
	<path class="st4" d="M1597.4-621.4c-0.1-12.2-0.1-24.4-0.2-36.6c0-1.6,0.6-2,2-2c5.9,0.1,11.7,0.1,17.6,0.1
		c-1.1,5.9-3.2,11.5-4.8,17.3c-0.3,1-0.6,2-0.8,3.1c-0.7,0.4-1.7,0.2-2,1.3c-2.2,6.4-6.2,11.6-10.6,16.7
		C1598.4-621,1598-620.6,1597.4-621.4L1597.4-621.4z"/>
	<path class="st20" d="M1597.4-621.4c0.5-0.1,0.9-0.1,1.4-0.2c3.2,0.1,6.5,0.1,9.7,0.2c3.5,0.1,5.4,1.7,5.5,4.4
		c0.1,2.8-2,4.5-5.6,4.6c-1.6,0.1-3.2,0.1-4.7,0.1c-2.1,0.9-4.3,1.8-6.3-0.1C1597.4-615.4,1597.4-618.4,1597.4-621.4L1597.4-621.4z"
		/>
	<path class="st21" d="M1597.4-612.4c2.1-0.1,4.2-0.3,6.3,0.1c-1.6,2.2-3.8,3.5-6.3,4.1C1597.4-609.6,1597.4-611,1597.4-612.4
		L1597.4-612.4z"/>
	<path class="st22" d="M1475-686.6c1.7,0,3.3,0.1,5,0.1c6.3,0,8.4-1.4,10.8-7.3c0.2-0.6,0.5-1.1,0.7-1.6c1.3-0.2,2.5-0.4,3.8-0.6
		c7.3-1.1,12,1.2,15.8,7.7c0.1,1.4-1.1,1.5-2,1.7c-13.5,2.4-25.9,7.8-38.5,12.8c-4.9,2-9.8,3.9-14.4,6.1c13.5,0,27.2,0,40.8,0
		c1.2,0,2.4,0.2,3.5,0.6c0.3,0.2,0.6,0.4,0.6,0.7c-1.1,0.6-2.3,0.3-3.5,0.3c-14.5,0-28.9,0-43.4,0c-2.9,0-5.9-0.2-8.8-0.3
		c-0.5-3-2.4-4.5-5.5-4.5c-4.1,0-8.2,0-12.3,0c-1.9-0.6-4.2,0.2-5.8-1.7c0.2-1.5-0.7-3.2,0.7-4.5c2-1.8,4.1-0.2,5.8-0.4
		c-1.7-0.9-4.4-0.6-5.9-2.8c0.9-1.3,0.2-2.8,0.6-4c1.3-1.2,2.8-0.8,4.2-0.6c3.2,0.4,6.3,1.4,9.5,1.8c0-1.3-1.3-2-0.8-3.2
		c3.5,0,7.1,0,10.7-0.1c2,0.6,4,0.9,5.9,1.7c0.9,0.4,1.9,0.6,2.9,0.2c2.3-0.9,4.7-1.3,7.1-1.9L1475-686.6L1475-686.6z"/>
	<path class="st23" d="M1436.1-686.4c0.4,0.6,0.9,1,1.3,1.6c0.6,0.9,2.3,1.5,1.7,2.4c-0.7,1.2-2.3,0.4-3.5,0.2
		c-4.1-0.9-8.2-2-12.4-2.2c-0.3-1.9,1-2,2.4-2C1429.1-686.5,1432.5-686.5,1436.1-686.4L1436.1-686.4z"/>
	<path class="st24" d="M1462.6-686.5c-6,3.9-10.7,3.9-15.8,0C1452.1-686.5,1457.4-686.5,1462.6-686.5z"/>
	<path class="st25" d="M1422.5-680.4l9.9,3.1c-0.1,0.4-0.2,0.7-0.2,1.1c-3.2-0.3-6.4-0.6-9.6-0.9
		C1422.6-678.3,1422.6-679.3,1422.5-680.4L1422.5-680.4z"/>
	<path class="st7" d="M1427.3-671.3c4.5,0,9.1,0,13.5,0c5,0,4.6-0.6,4.6,4.8l-0.3,0.1l-0.3-0.1c0-4.2,0-4.2-4.4-4.2
		c-4.6,0-9.4-0.1-14-0.1C1426.6-671.3,1426.6-671.7,1427.3-671.3L1427.3-671.3z"/>
	<path class="st26" d="M1427.3-671.3c-0.2,0.2-0.6,0.3-0.8,0.5c-1.2,0-2.4,0.2-3.5,0.1c-1.1-0.1-2.3-0.4-1-1.9
		C1423.7-672.3,1425.6-672.3,1427.3-671.3z"/>
	<path class="st22" d="M1501.2-666.5c-0.3-0.1-0.6-0.1-0.9-0.2c-1.4-0.7-2.2-1.7-1.6-3.3c0.6-1.7,2-1.5,3.5-1.3
		c1.3,0.1,2.4,0.8,3.5,0.7c-1.7-0.2-3.5-0.6-5.4-0.9c-1.9-0.3-2.9-1.6-2.9-3.5c0.1-2,1.4-2.8,3.3-3.1c2.1-0.2,4.1,0.2,6.1,0.6
		c-1.9-0.6-3.8-1-5.3-2.4c-0.9-0.9-1.3-2-0.9-3.2c0.4-1.3,1.4-2,2.7-2c4.1,0.2,8.3,0.3,11.7,3.2c0.9,0,2.2,0.6,2.7-0.4
		c0.4-0.9-0.9-1.4-1.3-2c-0.6-0.8-1.3-1.5-1.9-2.3c-1-1.3-1.7-2.7-0.2-4.2c1.4-1.3,2.9-1.4,4.4-0.1c3.1,2.6,6.5,4.7,10.2,6.4
		c2.4,1.1,4.5,1,6.9-0.2c12.1-5.8,24.4-10.9,37.9-12.2c6.4-0.6,12.4,0.1,16.8,5.6c1,2-0.2,3.2-1.4,4.3c-2.8,2.9-6.3,5-9.8,6.9
		c-8.1,4.2-16.7,6.8-25.7,8.5c-5,0.9-9.8,2-14.6,3.6c-2.4,0.8-5.1,0.1-7.4,1.4C1521.2-666.5,1511.2-666.5,1501.2-666.5L1501.2-666.5
		z"/>
	<path class="st27" d="M1531.3-666.5c0.2-0.6,0.6-1,1.2-1.2c9.4-2,18.7-4.6,28-6.7c10.1-2.4,19.7-6.1,27.6-13.2
		c1.1-1,2.1-2.1,2.3-3.7c5.8,6.4,7.2,17.5,2.7,24.9c8.7,0,17.2,0,25.7,0l0.2,0.2c-8.9,0.1-17.8,0.1-26.6,0.2
		c-1.1-0.6-2.3-0.3-3.5-0.3C1569.5-666.5,1550.4-666.5,1531.3-666.5L1531.3-666.5z"/>
	<path class="st14" d="M1514.8-682.1c-3.2-0.7-6.5-1.5-9.8-2.1c-1.3-0.2-3.2-0.8-3.8,1.1c-0.6,2,1.1,2.8,2.6,3.3
		c1.7,0.7,3.5,1.2,5.3,1.8c0.7,0.2,1.7,0.2,1.6,1.7c-3.1-0.3-6.1-0.7-9.2-0.9c-1.4-0.1-3.2-0.4-3.4,1.8c-0.2,2,1.2,2.7,2.9,3
		c2,0.3,4,0.7,6.1,1c0.9,0.2,2,0.1,2.5,1.5c-2.3,0.2-4.3-0.4-6.4-0.6c-1.3-0.2-2.7-0.8-3.6,0.3c-1,1.2,0.2,2.4,0.6,3.5
		c-16.1,0-32.1,0-48.2,0l-0.1-0.6c5.7-2.4,11.4-4.9,17.2-7.2c12.1-5,24.2-9.8,36.9-12.9c1.7-0.4,3.6,0.3,5.1-0.9
		C1512.8-686.5,1513.8-684.3,1514.8-682.1L1514.8-682.1z"/>
	<path class="st4" d="M1546.7-583.1c0-24.9,0-49.8-0.1-74.8c0-1.7,0.5-2.2,2.2-2.2c13.9,0.1,28,0,41.9,0c1.2,0,2.1,0,2.1,1.6
		c-0.1,12.4-0.2,24.7-0.2,37c-1,1.2-2.4,1.3-3.8,1.3c-4.3,0-8.4,0.1-12.7,0c-2.5-0.1-4.1,0.7-5,3.2c-0.5,1.3-1.3,2.4-2,3.5
		c-2.8,4.5-5.6,8.9-8.8,13.1c-3.2,5.5-7.2,10.6-10.9,15.8C1548.7-583.7,1548-582.8,1546.7-583.1L1546.7-583.1z"/>
	<path class="st2" d="M1592.6-552.2c-6.5-1.4-13.2-2.1-19.9-2.4c-1.9-0.1-2.5-0.7-2.5-2.6c0-10-0.2-19.9-0.2-29.9
		c0-0.8-0.4-2.1,0.8-2.2c3.3-0.2,2.2-2.4,2.3-4.3c-1.3-3.2-0.9-6.5,0.2-9.6c0.4-1.2,1.4-1.9,2.7-2c4.9-0.6,9.7-1,14.5-1.9
		c0.8-0.2,1.6,0.1,2.1,0.6C1592.6-588.4,1592.6-570.3,1592.6-552.2L1592.6-552.2z"/>
	<path class="st2" d="M1546.7-583.1c4.7-5.6,8.7-11.7,12.8-17.7c0.9-1,1.6-0.3,2,0.6c0.6,1,0.8,2.2,0.9,3.4c0.2,2.8,0.2,5.4,2.8,7.6
		c1.8,1.5,1.3,9.4-0.3,11.7c-0.2,6.7-0.3,13.5-0.4,20.2c0,2-0.6,2.9-2.8,3c-5,0.2-10,0.5-14.9,1.5
		C1546.5-563,1546.5-573.1,1546.7-583.1L1546.7-583.1z"/>
	<path class="st28" d="M1564.8-577.8c0-3.3,0-6.6,0-9.9c0-0.7,0.3-1.9-0.9-1.8c-2.7,0.2-2.4-1.7-2.5-3.3c-0.2-2.4-0.5-4.9-0.6-7.3
		c-0.1-0.9-0.3-1.3-1.3-0.7c2.8-4.2,5.8-8.3,8.3-12.7c6.9-0.3,13.9-0.1,20.8-0.2c1.5,0,3,0,4.1,1.3c0.2,2,0.2,3.9,0,5.9
		c-5.3,1.2-10.6,2-16,2.2c-2.1,0.1-2.7,0.9-2.8,2.8c-0.2,2.6-0.5,5.2-0.8,7.9c-0.9,1.3-0.2,3.9-3.1,3.9c-0.7,0-0.6,1.3-0.6,2.1
		c0,2.3-0.2,4.5,0.1,6.8c0.2,2.4-0.3,3.7-3.1,3.2C1566-577.7,1565.4-577.7,1564.8-577.8L1564.8-577.8z"/>
	<path class="st29" d="M1592.7-612.4c-7.4,0-14.8,0-22.2,0c-0.9,0-2.3,0.6-2.6-1c0.9-1.6,2.1-3.2,2.7-4.9c0.7-2.4,2-3,4.5-3
		c5.9,0.2,11.7,0,17.6,0C1592.6-618.4,1592.6-615.4,1592.7-612.4L1592.7-612.4z"/>
	<path class="st30" d="M1590.7-789.4c-1.7-0.5-2-1.7-1.7-3.2C1590.1-791.9,1591.8-791.4,1590.7-789.4z"/>
	<path class="st31" d="M1557.2-787.3c-1.4-1-3-0.4-4.6-0.5c-3.2-0.2-2.3-2.5-2.5-4.3c-0.2-1.8,0.2-2.9,2.4-2.9
		c4.3,0,4.3-0.1,4.6,4.3c0.1,0.7,0,1.4,1.1,1.1C1558.1-788.7,1557.8-787.9,1557.2-787.3L1557.2-787.3z"/>
	<path class="st32" d="M1577.7-792.7c0.7,0.1,1.4,0.2,2.1,0.2c2,0.3,2.7,1.2,1.6,3.2c-0.7,1.3-0.9,2.8-1.2,4.2
		c-0.2,0.8-0.5,1.3-1.3,1.3c-0.7,0-1.6,0.2-1.8-0.6c-0.6-2.5-0.6-5.2-0.6-7.8C1576.5-792.3,1577.3-792.6,1577.7-792.7L1577.7-792.7z
		"/>
	<path class="st33" d="M1559.8-778.4c4,0.1,6.4-1.3,8-4.1c0.4-0.6,0.8-1.6,1.7-0.9c0.9,0.6,0.2,1.4-0.2,2
		C1567.6-777.9,1563.9-776.5,1559.8-778.4L1559.8-778.4z"/>
	<path class="st34" d="M1569-776c-0.4,1-1.3,1.1-2.2,1.1c-0.6,0-1.3-0.2-1.3-0.9c0.2-1.1,1.3-1.1,2.1-1
		C1568.3-776.8,1568.8-776.7,1569-776L1569-776z"/>
	<path class="st35" d="M1567.6-797.5c-0.9-0.1-1.7-0.2-2.6-0.2c-1.7-0.1-2.6-0.6-2.4-2.4c0.2-1.8,0.7-3,2.8-2.8
		c1.3,0.2,2.8,0.2,4.1,0.3c1.9,0.1,3.5,0.1,3.3,2.8c-0.2,2.5-1.7,2.8-3.7,2.5C1568.5-797.5,1568-797.5,1567.6-797.5L1567.6-797.5
		L1567.6-797.5z"/>
	<path class="st36" d="M1567.3-787.9c-0.4,0-0.8,0-1.2,0c-3.9,0-5.4-2.2-4.3-6c0.3-0.9,1-1,1.8-1.1c1.7,0,3.3,0.2,5-0.1
		c2.8-0.3,3.9,0.7,3.7,3.6C1572.3-787.9,1572.5-787.9,1567.3-787.9L1567.3-787.9z"/>
	<path class="st37" d="M1555.5-791.4c0,1.1-0.2,2.1-1.3,2.1c-1.3,0.1-1.7-0.9-1.8-2.1c0-0.9,0.3-1.8,1.4-1.8
		C1555-793.2,1555.4-792.2,1555.5-791.4z"/>
	<path d="M1569.2-791.4c-0.1,1.2-0.5,2.3-1.8,2.3c-1.6,0-2.1-1.3-2-2.6c0-1.2,0.6-2.1,1.9-2C1568.7-793.8,1569.1-792.7,1569.2-791.4
		L1569.2-791.4z"/>
</g>
<g>
	<path class="st2" d="M430.5,425.4c-20.8,0-41.5,0-62.3,0c-1.2,0-2.3,0.1-3.3-0.5c-0.9-0.5-1.1-1.2-1.1-2
		c-0.1-13.6-0.2-27.3,0.1-40.9c0-0.1,0.1-0.3,0.1-0.5c1.4-2.1,3.9-2.6,5.7-4.3c1.2-0.5,2.6-0.3,3.7-0.5c1.5-0.1,2.9-0.6,2.9-2.5
		s-1.4-2.3-2.9-2.4c-1.6-0.1-3.1,0-4.7-0.1c-1-0.1-2.1,0-2.8-1c-0.3-0.9,0.3-1.6,0.7-2.2c2.6-3,4.7-6.2,6.2-9.9
		c0.6-1.3,1.5-2.2,3-2.4c3.7-0.5,7.1-0.2,10.8-0.3c4.4-0.1,5.8-1.2,6.5-5.5c2.9-16,5.8-31.9,8.8-47.8c1.3-7.1,2.6-14.2,3.9-21.4
		c0.2-1.2,0.1-2.6,1.6-3.1c6.2,2.6,12.6,4.7,18.6,7.7c1.5,0.7,2.9,1.5,4.5,2.2V425.4L430.5,425.4z"/>
	<path class="st3" d="M181.2,267.3c-0.6-7.9-1.4-15.9-1.8-23.8c-0.3-4.2,1.9-7.3,5.4-8.6c0.8-0.3,1.6-0.1,2.5-0.1
		c25.8,0,51.7,0,77.5,0c4.3,0,6.8,2.4,7.7,6.6c0.5,2.7,0.6,5.6,0.8,8.2c0.4,6.8,1.2,13.7,1.6,20.5c0.5,6.7,1.2,13.4,1.6,20.1
		c0.3,4.9,0.9,9.8,1,14.7c0.1,2.7,0.7,5.4,0.5,8c-0.5,4.1-2,7.5-6.2,8.9c-3.2,0.4-6.4,0.2-9.6,0.2c-1.6-0.5-3.5-0.1-5.1,0.1
		c-2.3,0.2-4.7-0.5-6.9-0.1c-2.6,0.2-5.3,0-7.9-0.1c-2.6,0.3-5,0.1-7.5,0.1c-0.8,0-1.6-0.1-1.9,1c0.1,1.1-0.1,2.2-0.5,3.2
		c0,0.7-0.1,1.4-0.3,2.1c-0.3,1.1-0.2,2.2-0.4,3.3c-0.1,0.8,0.4,1,1.1,1c0.9,0,1.7,0,2.6,0c3.7,0,7.1,0,10.7,0
		c2.9,0.1,3.6,1,2.6,3.9c-0.7,0.6-1.6,0.7-2.6,0.7c-5.6,0.1-11,0.1-16.5,0c-0.7,0-1.5-0.1-2.2-0.5c-1.3-1.5-0.7-3.3-0.5-4.9
		c1.6-11.2,2.9-22.5,4.7-33.7c0.8-4.8,0.6-4.8-4.1-4.8c-4.5,0-9,0.1-13.5,0c-1.8,0-2.6,0.6-3.1,2.5c-1.6,7.1-3.4,14.1-4.9,21.2
		c-0.1,0.6-0.3,1.2-0.5,1.7c-0.4,1.6-1.2,2.4-3,2.3c-4.3-0.3-8.6,0.2-12.8-0.3c-3.1-1.2-4.7-3.5-4.8-6.8c-0.5-1.6,0.2-3.4-0.5-5
		c0-0.3-0.1-0.5-0.1-0.8c-0.5-1.6,0.2-3.5-0.5-5l-0.1-1.2c-0.5-1.6,0.3-3.5-0.5-5c0-0.3,0-0.5-0.1-0.7c-0.5-1.6,0.3-3.5-0.5-5.1
		c0-0.3,0-0.5-0.1-0.8c-0.5-1.8,0.3-3.7-0.5-5.6c-0.1-0.1-0.1-0.3,0-0.4c-0.6-1.8,0.3-3.7-0.5-5.5l0,0c-0.6-1.7,0.3-3.7-0.5-5.4
		c0-0.3,0-0.5-0.1-0.8C181.1,271,181.8,269.1,181.2,267.3L181.2,267.3z"/>
	<path class="st2" d="M255.5,397.1c-0.6,0.6-0.4,1.5-0.4,2.2c-0.1,8-0.1,16-0.1,24c0,1.3-0.1,2.1-1.7,2.1
		c-16.1-0.1-32.3-0.1-48.4-0.1c-1.2-1.1-0.8-2.5-0.8-3.7c0-16.4,0-33,0-49.4c0-9.1,0-18.3,0-27.4c0-3.6,0.6-4.3,4.1-4.3
		c32.1,0,64.4,0,96.4,0c1.2,0,2.3-0.1,3.2,0.8c0.9,2.6-0.1,4.4-2.7,4.6c-2.7,0.2-5.6,0.5-8.3,0.6c-6.2,0.2-12.4,0.3-18.5,1.3
		c-6.9,1.2-13,3.9-16.7,10.2c-2.2,3.7-2.7,7.9-3.3,12c-0.8,7.2-1.5,14.4-1.4,21.6C256.9,393.6,257,395.6,255.5,397.1L255.5,397.1z"
		/>
	<path class="st4" d="M317.4,272.7c3.9-4.5,8.9-7.4,14.2-9.8c1.6-0.8,3.3-1.6,5-2.6c0.8-0.7,1.6-0.6,2.6-0.4
		c4.9,5,10.9,4.1,16.8,2.6c1.2-0.3,2.2-0.8,3.4-1.3c0.8-0.3,1.6-0.6,2.6,0.1c1.1,0.6,2.2,1.3,3.3,1.8c1.6,0.3,2.9,1,4.2,1.9
		c5.5,4.1,10.5,8.7,14,14.7c4.2,7.3,5.8,15.1,4.7,23.5c-1.5,10.2-2.9,20.4-5.4,30.4c-0.3,1.2-0.5,2.6-1.8,3.1
		c-6,0.3-12,0.1-18.1,0.1c-1.3,0-2.4-0.5-1.6-2c2.6-6.1,1.1-11.5-2.2-16.8c-3.5-3.8-7.9-4.7-13-4.1c-9.5,1.2-18.3,4.6-26.8,8.7
		c-3.1,1.5-5.8,1.6-8.7-0.1c-1.9-1.2-3.9-2.2-5.8-3.7c-0.8-0.6-1.8-1.5-2.7-0.5c-1,1,0.1,1.7,0.6,2.6c0.3,0.5,0.6,0.8,0.9,1.3
		c0.5,0.7,1,1.5,0.4,2.3c-0.6,0.8-1.5,0.7-2.3,0.4c-1.5-1.4-2.2-3.4-3.3-5c-0.8-1.1-1.7-2.2-2.8-3.1c-2.2-1.9-4.7-2.9-7.8-2.4
		c-1.2,0.3-2.5,0.7-3.7-0.1c-0.4-0.6,0.1-1.1,0.5-1.5c0.5-0.5,1-0.7,1.6-0.8c4.7-0.3,7-3.7,9.5-6.8c4.5-5.7,8-11.9,11.7-18.1
		c2.4-3.9,4.7-8,7.2-11.9C315.2,274.5,316,273.2,317.4,272.7L317.4,272.7z"/>
	<path class="st4" d="M255.5,397.1c0.5-9.1,0.7-18.3,1.9-27.5c0.7-5.7,1.6-11.2,5.9-15.6c5.2-5.2,11.7-7.2,18.7-7.8
		c7.8-0.6,15.6-0.9,23.4-1.2c2.4-0.1,2-2,2.6-3.3c0.4-1.2,1.4-1.3,2.4-1.3c2.6,0,5.4-0.2,8,0.1c0.6,0.1,1.3-0.1,2-0.1
		c2,0.1,3,1.1,3.3,3c0.1,0.5,0.1,0.9,0.1,1.3c0,19.3,0,38.5,0,57.8c0,0.5,0,1-0.1,1.6c-0.4,1.6-1.5,2.9-2.5,4.2
		c-3.6,4.8-7.2,9.6-10.9,14.3c-0.6,0.9-1.3,1.9-2.6,2.1c-1.5,1-3.1,0.5-4.6,0.5c-1.2,0-0.7-1.2-0.7-1.8c0-7.8,0.1-15.5,0.1-23.2
		c0-0.7-0.1-1.5-0.1-2.2c-1.3-1.3-0.8-2.9-0.6-4.5c0.5-6,0.4-12,1.2-18.1c0.1-0.5,0.1-1.1-0.5-1.5c-1.3-1.1-6.5-0.2-7.3,1.3
		c-7.7,13.7-16.8,26.4-25.8,39.2c-2,2.9-4.2,5.7-6.2,8.5c-0.7,1-1.6,1.8-2.7,2.4c-4.9,0.1-5,0.1-4.9-4.8
		C255.5,412.7,255.5,404.9,255.5,397.1L255.5,397.1z"/>
	<path class="st5" d="M318.2,341.5c-3.4,0.5-6.8-0.3-10.2,0.4c-0.8-0.5-1.6-0.4-2.4-0.4c-32.8,0-65.4,0-98.2-0.1
		c-2.2,0-2.4,0.9-2.4,2.6c0.1,26,0.1,52,0.1,78c0,1-0.1,2.1-0.1,3.1c-1.2,0-2.3,0-3.5,0c-1-0.7-1-1.7-1-2.8c-0.1-22.1,0-44.1,0-66.2
		c0-1.6,0.5-3.1,0.9-4.6c0.1-2.8,0-5.8,0.1-8.6c0.1-1.3-0.5-1.6-1.7-1.6c-11.3,0-22.6,0-34,0c-1.3,0-1.8,0.5-1.7,1.7
		c0.1,0.6,0,1.2,0,1.8c0,25.9,0,51.9,0,77.9c0,1,0.6,2.3-1.3,2.6c-2.2,0.3-2.2-1-2.2-2.6c0-21.4,0-42.8,0-64.2c0-4.9-0.1-9.9,0-14.8
		c0-1.6-0.3-2.6-2.2-2.4c-2.2,0.3-1.9-1.2-2-2.6c-0.1-1.6,0.3-2.5,2.2-2.4c13.5,0.1,26.8,0.1,40.3,0.1c0.5,0,0.9-0.1,1.3-0.1
		c0.9-0.8,2-1,3.1-1c6.9,0,13.8,0,20.7,0c1.2,0,2.3,0,3.1,1c7.1,0.2,14.1,0.2,21.2,0c0.2-0.2,0.5-0.4,0.6-0.5c1-0.5,2.1-0.6,3.1-0.3
		c2.6,0.8,5.2,0.5,7.9,0.6c9.1,0.1,18.3,0,27.5,0c1.3,0,2.6,0.1,3.7-0.5c7.7-0.4,15.3-0.4,23,0c13.8-0.4,27.6-0.2,41.3-0.3
		c1,0,2.1,0,3.1,0.1c0.9,0.1,1.8,0.2,2.2,1.3c-0.9,1.3-2.3,1-3.5,1c-11,0-22,0.1-33,0c-2.4,0-4.5-0.1-5.2,2.8
		C318.9,341,318.5,341.2,318.2,341.5L318.2,341.5z"/>
	<path class="st6" d="M380.9,336.6c1.6-4.3,2.3-8.9,3.3-13.4c1.6-7.3,2.7-14.7,3.3-22.1c1.1-12.9-4.3-23.2-14-31.4
		c-2.6-2.2-5.5-4.1-8.2-6.2c3.3-0.8,6.8-1,10.1-1.1c1.3-0.1,2.2,0.8,3.1,1.6c4.9,4.6,8.2,10.3,11,16.3c3.3,7.5,5.5,15.3,6.7,23.5
		c0.1,0.4,0.1,0.7,0,1.2c2-11.2,4.1-22.5,6.2-33.7c0.2-0.9,0.3-1.7,0.3-2.6c-0.2-2.2-1.2-3.4-3.3-3.9c-1.2-0.4-2.7-0.2-3.7-1.7
		c1.3-0.3,2.4-0.3,3.5-0.1c2.1-0.1,4.1,0.4,6.1,0.9c3.1,0.9,4.3,3.3,3.7,6.3c-0.5,2.8-1,5.8-1.5,8.6c-1.6,8.4-3.3,16.9-4.8,25.3
		c-3,16.1-5.9,32.1-8.9,48.3c-0.6,3.3-2.6,4.9-5.9,4.9c-4.1,0.1-8.2,0-12.4,0c-0.5-0.4-0.6-0.9-0.5-1.4c1.3-4.9,2.4-9.9,4.5-14.5
		c1.2-0.8,2.4-0.5,3.7-0.6c0.9-0.1,2.1,0.2,2.2-1.3s-1-1.4-2-1.5c-0.8-0.1-1.6-0.1-2.4-0.6C380.8,337,380.8,336.8,380.9,336.6
		L380.9,336.6z"/>
	<path class="st2" d="M260.4,425.3c6.5-8.9,13.1-17.7,19.2-26.8c5.4-8,10.9-16,15.4-24.6c0.5-1,1.2-1.4,2.3-1.3
		c1.6,0.1,3.3,0.1,4.9,0c1.3-0.1,1.7,0.3,1.6,1.7c-0.5,7.9-1,15.8-1.4,23.6c-0.6,0.8-0.4,1.7-0.4,2.6c-0.1,7.6-0.1,15.1-0.1,22.6
		c0,1.5-0.5,2.1-2,2.1C286.8,425.4,273.6,425.4,260.4,425.3L260.4,425.3z"/>
	<path class="st7" d="M227.2,336.5c-8.9,0.2-17.9,0.2-26.8,0c1-4.5,2-8.9,3.1-13.3c0.5-1.6,0.1-2-1.6-1.9c-3.3,0.1-6.4,0-9.7,0
		c-0.9,0-1.8,0.1-2.6-0.5c4.1,0,8.3-0.1,12.4,0c1.5,0,2.1-0.5,2.5-1.9c1.8-8,3.7-16,5.6-24c0.5-1.7,1-2.6,2.9-2.5
		c5.9,0.1,11.9,0.1,17.8,0c1.9,0,2.5,0.6,2.2,2.6c-1.1,7.6-2,15.2-3.1,22.8C229,324,228,330.2,227.2,336.5L227.2,336.5z"/>
	<path class="st2" d="M201.4,351.7c0,17.4,0.1,34.9,0.1,52.3c0,7.1,0.1,14.1,0.1,21.4c-5.2,0-10.3,0-15.5,0.1
		c-1.9,0.1-2-1.2-2.1-2.5c-0.1-3.3-0.2-6.6,0-9.9c0.5-7.4,1.2-14.7,2.6-21.9c2.7-13.3,7.3-25.9,13.9-38
		C200.8,352.7,201.1,352.2,201.4,351.7L201.4,351.7z"/>
	<path class="st8" d="M381,336.7c0.8,0,1.6,0.1,2.5,0.1c2.7,0,3.7,1.2,2.9,3.8c-0.3,0.9-0.9,0.8-1.6,0.9c-1.6,0.1-3.5,0.1-5.1,0.1
		c-0.8,0.8-1.7,0.8-2.7,0.8c-2.7,0-5.6,0-8.3,0c-2.8,0-3,0.3-3.1,3.1c0,6.8,0,13.6,0,20.4c0,1.7,0,3.5-0.2,5.1
		c0.4,2.3,0.3,4.5,0.1,6.8c0.2,1.2,0.2,2.4-0.7,3.3c0,14.1-0.1,28.4-0.1,42.5c0,0.5,0.1,0.9,0.2,1.3c-1.2,0.8-2.4,0.4-3.7,0.5
		c-0.7-0.5-0.8-1.2-0.9-1.9c-0.3-0.9-0.2-1.8-0.2-2.6c0-11.7,0-23.5,0-35.1c0-1,0.1-2.1,0.2-3.1c-0.3-1.6-0.2-3.1,0-4.7
		c-0.2-2.3-0.2-4.5,0-6.8c-0.3-4.3-0.1-8.7-0.1-13c-0.1-4.4,0-8.9,0-13.2c0-1.6-0.6-2.4-2.2-2.4c-9.6,0-19.1,0-28.6,0
		c-1.6,0-2.4,0.8-2.4,2.5c0,2.6,0,5.1,0,7.7c0,14.1,0,28.4,0.1,42.6c0,1.7-0.5,3.5-0.1,5.1c-0.1,7.6,0.3,15.1-0.1,22.6
		c0.1,0.9,0.1,1.7-0.6,2.5c-1.2,0-2.3,0-3.4,0c-0.5-0.5-0.8-1.1-0.8-1.8c0.1-3.8,0.1-7.8,0.1-11.6c0-2.2,0-4.5,0.7-6.6
		c0-20.2,0-40.3,0-60.5c0-2.1-1.1-3.2-3.2-3.3c-0.4,0-0.7-0.1-1.2-0.1c0.1-0.4,0.2-0.7,0.3-1.1c0.5-2.3,1.8-3.4,4.2-3.4
		c12.7,0,25.3-0.1,38-0.1C367.5,336.5,374.2,336.7,381,336.7L381,336.7z"/>
	<path class="st2" d="M317.4,272.7c-6.1,8.2-10.7,17.5-16.2,26.1c-2.6,4-5.4,7.9-8.7,11.4c-1.3,1.4-2.6,2.6-4.8,2.4
		c-1-0.1-2,0.5-3,0.8c-1.6,0.4-1.5-0.8-1.6-1.7c-0.7-2.6-0.6-5.4-0.8-8c-0.5-6-0.8-12-1.5-18.1c-0.1-1.2-0.3-2.4,1-3.3
		c10.1-4.3,20.6-7.2,31.4-9.4C314.5,272.9,316,272.2,317.4,272.7L317.4,272.7z"/>
	<path class="st9" d="M281.8,282.6c0.5,7.3,1,14.7,1.5,22c0.2,2.6,0.5,5,0.6,7.6c0.1,0.6-0.1,1.4,0.9,1.5c-0.3,0.3-0.5,0.5-0.8,0.8
		c0.5,2.6-1.3,5.8-4.1,6.9c-2.7,1.2-5.8,1.5-8.6-0.2c3.7-1.4,5.3-4.5,5.4-8c0.1-5.8-0.6-11.4-1.2-17.2c-0.3-2.9-0.4-5.8-0.6-8.7
		c-0.8-8.9-1.2-18-2.2-26.9c-0.5-4.8-0.6-9.8-1-14.7c-0.3-3.3-0.2-6.6-2.9-9c-1.3-1.2-2.6-1.6-4.2-1.6c-17.6,0.1-35.3,0.1-52.9,0
		c-9,0-18.1-0.1-27-0.1c0.9-0.5,1.9-0.4,2.9-0.4c25.3,0,50.4-0.1,75.7-0.1c2.4,0,4.8,0.1,7.2,0.1c4.5,0.1,7.8,2.8,8.1,7.3
		c0.6,7.5,1.2,14.9,1.7,22.4C280.7,270.4,281.3,276.4,281.8,282.6L281.8,282.6z"/>
	<path class="st10" d="M399,262.8l-2.6,0.2v0.2c0.8,0.2,1.6,0.5,2.4,0.5c3.7-0.1,5.2,3.3,4.7,6.8c-1.5,8.4-3.1,16.7-4.7,25.1
		c-0.7,3.7-1.3,7.7-2,11.4c-0.1,0.4-0.1,0.8-0.7,0.9c-1-4.8-1.6-9.7-2.9-14.3c-2.6-8.9-5.8-17.6-11.7-25.1c-1.7-2.2-3.7-4.2-6-6
		c6.1-0.6,12.2-0.4,18.3-0.1C395.4,262.3,397.2,262.1,399,262.8L399,262.8z"/>
	<path class="st11" d="M330.9,233.1c0.5-3,0-6.1,0.3-9.1c0.2-2.3,1.2-3.1,3.2-3.5c8.5-1.4,16.6,0.5,24.6,2.7
		c0.7,0.2,1.2,0.6,1.4,1.3c2.9,8.4,2.9,16.5-1.6,24.5c-2-0.6-1.4-2.4-1.5-3.8c0-1.2,0.6-2.1,1.5-2.9c0.5-0.9-0.4-1.1-0.8-1.5
		c-1.3-0.7-2.6-1-4-0.9c-1.8-0.5-3.7-0.4-5.3-1.5c-0.8-0.7-1-1.6-1-2.6c-0.1-1-0.1-1.9-0.1-2.9c-0.1-5.8,0.9-5-5-5.1
		c-2-0.1-4,0.4-5.9,0.9c-2.9,0.8-3.4,1.6-2.4,4.4C333,234.1,332,234.2,330.9,233.1L330.9,233.1z"/>
	<path class="st12" d="M354.2,239.4c1.6-1,2.7,0.1,4,0.8c0.2,1,1.1,1.6,1.3,2.5c-1.1,0.3-1.3,1.3-1.6,2.1c-0.3,1.6-1,3.1-2.2,4.2
		c-1.1,1-1,2.5-1.3,3.7c-1.6,7.4-3.1,8.7-10.7,8.7c-1.5,0-2.9-0.2-4.3-0.8c-0.8-0.1-1.7-0.2-2.6-0.3c-1.5-0.5-2.1-1.5-2.4-2.9
		c-0.9-4.2-1.6-8.5-1.9-12.8c0.3-0.5,0.9-0.6,1.3-1.1c0.5-0.6,0.6-1.3,0.9-1.9c0.1-0.3,0.1-0.6,0.2-0.9c0.2-0.8,0.6-1.4,1.5-1.3
		c0.8,0.1,1,0.7,1.2,1.5c0.5,3.1,0.5,3.1,3.7,3.1c0.6,0,1.2,0,1.8,0c2,0,3.3-1,3.7-3.1c0.3-1.7,1.3-2.1,3.4-1.3c0.3,2-0.5,4,0.5,6.2
		c1.2-2,2-3.7,0.8-5.8C351.9,239.2,353.2,240,354.2,239.4L354.2,239.4z"/>
	<path class="st13" d="M326,425.3c0-0.7,0.1-1.5,0.1-2.2c1.6-1.9,3.9-1.5,6-1.7c1.5-0.3,2.9-0.1,4.5-0.4c1.5-0.3,2-1,2-2.4
		c-0.3-3.9,0.5-7.9,0.5-11.8c0-0.8,0.1-1.6,0.5-2.4c0.1-0.1,0.1-0.2,0.1-0.2c3.3-0.6,3.4-3,2.9-5.5c-0.5-2.9,1.3-4.7,2.9-6.5
		c0.3-0.3,0.6-0.4,1,0c0.8,1.4,0.5,2.6-0.6,3.7c-0.8,0.7-1,1.6-1,2.6c0,6.7,0,13.3,0,20c0,1.6,0.6,2.4,2.2,2.6
		c3.7,0.5,7.5,0.5,11.1,1.3c1.1,0.3,2.2,0.5,2.9,1.5c0.1,0.5,0.1,1,0.2,1.5C349.5,425.3,337.7,425.3,326,425.3L326,425.3z"/>
	<path class="st14" d="M339.3,260.7c3.1-0.4,6.2,0.3,9.4-0.5c2.2-0.5,3.7-1.6,4-3.9c0.2-1,0.5-1.8,0.6-2.8c0.3-2.6,0.9-4.9,3.2-6.6
		c0.6-0.5,0.9-1.3,1.4-2c-0.2,1.5,0.1,2.9,0.8,4.1c1.1,4.1,2.2,8.4,3.3,12.5c-1.2,0.5-2.3,0.6-3.4,1.2c-5.1,2.6-10.5,2.2-15.8,1.3
		C341,263.6,340.4,261.8,339.3,260.7L339.3,260.7z"/>
	<path class="st15" d="M322.6,405.3c0.1,6.2,0.5,12.4-0.3,18.5c-0.9,1.4-2.4,1.2-3.7,1.1c-3.7,0.5-7.3,0.8-11-0.1
		C312.6,418.3,317.6,411.8,322.6,405.3L322.6,405.3z"/>
	<path class="st16" d="M334,232.7c-2,0.3-2.1-0.8-1.5-2.3c0.5-1.5,1.9-2,3.3-2.5c3.7-1.2,7.7-1.3,11.5-1c1.3,0.1,1.3,0.7,1.3,1.8
		c-0.1,3.1-0.7,6.2,0.3,9.3c-0.5,0.7-1.3,0.6-2,0.5c-3.3-1-6.5-0.5-9.8-0.4c-1.7,0.1-3.6,0.3-5.2-0.8v-0.5c0.1-0.6,0.7-0.8,1.3-1.1
		C335.2,234.8,335.2,234.8,334,232.7L334,232.7z"/>
	<path class="st17" d="M331.9,237.2c3.7,0.1,7.3,0.1,11,0.1c2,0,4,0.1,5.9,0.6c1.8,0.5,3.7,1,5.5,1.5c-0.6,1.6-1.9,0.7-2.9,1
		c-0.6,0.5-1.2,0.4-1.6-0.2c-2.7-0.5-2.8-0.5-2.6,2.2c0.1,1.8-0.5,2.4-2.2,2.3c-2-0.1-4-0.1-6,0c-1.5,0.1-2.3-0.5-2-2
		c0.1-0.4,0.1-0.7,0-1.2c-0.1-0.6,0.3-1.6-0.7-1.6c-0.8,0-0.5,0.8-0.7,1.4c-0.1,0.5-0.3,0.8-0.5,1.3c-1.3,0.4-1.4,0.4-1.5-1.2
		c-0.1-1.2-0.1-2.2-1.6-2.2c-1.1,0-2.2,0.1-2.2,1.6c-0.1,1.3,0.2,2.4,1.8,2.5c1,0.1,2.4-0.6,2.7,1.1c-0.5,0.5-1.1,0.3-1.6,0.5
		c-2.8-0.2-4.3-1.4-4.3-3.6C328,238.8,329.2,237.4,331.9,237.2L331.9,237.2z"/>
	<path class="st18" d="M334,232.7c1.2-0.3,1.8,0.1,1.9,1.3c0.1,1.2-0.1,2-1.5,2.2c-0.8,0.1-1.7,0.3-2.6,0.5c-2.2-0.5-2.6-1.8-1-3.7
		C331.9,233.1,333.1,233.5,334,232.7L334,232.7z"/>
	<path class="st19" d="M318.6,425c1.3-0.4,2.5-0.7,3.7-1.1c0.1,0.5,0.2,1,0.3,1.5C321.3,425.3,319.9,425.8,318.6,425z"/>
	<path class="st7" d="M181.6,273.5c1,1.7,0.3,3.7,0.5,5.4C181.5,277.3,181.6,275.4,181.6,273.5z"/>
	<path class="st7" d="M182.1,279c1,1.7,0.3,3.7,0.5,5.5C181.9,282.7,182.1,280.8,182.1,279z"/>
	<path class="st7" d="M182.5,284.9c1,1.8,0.3,3.7,0.5,5.6C182.4,288.5,182.4,286.7,182.5,284.9z"/>
	<path class="st7" d="M181.2,267.3c1,1.8,0.3,3.7,0.5,5.5C181.1,271,181.1,269.2,181.2,267.3z"/>
	<path class="st7" d="M183,291.1c0.9,1.6,0.4,3.4,0.5,5.1C182.9,294.5,183,292.8,183,291.1z"/>
	<path class="st7" d="M183.4,297c1,1.6,0.4,3.4,0.5,5C183.3,300.3,183.4,298.7,183.4,297z"/>
	<path class="st7" d="M183.9,303.2c0.9,1.6,0.4,3.4,0.5,5C183.8,306.7,183.8,304.9,183.9,303.2z"/>
	<path class="st7" d="M184.4,309.1c0.9,1.6,0.3,3.4,0.5,5C184.2,312.4,184.4,310.7,184.4,309.1z"/>
	<path class="st4" d="M364.7,370.9c-0.1-9.3-0.1-18.6-0.1-27.9c0-1.2,0.5-1.6,1.6-1.5c4.5,0.1,8.9,0.1,13.5,0.1
		c-0.8,4.5-2.4,8.8-3.7,13.2c-0.3,0.8-0.5,1.6-0.6,2.4c-0.5,0.3-1.3,0.2-1.6,1c-1.6,4.8-4.7,8.9-8,12.8
		C365.5,371.2,365.1,371.6,364.7,370.9L364.7,370.9z"/>
	<path class="st20" d="M364.7,370.9c0.4-0.1,0.7-0.1,1.1-0.1c2.5,0.1,4.9,0.1,7.4,0.1c2.6,0.1,4.1,1.3,4.2,3.4
		c0.1,2.2-1.6,3.5-4.3,3.6c-1.2,0.1-2.4,0.1-3.7,0.1c-1.6,0.6-3.3,1.4-4.8-0.1C364.7,375.5,364.7,373.2,364.7,370.9L364.7,370.9z"/>
	<path class="st21" d="M364.7,377.8c1.6-0.1,3.2-0.3,4.8,0.1c-1.2,1.6-2.9,2.6-4.8,3.1C364.7,380,364.7,378.9,364.7,377.8
		L364.7,377.8z"/>
	<path class="st22" d="M271.3,321.2c1.3,0,2.6,0.1,3.7,0.1c4.8,0,6.4-1.1,8.2-5.6c0.2-0.5,0.4-0.8,0.5-1.2c1-0.1,1.9-0.3,2.9-0.5
		c5.6-0.8,9.1,0.9,12,5.9c0.1,1.1-0.8,1.2-1.5,1.3c-10.3,1.8-19.8,5.9-29.4,9.8c-3.7,1.5-7.5,3-11,4.7c10.3,0,20.7,0,31.1,0
		c0.9,0,1.8,0.2,2.6,0.5c0.3,0.1,0.5,0.3,0.5,0.5c-0.8,0.5-1.7,0.3-2.6,0.3c-11,0-22.1,0-33.1,0c-2.2,0-4.5-0.2-6.8-0.3
		c-0.4-2.3-1.8-3.5-4.2-3.5c-3.1,0-6.2,0-9.4,0c-1.5-0.5-3.2,0.1-4.4-1.3c0.1-1.2-0.5-2.4,0.5-3.5c1.5-1.4,3.1-0.2,4.5-0.3
		c-1.3-0.7-3.4-0.5-4.5-2.2c0.7-1,0.2-2.1,0.5-3.1c1-0.9,2.1-0.6,3.2-0.5c2.5,0.3,4.8,1.1,7.3,1.4c0-1-1-1.5-0.6-2.4
		c2.7,0,5.4,0,8.2-0.1c1.5,0.5,3.1,0.6,4.5,1.3c0.6,0.3,1.5,0.5,2.2,0.1c1.7-0.7,3.7-1,5.4-1.5L271.3,321.2L271.3,321.2z"/>
	<path class="st23" d="M241.6,321.4c0.3,0.5,0.6,0.8,1,1.2c0.5,0.6,1.7,1.2,1.3,1.8c-0.5,0.9-1.7,0.3-2.6,0.1
		c-3.1-0.6-6.2-1.6-9.5-1.6c-0.3-1.5,0.8-1.6,1.8-1.6C236.3,321.3,238.9,321.3,241.6,321.4L241.6,321.4z"/>
	<path class="st24" d="M261.9,321.3c-4.6,3-8.2,3-12,0C253.8,321.3,257.8,321.3,261.9,321.3z"/>
	<path class="st25" d="M231.3,325.9l7.6,2.4c-0.1,0.3-0.1,0.5-0.2,0.8c-2.5-0.3-4.8-0.5-7.3-0.7
		C231.4,327.6,231.4,326.8,231.3,325.9L231.3,325.9z"/>
	<path class="st7" d="M234.9,332.9c3.5,0,6.9,0,10.3,0c3.8,0,3.6-0.5,3.6,3.7l-0.3,0.1l-0.3-0.1c0-3.2,0-3.2-3.4-3.2
		c-3.6,0-7.1-0.1-10.7-0.1C234.4,332.9,234.4,332.5,234.9,332.9L234.9,332.9z"/>
	<path class="st26" d="M234.9,332.9c-0.2,0.1-0.5,0.3-0.6,0.4c-0.9,0-1.8,0.1-2.7,0.1c-0.8-0.1-1.7-0.3-0.8-1.5
		C232.2,332.2,233.6,332.2,234.9,332.9z"/>
	<path class="st22" d="M291.3,336.5c-0.3-0.1-0.5-0.1-0.7-0.1c-1.1-0.5-1.6-1.3-1.2-2.6s1.5-1.2,2.6-1c1,0.1,1.8,0.6,2.7,0.5
		c-1.3-0.2-2.7-0.5-4.1-0.7c-1.5-0.3-2.2-1.2-2.2-2.7c0.1-1.6,1.1-2.2,2.6-2.4c1.6-0.2,3.1,0.1,4.7,0.5c-1.5-0.5-2.9-0.8-4-1.8
		c-0.7-0.6-1-1.5-0.7-2.5c0.3-1,1.1-1.6,2-1.5c3.1,0.2,6.3,0.3,8.9,2.4c0.7,0,1.6,0.5,2-0.3c0.3-0.6-0.6-1.1-1-1.6
		c-0.5-0.6-1-1.2-1.5-1.7c-0.8-1-1.3-2-0.2-3.2c1.1-1,2.2-1.1,3.4-0.1c2.4,2,4.9,3.7,7.8,4.8c1.8,0.8,3.5,0.8,5.3-0.1
		c9.2-4.4,18.6-8.3,28.9-9.3c4.8-0.5,9.5,0.1,12.8,4.3c0.8,1.5-0.2,2.4-1.1,3.3c-2.2,2.2-4.8,3.8-7.5,5.2
		c-6.2,3.2-12.8,5.2-19.6,6.5c-3.7,0.7-7.5,1.6-11.1,2.7c-1.8,0.6-3.9,0.1-5.7,1.1C306.6,336.5,298.9,336.5,291.3,336.5L291.3,336.5
		z"/>
	<path class="st27" d="M314.2,336.6c0.1-0.5,0.5-0.8,0.9-0.9c7.1-1.6,14.2-3.5,21.4-5.1c7.7-1.8,15.1-4.7,21-10.1
		c0.8-0.8,1.6-1.6,1.7-2.8c4.5,4.8,5.6,13.3,2,19c6.7,0,13.1,0,19.6,0l0.1,0.1c-6.8,0.1-13.6,0.1-20.4,0.1c-0.8-0.5-1.7-0.3-2.6-0.3
		C343.4,336.6,328.9,336.6,314.2,336.6L314.2,336.6z"/>
	<path class="st14" d="M301.7,324.7c-2.5-0.5-4.9-1.2-7.5-1.6c-1-0.2-2.5-0.6-2.9,0.8c-0.5,1.5,0.8,2.1,2,2.6c1.3,0.5,2.7,0.9,4,1.4
		c0.5,0.2,1.3,0.2,1.2,1.3c-2.4-0.3-4.7-0.5-7-0.6c-1.1-0.1-2.4-0.3-2.6,1.4c-0.1,1.6,0.9,2,2.2,2.3c1.6,0.3,3.1,0.5,4.7,0.8
		c0.7,0.1,1.5,0.1,1.9,1.2c-1.7,0.1-3.3-0.3-4.8-0.5c-1-0.1-2-0.6-2.7,0.3c-0.8,0.9,0.1,1.8,0.5,2.6c-12.2,0-24.6,0-36.8,0l-0.1-0.5
		c4.3-1.8,8.7-3.7,13.1-5.6c9.2-3.8,18.4-7.5,28.2-9.9c1.3-0.3,2.7,0.3,3.9-0.7C300.2,321.3,300.9,323,301.7,324.7L301.7,324.7z"/>
	<path class="st4" d="M326,400.2c0-19,0-38-0.1-57.1c0-1.3,0.4-1.6,1.6-1.6c10.7,0.1,21.4,0,31.9,0c0.9,0,1.6,0,1.6,1.2
		c-0.1,9.4-0.1,18.9-0.2,28.2c-0.8,0.9-1.8,1-2.9,1c-3.3,0-6.4,0.1-9.7,0c-1.9-0.1-3.1,0.5-3.7,2.4c-0.4,1-1,1.8-1.6,2.7
		c-2.1,3.5-4.3,6.8-6.8,9.9c-2.5,4.2-5.6,8-8.4,12C327.6,399.7,327,400.4,326,400.2L326,400.2z"/>
	<path class="st2" d="M361.1,423.8c-5-1.1-10-1.6-15.2-1.8c-1.5-0.1-1.9-0.5-1.9-2c0-7.7-0.1-15.2-0.2-22.8c0-0.6-0.3-1.6,0.6-1.6
		c2.6-0.1,1.6-1.8,1.7-3.3c-1-2.5-0.6-4.9,0.1-7.3c0.3-0.9,1.1-1.5,2-1.6c3.7-0.5,7.4-0.8,11-1.5c0.6-0.1,1.2,0.1,1.6,0.5
		C361.1,396.1,361.1,410,361.1,423.8L361.1,423.8z"/>
	<path class="st2" d="M326,400.2c3.7-4.3,6.6-8.9,9.8-13.5c0.7-0.8,1.2-0.3,1.5,0.5c0.5,0.8,0.6,1.6,0.6,2.6
		c0.1,2.2,0.1,4.1,2.1,5.8c1.4,1.2,1,7.1-0.3,8.9c-0.1,5.1-0.3,10.3-0.3,15.4c0,1.6-0.5,2.2-2.2,2.3c-3.7,0.1-7.7,0.4-11.3,1.2
		C325.8,415.5,325.8,407.8,326,400.2L326,400.2z"/>
	<path class="st28" d="M339.8,404.3c0-2.6,0-5,0-7.6c0-0.5,0.3-1.5-0.6-1.4c-2,0.1-1.8-1.3-1.9-2.6c-0.2-1.8-0.4-3.7-0.5-5.6
		c-0.1-0.7-0.3-1-1-0.5c2.2-3.2,4.5-6.3,6.3-9.7c5.3-0.3,10.6-0.1,15.9-0.1c1.2,0,2.3,0,3.1,1c0.2,1.5,0.2,3,0,4.5
		c-4,0.9-8,1.6-12.2,1.6c-1.6,0.1-2,0.7-2.1,2.2c-0.1,2-0.4,3.9-0.6,6c-0.7,1-0.1,2.9-2.4,3c-0.5,0-0.5,1-0.5,1.6
		c0,1.7-0.1,3.5,0.1,5.2c0.2,1.8-0.3,2.8-2.4,2.5C340.7,404.4,340.3,404.4,339.8,404.3L339.8,404.3z"/>
	<path class="st29" d="M361.1,377.8c-5.7,0-11.3,0-17,0c-0.7,0-1.7,0.5-2-0.8c0.7-1.2,1.6-2.4,2-3.7c0.5-1.8,1.6-2.3,3.5-2.3
		c4.5,0.1,8.9,0,13.5,0C361.1,373.2,361.1,375.5,361.1,377.8L361.1,377.8z"/>
	<path class="st30" d="M359.6,242.8c-1.3-0.4-1.6-1.3-1.3-2.5C359.2,240.9,360.4,241.2,359.6,242.8z"/>
	<path class="st31" d="M334,244.3c-1.1-0.8-2.3-0.3-3.5-0.4c-2.5-0.1-1.7-1.9-1.9-3.3c-0.2-1.4,0.1-2.2,1.8-2.2
		c3.3,0,3.3-0.1,3.6,3.3c0.1,0.5,0,1.1,0.8,0.8C334.7,243.3,334.5,243.9,334,244.3L334,244.3z"/>
	<path class="st32" d="M349.7,240.2c0.5,0.1,1.1,0.1,1.6,0.2c1.6,0.3,2,0.9,1.2,2.5c-0.5,1-0.6,2.1-0.9,3.2c-0.1,0.6-0.4,1-1,1
		c-0.5,0-1.2,0.1-1.4-0.5c-0.5-1.9-0.5-3.9-0.5-5.9C348.8,240.5,349.3,240.3,349.7,240.2L349.7,240.2z"/>
	<path class="st33" d="M336.1,251.2c3.1,0.1,4.8-1,6.1-3.1c0.3-0.5,0.6-1.2,1.3-0.6c0.6,0.5,0.2,1.1-0.1,1.6
		C341.9,251.5,339.2,252.6,336.1,251.2L336.1,251.2z"/>
	<path class="st34" d="M343,253c-0.3,0.8-1,0.8-1.6,0.8c-0.5,0-1-0.2-1-0.6c0.2-0.8,1-0.8,1.6-0.8C342.5,252.4,342.9,252.5,343,253
		L343,253z"/>
	<path class="st35" d="M341.9,236.6c-0.6-0.1-1.3-0.1-2-0.2c-1.3-0.1-2-0.5-1.8-1.8c0.1-1.4,0.5-2.3,2.2-2.2c1,0.1,2.1,0.2,3.1,0.3
		c1.5,0.1,2.7,0.1,2.6,2.2c-0.2,1.9-1.3,2.1-2.8,1.9C342.6,236.6,342.3,236.6,341.9,236.6L341.9,236.6L341.9,236.6z"/>
	<path class="st36" d="M341.7,244c-0.3,0-0.6,0-0.9,0c-2.9,0-4.1-1.6-3.3-4.6c0.3-0.7,0.8-0.8,1.4-0.8c1.3,0,2.6,0.1,3.7-0.1
		c2.2-0.3,2.9,0.5,2.8,2.7C345.6,244,345.7,244,341.7,244L341.7,244z"/>
	<path class="st37" d="M332.8,241.2c0,0.8-0.2,1.6-1,1.6c-1,0.1-1.3-0.7-1.4-1.6c0-0.7,0.3-1.4,1.1-1.4
		C332.4,239.9,332.6,240.7,332.8,241.2z"/>
	<path d="M343.2,241.2c-0.1,0.9-0.4,1.7-1.4,1.7c-1.2,0-1.6-1-1.6-2c0-0.9,0.5-1.6,1.5-1.6C342.8,239.4,343.1,240.3,343.2,241.2
		L343.2,241.2z"/>
</g>
</svg>
