<?xml version="1.0" encoding="utf-8"?>
<!-- Generator: Adobe Illustrator 26.1.0, SVG Export Plug-In . SVG Version: 6.00 Build 0)  -->
<svg version="1.1" id="Capa_1" xmlns="http://www.w3.org/2000/svg" xmlns:xlink="http://www.w3.org/1999/xlink" x="0px" y="0px"
	 viewBox="0 0 50 50" style="enable-background:new 0 0 50 50;" xml:space="preserve">
<style type="text/css">
	.st0{fill:#FFFFFF;}
</style>
<g>
	<path class="st0" d="M25.8,26c-0.2,5.1-2.6,8.9-7.2,11.3c-0.8,0.4-1.5,0.4-2.2-0.3c-2.7-2.5-5.5-5-6.9-8.5c-1.4-3.4-1.7-6.8,0.6-10
		c3.6-4.9,11-4.3,13.9,1C25.3,21.7,25.8,23.7,25.8,26z"/>
	<path class="st0" d="M28.1,16.7c2.8-2,6.5-2.1,9.5-0.2c3,1.8,4.4,5.2,3.9,8.9c-0.5,3.3-2.1,6-4.4,8.3c-1.4,1.5-2.9,2.8-4.4,4.2
		c-2.7,2.5-5.4,5-8.2,7.6c-0.9-1.1-2.1-2.4-3.3-3.8c4.4-2.5,7.6-6,9-11C31.6,25.7,30.7,21.1,28.1,16.7z"/>
	<path class="st0" d="M16,12.5c-2,0-3.5-1.5-3.5-3.5c0-1.9,1.6-3.4,3.5-3.4c1.8,0,3.5,1.6,3.5,3.4C19.6,11,18,12.5,16,12.5z"/>
	<path class="st0" d="M36.3,9.1c0,2-1.4,3.4-3.4,3.4c-2.1,0-3.5-1.4-3.4-3.5c0-1.9,1.5-3.4,3.5-3.4C34.8,5.7,36.3,7.2,36.3,9.1z"/>
</g>
</svg>
